/* XPM */
static char *_574843160880[] = {
/* columns rows colors chars-per-pixel */
"64 64 125 2 ",
"   c black",
".  c gray3",
"X  c #101010",
"o  c #181818",
"O  c #212118",
"+  c #292118",
"@  c gray16",
"#  c #313121",
"$  c #393131",
"%  c #393939",
"&  c #5A3108",
"*  c #524218",
"=  c #5A4A21",
"-  c #635221",
";  c #7B5A21",
":  c #6B6339",
">  c #4A4A42",
",  c #525242",
"<  c gray32",
"1  c #5A5A52",
"2  c #5A5A5A",
"3  c #5A634A",
"4  c #6B6B42",
"5  c #6B6B4A",
"6  c #73734A",
"7  c #63635A",
"8  c #6B6B5A",
"9  c #7B7B5A",
"0  c #6B6B63",
"q  c #73736B",
"w  c #737B73",
"e  c #7B7B73",
"r  c #9C1800",
"t  c #8C4A08",
"y  c #944210",
"u  c #945A10",
"i  c #B55A18",
"p  c #946B18",
"a  c #B57B10",
"s  c #8C7B39",
"d  c #AD7321",
"f  c #AD7B31",
"g  c #CE6B18",
"h  c #846B42",
"j  c #B58410",
"k  c #BD8410",
"l  c #C68C18",
"z  c #DE8410",
"x  c #CE9410",
"c  c #F79410",
"v  c #EFAD18",
"b  c #E7B518",
"n  c #FFB518",
"m  c #DE8429",
"M  c #CE9C29",
"N  c #F79C29",
"B  c #FFC618",
"V  c #FFD618",
"C  c #E7C621",
"Z  c #FFDE21",
"A  c #FFD631",
"S  c #F7E721",
"D  c #FFE721",
"F  c #FFEF21",
"G  c #FFF721",
"H  c #FFFF21",
"J  c #84845A",
"K  c #A58C4A",
"L  c #AD9C5A",
"P  c #8C8C63",
"I  c #84847B",
"U  c #8C8C7B",
"Y  c #8C947B",
"T  c #BDB56B",
"R  c #DEB54A",
"E  c #DECE4A",
"W  c #FFDE6B",
"Q  c #FFF76B",
"!  c gray55",
"~  c #94948C",
"^  c #949C8C",
"/  c gray61",
"(  c #A59C8C",
")  c #A5A584",
"_  c #A5AD94",
"`  c #A5A59C",
"'  c #ADAD9C",
"]  c #ADB59C",
"[  c #B5B59C",
"{  c gray68",
"}  c #ADB5AD",
"|  c #B5B5A5",
" . c #B5BDA5",
".. c #BDBDA5",
"X. c #B5BDAD",
"o. c gray71",
"O. c gray74",
"+. c #BDC6AD",
"@. c #C6CEB5",
"#. c #C6C6BD",
"$. c #C6CEBD",
"%. c #CED6BD",
"&. c #CECEC6",
"*. c #D6D6C6",
"=. c #DEDEC6",
"-. c #DED6CE",
";. c #D6DECE",
":. c #DEE7CE",
">. c #E7E7CE",
",. c #E7EFCE",
"<. c #EFF7D6",
"1. c #F7F7DE",
"2. c #DEDEE7",
"3. c #E7E7E7",
"4. c #EFEFEF",
"5. c #F7EFEF",
"6. c #F7F7E7",
"7. c #FFFFE7",
"8. c #F7F7EF",
"9. c #FFFFEF",
"0. c #FFF7F7",
"q. c #FFFFF7",
"w. c #F7FFFF",
"e. c white",
"r. c None",
/* pixels */
"r.r.r.r.r.r.r.r.r.r.r.r.r.r.r.r.r.r.r.r.r.r.r.r.r.r.r.r.r.r.r.r.r.r.r.r.r.r.r.r.r.r.r.r.r.r.r.r.r.r.r.r.r.r.r.r.r.r.r.r.r.r.r.r.",
"r.r.r.r.r.r.r.r.r.r.r.r.r.r.r.r.r.r.r.r.r.r.r.r.r.r.r.r.r.r.r.r.r.r.r.r.r.r.r.r.r.r.r.r.r.r.r.r.r.r.r.r.r.r.r.r.r.r.r.r.r.r.r.r.",
"r.r.r.r.r.r.r.r.r.r.r.r.r.r.r.r.r.r.r.r.r.r.r.r.r.r.r.r.r.r.r.r.r.r.r.r.r.r.r.r.r.r.r.r.r.r.r.r.r.r.r.r.r.r.r.r.r.r.r.r.r.r.r.r.",
"r.r.r.r.r.r.r.r.r.r.r.r.r.r.r.r.r.r.r.r.r.r.r.r.r.r.r.r.r.r.r.r.r.r.r.r.r.r.r.r.r.r.r.r.r.r.r.r.r.r.r.r.r.r.r.r.r.r.r.r.r.r.r.r.",
"r.r.r.r.r.r.r.r.r.r.r.r.r.r.r.r.r.r.r.r.r.r.r.r.r.r.r.r.r.r.r.r.r.r.r.r.r.r.r.r.r.r.r.r.r.r.r.r.r.r.r.r.r.r.r.r.r.r.r.r.r.r.r.r.",
"r.r.r.r.r.r.r.r.r.r.r.r.r.r.r.r.r.r.r.r.r.r.r.r.r.r.r.r.r.r.r.r.r.r.r.r.r.r.r.r.r.r.r.r.r.r.r.r.r.r.r.r.r.r.r.r.r.r.r.r.r.r.r.r.",
"r.r.r.r.r.r.r.r.r.r.r.r.r.r.r.r.r.r.r.r.r.r.r.r.r.r.r.r.r.r.r.r.r.r.r.r.r.r.r.r.r.r.r.r.r.r.r.r.r.r.r.r.r.r.r.r.r.r.r.r.r.r.r.r.",
"r.r.r.r.r.r.r.r.r.r.r.r.r.r.r.r.r.r.r.r.r.r.r.r.r.r.r.r.r.r.r.r.r.r.r.r.r.r.r.r.r.r.r.r.r.r.r.r.r.r.r.r.r.r.r.r.r.r.r.r.r.r.r.r.",
"r.r.r.r.r.r.r.r.r.r.r.r.r.r.r.r.r.r.r.r.r.r.r.r.r.r.r.r.r.r.r.r.r.r.r.r.r.r.r.r.r.r.r.r.r.r.r.r.r.r.r.r.r.r.r.r.r.r.r.r.r.r.r.r.",
"r.r.r.r.r.r.r.r.r.r.r.r.r.r.r.r.r.r.r.r.r.r.r.r.r.r.r.r.r.r.r.r.r.r.r.r.r.r.r.r.r.r.- r.r.r.r.r.r.r.r.r.r.r.r.r.r.r.r.r.r.r.r.r.",
"r.r.r.r.r.r.r.r.r.r.r.r.r.r.r.r.r.r.r.r.r.r.r.r.r.r.r.r.r.r.r.r.r.r.r.r.= * r.r.r.+ r.r.r.r.r.r.r.r.r.r.r.r.r.r.r.r.r.r.r.r.r.r.",
"r.r.r.r.r.r.r.r.r.r.r.r.r.r.r.r.r.r.r.r.r.r.r.r.r.r.r.r.r.r.r.r.r.r.r.r.+ X # r.+ r.r.r.r.r.r.r.r.r.r.r.r.r.r.r.r.r.r.r.r.r.r.r.",
"r.r.r.r.r.r.r.r.r.r.r.r.r.r.r.r.r.r.r.r.r.r.r.r.r.r.r.r.r.r.r.r.r.r.r.r.r.= X & h r.r.r.r.r.r.r.r.r.r.r.r.r.r.r.r.r.r.r.r.r.r.r.",
"r.r.r.r.r.r.r.r.r.r.r.r.r.r.r.r.r.r.r.r.r.r.r.r.r.r.r.r.r.r.r.r.r.r.r.r.r.M S H H G C r.r.r.r.r.r.r.r.r.r.r.r.r.r.r.r.r.r.r.r.r.",
"r.r.r.r.r.r.r.r.r.r.r.r.r.r.r.r.r.r.r.r.r.r.r.r.r.r.r.r.r.r.r.r.r.r.r.r.C H H H H H F V f 5 5 r.r.r.r.r.r.r.r.r.r.r.r.r.r.r.r.r.",
"r.r.r.r.r.r.r.r.r.r.r.r.r.r.r.r.r.r.r.r.r.r.r.r.r.r.r.r.r.r.r.r.r.r.r.b F H H H G C S V s 2 2 , r.r.r.r.r.r.r.r.r.r.r.r.r.r.r.r.",
"r.r.r.r.r.r.r.r.r.r.r.r.r.r.r.d r.r.r.r.r.r.r.r.r.r.r.r.r.r.r.r.r.r.r.V D G S 4 $ O . p s ~ q > , r.r.r.r.r.r.r.r.r.r.r.r.r.r.r.",
"r.r.r.r.r.r.r.r.r.r.r.r.r.r.r.p ; r.r.r.r.r.r.r.r.r.r.r.r.r.r.r.r.r.X & a Z = X o.2./ o O q 0 > $ r.r.r.r.r.r.M Z r.r.r.r.r.r.r.",
"r.r.r.r.r.r.r.r.r.r.r.r.r.r.2...t r.r.r.r.r.r.r.r.r.r.r.r.r.r.r.r.  q < < * . ;.e.e.e.} . o > % $ r.r.r.r.r.r.n z f F r.r.r.r.r.",
"r.r.r.r.r.r.r.r.r.r.r.r.% @ ;.4.h t r.r.r.r.r.r.r.r.r.r.r.r.r.r.$ 2 2.2.o.q ;.e.8.e.e.e.% o $ $ @ r.r.r.r.r.r.c d n c f r.r.r.r.",
"r.r.r.r.r.r.r.r.r.r.r.3     7 2   & ; r.r.r.r.r.r.r.r.r.r.r.r.r.# ! 2.2.2.&.w.e.@ #.e.e.> + @ < O r.r.r.E r.C n c c d V B r.r.r.",
"r.r.r.r.r.r.r.r.r.r.U &.@ O O.%   O t r.r.r.r.r.r.r.r.r.r.r.r.r.# 7 2.2.} @ w.e.U 2.e.5.  a E e.r.r.r.r.v V G F D v n c ; r.r.r.",
"r.r.r.r.r.r.r.r.r.r.` ;.~ #.4.O.> #.L t r.r.r.r.r.r.r.r.r.r.r.r.r.% 2.2.2.~ @ < &.5.{ $ & V n e.r.r.r.r.d B A Q Q G v ; r.r.r.r.",
"r.r.r.r.r.r.r.r.r.r.> o.@ ! 3.! w 3.2.; ; r.r.r.r.r.r.r.r.r.r.r.r.$ I O.;.# j p + @ 6 K G V N q.r.r.r.r.r.k v D D A j r.r.r.r.r.",
"r.r.r.r.r.r.r.r.r.r.X >   o 0   . } 0 # t r.r.r.r.r.r.r.r.r.r.r.r.r.& X X u V B b C F Z B c R 3.@.r.r.r.r.u c n B z r.r.r.r.r.r.",
"r.r.r.r.r.r.r.r.r.r.% 0 O < / X O ! .   & ; r.r.r.r.r.r.r.r.r.r.r.r.v V D b g u c c c c c i +.>.>.;.X.r.B n c c z ; r.r.r.r.r.r.",
"r.r.r.r.r.r.r.r.r.r.r.$ X / ;.0 &.4.7 % ] t r.r.r.r.r.r.r.r.r.r.r.r.d c n z t y r r u i t s 0.K T 3.9.A V B n i - r.r.r.r.r.r.r.",
"r.r.r.r.r.r.r.r.r.r.r.r.o < O.> #.3.I O.4.) t r.r.r.r.r.r.r.r.r.r.r.r.t i i y r r r & @ @ ! L a j =.A V B B c u r.r.r.r.r.r.r.r.",
"r.r.r.r.r.r.r.r.r.r.r.r., > <   < 7   > ;.< & p r.r.r.r.r.r.r.r.r.r.r.r.: ; ; t r t & @ @ O d x x Z V B n c i r.r.r.r.r.r.r.r.r.",
"r.r.r.r.r.r.r.r.r.r.r.r.r., 2 X 2 <   $ 0     t r.r.r.r.r.r.r.r.r.r.r.r.) L g j a u u + X + N x a V B n c i r.r.r.r.r.r.r.r.r.r.",
"r.r.r.r.r.r.r.r.r.r.r.r.r.r.% $ } #.< 2.;.@ % - u r.r.r.r.r.r.r.r.r.r.l z z g k l l l a ; j x l a n n z u J r.r.r.r.r.r.r.r.r.r.",
"r.r.r.r.r.r.r.r.r.r.r.r.r.r., X ! O.7 2.2.r.r.r.t s r.r.r.r.r.r.r.E H A g i i j k k l l l l x x u z i s ' { r.r.r.r.r.r.r.r.r.r.",
"r.r.r.r.r.r.r.r.r.r.r.r.r.r.r.$ $ >   ! r.r.r.r.r.t r.r.r.r.r.E G H S B i t d a j j k k k k S k j - * X.2.2.r.r.r.r.r.r.r.r.r.r.",
"r.r.r.r.r.r.r.r.r.r.r.r.r.r.r.r.< >   r.r.r.r.r.r.- u r.r.C H H Z B n c i t a a a j C G C C x a F S S Q e.e.( r.r.r.r.r.r.r.r.r.",
"r.r.r.r.r.r.r.r.r.r.r.r.r.r.r.r.3 < > r.r.r.r.r.r.r.t b G G V B n c z u P s p j C S G G C a a x F D V R e.e.( r.r.r.r.r.r.r.r.r.",
"r.r.r.r.r.r.r.r.r.r.r.r.r.r.r.r.r.$ o r.r.r.r.r.r.r.j b S z z c g t h +.0.0.%.W V Z Z D x a a b Z V B R e.w.r.r.r.r.r.r.r.r.r.r.",
"r.r.r.r.r.r.r.r.r.r.r.r.r.r.r.r.r.r.O # r.r.r.r.r.r.V B k t i i r.r.4.e.e.e.e.e.1.Q A A M d f R W ,.,.0.e.3.Y r.r.r.r.r.r.r.r.r.",
"r.r.r.r.r.r.r.r.r.r.r.r.r.r.r.r.r.r.r.< 5 r.r.r.r.r.p g d t t r.r.5.e.e.e.e.e.e.e.e.e.e.0.&.;.0.e.e.e.e.e.e.q. .r.r.r.r.r.r.r.r.",
"r.r.r.r.r.r.r.r.r.r.r.r.r.r.r.r.r.r.r.3 7 r.r.r.r.r.r.d k x r.r.;.e.e.e.e.e.e.e.e.e.e.e.e.e.e.e.e.e.e.e.e.e.e.1.r.r.r.r.r.r.r.r.",
"r.r.r.r.r.r.r.r.r.r.r.r.r.r.r.r.r.r.r.r.r.r.r.r.r.r.r.r.r.r.r.r.e.e.e.e.e.e.e.e.e.e.e.e.e.e.e.e.e.e.e.e.e.e.e.9...r.r.r.r.r.r.r.",
"r.r.r.r.r.r.r.r.r.r.r.r.r.r.r.r.r.r.r.r.r.r.r.r.r.r.r.r.r.r.r.5.e.e.e.e.e.e.e.e.e.e.e.e.e.e.e.e.e.e.e.e.e.e.e.q.:.r.r.r.r.r.r.r.",
"r.r.r.r.r.r.r.r.r.r.r.r.r.r.r.r.r.r.r.r.r.r.r.r.r.r.r.r.r.r.r.e.e.e.e.e.e.e.e.e.e.e.e.e.e.e.e.e.e.e.e.e.e.e.e.e.1.( r.r.r.r.r.r.",
"r.r.r.r.r.r.r.r.r.r.r.r.r.r.r.r.r.r.r.r.r.r.r.r.r.r.r.r.r.r.%.e.e.e.e.e.e.e.e.e.e.e.e.e.e.e.e.e.e.e.e.e.e.e.e.e.6._ r.r.r.r.r.r.",
"r.r.r.r.r.r.r.r.r.r.r.r.r.r.r.r.r.r.r.r.r.r.r.r.r.r.r.r.r.r.9.e.e.e.e.e.e.e.e.-.3.e.e.e.e.5.e.e.e.e.e.e.e.e.e.e.7.+.r.r.r.r.r.r.",
"r.r.r.r.r.r.r.r.r.r.r.r.r.r.r.r.r.r.r.r.r.r.r.r.r.r.r.r.r.r.9.e.e.e.e.e.e.e.e.0 / e.e.e.` ~ e.e.e.e.e.e.e.e.e.e.7.@.r.r.r.r.r.r.",
"r.r.r.r.r.r.r.r.r.r.r.r.r.r.r.r.r.r.r.r.r.r.r.r.r.r.r.r.r.r.6.e.e.e.e.e.e.e.e.% ` e.e.e.w 2 e.e.e.e.e.e.e.e.e.e.6.@.r.r.r.r.r.r.",
"r.r.r.r.r.r.r.r.r.r.r.r.r.r.r.r.r.r.r.r.r.r.r.r.r.r.r.r.r.r.1.e.e.e.e.e.e.e.e.4.e.e.e.e.O.O.e.e.e.e.e.e.e.e.e.9.<.+.r.r.r.r.r.r.",
"r.r.r.r.r.r.r.r.r.r.r.r.r.r.r.r.r.r.r.r.r.r.r.r.r.r.r.r.r.r.:.9.e.e.e.e.e.q.q.q.e.e.e.e.e.e.e.e.e.e.e.e.e.e.e.7.:.] r.r.r.r.r.r.",
"r.r.r.r.r.r.r.r.r.r.r.r.r.r.r.r.r.r.r.r.r.r.r.r.r.r.r.r.r.r.+.,.7.9.q.e.9.<.,.1.7.7.9.9.9.7.7.9.e.e.e.e.e.e.9.<.%._ r.r.r.r.r.r.",
"r.r.r.r.r.r.r.r.r.r.r.r.r.r.r.r.r.r.r.r.r.r.r.r.r.r.r.r.r.r.( $.:.<.1.7.7.:.( ' %.:.>.,.>.=...:.9.e.q.q.9.7.<.*...U r.r.r.r.r.r.",
"r.r.r.r.r.r.r.r.r.r.r.r.r.r.r.r.r.r.r.r.r.r.r.r.r.r.r.r.r.r.9 _ +.$.*.:.,.7.q.T i f K K h i +.6.7.7.6.1.<.>.%.+.( 0 r.r.r.r.r.r.",
"r.r.r.r.r.r.r.r.r.r.r.r.r.r.r.r.r.r.r.r.r.r.r.r.r.r.r.r.r.r.r.e ( '  .+.@.%.<.9.>.T m m R 5.q.6.,.=.*.%.%.@...( e r.r.r.r.r.r.r.",
"r.r.r.r.r.r.r.r.r.r.r.r.r.r.r.r.r.r.r.r.r.r.r.r.r.r.r.r.r.r.r.r.0 I Y Y ~ _ +.,.7.q.e.q.q.7.:.@.+..... .[ ' ^ w 3 r.r.r.r.r.r.r.",
"r.r.r.r.r.r.r.r.r.r.r.r.r.r.r.r.r.r.r.r.r.r.r.r.r.r.r.r.r.r.r.r.r.5 2 7 0 U ' %.>.<.1.1.<.:.@._ Y Y Y ~ Y I 8 3 r.r.r.r.r.r.r.r.",
"r.r.r.r.r.r.r.r.r.r.r.r.r.r.r.r.r.r.r.r.r.r.r.r.r.r.r.r.r.r.r.r.r.r.r.3 3 e (  .@.%.%.%.%.@...( I 0 7 7 1 1 5 r.r.r.r.r.r.r.r.r.",
"r.r.r.r.r.r.r.r.r.r.r.r.r.r.r.r.r.r.r.r.r.r.r.r.r.r.r.r.r.r.r.r.r.r.r.r.r.3 q Y _ ] [ | [ ] _ Y q 1 1 1 5 r.r.r.r.r.r.r.r.r.r.r.",
"r.r.r.r.r.r.r.r.r.r.r.r.r.r.r.r.r.r.r.r.r.r.r.r.r.r.r.r.r.r.r.r.r.r.r.r.r.r.r.8 q I U Y Y U w 7 1 3 5 r.r.r.r.r.r.r.r.r.r.r.r.r.",
"r.r.r.r.r.r.r.r.r.r.r.r.r.r.r.r.r.r.r.r.r.r.r.r.r.r.r.r.r.r.r.r.r.r.r.r.r.r.r.r.r.5 2 1 1 1 3 5 r.r.r.r.r.r.r.r.r.r.r.r.r.r.r.r.",
"r.r.r.r.r.r.r.r.r.r.r.r.r.r.r.r.r.r.r.r.r.r.r.r.r.r.r.r.r.r.r.r.r.r.r.r.r.r.r.r.r.r.r.r.r.r.r.r.r.r.r.r.r.r.r.r.r.r.r.r.r.r.r.r.",
"r.r.r.r.r.r.r.r.r.r.r.r.r.r.r.r.r.r.r.r.r.r.r.r.r.r.r.r.r.r.r.r.r.r.r.r.r.r.r.r.r.r.r.r.r.r.r.r.r.r.r.r.r.r.r.r.r.r.r.r.r.r.r.r.",
"r.r.r.r.r.r.r.r.r.r.r.r.r.r.r.r.r.r.r.r.r.r.r.r.r.r.r.r.r.r.r.r.r.r.r.r.r.r.r.r.r.r.r.r.r.r.r.r.r.r.r.r.r.r.r.r.r.r.r.r.r.r.r.r.",
"r.r.r.r.r.r.r.r.r.r.r.r.r.r.r.r.r.r.r.r.r.r.r.r.r.r.r.r.r.r.r.r.r.r.r.r.r.r.r.r.r.r.r.r.r.r.r.r.r.r.r.r.r.r.r.r.r.r.r.r.r.r.r.r.",
"r.r.r.r.r.r.r.r.r.r.r.r.r.r.r.r.r.r.r.r.r.r.r.r.r.r.r.r.r.r.r.r.r.r.r.r.r.r.r.r.r.r.r.r.r.r.r.r.r.r.r.r.r.r.r.r.r.r.r.r.r.r.r.r.",
"r.r.r.r.r.r.r.r.r.r.r.r.r.r.r.r.r.r.r.r.r.r.r.r.r.r.r.r.r.r.r.r.r.r.r.r.r.r.r.r.r.r.r.r.r.r.r.r.r.r.r.r.r.r.r.r.r.r.r.r.r.r.r.r."
};
