/* XPM */
static char *_574843086778[] = {
/* columns rows colors chars-per-pixel */
"64 64 124 2 ",
"   c black",
".  c gray3",
"X  c #101010",
"o  c #181818",
"O  c #212118",
"+  c #292118",
"@  c gray16",
"#  c #313121",
"$  c #393131",
"%  c #393939",
"&  c #5A3108",
"*  c #524218",
"=  c #5A4A21",
"-  c #635221",
";  c #7B5A21",
":  c #6B6339",
">  c #4A4A42",
",  c #525242",
"<  c gray32",
"1  c #5A5A52",
"2  c #5A5A5A",
"3  c #5A634A",
"4  c #6B6B42",
"5  c #6B6B4A",
"6  c #63635A",
"7  c #6B6B5A",
"8  c #737352",
"9  c #7B7B5A",
"0  c #6B6B63",
"q  c #73736B",
"w  c #737B73",
"e  c #7B7B73",
"r  c #9C1800",
"t  c #8C4A08",
"y  c #944210",
"u  c #945A10",
"i  c #B55A18",
"p  c #946B18",
"a  c #B57B10",
"s  c #AD7321",
"d  c #AD7B31",
"f  c #CE6B18",
"g  c #846B42",
"h  c #B58410",
"j  c #BD8410",
"k  c #C68C18",
"l  c #DE8410",
"z  c #CE9410",
"x  c #F79410",
"c  c #EFAD18",
"v  c #E7B518",
"b  c #FFB518",
"n  c #DE8429",
"m  c #CE9C29",
"M  c #FFC618",
"N  c #FFD618",
"B  c #E7C621",
"V  c #FFC621",
"C  c #FFDE21",
"Z  c #FFD631",
"A  c #F7E721",
"S  c #FFE721",
"D  c #FFEF21",
"F  c #FFF721",
"G  c #FFFF21",
"H  c #84845A",
"J  c #A58C4A",
"K  c #AD9C5A",
"L  c #8C8C63",
"P  c #94946B",
"I  c #84847B",
"U  c #8C8C7B",
"Y  c #8C947B",
"T  c #BDB56B",
"R  c #DEB54A",
"E  c #DECE4A",
"W  c #FFDE6B",
"Q  c #FFF76B",
"!  c gray55",
"~  c #94948C",
"^  c #949C8C",
"/  c gray61",
"(  c #A59C8C",
")  c #A5A584",
"_  c #A5AD94",
"`  c #A5A59C",
"'  c #ADAD9C",
"]  c #ADB59C",
"[  c #B5B59C",
"{  c gray68",
"}  c #ADB5AD",
"|  c #B5B5A5",
" . c #B5BDA5",
".. c #BDBDA5",
"X. c #B5BDAD",
"o. c gray71",
"O. c gray74",
"+. c #BDC6AD",
"@. c #C6CEB5",
"#. c #C6C6BD",
"$. c #C6CEBD",
"%. c #CED6BD",
"&. c #CECEC6",
"*. c #D6D6C6",
"=. c #DEDEC6",
"-. c #DED6CE",
";. c #D6DECE",
":. c #DEE7CE",
">. c #E7E7CE",
",. c #E7EFCE",
"<. c #EFF7D6",
"1. c #F7F7DE",
"2. c #DEDEE7",
"3. c #E7E7E7",
"4. c #EFEFEF",
"5. c #F7EFEF",
"6. c #F7F7E7",
"7. c #FFFFE7",
"8. c #F7F7EF",
"9. c #FFFFEF",
"0. c #FFF7F7",
"q. c #FFFFF7",
"w. c white",
"e. c None",
/* pixels */
"e.e.e.e.e.e.e.e.e.e.e.e.e.e.e.e.e.e.e.e.e.e.e.e.e.e.e.e.e.e.e.e.e.e.e.e.e.e.e.e.e.e.e.e.e.e.e.e.e.e.e.e.e.e.e.e.e.e.e.e.e.e.e.e.",
"e.e.e.e.e.e.e.e.e.e.e.e.e.e.e.e.e.e.e.e.e.e.e.e.e.e.e.e.e.e.e.e.e.e.e.e.e.e.e.e.e.e.e.e.e.e.e.e.e.e.e.e.e.e.e.e.e.e.e.e.e.e.e.e.",
"e.e.e.e.e.e.e.e.e.e.e.e.e.e.e.e.e.e.e.e.e.e.e.e.e.e.e.e.e.e.e.e.e.e.e.e.e.e.e.e.e.e.e.e.e.e.e.e.e.e.e.e.e.e.e.e.e.e.e.e.e.e.e.e.",
"e.e.e.e.e.e.e.e.e.e.e.e.e.e.e.e.e.e.e.e.e.e.e.e.e.e.e.e.e.e.e.e.e.e.e.e.e.e.e.e.e.e.e.e.e.e.e.e.e.e.e.e.e.e.e.e.e.e.e.e.e.e.e.e.",
"e.e.e.e.e.e.e.e.e.e.e.e.e.e.e.e.e.e.e.e.e.e.e.e.e.e.e.e.e.e.e.e.e.e.e.e.e.e.e.e.e.e.e.e.e.e.e.e.e.e.e.e.e.e.e.e.e.e.e.e.e.e.e.e.",
"e.e.e.e.e.e.e.e.e.e.e.e.e.e.e.e.e.e.e.e.e.e.e.e.e.e.e.e.e.e.e.e.e.e.e.e.e.e.e.e.e.e.e.e.e.e.e.e.e.e.e.e.e.e.e.e.e.e.e.e.e.e.e.e.",
"e.e.e.e.e.e.e.e.e.e.e.e.e.e.e.e.e.e.  , e.e.e.e.e.e.e.e.e.e.e.e.e.e.e.e.e.e.e.e.e.e.e.e.e.e.e.e.e.e.e.e.e.e.e.e.e.e.e.e.e.e.e.e.",
"e.e.e.e.e.e.e.e.e.e.e.e.e.e.e.e.e.5 X   , e.e.e.e.e.e.e.e.e.e.e.e.e.e.e.e.e.e.e.e.e.e.e.e.e.e.e.e.e.e.e.e.e.e.e.e.e.e.e.e.e.e.e.",
"e.e.e.e.e.e.e.e.e.e.e.e.e.e.e.e.e.X.0   6 ' e.e.e.e.e.e.e.e.e.e.e.e.e.e.e.e.e.e.e.e.e.e.e.e.e.e.e.e.e.e.e.e.e.e.e.e.e.e.e.e.e.e.",
"e.e.e.e.e.e.e.e.e.e.e.e.e.e.e.e.e.2.3.< / 4.O.e.e.e.e.e.e.e.e.e.e.e.e.e.e.e.e.e.e.e.e.e.e.e.e.e.e.e.e.e.e.e.e.e.e.e.e.e.e.e.e.e.",
"e.e.e.e.e.e.e.e.e.e.e.e.e.e.e.e.e.~ 3.;./ 3.4.-.5 e.e.e.e.e.e.e.e.e.e.e.e.e.e.& e.e.X e.e.e.- e.e.e.e.e.e.e.e.e.e.e.e.e.e.e.e.e.",
"e.e.e.e.e.e.e.e.e.e.e.e.e.e.e.e., . { o.X q 2.#.o @ e.e.e.e.e.e.e.e.e.e.e.e.e.e.* - X e.= * e.e.e.e.e.e.e.e.e.e.e.e.e.e.e.e.e.e.",
"e.e.e.e.e.e.e.e.e.e.e.e.e.e.e.e.,   o 6     > I       O e.e.e.e.e.e.e.e.e.u e.e.e.- + + e.e.e.e.e.e.e.e.e.e.e.e.e.e.e.e.e.e.e.e.",
"e.e.e.e.e.e.e.e.e.e.e.e.e.e.e.e.&.<   ~ <     I 2 .   O { } ~ w % > > 2 : & B D G G F B e.e.e.e.e.e.e.e.e.e.e.e.e.e.e.e.e.e.e.e.",
"e.e.e.e.e.e.e.e.e.e.e.e.e.e.e.e.2.2.< -.3.0 O o.2.} 2 < O.} { 6     @ 6 & a G G G G G F C m e.e.e.e.e.e.e.e.e.e.e.e.e.e.e.e.e.e.",
"e.e.e.e.e.e.e.e.e.e.e.e.e.e.e.3 ~ 4.{ o.3.3.~ } ;.;.&.> % q ! @   . % $ & C G G G G G F C M d e.e.e.e.e.e.e.e.e.e.e.e.e.e.e.e.e.",
"e.e.e.e.e.e.e.e.e.e.e.e.e.e.e.$ X } q X ` 2.w   6 } } o     . w 0 <   X & = O 4 K Q G S C M x 5 e.e.e.e.e.e.e.e.e.e.e.e.e.e.e.e.",
"e.e.e.e.e.e.e.e.e.e.e.e.e.e.e.0 . O >     q %     . < $ X   $ I q %   & . < } q @ = N z : . + > < e.e.e.e.e.e.e.e.e.e.e.e.e.e.e.",
"e.e.e.e.e.e.e.e.e.e.e.e.e.e.e.2.< @ O.%   O ` > X   w o./ q % % $ % < + < 8.w.w.#.o # > > I 2 . % , e.e.e.e.e.e.e.e.e.e.e.e.e.e.",
"e.e.e.e.e.e.e.e.e.e.e.e.e.e.e.3.2.! 3.2.6 < 2.;./ > ` o.{ ! .   X 6 = + 2.w.w.w.w.O.< / -.2.2.< O % e.e.e.e.e.e.e.e.e.e.e.e.e.e.",
"e.e.e.e.e.e.e.e.e.e.e.e.e.e.e.e.2.q { 2.2.w o.;.-.~ o > 0 < X X $ $ & X 5.w.w.2.I 4.4.-.O.2.2.! . $ e.e.e.e.e.e.e.e.e.e.e.e.e.e.",
"e.e.e.e.e.e.e.e.e.e.e.e.e.e.e.e.( $ . ! &.@ . 2 { <       6 w 6 X X & + o.w.w.O.+ 4.3.% q 2.2.I X @ e.e.e.e.e.m D v e.e.e.e.e.e.",
"e.e.e.e.e.e.e.e.e.e.e.e.e.e.e.e.e.%     2 @     X q > o o I w > o # p p O &.w.w.! % ! ! } 2.2.O . % e.e.E e.m N l d e.e.e.e.e.e.",
"e.e.e.e.e.e.e.e.e.e.e.e.e.e.e.e.e.e.% . q #.2 X @ o.o.` < O o $ 2 & c D ; > 6 O + a + w #.O.0 0 8 e.e.e.M V N f m A C e.e.e.e.e.",
"e.e.e.e.e.e.e.e.e.e.e.e.e.e.e.e.e.e.e.e.` 2.;.o.6 ~ ` ` @     < = & x M S F z a v A z X   X & J L e.e.d x c M A M j s e.e.e.e.e.",
"e.e.e.e.e.e.e.e.e.e.e.e.e.e.e.e.e.e.e.e.e.' #.#.@   o % > % $ X + P f x b b z i i j i A S M b J e.e.e.c x l C N z B F C e.e.e.e.",
"e.e.e.e.e.e.e.e.e.e.e.e.e.e.e.e.e.e.e.e.e.e.e.U o     $ I q @   & 5...u f f & r y t t x x x i ] P m C l u l N C C z a p e.e.e.e.",
"e.e.e.e.e.e.e.e.e.e.e.e.e.e.e.e.e.e.e.e.e.e.e.e.e.e.% 6 0 7 5 = L 1.E s t & & r r r r i i t g 5.f v C b x b b x d e.e.e.e.e.e.e.",
"e.e.e.e.e.e.e.e.e.e.e.e.e.e.e.e.e.e.e.e.e.e.e.e.e.e.e.e.e.e.] & ..E B z h u t & r y & t & # %...f c M b l f p e.e.e.e.e.e.e.e.e.",
"e.e.e.e.e.e.e.e.e.e.e.e.e.e.e.e.e.e.e.e.e.e.e.e.e.e.e.e.e.e.P - v b V z z j a u u p j p @ @ 1 i i c x f e.e.e.e.e.e.e.e.e.e.e.e.",
"e.e.e.e.e.e.e.e.e.e.e.e.e.e.e.e.e.e.e.e.e.e.e.e.e.e.e.e.e.d & u x l h v z z z k k k j = O O + u u l u e.e.e.e.e.e.e.e.e.e.e.e.e.",
"e.e.e.e.e.e.e.e.e.e.e.e.e.e.e.e.e.e.e.e.e.e.e.e.e.e.e.e.f i & u t & z F z k k k j j h s + o & t - e.e.e.e.e.e.e.e.e.e.e.e.e.e.e.",
"e.e.e.e.e.e.e.e.e.e.e.e.e.e.e.e.e.e.e.e.e.e.e.e.e.e.e.s f a t f & & B G A z j j h h a a t - L / e e.e.e.e.e.e.e.e.e.e.e.e.e.e.e.",
"e.e.e.e.e.e.e.e.e.e.e.e.e.e.e.e.e.e.e.e.e.e.e.e.e.e.e.f M C v B u a B G G A z a a a a a p s T { e e.e.e.e.e.e.e.e.e.e.e.e.e.e.e.",
"e.e.e.e.e.e.e.e.e.e.e.e.e.e.e.e.e.e.e.e.e.e.e.e.e.e.e.M l j z u a a A F F D z a h B z s a u H ` 9 e.e.e.e.e.e.e.e.e.e.e.e.e.e.e.",
"e.e.e.e.e.e.e.e.e.e.e.e.e.e.e.e.e.e.e.e.e.e.e.e.e.e.e.l c f ] ) d a C S C h a a V N V V R ) | ^ 9 e.e.e.e.e.e.e.e.e.e.e.e.e.e.e.",
"e.e.e.e.e.e.e.e.e.e.e.e.e.e.e.e.e.e.e.e.e.e.e.e.e.e.e.e.t ; ' [ | ..W W R d h Z W W ,.9.3.] ' ' &.' e.e.e.e.e.e.e.e.e.e.e.e.e.e.",
"e.e.e.e.e.e.e.e.e.e.e.e.e.e.e.e.e.e.e.e.e.e.e.e.e.e.e.e.^ ' [  . . . .+.:.4.w.w.w.w.w.w.5.@.] +.w.9.e.e.e.e.e.e.e.e.e.e.e.e.e.e.",
"e.e.e.e.e.e.e.e.e.e.e.e.e.e.e.e.e.e.e.e.e.e.e.e.e.e.e.Y _ ]  . ...+.3.w.w.w.w.w.w.w.w.w.w.w.4.0.w.w.:.e.e.e.e.e.e.e.e.e.e.e.e.e.",
"e.e.e.e.e.e.e.e.e.e.e.e.e.e.e.e.e.e.e.e.e.e.e.e.e.e.L ( ' [  . . .;.w.w.w.w.w.w.w.w.w.w.w.w.w.w.w.w.9.) e.e.e.e.e.e.e.e.e.e.e.e.",
"e.e.e.e.e.e.e.e.e.e.e.e.e.e.e.e.e.e.e.e.e.e.e.e.e.e.@.;.:.[  . .@.0.w.w.w.w.w.w.w.w.w.w.w.w.w.w.w.w.q.*.e.e.e.e.e.e.e.e.e.e.e.e.",
"e.e.e.e.e.e.e.e.e.e.e.e.e.e.e.e.e.e.e.e.e.e.e.e.e.e.w.w.w.3.:.0.w.w.w.w.w.w.w.w.w.w.w.w.w.w.w.w.w.w.w.1.e.e.e.e.e.e.e.e.e.e.e.e.",
"e.e.e.e.e.e.e.e.e.e.e.e.e.e.e.e.e.e.e.e.e.e.e.e.e.:.w.w.w.w.w.w.w.w.w.w.w.w.w.w.w.w.w.w.w.w.w.w.w.w.w.6._ e.e.e.e.e.e.e.e.e.e.e.",
"e.e.e.e.e.e.e.e.e.e.e.e.e.e.e.e.e.e.e.e.e.e.e.e.e.9.w.w.w.w.w.w.w.w.w.3.4.w.w.w.w.3.w.w.w.w.w.w.w.w.w.7.+.e.e.e.e.e.e.e.e.e.e.e.",
"e.e.e.e.e.e.e.e.e.e.e.e.e.e.e.e.e.e.e.e.e.e.e.e.e.9.w.w.w.w.w.w.w.w.w.e ! w.w.w.} I w.w.w.w.w.w.w.w.w.7.%.e.e.e.e.e.e.e.e.e.e.e.",
"e.e.e.e.e.e.e.e.e.e.e.e.e.e.e.e.e.e.e.e.e.e.e.e.e.7.w.w.w.w.w.w.w.w.w.% ~ w.w.w.! % w.w.w.w.w.w.w.w.w.7.$.e.e.e.e.e.e.e.e.e.e.e.",
"e.e.e.e.e.e.e.e.e.e.e.e.e.e.e.e.e.e.e.e.e.e.e.e.) 6.w.w.w.w.w.w.w.w.w.-.5.w.w.w.2.} w.w.w.w.w.w.w.w.q.<.+.9 e.e.e.e.e.e.e.e.e.e.",
"e.e.e.e.e.e.e.e.e.e.e.e.e.e.e.e.e.e.e.e.e.e.e.e.Y ,.9.w.w.w.w.w.w.w.q.w.w.w.w.w.w.w.w.w.w.w.w.w.w.w.7.:.[ e.e.e.e.e.e.e.e.e.e.e.",
"e.e.e.e.e.e.e.e.e.e.e.e.e.e.e.e.e.e.e.e.e.e.e.e.e.%.1.9.q.w.w.w.9.1.<.1.7.7.7.9.7.7.7.9.w.w.w.w.q.7.<.$.( e.e.e.e.e.e.e.e.e.e.e.",
"e.e.e.e.e.e.e.e.e.e.e.e.e.e.e.e.e.e.e.e.e.e.e.e.e.[ =.<.6.7.7.7.1.%.( ..*.>.,.,.:.%.] %.9.q.9.7.1.,.%.[ I e.e.e.e.e.e.e.e.e.e.e.",
"e.e.e.e.e.e.e.e.e.e.e.e.e.e.e.e.e.e.e.e.e.e.e.e.e.U ..%.=.:.>.,.,.1.1.f i J J J d i >.9.7.1.,.>.=.$. .~ 7 e.e.e.e.e.e.e.e.e.e.e.",
"e.e.e.e.e.e.e.e.e.e.e.e.e.e.e.e.e.e.e.e.e.e.e.e.e.e.Y ] ..+.+.@.%.=.1.0.-.n n n T 5.9.6.>.*.@.+...] ^ 0 5 e.e.e.e.e.e.e.e.e.e.e.",
"e.e.e.e.e.e.e.e.e.e.e.e.e.e.e.e.e.e.e.e.e.e.e.e.e.e.e.e ~ ( ( ( ( ' @.1.9.q.w.q.9.1.=.@...] ' _ ( Y 0 3 e.e.e.e.e.e.e.e.e.e.e.e.",
"e.e.e.e.e.e.e.e.e.e.e.e.e.e.e.e.e.e.e.e.e.e.e.e.e.e.e.e.7 0 0 0 e ~ ..=.,.1.1.1.,.=.+._ Y I I e q 2 5 e.e.e.e.e.e.e.e.e.e.e.e.e.",
"e.e.e.e.e.e.e.e.e.e.e.e.e.e.e.e.e.e.e.e.e.e.e.e.e.e.e.e.e.e.3 1 7 Y ] +.%.%.%.%.@.+.] Y w 2 1 1 3 e.e.e.e.e.e.e.e.e.e.e.e.e.e.e.",
"e.e.e.e.e.e.e.e.e.e.e.e.e.e.e.e.e.e.e.e.e.e.e.e.e.e.e.e.e.e.e.e.3 0 Y _ ] [ [ ] ' _ Y e 1 1 3 e.e.e.e.e.e.e.e.e.e.e.e.e.e.e.e.e.",
"e.e.e.e.e.e.e.e.e.e.e.e.e.e.e.e.e.e.e.e.e.e.e.e.e.e.e.e.e.e.e.e.e.5 7 q U Y Y U U w 6 1 3 e.e.e.e.e.e.e.e.e.e.e.e.e.e.e.e.e.e.e.",
"e.e.e.e.e.e.e.e.e.e.e.e.e.e.e.e.e.e.e.e.e.e.e.e.e.e.e.e.e.e.e.e.e.e.e.e.3 3 1 1 1 3 e.e.e.e.e.e.e.e.e.e.e.e.e.e.e.e.e.e.e.e.e.e.",
"e.e.e.e.e.e.e.e.e.e.e.e.e.e.e.e.e.e.e.e.e.e.e.e.e.e.e.e.e.e.e.e.e.e.e.e.e.e.e.e.e.e.e.e.e.e.e.e.e.e.e.e.e.e.e.e.e.e.e.e.e.e.e.e.",
"e.e.e.e.e.e.e.e.e.e.e.e.e.e.e.e.e.e.e.e.e.e.e.e.e.e.e.e.e.e.e.e.e.e.e.e.e.e.e.e.e.e.e.e.e.e.e.e.e.e.e.e.e.e.e.e.e.e.e.e.e.e.e.e.",
"e.e.e.e.e.e.e.e.e.e.e.e.e.e.e.e.e.e.e.e.e.e.e.e.e.e.e.e.e.e.e.e.e.e.e.e.e.e.e.e.e.e.e.e.e.e.e.e.e.e.e.e.e.e.e.e.e.e.e.e.e.e.e.e.",
"e.e.e.e.e.e.e.e.e.e.e.e.e.e.e.e.e.e.e.e.e.e.e.e.e.e.e.e.e.e.e.e.e.e.e.e.e.e.e.e.e.e.e.e.e.e.e.e.e.e.e.e.e.e.e.e.e.e.e.e.e.e.e.e.",
"e.e.e.e.e.e.e.e.e.e.e.e.e.e.e.e.e.e.e.e.e.e.e.e.e.e.e.e.e.e.e.e.e.e.e.e.e.e.e.e.e.e.e.e.e.e.e.e.e.e.e.e.e.e.e.e.e.e.e.e.e.e.e.e.",
"e.e.e.e.e.e.e.e.e.e.e.e.e.e.e.e.e.e.e.e.e.e.e.e.e.e.e.e.e.e.e.e.e.e.e.e.e.e.e.e.e.e.e.e.e.e.e.e.e.e.e.e.e.e.e.e.e.e.e.e.e.e.e.e."
};
