/* XPM */
static char *_574843049739[] = {
/* columns rows colors chars-per-pixel */
"64 64 119 2 ",
"   c black",
".  c gray3",
"X  c #101010",
"o  c #181818",
"O  c #212118",
"+  c #292118",
"@  c gray16",
"#  c #313121",
"$  c #393131",
"%  c #393939",
"&  c #5A3108",
"*  c #524218",
"=  c #5A4A21",
"-  c #635221",
";  c #7B5A21",
":  c #6B6339",
">  c #4A4A42",
",  c #525242",
"<  c gray32",
"1  c #5A5A52",
"2  c #5A5A5A",
"3  c #5A634A",
"4  c #6B6B4A",
"5  c #7B734A",
"6  c #63635A",
"7  c #6B6B5A",
"8  c #737352",
"9  c #7B7B5A",
"0  c #6B6B63",
"q  c #73736B",
"w  c #737B73",
"e  c #7B7B73",
"r  c #9C1800",
"t  c #8C4A08",
"y  c #944210",
"u  c #945A10",
"i  c #B55A18",
"p  c #946B18",
"a  c #B57B10",
"s  c #8C7B39",
"d  c #AD7321",
"f  c #AD7B31",
"g  c #CE6B18",
"h  c #846B42",
"j  c #B58410",
"k  c #BD8410",
"l  c #C68C18",
"z  c #DE8410",
"x  c #CE9410",
"c  c #F79410",
"v  c #EFAD18",
"b  c #E7B518",
"n  c #FFB518",
"m  c #DE8429",
"M  c #CE9C29",
"N  c #F79C29",
"B  c #FFC618",
"V  c #FFD618",
"C  c #E7C621",
"Z  c #FFC621",
"A  c #FFDE21",
"S  c #FFD631",
"D  c #F7E721",
"F  c #FFE721",
"G  c #FFEF21",
"H  c #FFF721",
"J  c #FFFF21",
"K  c #A58C4A",
"L  c #84847B",
"P  c #8C8C7B",
"I  c #8C947B",
"U  c #BDB56B",
"Y  c #DEB54A",
"T  c #DECE4A",
"R  c #FFDE6B",
"E  c #FFF76B",
"W  c gray55",
"Q  c #94948C",
"!  c #949C8C",
"~  c gray61",
"^  c #A59C8C",
"/  c #A5AD94",
"(  c #A5A59C",
")  c #ADAD9C",
"_  c #ADB59C",
"`  c #B5B59C",
"'  c gray68",
"]  c #ADB5AD",
"[  c #B5BDA5",
"{  c #BDBDA5",
"}  c gray71",
"|  c gray74",
" . c #BDC6AD",
".. c #C6CEB5",
"X. c #C6C6BD",
"o. c #C6CEBD",
"O. c #CED6BD",
"+. c #CECEC6",
"@. c #D6D6C6",
"#. c #DEDEC6",
"$. c #DED6CE",
"%. c #DEE7CE",
"&. c #E7E7CE",
"*. c #E7EFCE",
"=. c #EFF7D6",
"-. c #F7F7DE",
";. c #DEDEE7",
":. c #E7E7E7",
">. c #EFEFEF",
",. c #F7EFEF",
"<. c #F7F7E7",
"1. c #FFFFE7",
"2. c #F7F7EF",
"3. c #FFFFEF",
"4. c #FFF7F7",
"5. c #FFFFF7",
"6. c #F7FFFF",
"7. c white",
"8. c None",
/* pixels */
"8.8.8.8.8.8.8.8.8.8.8.8.8.8.8.8.8.8.8.8.8.8.8.8.8.8.8.8.8.8.8.8.8.8.8.8.8.8.8.8.8.8.8.8.8.8.8.8.8.8.8.8.8.8.8.8.8.8.8.8.8.8.8.8.",
"8.8.8.8.8.8.8.8.8.8.8.8.8.8.8.8.8.8.8.8.8.8.8.8.8.8.8.8.8.8.8.8.8.8.8.8.8.8.8.8.8.8.8.8.8.8.8.8.8.8.8.8.8.8.8.8.8.8.8.8.8.8.8.8.",
"8.8.8.8.8.8.8.8.8.8.8.8.8.8.8.8.8.8.8.8.8.8.8.8.8.8.8.8.8.8.8.8.8.8.8.8.8.8.8.8.8.8.8.8.8.8.8.8.8.8.8.8.8.8.8.8.8.8.8.8.8.8.8.8.",
"8.8.8.8.8.8.8.8.8.8.8.8.8.8.8.8.8.8.8.8.8.8.8.8.8.8.8.8.8.8.8.8.8.8.8.8.8.8.8.8.8.8.8.8.8.8.8.8.8.8.8.8.8.8.8.8.8.8.8.8.8.8.8.8.",
"8.8.8.8.8.8.8.8.8.8.8.8.8.8.8.8.8.8.8.8.8.8.8.8.8.8.8.8.8.8.8.8.8.8.8.8.8.8.8.8.8.8.8.8.8.8.8.8.8.8.8.8.8.8.8.8.8.8.8.8.8.8.8.8.",
"8.8.8.8.8.8.8.8.8.8.8.8.8.8.8.8.8.8.8.8.8.8.8.8.8.8.8.8.8.8.8.8.8.8.8.8.8.8.8.8.8.8.8.8.8.8.8.8.8.8.8.8.8.8.8.8.8.8.8.8.8.8.8.8.",
"8.8.8.8.8.8.8.8.8.8.8.8.8.8.8.8.8.8.8.8.8.8.8.8.8.8.8.8.8.8.8.8.8.8.8.8.8.8.8.8.8.8.8.8.8.8.8.8.8.8.8.8.8.8.8.8.8.8.8.8.8.8.8.8.",
"8.8.8.8.8.8.8.8.8.8.8.8.8.8.8.8.8.8.8.8.8.8.8.8.8.8.8.8.8.8.8.8.8.8.8.8.8.8.8.8.8.8.8.8.8.8.8.8.8.8.8.8.8.8.8.8.8.8.8.8.8.8.8.8.",
"8.8.8.8.8.8.8.8.8.8.8.8.8.8.8.8.8.8.8.8.8.8.8.8.8.8.8.8.8.8.8.8.8.8.8.8.8.8.8.8.8.8.8.8.8.8.8.8.8.8.8.8.8.8.8.8.8.8.8.8.8.8.8.8.",
"8.8.8.8.8.8.8.8.8.8.8.8.8.8.8.8.8.8.8.8.8.8.8.8.8.8.8.8.8.8.8.8.8.8.8.8.8.8.8.- = 8.8.8.8.8.8.8.8.8.8.8.8.8.8.8.8.8.8.8.8.8.8.8.",
"8.8.8.8.8.8.8.8.8.8.8.8.8.8.8.8.8.8.8.8.8.8.8.8.8.8.8.8.8.8.8.8.8.8.= 8.8.8.& 8.8.8.8.8.8.8.8.8.8.8.8.8.8.8.8.8.8.8.8.8.8.8.8.8.",
"8.8.8.8.8.8.8.8.8.8.8.8.8.8.8.8.8.8.8.8.8.8.8.8.8.8.8.8.8.8.8.8.8.* + + 8.* = 8.8.8.8.8.8.8.8.8.8.8.8.8.8.8.8.8.8.8.8.8.8.8.8.8.",
"8.8.8.8.8.8.8.8.8.8.8.8.8.8.8.8.8.8.8.8.8.8.8.8.8.8.8.8.8.8.8.8.8.8.8.+ # & 8.8.8.8.8.8.8.8.8.8.8.8.8.8.8.8.8.8.8.8.8.8.8.8.8.8.",
"8.8.8.8.8.8.8.8.8.8.8.8.8.8.8.8.8.8.8.8.8.8.8.8.8.8.8.8.8.8.8.8.8.8.8.M D J H D M 8.8.8.8.8.8.8.8.8.8.8.8.8.8.8.8.8.8.8.8.8.8.8.",
"8.8.8.8.8.8.8.8.8.8.8.8.8.8.8.8.8.8.8.8.8.8.8.8.8.8.8.8.8.8.8.8.8.8.D J J J J J F b 8.4 8.8.8.8.8.8.8.8.8.8.8.8.8.8.8.8.8.8.8.8.",
"8.8.8.8.8.8.8.8.8.8.8.8.8.8.8.8.8.8.8.8.8.8.8.8.8.8.8.8.8.8.8.8.8.V H J J J C D F M 2 2 < 8.8.8.8.8.8.8.8.8.8.8.8.8.8.8.8.8.8.8.",
"8.8.8.8.8.8.8.8.8.8.8.8.8.u 8.8.8.8.8.8.8.8.8.8.8.8.8.8.8.8.8.8.M A G J M # @ o & f 0 ' < % 8.8.8.8.8.8.C 8.8.8.8.8.8.8.8.8.8.8.",
"8.8.8.8.8.8.8.8.8.9 > @ w - ; 8.8.8.8.8.8.8.8.8.8.8.8.8.8.8.8.# & p V a . L ;.| > X $ L < % , 8.8.8.8.M n f D M 8.8.8.8.8.8.8.8.",
"8.8.8.8.8.8.I O X L 0 X $ 0 t 8.8.8.8.8.8.8.8.8.8.8.8.8.8.8.# @ < O ,   L 7.7.7.,.@   % > % # 8.8.8.8.m c l n d C 8.8.8.8.8.8.8.",
"8.8.8.8.$ ' X.q X % 2 $ 6 > + u 8.8.8.8.8.8.8.8.8.8.8.8.8.8.. X.;.| 0 w 7.6.>.7.7.Q   $ $ @ @ 8.8.8.8.c z c z v n f 8.8.8.8.8.8.",
"8.8.8..   % ' 2 2 ( >   q L X & ; 8.8.8.8.8.8.8.8.8.8.8.8.8.o ;.;.;.+.;.6.w 0 7.7.' + ; $ % % 8.C S M G Z B z n i 8.8.8.8.8.8.8.",
"8.8.8.8.@ W 6   X Q L @ < > $ 2 ; ; 8.8.8.8.8.8.8.8.8.8.8.8.X ;.;.;.$ ( 6.+.Q 7.7.> & V #.) 8.8.8.b F H J J G x 8.8.8.8.8.8.8.8.",
"8.8.8.8.^ $.X.$ > L O O L < . < : t 8.8.8.8.8.8.8.8.8.8.8.8.+ Q ;.;.Q 6 > W ;.;.< X C V R { 8.8.8.f B V H H D l 8.8.8.8.8.8.8.8.",
"8.8.8.8.8.( 0 $ ] X.2 X < < $ 6 $ & u 8.8.8.8.8.8.8.8.8.8.8.8.% ' :.W & x * $ $ K D F n R { 8.8.8.8.u c V V v 8.8.8.8.8.8.8.8.8.",
"8.8.8.8.8.8..   > W $ q ( @ . L q o & ; 8.8.8.8.8.8.8.8.8.8.8.8.. .   B A x b F F V n z <.+.X.^ 8.8.d z n n i 8.8.8.8.8.8.8.8.8.",
"8.8.8.8.8.8.8.< ] <   O Q 6 $ 2 $ % 3 t 8.8.8.8.8.8.8.8.8.8.8.8.B V D z i k v c c c z d 7.U &.:...M B n c i 8.8.8.8.8.8.8.8.8.8.",
"8.8.8.8.8.8.8.~ $.| % L L . @ L %   0 - t 8.8.8.8.8.8.8.8.8.8.8.z v n i y y r r i u t $...a _ ,.*.B B n c ; 8.8.8.8.8.8.8.8.8.8.",
"8.8.8.8.8.8.8.8.P @ @ } | > $ 6 $ > q @ & ; 8.8.8.8.8.8.8.8.8.8.; u i i r r r r & # > ' j a M E B B B n g 8.8.8.8.8.8.8.8.8.8.8.",
"8.8.8.8.8.8.8.8.8..   0 > o W ~ O O L < + t 8.8.8.8.8.8.8.8.8.8.8.8.- ; ; r r t + O O * k x b V B n n c ; 8.8.8.8.8.8.8.8.8.8.8.",
"8.8.8.8.8.8.8.8.8.8.~ X.>   % P 4 8.8.8.8.- t 8.8.8.8.8.8.8.8.8.8.8.I U l a u p * X X d N x l B n n z t 8.8.8.8.8.8.8.8.8.8.8.8.",
"8.8.8.8.8.8.8.8.8.8.) +.I 8.8.8.8.8.8.8.8.8.t p 8.8.8.8.8.8.8.8.8.f g m g k l l l a p x x l k n c g ; Q 8.8.8.8.8.8.8.8.8.8.8.8.",
"8.8.8.8.8.8.8.8.8.8.8.8.8.8.8.8.8.8.8.8.8.8.8.t 8.8.8.8.8.8.8.M H N g i d j k k l l l l x l a z u 5 | ' 8.8.8.8.8.8.8.8.8.8.8.8.",
"8.8.8.8.8.8.8.8.8.8.8.8.8.8.8.8.8.8.8.8.8.8.8.- t 8.8.8.8.8.D J G b i u p a j j k k k x b l C & * o.,.4.8.8.8.8.8.8.8.8.8.8.8.8.",
"8.8.8.8.8.8.8.8.8.8.8.8.8.8.8.8.8.8.8.8.8.8.8.8.& k D J J J F B n c u t d a a x D C C C l x J G D E 7.7./ 8.8.8.8.8.8.8.8.8.8.8.",
"8.8.8.8.8.8.8.8.8.8.8.8.8.8.8.8.8.8.8.8.8.8.8.8.j x G V V B n c z u h s p b b G G H j a a D H F V T 7.7.^ 8.8.8.8.8.8.8.8.8.8.8.",
"8.8.8.8.8.8.8.8.8.8.8.8.8.8.8.8.8.8.8.8.8.8.8.8.M n a t z z z u ; ..4.:.@.S S A A C a a j A A V B Y 7.7.8.8.8.8.8.8.8.8.8.8.8.8.",
"8.8.8.8.8.8.8.8.8.8.8.8.8.8.8.8.8.8.8.8.8.8.8.8.8.u t - & t - 8.:.7.7.7.7.7.-.*.R Z d d f R R R &.4.7.:.I 8.8.8.8.8.8.8.8.8.8.8.",
"8.8.8.8.8.8.8.8.8.8.8.8.8.8.8.8.8.8.8.8.8.8.8.8.8.8.d l ; 8.8.,.7.7.7.7.7.7.7.7.7.7.%.+.:.7.7.7.7.7.7.7.4.[ 8.8.8.8.8.8.8.8.8.8.",
"8.8.8.8.8.8.8.8.8.8.8.8.8.8.8.8.8.8.8.8.8.8.8.8.8.8.8.8.8.8.%.7.7.7.7.7.7.7.7.7.7.7.7.7.7.7.7.7.7.7.7.7.7.-.8.8.8.8.8.8.8.8.8.8.",
"8.8.8.8.8.8.8.8.8.8.8.8.8.8.8.8.8.8.8.8.8.8.8.8.8.8.8.8.8.8.7.7.7.7.7.7.7.7.7.7.7.7.7.7.7.7.7.7.7.7.7.7.7.3.{ 8.8.8.8.8.8.8.8.8.",
"8.8.8.8.8.8.8.8.8.8.8.8.8.8.8.8.8.8.8.8.8.8.8.8.8.8.8.8.8.2.7.7.7.7.7.7.7.7.7.7.7.7.7.7.7.7.7.7.7.7.7.7.7.5.%.8.8.8.8.8.8.8.8.8.",
"8.8.8.8.8.8.8.8.8.8.8.8.8.8.8.8.8.8.8.8.8.8.8.8.8.8.8.8.8.7.7.7.7.7.7.7.7.7.7.7.7.7.7.7.7.7.7.7.7.7.7.7.7.7.-.^ 8.8.8.8.8.8.8.8.",
"8.8.8.8.8.8.8.8.8.8.8.8.8.8.8.8.8.8.8.8.8.8.8.8.8.8.8.8.@.7.7.7.7.7.7.7.7.7.7.7.7.7.7.7.7.7.7.7.7.7.7.7.7.7.<.) 8.8.8.8.8.8.8.8.",
"8.8.8.8.8.8.8.8.8.8.8.8.8.8.8.8.8.8.8.8.8.8.8.8.8.8.8.8.3.7.7.7.7.7.7.7.7.;.>.7.7.7.7.,.7.7.7.7.7.7.7.7.7.7.1. .8.8.8.8.8.8.8.8.",
"8.8.8.8.8.8.8.8.8.8.8.8.8.8.8.8.8.8.8.8.8.8.8.8.8.8.8.8.3.7.7.7.7.7.7.7.7.0 ~ 7.7.7.( ' 7.7.7.7.7.7.7.7.7.7.1...8.8.8.8.8.8.8.8.",
"8.8.8.8.8.8.8.8.8.8.8.8.8.8.8.8.8.8.8.8.8.8.8.8.8.8.8.8.<.7.7.7.7.7.7.7.7.@ } 7.7.7.2 0 7.7.7.7.7.7.7.7.7.7.<...8.8.8.8.8.8.8.8.",
"8.8.8.8.8.8.8.8.8.8.8.8.8.8.8.8.8.8.8.8.8.8.8.8.8.8.8.8.-.7.7.7.7.7.7.7.7.>.7.7.7.7.} X.7.7.7.7.7.7.7.7.7.5.=. .8.8.8.8.8.8.8.8.",
"8.8.8.8.8.8.8.8.8.8.8.8.8.8.8.8.8.8.8.8.8.8.8.8.8.8.8.8.%.3.7.7.7.7.7.5.5.7.7.7.7.7.7.7.7.7.7.7.7.7.7.7.7.1.&.[ 8.8.8.8.8.8.8.8.",
"8.8.8.8.8.8.8.8.8.8.8.8.8.8.8.8.8.8.8.8.8.8.8.8.8.8.8.8. .*.1.3.5.7.3.=.*.-.1.1.1.3.3.1.1.5.7.7.7.7.7.7.3.=.O./ 8.8.8.8.8.8.8.8.",
"8.8.8.8.8.8.8.8.8.8.8.8.8.8.8.8.8.8.8.8.8.8.8.8.8.8.8.8.^ o.#.*.-.1.1.%.) _ O.&.&.*.&.@.[ &.3.7.7.5.3.1.=.#.{ P 8.8.8.8.8.8.8.8.",
"8.8.8.8.8.8.8.8.8.8.8.8.8.8.8.8.8.8.8.8.8.8.8.8.8.8.8.8.9 /  .o.O.%.=.1.4.m i f K K f i  .<.1.1.<.-.&.&.@. .^ 0 8.8.8.8.8.8.8.8.",
"8.8.8.8.8.8.8.8.8.8.8.8.8.8.8.8.8.8.8.8.8.8.8.8.8.8.8.8.8.e ^ ) ` { ..O.=.3.&.Y m m U ,.3.-.&.#.@.O.O...{ ^ e 4 8.8.8.8.8.8.8.8.",
"8.8.8.8.8.8.8.8.8.8.8.8.8.8.8.8.8.8.8.8.8.8.8.8.8.8.8.8.8.8.8 L I I Q /  .*.1.5.7.7.3.<.#... . .{ [ ` ) ! e 3 8.8.8.8.8.8.8.8.8.",
"8.8.8.8.8.8.8.8.8.8.8.8.8.8.8.8.8.8.8.8.8.8.8.8.8.8.8.8.8.8.8.4 3 6 0 P ` O.&.=.-.-.=.%. ./ I I Q Q I L 7 3 8.8.8.8.8.8.8.8.8.8.",
"8.8.8.8.8.8.8.8.8.8.8.8.8.8.8.8.8.8.8.8.8.8.8.8.8.8.8.8.8.8.8.8.8.4 3 w ^ [ ..O.O.O.O...[ ^ e 0 7 6 2 1 8.8.8.8.8.8.8.8.8.8.8.8.",
"8.8.8.8.8.8.8.8.8.8.8.8.8.8.8.8.8.8.8.8.8.8.8.8.8.8.8.8.8.8.8.8.8.8.8.4 q Q / _ ` ` ` _ / I 0 1 1 1 4 8.8.8.8.8.8.8.8.8.8.8.8.8.",
"8.8.8.8.8.8.8.8.8.8.8.8.8.8.8.8.8.8.8.8.8.8.8.8.8.8.8.8.8.8.8.8.8.8.8.8.8.7 q L I I I P w 7 1 3 8.8.8.8.8.8.8.8.8.8.8.8.8.8.8.8.",
"8.8.8.8.8.8.8.8.8.8.8.8.8.8.8.8.8.8.8.8.8.8.8.8.8.8.8.8.8.8.8.8.8.8.8.8.8.8.8.4 3 1 1 1 3 4 8.8.8.8.8.8.8.8.8.8.8.8.8.8.8.8.8.8.",
"8.8.8.8.8.8.8.8.8.8.8.8.8.8.8.8.8.8.8.8.8.8.8.8.8.8.8.8.8.8.8.8.8.8.8.8.8.8.8.8.8.8.8.8.8.8.8.8.8.8.8.8.8.8.8.8.8.8.8.8.8.8.8.8.",
"8.8.8.8.8.8.8.8.8.8.8.8.8.8.8.8.8.8.8.8.8.8.8.8.8.8.8.8.8.8.8.8.8.8.8.8.8.8.8.8.8.8.8.8.8.8.8.8.8.8.8.8.8.8.8.8.8.8.8.8.8.8.8.8.",
"8.8.8.8.8.8.8.8.8.8.8.8.8.8.8.8.8.8.8.8.8.8.8.8.8.8.8.8.8.8.8.8.8.8.8.8.8.8.8.8.8.8.8.8.8.8.8.8.8.8.8.8.8.8.8.8.8.8.8.8.8.8.8.8.",
"8.8.8.8.8.8.8.8.8.8.8.8.8.8.8.8.8.8.8.8.8.8.8.8.8.8.8.8.8.8.8.8.8.8.8.8.8.8.8.8.8.8.8.8.8.8.8.8.8.8.8.8.8.8.8.8.8.8.8.8.8.8.8.8.",
"8.8.8.8.8.8.8.8.8.8.8.8.8.8.8.8.8.8.8.8.8.8.8.8.8.8.8.8.8.8.8.8.8.8.8.8.8.8.8.8.8.8.8.8.8.8.8.8.8.8.8.8.8.8.8.8.8.8.8.8.8.8.8.8.",
"8.8.8.8.8.8.8.8.8.8.8.8.8.8.8.8.8.8.8.8.8.8.8.8.8.8.8.8.8.8.8.8.8.8.8.8.8.8.8.8.8.8.8.8.8.8.8.8.8.8.8.8.8.8.8.8.8.8.8.8.8.8.8.8."
};
