/* XPM */
static char *_574843075859[] = {
/* columns rows colors chars-per-pixel */
"64 64 120 2 ",
"   c black",
".  c gray3",
"X  c #101010",
"o  c #181818",
"O  c #212118",
"+  c #292118",
"@  c gray16",
"#  c #313121",
"$  c #393131",
"%  c #393939",
"&  c #5A3108",
"*  c #524218",
"=  c #5A4A21",
"-  c #635221",
";  c #7B5A21",
":  c #6B6339",
">  c #4A4A42",
",  c #525242",
"<  c gray32",
"1  c #5A5A52",
"2  c #5A5A5A",
"3  c #5A634A",
"4  c #6B6B4A",
"5  c #73734A",
"6  c #7B734A",
"7  c #63635A",
"8  c #6B6B5A",
"9  c #7B7B5A",
"0  c #6B6B63",
"q  c #73736B",
"w  c #737B73",
"e  c #7B7B73",
"r  c #9C1800",
"t  c #8C4A08",
"y  c #944210",
"u  c #945A10",
"i  c #B55A18",
"p  c #946B18",
"a  c #B57B10",
"s  c #8C7B39",
"d  c #AD7321",
"f  c #AD7B31",
"g  c #CE6B18",
"h  c #846B42",
"j  c #B58410",
"k  c #BD8410",
"l  c #C68C18",
"z  c #DE8410",
"x  c #CE9410",
"c  c #F79410",
"v  c #EFAD18",
"b  c #E7B518",
"n  c #FFB518",
"m  c #DE8429",
"M  c #CE9C29",
"N  c #FFC618",
"B  c #FFD618",
"V  c #E7C621",
"C  c #FFC621",
"Z  c #FFDE21",
"A  c #FFD631",
"S  c #F7E721",
"D  c #FFE721",
"F  c #FFEF21",
"G  c #FFF721",
"H  c #FFFF21",
"J  c #A58C4A",
"K  c #8C8C63",
"L  c #94946B",
"P  c #84847B",
"I  c #8C8C7B",
"U  c #8C947B",
"Y  c #BDB56B",
"T  c #FFDE6B",
"R  c #FFF76B",
"E  c gray55",
"W  c #94948C",
"Q  c #949C8C",
"!  c gray61",
"~  c #A59C8C",
"^  c #A5A584",
"/  c #A5AD94",
"(  c #A5A59C",
")  c #ADAD9C",
"_  c #ADB59C",
"`  c #B5B59C",
"'  c gray68",
"]  c #ADB5AD",
"[  c #B5B5A5",
"{  c #B5BDA5",
"}  c #BDBDA5",
"|  c #B5BDAD",
" . c gray71",
".. c gray74",
"X. c #BDC6AD",
"o. c #C6CEB5",
"O. c #C6CEBD",
"+. c #CED6BD",
"@. c #CECEC6",
"#. c #D6D6C6",
"$. c #DEDEC6",
"%. c #DED6CE",
"&. c #D6DECE",
"*. c #DEE7CE",
"=. c #E7E7CE",
"-. c #E7EFCE",
";. c #EFF7D6",
":. c #F7F7DE",
">. c #DEDEE7",
",. c #E7E7E7",
"<. c #EFEFEF",
"1. c #F7EFEF",
"2. c #F7F7E7",
"3. c #FFFFE7",
"4. c #FFFFEF",
"5. c #FFF7F7",
"6. c #FFFFF7",
"7. c #F7FFFF",
"8. c white",
"9. c None",
/* pixels */
"9.9.9.9.9.9.9.9.9.9.9.9.9.9.9.9.9.9.9.9.9.9.9.9.9.9.9.9.9.9.9.9.9.9.9.9.9.9.9.9.9.9.9.9.9.9.9.9.9.9.9.9.9.9.9.9.9.9.9.9.9.9.9.9.",
"9.9.9.9.9.9.9.9.9.9.9.9.9.9.9.9.9.9.9.9.9.9.9.9.9.9.9.9.9.9.9.9.9.9.9.9.9.9.9.9.9.9.9.9.9.9.9.9.9.9.9.9.9.9.9.9.9.9.9.9.9.9.9.9.",
"9.9.9.9.9.9.9.9.9.9.9.9.9.9.9.9.9.9.9.9.9.9.9.9.9.9.9.9.9.9.9.9.9.9.9.9.9.9.9.9.9.9.9.9.9.9.9.9.9.9.9.9.9.9.9.9.9.9.9.9.9.9.9.9.",
"9.9.9.9.9.9.9.9.9.9.9.9.9.9.9.9.9.9.9.9.9.9.9.9.9.9.9.9.9.9.9.9.9.9.9.9.9.9.9.9.9.9.9.9.9.9.9.9.9.9.9.9.9.9.9.9.9.9.9.9.9.9.9.9.",
"9.9.9.9.9.9.9.9.9.9.9.9.9.9.9.9.9.9.9.9.9.9.9.9.9.9.9.9.9.9.9.9.9.9.9.9.9.9.9.9.9.9.9.9.9.9.9.9.9.9.9.9.9.9.9.9.9.9.9.9.9.9.9.9.",
"9.9.9.9.9.9.9.9.9.9.9.9.9.9.9.9.9.9.9.9.9.9.9.9.9.9.9.9.9.9.9.9.9.9.9.9.9.9.9.9.9.9.9.9.9.9.9.9.9.9.9.9.9.9.9.9.9.9.9.9.9.9.9.9.",
"9.9.9.9.9.9.9.9.9.9.9.9.9.9.9.9.9.9.9.9.9.9.9.9.9.9.9.9.9.9.9.9.9.9.9.9.9.9.9.9.9.9.9.9.9.9.9.9.9.9.9.9.9.9.9.9.9.9.9.9.9.9.9.9.",
"9.9.9.9.9.9.9.9.9.9.3 9.9.9.9.9.9.9.9.9.9.9.9.9.9.9.9.9.9.9.9.9.9.9.9.9.9.9.9.9.9.9.9.9.9.9.9.9.9.9.9.9.9.9.9.9.9.9.9.9.9.9.9.9.",
"9.9.9.9.9.9.9.9.9.9.9.9.9.9.9.9.9.9.9.9.9.9.9.9.9.9.9.9.9.9.9.9.9.9.9.9.9.9.9.9.9.9.9.9.9.9.9.9.9.9.9.9.9.9.9.9.9.9.9.9.9.9.9.9.",
"9.9.9.9.9.9.9.9.9.9.9., 9.9.9.9.9.9.9.9.9.9.9.9.9.9.9.9.9.9.9.9.9.9.9.9.9.9.9.9.9.9.9.9.9.9.9.9.9.9.9.9.9.9.9.9.9.9.9.9.9.9.9.9.",
"9.9.9.9.9.9.9.9.9.9.9.@ , 9.9.9.9.9.9.9.9.9.9.9.9.9.9.9.9.9.9.9.9.9.* * = X 9.9.- * 9.9.9.9.9.9.9.9.9.9.9.9.9.9.9.9.9.9.9.9.9.9.",
"9.9.9.9.9.9.9.9.9.9.9.> < ' e , 9.9.9.h u 9.9.9.9.9.9.9.9.9.9.9.9.9.9.9.* + 9.& 9.9.9.9.9.9.9.9.9.9.9.9.9.9.9.9.9.9.9.9.9.9.9.9.",
"9.9.9.9.9.9.9.9.9.9.9.8 q ( W     2 ..~ & 9.9.9.9.9.9.9.9.9.9.9.9.9.9.9.s p p 9.9.9.9.9.9.9.9.9.9.9.9.9.9.9.9.9.9.9.9.9.9.9.9.9.",
"9.9.9.9.9.9.9.9.9.9.9.8 P $ q X   > ..' & 9.9.9.9.9.9.9.9.9.9.9.9.9.M S H H H F V 9.9.9.9.9.9.9.9.9.9.9.9.9.9.9.9.9.9.9.9.9.9.9.",
"9.9.9.9.9.9.9.9.9.9.9.9.< O   E E q > % & 9.9.9.9.9.9.9.9.9.9.9.9.M F H H H H H D B f 9.9.9.9.9.9.9.9.9.9.9.9.9.9.9.9.9.9.9.9.9.",
"9.9.9.9.9.9.9.9.9.9.9.9.O > o E ..( .   & - 9.9.9.9.9.9.9.9.9.9.9.B G H H H H H D B v 5 4 9.9.9.9.9.9.9.9.9.9.9.9.9.9.9.9.9.9.9.",
"9.9.9.9.9.9.9.9.9.9.9.9.> q ( q P E O o & = 9.9.9.9.9.9.9.9.9.9.; & - M S R H M : & u 5 2 1 9.9.9.9.9.9.9.9.9.9.9.9.9.9.9.9.9.9.",
"9.9.9.9.9.9.9.9.9.9.9.9.q w ( 7     W  .6 - 9.9.9.9.9.9.9.9.9.9.  w 7 > = V = $ > 2 X 7 E < 9.9.9.9.9.9.9.9.9.9.9.9.9.9.9.9.9.9.",
"9.9.9.9.9.9.9.9.9.9.9.9.8 q $ < X   P ..6 & 9.9.9.9.9.9.9.9.9.  ' 7.8.@.@   X ..,.<.' o > > , 9.9.9.9.9.9.9.9.9.9.9.9.9.9.9.9.9.",
"9.9.9.9.9.9.9.9.9.9.9.9.1 > X O ( W 0 % * & 9.9.9.9.9.9.9.9.9.O 7.7.8.8.<.' <.<.<.<.<.> O % $ 9.9.9.9.9.9.9.9.9.9.9.9.9.9.9.9.9.",
"9.9.9.9.9.9.9.9.9.9.9.9.9.@ 7 @ ' ..7   . & 9.9.9.9.9.9.9.9.9.% 7.7.7...! 7.<.< @.<.<.q o @ # 9.9.9.9.9.9.9.9.9.9.9.9.9.9.9.9.9.",
"9.9.9.9.9.9.9.9.9.9.9.9.9.2 E ' < 7 2 % > & 9.9.9.9.9.9.9.9.9.o <.8.7.P w >.1.$ @.<.<.<   o % 9.9.9.9.9.9.9.9.9.9.9.9.9.9.9.9.9.",
"9.9.9.9.9.9.9.9.9.9.9.9.9.P 0 ( $   @ ]  .& 9.9.9.9.9.9.9.9.9.& w 1.8.,.7 X 7 *.1.5.! o h ( 9.9.9.9.9.9.9.9.9.9.9.9.9.9.9.9.9.9.",
"9.9.9.9.9.9.9.9.9.9.9.9.9.9.> o % @ @ ( ] - - 9.9.9.9.9.9.9.9.b ; @ > . = V & o 8 , o u J X.9.9.9.9.9.9.S 9.9.V F D 9.9.9.9.9.9.",
"9.9.9.9.9.9.9.9.9.9.9.9.9.9.9.X < ..' @ . & - 9.9.9.9.9.9.9.9.n D V s j b B c p s V B n Y [ 9.9.9.9.9.9.n b F n k d 9.9.9.9.9.9.",
"9.9.9.9.9.9.9.9.9.9.9.9.9.9.9.9.4 ]  .@   & = 9.9.9.9.9.9.9.9.g n N N n g i i n N N c g _ ) 9.9.9.9.9.N n x n j V F G 9.9.9.9.9.",
"9.9.9.9.9.9.9.9.9.9.9.9.9.9.9.9.9.9.9.9.9.- ; 9.9.9.9.9.9.9.9.J i z g y r r r y z z i ; 1.U 9.9.9.V v z g x D Z x k d 9.9.9.9.9.",
"9.9.9.9.9.9.9.9.9.9.9.9.9.9.9.9.9.9.9.9.9.9.; 9.9.9.9.9.9.9.,.8.J t & t r r r y t & & %.=.o.M S G F n z g N N V V S S 9.9.9.9.9.",
"9.9.9.9.9.9.9.9.9.9.9.9.9.9.9.9.9.9.9.9.9.9.& 9.9.9.9.9.9.9.8.8.J k a t t r & & = # $ W J g B D Z B n c n n n N x x x 9.9.9.9.9.",
"9.9.9.9.9.9.9.9.9.9.9.9.9.9.9.9.9.9.9.9.9.9.t 9.9.9.9.9.9.T T Z k l x l a p u a * O O * g g v N N n z u i d p 9.9.9.9.9.9.9.9.9.",
"9.9.9.9.9.9.9.9.9.9.9.9.9.9.9.9.9.9.9.9.9.9.& 9.9.9.9.V F D B N g l l x x x x x u O X t i i c c z i ; 9.9.9.9.9.9.9.9.9.9.9.9.9.",
"9.9.9.9.9.9.9.9.9.9.9.9.9.9.9.9.9.9.9.9.9.9.t l H G B N N n c z a k l l l l l l k a p u u t i p ; 9.9.9.9.9.9.9.9.9.9.9.9.9.9.9.",
"9.9.9.9.9.9.9.9.9.9.9.9.9.9.9.9.9.9.9.9.9.F l b F v z c z g u t b x k k k k k k j j a t & K ~ Q 9.9.9.9.9.9.9.9.9.9.9.9.9.9.9.9.",
"9.9.9.9.9.9.9.9.9.9.9.9.9.9.9.9.9.9.9.9.9.C B Z a t u t t t ; a G F b x V S x l V j a d u J  .! 9.9.9.9.9.9.9.9.9.9.9.9.9.9.9.9.",
"9.9.9.9.9.9.9.9.9.9.9.9.9.9.9.9.9.9.9.9.9.k l u & & - 9.6 ( J x D F G G G G G S F Z b b a s ,.%.9.9.9.9.9.9.9.9.9.9.9.9.9.9.9.9.",
"9.9.9.9.9.9.9.9.9.9.9.9.9.9.9.9.9.9.9.9.9.d i t - 9.9.9.9./ _ T T A Z D D D D D Z C j j s ^ 5...9.9.9.9.9.9.9.9.9.9.9.9.9.9.9.9.",
"9.9.9.9.9.9.9.9.9.9.9.9.9.9.9.9.9.9.9.9.9.9.p ; 9.9.9.9./ &.5.8.8.3.-.T A A A A T T ^ _ | 5.8.5.X.9.9.9.9.9.9.9.9.9.9.9.9.9.9.9.",
"9.9.9.9.9.9.9.9.9.9.9.9.9.9.9.9.9.9.9.9.9.9.9.9.9.9.9.~ >.8.8.8.8.8.8.8.8.8.8.8.8.5.@.X.*.8.8.8.4.^ 9.9.9.9.9.9.9.9.9.9.9.9.9.9.",
"9.9.9.9.9.9.9.9.9.9.9.9.9.9.9.9.9.9.9.9.9.9.9.9.9.9.U 5.8.8.8.8.8.8.8.8.8.8.8.8.8.8.8.8.8.8.8.8.8.-.9.9.9.9.9.9.9.9.9.9.9.9.9.9.",
"9.9.9.9.9.9.9.9.9.9.9.9.9.9.9.9.9.9.9.9.9.9.9.9.9.K &.8.8.8.8.8.8.8.8.8.8.8.8.8.8.8.8.8.8.8.8.8.8.4./ 9.9.9.9.9.9.9.9.9.9.9.9.9.",
"9.9.9.9.9.9.9.9.9.9.9.9.9.9.9.9.9.9.9.9.9.9.9.9.9.| 8.8.8.8.8.8.8.8.8.8.8.8.8.8.8.8.8.8.8.8.8.8.8.8.$.9.9.9.9.9.9.9.9.9.9.9.9.9.",
"9.9.9.9.9.9.9.9.9.9.9.9.9.9.9.9.9.9.9.9.9.9.9.9.9.5.8.8.8.8.8.8.8.8.8.8.8.8.8.8.8.8.8.8.8.8.8.8.8.8.:.U 9.9.9.9.9.9.9.9.9.9.9.9.",
"9.9.9.9.9.9.9.9.9.9.9.9.9.9.9.9.9.9.9.9.9.9.9.9.=.8.8.8.8.8.8.8.8.8.8.8.8.8.8.8.8.8.8.8.8.8.8.8.8.8.2./ 9.9.9.9.9.9.9.9.9.9.9.9.",
"9.9.9.9.9.9.9.9.9.9.9.9.9.9.9.9.9.9.9.9.9.9.9.9.4.8.8.8.8.8.8.8.8.8.*.8.8.8.8.8.5.8.8.8.8.8.8.8.8.8.3.X.9.9.9.9.9.9.9.9.9.9.9.9.",
"9.9.9.9.9.9.9.9.9.9.9.9.9.9.9.9.9.9.9.9.9.9.9.9.4.8.8.8.8.8.8.8.8.@.% <.8.8.8.q ' 8.8.8.8.8.8.8.8.8.3.O.9.9.9.9.9.9.9.9.9.9.9.9.",
"9.9.9.9.9.9.9.9.9.9.9.9.9.9.9.9.9.9.9.9.9.9.9.^ 3.8.8.8.8.8.8.8.8.&.X 8.8.8.8.O W 8.8.8.8.8.8.8.8.8.3.o.9.9.9.9.9.9.9.9.9.9.9.9.",
"9.9.9.9.9.9.9.9.9.9.9.9.9.9.9.9.9.9.9.9.9.9.9.^ 2.8.8.8.8.8.8.8.8.8...8.8.8.8.' 1.8.8.8.8.8.8.8.8.6.;.X.9 9.9.9.9.9.9.9.9.9.9.9.",
"9.9.9.9.9.9.9.9.9.9.9.9.9.9.9.9.9.9.9.9.9.9.9.L -.4.8.8.8.8.8.8.6.6.8.8.8.8.8.8.8.8.8.8.8.8.8.8.8.3.*.[ 9.9.9.9.9.9.9.9.9.9.9.9.",
"9.9.9.9.9.9.9.9.9.9.9.9.9.9.9.9.9.9.9.9.9.9.9.9.+.;.4.6.8.8.8.3.-.:.2.3.3.4.4.3.3.3.6.8.8.8.8.6.3.;.+./ 9.9.9.9.9.9.9.9.9.9.9.9.",
"9.9.9.9.9.9.9.9.9.9.9.9.9.9.9.9.9.9.9.9.9.9.9.9.) #.-.:.2.3.3.:.{ ^ o.$.=.-.=.$.o.` :.6.6.6.4.3.*.+.{ I 9.9.9.9.9.9.9.9.9.9.9.9.",
"9.9.9.9.9.9.9.9.9.9.9.9.9.9.9.9.9.9.9.9.9.9.9.9.e ` o.+.$.*.-.:.4.%.i i J J J i m ,.3.3.:.;.-.$.+.} Q 0 9.9.9.9.9.9.9.9.9.9.9.9.",
"9.9.9.9.9.9.9.9.9.9.9.9.9.9.9.9.9.9.9.9.9.9.9.9.9.P ) { } X.o.+.*.2.2.} m m m X.6.4.:.*.#.+.o.X.` Q q 4 9.9.9.9.9.9.9.9.9.9.9.9.",
"9.9.9.9.9.9.9.9.9.9.9.9.9.9.9.9.9.9.9.9.9.9.9.9.9.9.e U Q Q ~ ~ ` #.2.4.6.8.6.4.;.+.X.} ` _ ) / U q 3 9.9.9.9.9.9.9.9.9.9.9.9.9.",
"9.9.9.9.9.9.9.9.9.9.9.9.9.9.9.9.9.9.9.9.9.9.9.9.9.9.9.4 7 8 0 e ~ o.*.;.:.:.:.-.+.{ Q U I I I e 7 3 9.9.9.9.9.9.9.9.9.9.9.9.9.9.",
"9.9.9.9.9.9.9.9.9.9.9.9.9.9.9.9.9.9.9.9.9.9.9.9.9.9.9.9.9.3 1 q Q [ o.+.+.+.+.o.X.) U 0 2 1 1 3 9.9.9.9.9.9.9.9.9.9.9.9.9.9.9.9.",
"9.9.9.9.9.9.9.9.9.9.9.9.9.9.9.9.9.9.9.9.9.9.9.9.9.9.9.9.9.9.9.3 w W / _ ` ` ` ) / U e 1 1 3 9.9.9.9.9.9.9.9.9.9.9.9.9.9.9.9.9.9.",
"9.9.9.9.9.9.9.9.9.9.9.9.9.9.9.9.9.9.9.9.9.9.9.9.9.9.9.9.9.9.9.9.9.8 q P U U U I w 8 1 3 9.9.9.9.9.9.9.9.9.9.9.9.9.9.9.9.9.9.9.9.",
"9.9.9.9.9.9.9.9.9.9.9.9.9.9.9.9.9.9.9.9.9.9.9.9.9.9.9.9.9.9.9.9.9.9.9.3 3 1 1 1 3 9.9.9.9.9.9.9.9.9.9.9.9.9.9.9.9.9.9.9.9.9.9.9.",
"9.9.9.9.9.9.9.9.9.9.9.9.9.9.9.9.9.9.9.9.9.9.9.9.9.9.9.9.9.9.9.9.9.9.9.9.9.9.9.9.9.9.9.9.9.9.9.9.9.9.9.9.9.9.9.9.9.9.9.9.9.9.9.9.",
"9.9.9.9.9.9.9.9.9.9.9.9.9.9.9.9.9.9.9.9.9.9.9.9.9.9.9.9.9.9.9.9.9.9.9.9.9.9.9.9.9.9.9.9.9.9.9.9.9.9.9.9.9.9.9.9.9.9.9.9.9.9.9.9.",
"9.9.9.9.9.9.9.9.9.9.9.9.9.9.9.9.9.9.9.9.9.9.9.9.9.9.9.9.9.9.9.9.9.9.9.9.9.9.9.9.9.9.9.9.9.9.9.9.9.9.9.9.9.9.9.9.9.9.9.9.9.9.9.9.",
"9.9.9.9.9.9.9.9.9.9.9.9.9.9.9.9.9.9.9.9.9.9.9.9.9.9.9.9.9.9.9.9.9.9.9.9.9.9.9.9.9.9.9.9.9.9.9.9.9.9.9.9.9.9.9.9.9.9.9.9.9.9.9.9.",
"9.9.9.9.9.9.9.9.9.9.9.9.9.9.9.9.9.9.9.9.9.9.9.9.9.9.9.9.9.9.9.9.9.9.9.9.9.9.9.9.9.9.9.9.9.9.9.9.9.9.9.9.9.9.9.9.9.9.9.9.9.9.9.9.",
"9.9.9.9.9.9.9.9.9.9.9.9.9.9.9.9.9.9.9.9.9.9.9.9.9.9.9.9.9.9.9.9.9.9.9.9.9.9.9.9.9.9.9.9.9.9.9.9.9.9.9.9.9.9.9.9.9.9.9.9.9.9.9.9."
};
