/* XPM */
static char *_574843109340[] = {
/* columns rows colors chars-per-pixel */
"64 64 117 2 ",
"   c black",
".  c gray3",
"X  c #101010",
"o  c #181818",
"O  c #212118",
"+  c #292118",
"@  c gray16",
"#  c #393131",
"$  c #393939",
"%  c #5A3108",
"&  c #524218",
"*  c #5A4A21",
"=  c #635221",
"-  c #7B5A21",
";  c #6B6339",
":  c #4A4A42",
">  c #525242",
",  c gray32",
"<  c #5A5A52",
"1  c #5A5A5A",
"2  c #5A634A",
"3  c #6B6B4A",
"4  c #63635A",
"5  c #6B6B5A",
"6  c #737352",
"7  c #6B6B63",
"8  c #73736B",
"9  c #737B73",
"0  c #7B7B73",
"q  c #9C1800",
"w  c #8C4A08",
"e  c #945A10",
"r  c #B55A18",
"t  c #946B18",
"y  c #B57B10",
"u  c #AD7321",
"i  c #AD7B31",
"p  c #CE6B18",
"a  c #B58410",
"s  c #BD8410",
"d  c #C68C18",
"f  c #DE8410",
"g  c #CE9410",
"h  c #F79410",
"j  c #EFAD18",
"k  c #E7B518",
"l  c #FFB518",
"z  c #DE8429",
"x  c #CE9C29",
"c  c #F79C29",
"v  c #FFC618",
"b  c #FFD618",
"n  c #E7C621",
"m  c #FFC621",
"M  c #FFDE21",
"N  c #FFD631",
"B  c #F7E721",
"V  c #FFE721",
"C  c #FFEF21",
"Z  c #FFF721",
"A  c #FFFF21",
"S  c #84845A",
"D  c #A58C4A",
"F  c #94946B",
"G  c #84847B",
"H  c #8C8C7B",
"J  c #8C947B",
"K  c #BDB56B",
"L  c #DEB54A",
"P  c #DECE4A",
"I  c #FFDE6B",
"U  c gray55",
"Y  c #94948C",
"T  c #949C8C",
"R  c gray61",
"E  c #A59C8C",
"W  c #A5A584",
"Q  c #A5AD94",
"!  c #A5A59C",
"~  c #ADAD9C",
"^  c #ADB59C",
"/  c #B5B59C",
"(  c gray68",
")  c #ADB5AD",
"_  c #B5B5A5",
"`  c #B5BDA5",
"'  c #BDBDA5",
"]  c #B5BDAD",
"[  c gray71",
"{  c gray74",
"}  c #BDC6AD",
"|  c #C6CEB5",
" . c #C6C6BD",
".. c #C6CEBD",
"X. c #CED6BD",
"o. c #CECEC6",
"O. c #D6D6C6",
"+. c #DEDEC6",
"@. c #DED6CE",
"#. c #D6DECE",
"$. c #DEE7CE",
"%. c #E7E7CE",
"&. c #E7EFCE",
"*. c #EFF7D6",
"=. c #F7F7DE",
"-. c #DEDEE7",
";. c #E7E7E7",
":. c #EFEFEF",
">. c #F7EFEF",
",. c #F7F7E7",
"<. c #FFFFE7",
"1. c #FFFFEF",
"2. c #FFF7F7",
"3. c #FFFFF7",
"4. c #F7FFFF",
"5. c white",
"6. c None",
/* pixels */
"6.6.6.6.6.6.6.6.6.6.6.6.6.6.6.6.6.6.6.6.6.6.6.6.6.6.6.6.6.6.6.6.6.6.6.6.6.6.6.6.6.6.6.6.6.6.6.6.6.6.6.6.6.6.6.6.6.6.6.6.6.6.6.6.",
"6.6.6.6.6.6.6.6.6.6.6.6.6.6.6.6.6.6.6.6.6.6.6.6.6.6.6.6.6.6.6.6.6.6.6.6.6.6.6.6.6.6.6.6.6.6.6.6.6.6.6.6.6.6.6.6.6.6.6.6.6.6.6.6.",
"6.6.6.6.6.6.6.6.6.6.6.6.6.6.6.6.6.6.6.6.6.6.6.6.6.6.6.6.6.6.6.6.6.6.6.6.6.6.6.6.6.6.6.6.6.6.6.6.6.6.6.6.6.6.6.6.6.6.6.6.6.6.6.6.",
"6.6.6.6.6.6.6.6.6.6.6.6.6.6.6.6.6.6.6.6.6.6.6.6.6.6.6.6.6.6.6.6.6.6.6.6.6.6.6.6.6.6.6.6.6.6.6.6.6.6.6.6.6.6.6.6.6.6.6.6.6.6.6.6.",
"6.6.6.6.6.6.6.6.6.6.6.6.6.6.6.6.6.6.6.6.6.6.6.6.6.6.6.6.6.6.6.6.6.6.6.6.6.6.6.6.6.6.6.6.6.6.6.6.6.6.6.6.6.6.6.6.6.6.6.6.6.6.6.6.",
"6.6.6.6.6.6.6.6.6.6.6.6.6.6.6.6.6.6.6.6.6.6.6.6.6.6.6.6.6.6.6.6.6.6.6.6.6.6.6.6.6.6.6.6.6.6.6.6.6.6.6.6.6.6.6.6.6.6.6.6.6.6.6.6.",
"6.6.6.6.6.6.6.6.6.6.6.6.6.6.6.6.6.6.6.6.6.6.6.6.6.6.6.6.6.6.6.6.6.6.6.6.6.6.6.6.6.6.6.6.6.6.6.6.6.6.6.6.6.6.6.6.6.6.6.6.6.6.6.6.",
"6.6.6.6.6.6.6.6.6.6.6.6.6.6.6.6.6.6.6.6.6.6.6.6.6.6.6.6.6.6.6.6.6.6.6.6.6.6.6.6.6.6.6.6.6.6.6.6.6.6.6.6.6.6.6.6.6.6.6.6.6.6.6.6.",
"6.6.6.6.6.6.6.6.6.6.6.6.6.6.6.6.6.6.6.6.6.6.6.6.6.6.6.6.6.6.6.6.6.6.6.6.6.6.6.6.6.6.6.6.6.6.6.6.6.6.6.6.6.6.6.6.6.6.6.6.6.6.6.6.",
"6.6.6.6.6.6.6.6.6.6.6.6.6.6.6.6.6.6.6.6.6.6.6.6.6.6.6.6.6.6.6.6.6.6.6.6.6.6.6.6.6.6.6.6.6.6.6.6.6.6.6.6.6.6.6.6.6.6.6.6.6.6.6.6.",
"6.6.6.6.6.6.6.6.6.6.6.6.6.6.6.6.6.6.6.6.6.6.6.6.6.6.6.6.6.6.6.6.6.6.6.6.6.6.6.6.& = 6.6.6.6.6.6.6.6.6.6.6.6.6.6.6.6.6.6.6.6.6.6.",
"6.6.6.6.6.6.6.6.6.6.6.6.6.6.6.6.6.6.6.6.6.6.6.6.6.6.6.6.6.6.6.6.6.6.6.6.6.6.6.6.6.; * 6.. 6.6.= 6.6.6.6.6.6.6.6.6.6.6.6.6.6.6.6.",
"6.6.6.6.6.6.6.6.6.6.6.6.6.6.6.6.6.6.6.6.6.6.6.6.6.6.6.6.6.6.6.6.6.6.6.6.6.6.6.6.6.6.& + + % & 6.6.6.6.6.6.6.6.6.6.6.6.6.6.6.6.6.",
"6.6.6.6.6.6.6.6.6.6.6.6.6.6.6.6.6.6.6.6.6.6.6.6.6.6.6.6.6.6.6.6.6.6.6.6.6.6.6.6.P n n g t 6.6.6.6.6.6.6.6.6.6.6.6.6.6.6.6.6.6.6.",
"6.6.6.6.6.6.6.6.6.6.6.6.6.6.6.6.6.6.6.6.6.6.6.6.6.6.6.6.6.6.6.6.6.6.6.6.6.6.x Z A A A A Z b 6.6.6.6.6.6.6.6.6.6.6.6.6.6.6.6.6.6.",
"6.6.6.6.6.6.6.6.6.6.6.6.6.6.6.6.6.6.6.6.6.6.6.6.6.6.6.6.6.6.6.6.6.6.6.6.6.x V A A A A A A M l 6.6.6.6.6.6.6.6.6.6.6.6.6.6.6.6.6.",
"6.6.6.6.6.6.6.6.6.6.6.6.6.6.6.6.6.6.6.6.6.6.6.6.6.6.6.6.6.6.6.6.6.6.6.6.* v M t ; * i A C M v z 6.6.6.6.6.6.6.6.6.6.6.6.6.6.6.6.",
"6.6.6.6.6.6.6.6.6.6.6.6.6.6.6.6.6.6.6.6.6.6.6.6.6.6.6.6.6.6.6.6.6.6.6.6.. t X o U 9 o - M b l p 2 6.6.6.6.u 6.6.6.6.6.6.6.6.6.6.",
"6.6.6.6.6.6.6.6.6.6.6.6.6.6.6.6.6.6.6.6.6.6.6.6.6.6.6.6.6.6.6.6.6.6.6.k w   : 4.5.5.) . t t X     $ B k e w 6.6.6.6.6.6.6.6.6.6.",
"6.6.6.6.6.6.6.6.6.6.6.6.6.6.6.6.6.6.6.6.6.6.6.6.6.6.6.6.6.6.6.6.6.6.6.v g   >.5.5.5.5.G   @ 8 U $ o a y t ;.6.6.6.6.6.6.6.6.6.6.",
"6.6.6.6.6.6.6.6.6.6.6.6.6.6.6.6.6.6.6.6.6.6.6.6.6.6.6.6.6.6.6.6.6.6.x b a O 5.5.5.;.{ :.) ) [ { (   e w ;.5.o.x 6.6.6.6.6.6.6.6.",
"6.6.6.6.6.6.6.6.6.6.6.6.6.6.6.6.6.6.6.6.6.6.6.6.6.6.6.6.6.6.6.6.6.6.k M n   -.5.5.4 4 ;.o.8 { [ ) w % .  .#.X = 6.6.6.6.6.6.6.6.",
"6.6.6.6.6.6.6.6.6.6.6.6.6.6.6.6.6.6.6.6.6.6.6.6.6.6.6.6.6.6.6.6.6.6.j b Z % 1 >.5.-.! ! R O { ) u - X   8 @   O 6.6.6.6.6.6.6.6.",
"6.6.6.6.6.6.6.6.6.6.6.6.6.6.6.6.6.6.6.6.6.6.6.6.6.6.6.6.6.6.6.6.6.6.c v C B = @ 7 4 > + 8 ! { i t :.4 1 2.7   G ] 6.6.6.6.6.6.6.",
"6.6.6.6.6.6.6.6.6.6.6.6.6.6.6.6.6.6.6.6.6.6.6.6.6.6.6.6.6.6.6.6.6.;.L h v V Z n t t A b + 9 u w -.5.{ ;.5.;.U 4.>.6.6.6.6.6.6.6.",
"6.6.6.6.6.6.6.6.6.6.6.6.6.6.6.6.6.6.6.6.6.6.6.6.6.6.6.6.6.6.6.` 2.5.I p h l l l j k j h w w %   R [ . ( 5.U Y 5.2.0 6.6.6.6.6.6.",
"6.6.6.6.6.6.6.6.6.6.6.6.6.6.6.6.6.6.6.6.6.6.6.6.6.6.6.6.6.6.| 5.5.<.B e e p p w q p w w r t $   7 #   @ U   @ -.: @ 6.6.6.6.6.6.",
"6.6.6.6.6.6.6.6.6.6.6.6.6.6.6.6.6.6.6.6.6.6.6.6.6.6.6.6.6.6.5.5.=.A A g y w % % q q q r t >.) 8 5.Y . ) U   @ 9   o 6.6.6.6.6.6.",
"6.6.6.6.6.6.6.6.6.6.6.6.6.6.6.6.6.6.6.6.6.6.6.6.6.6.6.6.6.2.5.1.N C A x s y w % q q r % ! 5.( @.5.>.) 5.:.: -.@.O  .6.6.6.6.6.6.",
"6.6.6.6.6.6.6.6.6.6.6.6.6.6.6.6.6.6.6.6.6.6.6.6.6.6.6.6.6.5.1.m V M Z I x y t e w e %   @ !   1 2.1 G 5.#.[ 5.-.o.5.6.6.6.6.6.6.",
"6.6.6.6.6.6.6.6.6.6.6.6.6.6.6.6.6.6.6.6.6.6.6.6.6.6.6.6.$.5.%.v M Z V Z k g d s r w t . U G   O 9   O { O 1 ;.$ -.U 6.6.6.6.6.6.",
"6.6.6.6.6.6.6.6.6.6.6.6.6.6.6.6.6.6.6.6.6.6.6.6.6.6.6.6.5.5.X.h b Z A Z n g s y w y y E 5.:.# #.[ X , 8   : # o 4 @ 6.6.6.6.6.6.",
"6.6.6.6.6.6.6.6.6.6.6.6.6.6.6.6.6.6.6.6.6.6.6.6.6.6.6.6.5.5.&.y v Z A A M k y w y y y D 2.>.! 5.5.U 4.{ , -.# ( @ 6.6.6.6.6.6.6.",
"6.6.6.6.6.6.6.6.6.6.6.6.6.6.6.6.6.6.6.6.6.6.6.6.6.6.6.6.5.5.I g l V A A b s e a y y u e ..# # >.( R 5. .>.:.#. .6.6.6.6.6.6.6.6.",
"6.6.6.6.6.6.6.6.6.6.6.6.6.6.6.6.6.6.6.6.6.6.6.6.6.6.6.6.5.5.N n h b C Z b s g M k g y e - .   G   , ( # @.8 #.6.6.6.6.6.6.6.6.6.",
"6.6.6.6.6.6.6.6.6.6.6.6.6.6.6.6.6.6.6.6.6.6.6.6.6.6.6.6.2.5.I N f l v g j v g b m v L ' ` $ R )   G X : @ 1 6.6.6.6.6.6.6.6.6.6.",
"6.6.6.6.6.6.6.6.6.6.6.6.6.6.6.6.6.6.6.6.6.6.6.6.6.6.6.X.5.5.5.1.K f j j r s m I I <.5.5.2. .5.-.R -.1 ! : 6.6.6.6.6.6.6.6.6.6.6.",
"6.6.6.6.6.6.6.6.6.6.6.6.6.6.6.6.6.6.6.6.6.6.6.6.6.6.6.5.5.5.5.5.5.i w w i } ;.5.5.5.5.>.$.] 2.Y >. .2.J 6.6.6.6.6.6.6.6.6.6.6.6.",
"6.6.6.6.6.6.6.6.6.6.6.6.6.6.6.6.6.6.6.6.6.6.6.6.6.6.2.5.5.5.5.5.5.} F ^ ` ` ` #.#.| } ` _ / 4 # R G E 6.6.6.6.6.6.6.6.6.6.6.6.6.",
"6.6.6.6.6.6.6.6.6.6.6.6.6.6.6.6.6.6.6.6.6.6.6.6.6.} 5.5.5.5.5.5.5.#.` ` ` ` ` } $.;.>.5.| / @ 8 o G S 6.6.6.6.6.6.6.6.6.6.6.6.6.",
"6.6.6.6.6.6.6.6.6.6.6.6.6.6.6.6.6.6.6.6.6.6.6.6.6.3.5.5.5.5.5.5.5.2.} ` ` ` ` $.5.5.5.5.;.^ ) R H J 0 6.6.6.6.6.6.6.6.6.6.6.6.6.",
"6.6.6.6.6.6.6.6.6.6.6.6.6.6.6.6.6.6.6.6.6.6.6.6.^ 5.5.5.5.5.5.5.5.5.$.o.o.$.$.5.5.5.5.5.5.o.>.~ E Y H 6.6.6.6.6.6.6.6.6.6.6.6.6.",
"6.6.6.6.6.6.6.6.6.6.6.6.6.6.6.6.6.6.6.6.6.6.6.6.%.5.5.5.5.5.5.5.5.5.5.5.5.5.5.5.5.5.5.5.5.#./ Q E Y H 7 6.6.6.6.6.6.6.6.6.6.6.6.",
"6.6.6.6.6.6.6.6.6.6.6.6.6.6.6.6.6.6.6.6.6.6.6.6.1.5.5.5.5.5.5.5.5.5.>.-.5.5.5.5.5.5.5.5.5.2._ Q E T H 9 6.6.6.6.6.6.6.6.6.6.6.6.",
"6.6.6.6.6.6.6.6.6.6.6.6.6.6.6.6.6.6.6.6.6.6.6.6.1.5.5.5.5.5.5.5.5.5.! 8 5.5.5.>.: o.5.5.5.5.o.Q E Y H 0 6.6.6.6.6.6.6.6.6.6.6.6.",
"6.6.6.6.6.6.6.6.6.6.6.6.6.6.6.6.6.6.6.6.6.6.6.6.1.5.5.5.5.5.5.5.5.5.Y @ 5.5.5.;.  o.5.5.5.5.-.E T J H 9 6.6.6.6.6.6.6.6.6.6.6.6.",
"6.6.6.6.6.6.6.6.6.6.6.6.6.6.6.6.6.6.6.6.6.6.6.W ,.5.5.5.5.5.5.5.5.5.>. .5.5.5.4.! 5.5.5.5.5.5.Q T J G 9 6 6.6.6.6.6.6.6.6.6.6.6.",
"6.6.6.6.6.6.6.6.6.6.6.6.6.6.6.6.6.6.6.6.6.6.6.E *.1.5.5.5.5.5.5.5.3.3.5.5.5.5.5.5.5.5.5.5.5.5.] J H 0 7 3 6.6.6.6.6.6.6.6.6.6.6.",
"6.6.6.6.6.6.6.6.6.6.6.6.6.6.6.6.6.6.6.6.6.6.6.6.+.=.1.5.5.5.5.3.,.*.=.<.<.<.<.<.<.<.<.3.5.5.5.] H G 9 7 6.6.6.6.6.6.6.6.6.6.6.6.",
"6.6.6.6.6.6.6.6.6.6.6.6.6.6.6.6.6.6.6.6.6.6.6.6.` +.=.<.<.1.1.<.+.E ^ X.$.%.%.%.O./ } <.3.1.<.| G 0 7 4 6.6.6.6.6.6.6.6.6.6.6.6.",
"6.6.6.6.6.6.6.6.6.6.6.6.6.6.6.6.6.6.6.6.6.6.6.6.H } X.+.%.&.&.&.&.1.D r D D D i r ' 3.1.,.&.+.` 9 7 5 2 6.6.6.6.6.6.6.6.6.6.6.6.",
"6.6.6.6.6.6.6.6.6.6.6.6.6.6.6.6.6.6.6.6.6.6.6.6.6.J _ } | | | ..X.&.1.@.L z z L *.3.<.&.O.| } Q 7 5 < 6.6.6.6.6.6.6.6.6.6.6.6.6.",
"6.6.6.6.6.6.6.6.6.6.6.6.6.6.6.6.6.6.6.6.6.6.6.6.6.6.G E Q Q Q Q Q } &.<.3.5.3.1.,.%.| ' ^ Q E J 5 < 2 6.6.6.6.6.6.6.6.6.6.6.6.6.",
"6.6.6.6.6.6.6.6.6.6.6.6.6.6.6.6.6.6.6.6.6.6.6.6.6.6.6.5 7 8 8 0 J ^ X.&.=.=.=.&.+.| Q J G 0 0 7 < 3 6.6.6.6.6.6.6.6.6.6.6.6.6.6.",
"6.6.6.6.6.6.6.6.6.6.6.6.6.6.6.6.6.6.6.6.6.6.6.6.6.6.6.6.6.2 < 5 H Q } X.X.X.X.| } ^ T 0 1 < < 3 6.6.6.6.6.6.6.6.6.6.6.6.6.6.6.6.",
"6.6.6.6.6.6.6.6.6.6.6.6.6.6.6.6.6.6.6.6.6.6.6.6.6.6.6.6.6.6.3 2 7 J Q ^ / / ^ Q E J 0 < < 2 6.6.6.6.6.6.6.6.6.6.6.6.6.6.6.6.6.6.",
"6.6.6.6.6.6.6.6.6.6.6.6.6.6.6.6.6.6.6.6.6.6.6.6.6.6.6.6.6.6.6.6.3 5 8 H J J H G 8 4 < 3 6.6.6.6.6.6.6.6.6.6.6.6.6.6.6.6.6.6.6.6.",
"6.6.6.6.6.6.6.6.6.6.6.6.6.6.6.6.6.6.6.6.6.6.6.6.6.6.6.6.6.6.6.6.6.6.6.2 2 1 < < 2 6.6.6.6.6.6.6.6.6.6.6.6.6.6.6.6.6.6.6.6.6.6.6.",
"6.6.6.6.6.6.6.6.6.6.6.6.6.6.6.6.6.6.6.6.6.6.6.6.6.6.6.6.6.6.6.6.6.6.6.6.6.6.6.6.6.6.6.6.6.6.6.6.6.6.6.6.6.6.6.6.6.6.6.6.6.6.6.6.",
"6.6.6.6.6.6.6.6.6.6.6.6.6.6.6.6.6.6.6.6.6.6.6.6.6.6.6.6.6.6.6.6.6.6.6.6.6.6.6.6.6.6.6.6.6.6.6.6.6.6.6.6.6.6.6.6.6.6.6.6.6.6.6.6.",
"6.6.6.6.6.6.6.6.6.6.6.6.6.6.6.6.6.6.6.6.6.6.6.6.6.6.6.6.6.6.6.6.6.6.6.6.6.6.6.6.6.6.6.6.6.6.6.6.6.6.6.6.6.6.6.6.6.6.6.6.6.6.6.6.",
"6.6.6.6.6.6.6.6.6.6.6.6.6.6.6.6.6.6.6.6.6.6.6.6.6.6.6.6.6.6.6.6.6.6.6.6.6.6.6.6.6.6.6.6.6.6.6.6.6.6.6.6.6.6.6.6.6.6.6.6.6.6.6.6.",
"6.6.6.6.6.6.6.6.6.6.6.6.6.6.6.6.6.6.6.6.6.6.6.6.6.6.6.6.6.6.6.6.6.6.6.6.6.6.6.6.6.6.6.6.6.6.6.6.6.6.6.6.6.6.6.6.6.6.6.6.6.6.6.6.",
"6.6.6.6.6.6.6.6.6.6.6.6.6.6.6.6.6.6.6.6.6.6.6.6.6.6.6.6.6.6.6.6.6.6.6.6.6.6.6.6.6.6.6.6.6.6.6.6.6.6.6.6.6.6.6.6.6.6.6.6.6.6.6.6."
};
