/* XPM */
static char *_574843038870[] = {
/* columns rows colors chars-per-pixel */
"64 64 125 2 ",
"   c black",
".  c gray3",
"X  c #101010",
"o  c #181818",
"O  c #212118",
"+  c #292118",
"@  c gray16",
"#  c #313121",
"$  c #393131",
"%  c #393939",
"&  c #5A3108",
"*  c #524218",
"=  c #5A4A21",
"-  c #635221",
";  c #7B5A21",
":  c #4A4A42",
">  c #525242",
",  c gray32",
"<  c #5A5A52",
"1  c #5A5A5A",
"2  c #5A634A",
"3  c #6B6B4A",
"4  c #73734A",
"5  c #7B734A",
"6  c #63635A",
"7  c #6B6B5A",
"8  c #737352",
"9  c #7B7B5A",
"0  c #6B6B63",
"q  c #73736B",
"w  c #737B73",
"e  c #7B7B73",
"r  c #9C1800",
"t  c #8C4A08",
"y  c #944210",
"u  c #945A10",
"i  c #B55A18",
"p  c #946B18",
"a  c #B57B10",
"s  c #8C7B39",
"d  c #AD7321",
"f  c #AD7B31",
"g  c #CE6B18",
"h  c #846B42",
"j  c #B58410",
"k  c #BD8410",
"l  c #C68C18",
"z  c #DE8410",
"x  c #CE9410",
"c  c #F79410",
"v  c #EFAD18",
"b  c #E7B518",
"n  c #FFB518",
"m  c #DE8429",
"M  c #CE9C29",
"N  c #F79C29",
"B  c #FFC618",
"V  c #FFD618",
"C  c #E7C621",
"Z  c #FFC621",
"A  c #FFDE21",
"S  c #FFD631",
"D  c #F7E721",
"F  c #FFE721",
"G  c #FFEF21",
"H  c #FFF721",
"J  c #FFFF21",
"K  c #84845A",
"L  c #A58C4A",
"P  c #AD9C5A",
"I  c #8C8C63",
"U  c #84847B",
"Y  c #8C8C7B",
"T  c #8C947B",
"R  c #BDB56B",
"E  c #DEB54A",
"W  c #DECE4A",
"Q  c #FFDE6B",
"!  c #FFF76B",
"~  c gray55",
"^  c #94948C",
"/  c #949C8C",
"(  c gray61",
")  c #A59C8C",
"_  c #A5AD94",
"`  c #A5A59C",
"'  c #ADAD9C",
"]  c #ADB59C",
"[  c #B5B59C",
"{  c gray68",
"}  c #ADB5AD",
"|  c #B5B5A5",
" . c #B5BDA5",
".. c #BDBDA5",
"X. c #B5BDAD",
"o. c gray71",
"O. c gray74",
"+. c #BDC6AD",
"@. c #C6CEB5",
"#. c #C6C6BD",
"$. c #C6CEBD",
"%. c #CED6BD",
"&. c #CECEC6",
"*. c #D6D6C6",
"=. c #DEDEC6",
"-. c #DED6CE",
";. c #D6DECE",
":. c #DEE7CE",
">. c #E7E7CE",
",. c #E7EFCE",
"<. c #EFF7D6",
"1. c #F7F7DE",
"2. c #DEDEE7",
"3. c #E7E7E7",
"4. c #EFEFEF",
"5. c #F7EFEF",
"6. c #F7F7E7",
"7. c #FFFFE7",
"8. c #F7F7EF",
"9. c #FFFFEF",
"0. c #FFF7F7",
"q. c #FFFFF7",
"w. c #F7FFFF",
"e. c white",
"r. c None",
/* pixels */
"r.r.r.r.r.r.r.r.r.r.r.r.r.r.r.r.r.r.r.r.r.r.r.r.r.r.r.r.r.r.r.r.r.r.r.r.r.r.r.r.r.r.r.r.r.r.r.r.r.r.r.r.r.r.r.r.r.r.r.r.r.r.r.r.",
"r.r.r.r.r.r.r.r.r.r.r.r.r.r.r.r.r.r.r.r.r.r.r.r.r.r.r.r.r.r.r.r.r.r.r.r.r.r.r.r.r.r.r.r.r.r.r.r.r.r.r.r.r.r.r.r.r.r.r.r.r.r.r.r.",
"r.r.r.r.r.r.r.r.r.r.r.r.r.r.r.r.r.r.r.r.r.r.r.r.r.r.r.r.r.r.r.r.r.r.r.r.r.r.r.r.r.r.r.r.r.r.r.r.r.r.r.r.r.r.r.r.r.r.r.r.r.r.r.r.",
"r.r.r.r.r.r.r.r.r.r.r.r.r.r.r.r.r.r.r.r.r.r.r.r.r.r.r.r.r.r.r.r.r.r.r.r.r.r.r.r.r.r.r.r.r.r.r.r.r.r.r.r.r.r.r.r.r.r.r.r.r.r.r.r.",
"r.r.r.r.r.r.r.r.r.r.r.r.r.r.r.r.r.r.r.r.r.r.r.r.r.r.r.r.r.r.r.r.r.r.r.r.r.r.r.r.r.r.r.r.r.r.r.r.r.r.r.r.r.r.r.r.r.r.r.r.r.r.r.r.",
"r.r.r.r.r.r.r.r.r.r.r.r.r.r.r.r.r.r.r.r.r.r.r.r.r.r.r.r.r.r.r.r.r.r.r.r.r.r.r.r.r.r.r.r.r.r.r.r.r.r.r.r.r.r.r.r.r.r.r.r.r.r.r.r.",
"r.r.r.r.r.r.r.r.r.r.r.r.r.r.r.r.r.r.r.r.r.r.r.r.r.r.r.r.r.r.r.r.r.r.r.r.r.r.r.r.r.r.r.r.r.r.r.r.r.r.r.r.r.r.r.r.r.r.r.r.r.r.r.r.",
"r.r.r.r.r.r.r.r.r.r.r.r.r.r.r.r.r.r.r.r.r.r.r.r.r.r.r.r.r.r.r.r.r.r.r.r.r.r.r.r.r.r.r.r.r.r.r.r.r.r.r.r.r.r.r.r.r.r.r.r.r.r.r.r.",
"r.r.r.r.r.r.r.r.r.r.r.r.r.r.r.r.r.r.r.r.r.r.r.r.r.r.r.r.r.r.r.r.r.r.r.r.r.r.r.r.r.r.r.r.r.r.r.r.r.r.r.r.r.r.r.r.r.r.r.r.r.r.r.r.",
"r.r.r.r.r.r.r.r.r.r.r.r.r.r.r.r.r.r.r.r.r.r.r.r.r.r.r.r.r.r.r.r.r.r.r.r.r.r.r.r.r.r.= r.r.r.r.r.r.r.r.r.r.r.r.r.r.r.r.r.r.r.r.r.",
"r.r.r.r.r.r.r.r.r.r.r.r.r.r.r.r.r.r.r.r.r.r.r.r.r.r.r.r.r.r.r.r.r.r.r.r.= r.r.r.r.+ r.r.r.r.r.r.r.r.r.r.r.r.r.r.r.r.r.r.r.r.r.r.",
"r.r.r.r.r.r.r.r.r.r.r.r.r.r.r.r.r.r.r.r.r.r.r.r.r.r.r.r.r.r.r.r.r.r.r.r.+ X r.r.+ r.r.r.r.r.r.r.r.r.r.r.r.r.r.r.r.r.r.r.r.r.r.r.",
"r.r.r.r.r.r.r.r.r.r.r.r.r.r.r.r.r.r.r.r.r.r.r.r.r.r.r.r.r.r.r.r.r.r.r.r.r.* X & r.r.r.r.r.r.r.r.r.r.r.r.r.r.r.r.r.r.r.r.r.r.r.r.",
"r.r.r.r.r.r.r.r.r.r.r.r.r.r.r.r.r.r.r.r.r.r.r.r.r.r.r.r.r.r.r.r.r.r.r.r.r.r.b D J G C r.r.r.r.r.r.r.r.r.r.r.r.r.r.r.r.r.r.r.r.r.",
"r.r.r.r.r.r.r.r.r.r.r.r.r.r.r.r.r.r.r.r.r.r.r.r.r.r.r.r.r.r.r.r.r.r.r.r.M H J J J J H V f 1 2 r.r.r.r.r.r.r.r.r.r.r.r.r.r.r.r.r.",
"r.r.r.r.r.r.r.r.r.r.r.r.r.r.r.r.r.r.r.r.r.r.r.r.r.r.r.r.r.r.r.r.r.r.r.r.F J J J H D H A 4 1 1 : r.r.r.r.r.r.r.r.r.r.r.r.r.r.r.r.",
"r.r.r.r.r.r.r.r.r.r.r.r.r.r.r.r.r.r.r.r.r.r.r.r.r.r.r.r.r.r.r.r.r.r.r.B F H G # O O + j 3 ` w : : r.r.r.r.A M M W r.r.r.r.r.r.r.",
"r.r.r.r.r.r.r.r.r.r.r.r.r.r.r.d ; r.r.r.r.r.r.r.r.r.r.r.r.r.r.r.r.r.* u C A + $ -.2.U X # 1 0 : $ r.r.r.r.n l n c M W r.r.r.r.r.",
"r.r.r.r.r.r.r.r.r.r.r.r.r.r.U K t r.r.r.r.r.r.r.r.r.r.r.r.r.r.r.r.. $ O $ * O 8.e.e.e.U   O : % $ : r.r.r.c z c g n z r.r.r.r.r.",
"r.r.r.r.r.r.r.r.r.r.r.r.%   , { ; t r.r.r.r.r.r.r.r.r.r.r.r.r.r.r.: #.#.~ : 2.e.e.e.e.5.O O $ @ @ % r.r.r.n c n z c p r.r.r.r.r.",
"r.r.r.r.r.r.r.r.r.r.' ;.U . X 0 O & ; r.r.r.r.r.r.r.r.r.r.r.r.r.$ 6 2.2.2.2.w.2.O 2.e.e.. ; # q @ r.Z W W J G H V l r.r.r.r.r.r.",
"r.r.r.r.r.r.r.r.r.X ( 2.#., } } @   t ; r.r.r.r.r.r.r.r.r.r.r.r.r., 2.2.` : 5.e.0 4.e.#.  b S e.K r.f b G J J J H M r.r.r.r.r.r.",
"r.r.r.r.r.r.r.0     o U o   ( O.q 6 h t r.r.r.r.r.r.r.r.r.r.r.r.r.O &.2.2.q $ q -.5.( X a G B 0.K r.r.; v B F A B p r.r.r.r.r.r.",
"r.r.r.r.r.r.&.4.$ o } #.o   , :   , } ; t r.r.r.r.r.r.r.r.r.r.r.r.% U -.2.< p f > o - W H V N e.5 r.r.r.t z B B c r.r.r.r.r.r.r.",
"r.r.r.r.r.&.e.e.{ #.e.0.~ ( ;.^ X o q O & p r.r.r.r.r.r.r.r.r.r.r.r.+ o @ & S Z b C F A B c E 0._ &._ r.f z c c i r.r.r.r.r.r.r.",
"r.r.r.r.@ { e.{ . , 5.^ . U 2.O.1 o.} @ . t r.r.r.r.r.r.r.r.r.r.r.r.f b C b g u v c c c c g ..%.E :.5.' B B n z - r.r.r.r.r.r.r.",
"r.r.r.o   o ~     . U .   X U .   ^ O.6 q 4 t r.r.r.r.r.r.r.r.r.r.r.r.c n c t y r r t i t L 0.M a ' e.W B B n g r.r.r.r.r.r.r.r.",
"r.r.%     6 #.O X #.0., @ #.-.@   0 %   , { ; t r.r.r.r.r.r.r.r.r.r.r.t i g y r r r & @ @ : R k a W Q B B B c p r.r.r.r.r.r.r.r.",
"r.r.r.O 1 w.e.{ O.e.e.{ O.e.5.U o.2.( X $ 6 X & ; r.r.r.r.r.r.r.r.r.r.r.- - t t y y & O @ O u x x b V B n n g r.r.r.r.r.r.r.r.r.",
"r.r.r.r.3.e.5.$ U 4.(   % 2.6   q ;.~ 1 O.} @ + t r.r.r.r.r.r.r.r.r.r.r.r.^ P g a u u + X + N N l v B n c g ; r.r.r.r.r.r.r.r.r.",
"r.r.r.r./ 3.%     U     O ^ o   $ q     U ( r.r.r.p r.r.r.r.r.r.r.r.r.r.f g z g k l l k p l x x j c n c i h ` r.r.r.r.r.r.r.r.r.",
"r.r.r.r.r.6 .   6 2.% @ -.e.q q 4.;.$ # r.r.r.r.r.- u r.r.r.r.r.r.r.r.C z g g d j k k l l l l b x z z u I #.O.r.r.r.r.r.r.r.r.r.",
"r.r.r.r.r.r.% 1 0.e.o.O.e.w.q o.e.3.r.r.r.r.r.r.r.r.t p r.r.r.r.r.W J H x i u p a a j k k k D k b C - = %.e.e.r.r.r.r.r.r.r.r.r.",
"r.r.r.r.r.r.r.&.e.2.O , 3.1   O } r.r.r.r.r.r.r.r.r.r.t s r.W D D G V B c t t d a j x D C D x j H J D J ! e.e._ r.r.r.r.r.r.r.r.",
"r.r.r.r.r.r.r.r.&.$     U .   % r.r.r.r.r.r.r.r.r.r.r.; a V J G A n c c g - s p l A F G D j a x H H F V Q e.e.) r.r.r.r.r.r.r.r.",
"r.r.r.r.r.r.r.r.r.X   ( 0.6 % r.r.r.r.r.r.r.r.r.r.r.r.M C S k c c c g u ' e.4.:.Q S V A b a a x F A A B E e.e.T r.r.r.r.r.r.r.r.",
"r.r.r.r.r.r.r.r.r.> U w.e.X.r.r.r.r.r.r.r.r.r.r.r.r.r.r.z u - t u t r.4.e.e.e.e.e.7.Q Q M d d x Q Q Q >.6.e.4.Y r.r.r.r.r.r.r.r.",
"r.r.r.r.r.r.r.r.r.r.' 0.#.r.r.r.r.r.r.r.r.r.r.r.r.r.r.r.; u a t - r.5.e.e.e.e.e.e.e.e.e.0.;.;.0.e.e.e.e.e.e.e.q...r.r.r.r.r.r.r.",
"r.r.r.r.r.r.r.r.r.r.r._ r.r.r.r.r.r.r.r.r.r.r.r.r.r.r.r.r.r.l h r.*.e.e.e.e.e.e.e.e.e.e.e.e.e.e.e.e.e.e.e.e.e.e.1.r.r.r.r.r.r.r.",
"r.r.r.r.r.r.r.r.r.r.r.r.r.r.r.r.r.r.r.r.r.r.r.r.r.r.r.r.r.r.r.r.r.e.e.e.e.e.e.e.e.e.e.e.e.e.e.e.e.e.e.e.e.e.e.e.9...r.r.r.r.r.r.",
"r.r.r.r.r.r.r.r.r.r.r.r.r.r.r.r.r.r.r.r.r.r.r.r.r.r.r.r.r.r.r.r.5.e.e.e.e.e.e.e.e.e.e.e.e.e.e.e.e.e.e.e.e.e.e.e.q.:.r.r.r.r.r.r.",
"r.r.r.r.r.r.r.r.r.r.r.r.r.r.r.r.r.r.r.r.r.r.r.r.r.r.r.r.r.r.r.r.e.e.e.e.e.e.e.e.e.e.e.e.e.e.e.e.e.e.e.e.e.e.e.e.e.1.) r.r.r.r.r.",
"r.r.r.r.r.r.r.r.r.r.r.r.r.r.r.r.r.r.r.r.r.r.r.r.r.r.r.r.r.r.r.%.e.e.e.e.e.e.e.e.e.e.e.e.e.e.e.e.e.e.e.e.e.e.e.e.e.6._ r.r.r.r.r.",
"r.r.r.r.r.r.r.r.r.r.r.r.r.r.r.r.r.r.r.r.r.r.r.r.r.r.r.r.r.r.r.9.e.e.e.e.e.e.e.e.2.5.e.e.e.e.5.e.e.e.e.e.e.e.e.e.e.7.+.r.r.r.r.r.",
"r.r.r.r.r.r.r.r.r.r.r.r.r.r.r.r.r.r.r.r.r.r.r.r.r.r.r.r.r.r.r.9.e.e.e.e.e.e.e.e., } e.e.e.( ( e.e.e.e.e.e.e.e.e.e.7.@.r.r.r.r.r.",
"r.r.r.r.r.r.r.r.r.r.r.r.r.r.r.r.r.r.r.r.r.r.r.r.r.r.r.r.r.r.r.6.e.e.e.e.e.e.e.e.O 2.e.e.e.: 0 e.e.e.e.e.e.e.e.e.e.6.@.r.r.r.r.r.",
"r.r.r.r.r.r.r.r.r.r.r.r.r.r.r.r.r.r.r.r.r.r.r.r.r.r.r.r.r.r.r.1.q.e.e.e.e.e.e.e.e.e.e.e.e.o.-.e.e.e.e.e.e.e.e.e.q.<.+.r.r.r.r.r.",
"r.r.r.r.r.r.r.r.r.r.r.r.r.r.r.r.r.r.r.r.r.r.r.r.r.r.r.r.r.r.r.:.9.q.e.e.e.e.q.q.e.e.e.e.e.e.e.e.e.e.e.e.e.e.e.e.7.:. .r.r.r.r.r.",
"r.r.r.r.r.r.r.r.r.r.r.r.r.r.r.r.r.r.r.r.r.r.r.r.r.r.r.r.r.r.r.+.,.7.9.q.e.9.,.,.1.7.7.7.9.9.7.7.q.e.e.e.e.e.e.9.<.%./ r.r.r.r.r.",
"r.r.r.r.r.r.r.r.r.r.r.r.r.r.r.r.r.r.r.r.r.r.r.r.r.r.r.r.r.r.r.) @.=.,.1.7.7.*.) ] %.>.,.,.>.%. .,.q.e.e.q.9.7.<.=...Y r.r.r.r.r.",
"r.r.r.r.r.r.r.r.r.r.r.r.r.r.r.r.r.r.r.r.r.r.r.r.r.r.r.r.r.r.r.9 _ +.$.%.=.,.7.0.E i f L L f i &.6.7.7.6.1.<.>.%.+.) 0 r.r.r.r.r.",
"r.r.r.r.r.r.r.r.r.r.r.r.r.r.r.r.r.r.r.r.r.r.r.r.r.r.r.r.r.r.r.r.w / ' [ ..@.*.<.9.-.E m m R 5.9.1.,.=.=.*.%.@...) e 3 r.r.r.r.r.",
"r.r.r.r.r.r.r.r.r.r.r.r.r.r.r.r.r.r.r.r.r.r.r.r.r.r.r.r.r.r.r.r.r.8 e T T ^ _ @.,.7.q.e.e.q.6.=.@.+.+... .| ' / e < r.r.r.r.r.r.",
"r.r.r.r.r.r.r.r.r.r.r.r.r.r.r.r.r.r.r.r.r.r.r.r.r.r.r.r.r.r.r.r.r.r.r.2 6 0 T [ %.>.<.1.1.<.=.+._ ^ T ^ / T U 7 < r.r.r.r.r.r.r.",
"r.r.r.r.r.r.r.r.r.r.r.r.r.r.r.r.r.r.r.r.r.r.r.r.r.r.r.r.r.r.r.r.r.r.r.r.2 1 e )  .@.%.%.%.%.@. ./ e 0 7 7 1 < r.r.r.r.r.r.r.r.r.",
"r.r.r.r.r.r.r.r.r.r.r.r.r.r.r.r.r.r.r.r.r.r.r.r.r.r.r.r.r.r.r.r.r.r.r.r.r.r.3 q T _ ' [ [ [ ] _ T 0 < < < 3 r.r.r.r.r.r.r.r.r.r.",
"r.r.r.r.r.r.r.r.r.r.r.r.r.r.r.r.r.r.r.r.r.r.r.r.r.r.r.r.r.r.r.r.r.r.r.r.r.r.r.r.7 q U T T T Y w 6 < 2 r.r.r.r.r.r.r.r.r.r.r.r.r.",
"r.r.r.r.r.r.r.r.r.r.r.r.r.r.r.r.r.r.r.r.r.r.r.r.r.r.r.r.r.r.r.r.r.r.r.r.r.r.r.r.r.r.3 2 1 < < 2 r.r.r.r.r.r.r.r.r.r.r.r.r.r.r.r.",
"r.r.r.r.r.r.r.r.r.r.r.r.r.r.r.r.r.r.r.r.r.r.r.r.r.r.r.r.r.r.r.r.r.r.r.r.r.r.r.r.r.r.r.r.r.r.r.r.r.r.r.r.r.r.r.r.r.r.r.r.r.r.r.r.",
"r.r.r.r.r.r.r.r.r.r.r.r.r.r.r.r.r.r.r.r.r.r.r.r.r.r.r.r.r.r.r.r.r.r.r.r.r.r.r.r.r.r.r.r.r.r.r.r.r.r.r.r.r.r.r.r.r.r.r.r.r.r.r.r.",
"r.r.r.r.r.r.r.r.r.r.r.r.r.r.r.r.r.r.r.r.r.r.r.r.r.r.r.r.r.r.r.r.r.r.r.r.r.r.r.r.r.r.r.r.r.r.r.r.r.r.r.r.r.r.r.r.r.r.r.r.r.r.r.r.",
"r.r.r.r.r.r.r.r.r.r.r.r.r.r.r.r.r.r.r.r.r.r.r.r.r.r.r.r.r.r.r.r.r.r.r.r.r.r.r.r.r.r.r.r.r.r.r.r.r.r.r.r.r.r.r.r.r.r.r.r.r.r.r.r.",
"r.r.r.r.r.r.r.r.r.r.r.r.r.r.r.r.r.r.r.r.r.r.r.r.r.r.r.r.r.r.r.r.r.r.r.r.r.r.r.r.r.r.r.r.r.r.r.r.r.r.r.r.r.r.r.r.r.r.r.r.r.r.r.r.",
"r.r.r.r.r.r.r.r.r.r.r.r.r.r.r.r.r.r.r.r.r.r.r.r.r.r.r.r.r.r.r.r.r.r.r.r.r.r.r.r.r.r.r.r.r.r.r.r.r.r.r.r.r.r.r.r.r.r.r.r.r.r.r.r."
};
