/* XPM */
static char *_574843143528[] = {
/* columns rows colors chars-per-pixel */
"64 64 119 2 ",
"   c black",
".  c gray3",
"X  c #101010",
"o  c #181818",
"O  c #212118",
"+  c #292118",
"@  c gray16",
"#  c #313121",
"$  c #393131",
"%  c #393939",
"&  c #5A3108",
"*  c #524218",
"=  c #5A4A21",
"-  c #635221",
";  c #7B5A21",
":  c #6B6339",
">  c #4A4A42",
",  c #525242",
"<  c gray32",
"1  c #5A5A52",
"2  c #5A5A5A",
"3  c #5A634A",
"4  c #6B6B4A",
"5  c #73734A",
"6  c #63635A",
"7  c #6B6B5A",
"8  c #737352",
"9  c #6B6B63",
"0  c #73736B",
"q  c #737B73",
"w  c #7B7B73",
"e  c #8C4A08",
"r  c #945A10",
"t  c #B55A18",
"y  c #946B18",
"u  c #B57B10",
"i  c #8C7B39",
"p  c #AD7321",
"a  c #AD7B31",
"s  c #CE6B18",
"d  c #846B42",
"f  c #B58410",
"g  c #BD8410",
"h  c #C68C18",
"j  c #DE8410",
"k  c #CE9410",
"l  c #F79410",
"z  c #EFAD18",
"x  c #E7B518",
"c  c #FFB518",
"v  c #DE8429",
"b  c #CE9C29",
"n  c #FFC618",
"m  c #FFD618",
"M  c #E7C621",
"N  c #FFC621",
"B  c #FFDE21",
"V  c #FFD631",
"C  c #F7E721",
"Z  c #FFE721",
"A  c #FFEF21",
"S  c #FFF721",
"D  c #FFFF21",
"F  c #A58C4A",
"G  c #AD9C5A",
"H  c #8C8C63",
"J  c #94946B",
"K  c #84847B",
"L  c #8C8C7B",
"P  c #8C947B",
"I  c #BDB56B",
"U  c #DEB54A",
"Y  c #DECE4A",
"T  c #FFDE6B",
"R  c gray55",
"E  c #94948C",
"W  c #949C8C",
"Q  c gray61",
"!  c #A59C8C",
"~  c #A5A584",
"^  c #A5AD94",
"/  c #A5A59C",
"(  c #ADAD9C",
")  c #ADB59C",
"_  c #B5B59C",
"`  c gray68",
"'  c #ADB5AD",
"]  c #B5B5A5",
"[  c #B5BDA5",
"{  c #BDBDA5",
"}  c gray71",
"|  c gray74",
" . c #BDC6AD",
".. c #C6CEB5",
"X. c #C6CEBD",
"o. c #CED6BD",
"O. c #CECEC6",
"+. c #D6D6C6",
"@. c #DEDEC6",
"#. c #DED6CE",
"$. c #D6DECE",
"%. c #DEE7CE",
"&. c #E7E7CE",
"*. c #E7EFCE",
"=. c #EFF7D6",
"-. c #F7F7DE",
";. c #DEDEE7",
":. c #E7E7E7",
">. c #EFEFEF",
",. c #F7EFEF",
"<. c #F7F7E7",
"1. c #FFFFE7",
"2. c #F7F7EF",
"3. c #FFFFEF",
"4. c #FFF7F7",
"5. c #FFFFF7",
"6. c #F7FFFF",
"7. c white",
"8. c None",
/* pixels */
"8.8.8.8.8.8.8.8.8.8.8.8.8.8.8.8.8.8.8.8.8.8.8.8.8.8.8.8.8.8.8.8.8.8.8.8.8.8.8.8.8.8.8.8.8.8.8.8.8.8.8.8.8.8.8.8.8.8.8.8.8.8.8.8.",
"8.8.8.8.8.8.8.8.8.8.8.8.8.8.8.8.8.8.8.8.8.8.8.8.8.8.8.8.8.8.8.8.8.8.8.8.8.8.8.8.8.8.8.8.8.8.8.8.8.8.8.8.8.8.8.8.8.8.8.8.8.8.8.8.",
"8.8.8.8.8.8.8.8.8.8.8.8.8.8.8.8.8.8.8.8.8.8.8.8.8.8.8.8.8.8.8.8.8.8.8.8.8.8.8.8.8.8.8.8.8.8.8.8.8.8.8.8.8.8.8.8.8.8.8.8.8.8.8.8.",
"8.8.8.8.8.8.8.8.8.8.8.8.8.8.8.8.8.8.8.8.8.8.8.8.8.8.8.8.8.8.8.8.8.8.8.8.8.8.8.8.8.8.8.8.8.8.8.8.8.8.8.8.8.8.8.8.8.8.8.8.8.8.8.8.",
"8.8.8.8.8.8.8.8.8.8.8.8.8.8.8.8.8.8.8.8.8.8.8.8.8.8.8.8.8.8.8.8.8.8.8.8.8.8.8.8.8.8.8.8.8.8.8.8.8.8.8.8.8.8.8.8.8.8.8.8.8.8.8.8.",
"8.8.8.8.8.8.8.8.8.8.8.8.8.8.8.8.8.8.8.8.8.8.8.8.8.8.8.8.8.8.8.8.8.8.8.8.8.8.8.8.8.8.8.8.8.8.8.8.8.8.8.8.8.8.8.8.8.8.8.8.8.8.8.8.",
"8.8.8.8.8.8.8.8.8.8.8.8.8.8.8.8.8.8.8.8.8.8.8.8.8.8.8.8.8.8.8.8.8.8.8.8.8.8.8.8.8.8.8.8.8.8.8.8.8.8.8.8.8.8.8.8.8.8.8.8.8.8.8.8.",
"8.8.8.8.8.8.8.8.8.8.8.8.8.8.8.8.8.8.8.8.8.8.8.8.8.8.8.8.8.8.8.8.8.8.8.8.8.8.8.8.8.8.8.8.8.8.8.8.8.8.8.8.8.8.8.8.8.8.8.8.8.8.8.8.",
"8.8.8.8.8.8.8.8.8.8.8.8.8.8.8.8.8.8.8.8.8.8.8.8.8.8.8.8.8.8.8.8.8.8.8.8.8.8.8.8.8.8.8.8.8.8.8.8.8.8.8.8.8.8.8.8.8.8.8.8.8.8.8.8.",
"8.8.8.8.8.8.8.8.8.8.8.8.8.8.8.8.8.8.8.8.8.8.8.8.8.8.8.8.8.8.8.8.8.8.8.8.8.8.8.8.8.8.8.8.8.8.8.8.8.8.8.8.8.8.8.8.8.8.8.8.8.8.8.8.",
"8.8.8.8.8.8.8.8.8.8.8.8.8.8.8.8.8.8.8.8.8.8.8.8.8.8.8.8.8.8.8.8.8.8.8.* = + * 8.8.* = 8.8.8.8.8.8.8.8.8.8.8.8.8.8.8.8.8.8.8.8.8.",
"8.8.8.8.8.8.8.8.8.8.8.8.8.8.8.8.8.8.8.8.8.8.8.8.8.8.8.8.8.8.8.8.8.8.8.8.= & + - + 8.8.8.8.8.8.8.8.8.8.8.8.8.8.8.8.8.8.8.8.8.8.8.",
"8.8.8.8.8.8.8.8.8.8.8.8.8.8.8.8.8.8.8.8.8.8.8.8.8.8.8.8.8.8.8.8.8.8.8.8.8.y ; y 8.8.8.8.8.8.8.8.8.8.8.8.8.8.8.8.8.8.8.8.8.8.8.8.",
"8.8.8.8.8.8.8.8.8.8.8.8.8.8.8.8.8.8.8.8.8.8.r 8.8.8.8.8.8.8.8.8.8.8.8.8.C D D D S N b 8.8.8.8.8.8.8.8.8.8.8.8.8.8.8.8.8.8.8.8.8.",
"8.8.8.8.8.8.8.8.8.8.8.8.8.8.8.8.8.8.8.8.8.8.& 8.8.8.8.8.8.8.8.8.8.8.8.A D D D D C x m b 8.8.8.8.8.8.8.8.8.8.8.8.8.8.8.8.8.8.8.8.",
"8.8.8.8.8.8.8.8.8.8.8.8.8.8.8.8.8.8.8.8.8.8.& 8.8.8.8.8.8.8.8.8.8.8.m A D S b -   ; m c 5 2 8.8.8.8.8.8.8.8.8.8.8.8.8.8.8.8.8.8.",
"8.8.8.8.8.8.8.8.8.8.8.8.8.8.8.8.8.8.8.8.8.8.* $ 8.8.8.8.8.8.8.8.8.- i I I 9       o + p 7 6 > 8.8.8.8.8.8.8.8.8.8.8.8.8.8.8.8.8.",
"8.8.8.8.8.8.8.8.8.8.8.8.8.8.8.8.8.8.8.8.8.8.=   6 / Q P $ @ + O @ / } } } K     % 6 0 X 0 ` < , 8.8.8.8.8.8.8.8.8.8.8.8.8.8.8.8.",
"8.8.8.8.8.8.8.8.8.8.8.8.8.8.8.8.8.8.8.8.8.8.- # > ' } ` @       X E } } ` q 6 Q ' E >.` o % > % 8.8.8.8.8.8.8.8.8.8.8.8.8.8.8.8.",
"8.8.8.8.8.8.8.8.8.8.8.8.8.8.8.8.8.8.8.8.8.8.8.8 K 2 q R % O O @ % 0 < @ . o E ' ' E >.6.@ O % @ 8.8.8.8.8.8.8.8.8.8.8.8.8.8.8.8.",
"8.8.8.8.8.8.8.8.8.8.8.8.8.8.8.8.8.8.8.8.8.8.8.: R O     < } } | } >         q K % . | 6.< X @ o 8.8.8.8.8.8.8.8.8.8.8.8.8.8.8.8.",
"8.8.8.8.8.8.8.8.8.8.8.8.8.8.8.8.8.8.8.8.8.8.8.* > @ .   $ ` } | | 6   O % 6 %       ' >.. O < $ 8.8.8.8.8.8.8.8.8.8.8.8.8.8.8.8.",
"8.8.8.8.8.8.8.8.8.8.8.8.8.8.8.8.8.8.8.8.8.8.8.- . 2 E K 9 < > > $ > Q } } } <   . > ` 2 X F ;.8.8.8.8.8.8.8.8.8.8.b C b 8.8.8.8.",
"8.8.8.8.8.8.8.8.8.8.8.8.8.8.8.8.8.8.8.8.8.8.8.8.# > ` } ` @       O ` } } ` 6 9 Q ' w ; k v %.8.8.8.8.8.8.x x 8.B n l p 8.8.8.8.",
"8.8.8.8.8.8.8.8.8.8.8.8.8.8.8.8.8.8.8.8.8.8.8.8.4 K < 0 R % O O O % 0 < @ . $ ` ' ` G B c b $.8.8.8.8.8.8.l l A l r b Y Y 8.8.8.",
"8.8.8.8.8.8.8.8.8.8.8.8.8.8.8.8.8.8.8.8.8.8.8.8.: R O     < ' } | ' $       O E 2 O # l s ~ ..8.8.8.8.8.x c j m M Z n z g 8.8.8.",
"8.8.8.8.8.8.8.8.8.8.8.8.8.8.8.8.8.8.8.8.8.8.8.8.= $ @ o   % ' } | } > X $ < 0 O     o t e 2.#.W 8.8.Y B l t u m m j f b b 8.8.8.",
"8.8.8.8.8.8.8.8.8.8.8.8.8.8.8.8.8.8.8.8.8.8.8.8.- . < / Q q % $ $ O < ` } } ` @   % K * ^ >.;.{ M S A B c j c n m A m m N 8.8.8.",
"8.8.8.8.8.8.8.8.8.8.8.8.8.8.8.8.8.8.8.8.8.8.8.8.8., < / } ` @       $ ` } / K 2 Q ` ` $ 2 a U x Z B m n l l l l j a 8.; 8.8.8.8.",
"8.8.8.8.8.8.8.8.8.8.8.8.8.8.8.8.8.8.8.8.8.8.8.8.8.4 R $ > 2 > > > > 6 < @ .   2 ' ` 6 O + s s k n n c l t ; ; 8.8.8.8.8.8.8.8.8.",
"8.8.8.8.8.8.8.8.8.8.8.8.8.8.8.8.8.8.8.8.8.8.8.8.8.- w @     6 } } | / @       1 G a + X e t t j c l s e 8.8.8.8.8.8.8.8.8.8.8.8.",
"8.8.8.8.8.8.8.8.8.8.8.8.8.8.8.8.8.8.8.8.8.8.8.8.8.- - ; ; * 3 ) ) ( ! - * y f h h h h g u r e t t d 8.8.8.8.8.8.8.8.8.8.8.8.8.8.",
"8.8.8.8.8.8.8.8.8.8.8.8.8.8.8.8.8.8.8.8.8.8.8.8.8.8.& s l c l j s e f f g g g g g g g f u & * P ] / 8.8.8.8.8.8.8.8.8.8.8.8.8.8.",
"8.8.8.8.8.8.8.8.8.8.8.8.8.8.8.8.8.8.8.8.8.8.8.8.8.M e s t t t e ; f C k u h C k k C k f f x r b ;.` 8.8.8.8.8.8.8.8.8.8.8.8.8.8.",
"8.8.8.8.8.8.8.8.8.8.8.8.8.8.8.8.8.8.8.8.8.8.8.8.8.D h s t & - P J x B A C S S S S S S C M u y F 7.>.8.8.8.8.8.8.8.8.8.8.8.8.8.8.",
"8.8.8.8.8.8.8.8.8.8.8.8.8.8.8.8.8.8.8.8.8.8.8.8.a n C l e 8.8.! O.*.T V B Z Z Z Z Z B u p y y o.7.#.8.8.8.8.8.8.8.8.8.8.8.8.8.8.",
"8.8.8.8.8.8.8.8.8.8.8.8.8.8.8.8.8.8.8.8.8.8.8.8.a j s r 8.8.^ >.7.7.7.1.*.T T V V V T F G ^ >.7.7.4. .8.8.8.8.8.8.8.8.8.8.8.8.8.",
"8.8.8.8.8.8.8.8.8.8.8.8.8.8.8.8.8.8.8.8.8.8.8.8.8.g j g d W ..:.:.4.7.7.7.7.:.:.$.O.[ [ [ O.7.7.7.7.3.^ 8.8.8.8.8.8.8.8.8.8.8.8.",
"8.8.8.8.8.8.8.8.8.8.8.8.8.8.8.8.8.8.8.8.8.8.8.8.8.8.e r L ^ ) [ [ [ { {  .[ [ [ [ [ [ [ [ 7.7.7.7.7.7.=.8.8.8.8.8.8.8.8.8.8.8.8.",
"8.8.8.8.8.8.8.8.8.8.8.8.8.8.8.8.8.8.8.8.8.8.8.8.8.8.8.H ! ( _ [ [ [ [ [ [ [ [ [ [ [ [  .:.7.7.7.7.7.7.3.) 8.8.8.8.8.8.8.8.8.8.8.",
"8.8.8.8.8.8.8.8.8.8.8.8.8.8.8.8.8.8.8.8.8.8.8.8.8.8.8.P ^ [ ..[ [ [ [ [ [ [ [ [ [  .:.7.7.7.7.7.7.7.7.5.@.8.8.8.8.8.8.8.8.8.8.8.",
"8.8.8.8.8.8.8.8.8.8.8.8.8.8.8.8.8.8.8.8.8.8.8.8.8.8.8.W _ 7.4.%.$.O.O.......$.%.,.7.7.7.7.7.7.7.7.7.7.7.-.P 8.8.8.8.8.8.8.8.8.8.",
"8.8.8.8.8.8.8.8.8.8.8.8.8.8.8.8.8.8.8.8.8.8.8.8.8.8.X.4.7.7.7.7.7.7.7.7.7.7.7.7.7.7.7.7.7.7.7.7.7.7.7.7.<.^ 8.8.8.8.8.8.8.8.8.8.",
"8.8.8.8.8.8.8.8.8.8.8.8.8.8.8.8.8.8.8.8.8.8.8.8.8.8.3.7.7.7.7.7.7.7.7.7.#.7.7.7.7.7.7.7.7.7.7.7.7.7.7.7.1. .8.8.8.8.8.8.8.8.8.8.",
"8.8.8.8.8.8.8.8.8.8.8.8.8.8.8.8.8.8.8.8.8.8.8.8.8.8.3.7.7.7.7.7.7.7.7.' 0 7.7.7.7.< O.7.7.7.7.7.7.7.7.7.1.X.8.8.8.8.8.8.8.8.8.8.",
"8.8.8.8.8.8.8.8.8.8.8.8.8.8.8.8.8.8.8.8.8.8.8.8.8.~ 1.7.7.7.7.7.7.7.7.E o 7.7.7.>.X | 7.7.7.7.7.7.7.7.7.1...8.8.8.8.8.8.8.8.8.8.",
"8.8.8.8.8.8.8.8.8.8.8.8.8.8.8.8.8.8.8.8.8.8.8.8.8.~ -.7.7.7.7.7.7.7.7.,.>.7.7.7.7./ 7.7.7.7.7.7.7.7.7.5.=. .8.8.8.8.8.8.8.8.8.8.",
"8.8.8.8.8.8.8.8.8.8.8.8.8.8.8.8.8.8.8.8.8.8.8.8.8.P &.3.7.7.7.7.7.7.5.7.7.7.7.7.7.7.7.7.7.7.7.7.7.7.7.1.%.[ 8.8.8.8.8.8.8.8.8.8.",
"8.8.8.8.8.8.8.8.8.8.8.8.8.8.8.8.8.8.8.8.8.8.8.8.8.8.X.=.1.5.7.7.7.1.*.-.<.1.1.3.3.1.1.3.5.7.7.7.7.5.1.=.o.^ 8.8.8.8.8.8.8.8.8.8.",
"8.8.8.8.8.8.8.8.8.8.8.8.8.8.8.8.8.8.8.8.8.8.8.8.8.8.( o.&.-.<.1.1.*._ ! X.@.&.*.&.@... .<.5.5.5.3.1.=.+.[ L 8.8.8.8.8.8.8.8.8.8.",
"8.8.8.8.8.8.8.8.8.8.8.8.8.8.8.8.8.8.8.8.8.8.8.8.8.8.H _ ..o.@.%.*.-.3.#.t t F F F t F :.3.1.-.=.*.@.o.{ W 9 8.8.8.8.8.8.8.8.8.8.",
"8.8.8.8.8.8.8.8.8.8.8.8.8.8.8.8.8.8.8.8.8.8.8.8.8.8.8.K ^ _ {  ...o.&.3.<.I v v v #.7.1.=.@.+.o... ._ ! q 4 8.8.8.8.8.8.8.8.8.8.",
"8.8.8.8.8.8.8.8.8.8.8.8.8.8.8.8.8.8.8.8.8.8.8.8.8.8.8.8.q L E W W ! ] @.1.3.7.7.5.1.=.o. .{ [ _ ( ^ E 0 3 8.8.8.8.8.8.8.8.8.8.8.",
"8.8.8.8.8.8.8.8.8.8.8.8.8.8.8.8.8.8.8.8.8.8.8.8.8.8.8.8.8.4 7 7 9 K ^ ..%.=.-.-.-.&.o._ W P L L L w 7 3 8.8.8.8.8.8.8.8.8.8.8.8.",
"8.8.8.8.8.8.8.8.8.8.8.8.8.8.8.8.8.8.8.8.8.8.8.8.8.8.8.8.8.8.8.3 1 0 W _ ..o.o.o.o... .^ L 9 6 2 1 1 8.8.8.8.8.8.8.8.8.8.8.8.8.8.",
"8.8.8.8.8.8.8.8.8.8.8.8.8.8.8.8.8.8.8.8.8.8.8.8.8.8.8.8.8.8.8.8.8.3 0 E ^ ) _ ] _ ( ^ P q 1 1 1 8.8.8.8.8.8.8.8.8.8.8.8.8.8.8.8.",
"8.8.8.8.8.8.8.8.8.8.8.8.8.8.8.8.8.8.8.8.8.8.8.8.8.8.8.8.8.8.8.8.8.8.8.7 0 K L P P L q 7 1 3 8.8.8.8.8.8.8.8.8.8.8.8.8.8.8.8.8.8.",
"8.8.8.8.8.8.8.8.8.8.8.8.8.8.8.8.8.8.8.8.8.8.8.8.8.8.8.8.8.8.8.8.8.8.8.8.8.4 3 1 2 1 3 8.8.8.8.8.8.8.8.8.8.8.8.8.8.8.8.8.8.8.8.8.",
"8.8.8.8.8.8.8.8.8.8.8.8.8.8.8.8.8.8.8.8.8.8.8.8.8.8.8.8.8.8.8.8.8.8.8.8.8.8.8.8.8.8.8.8.8.8.8.8.8.8.8.8.8.8.8.8.8.8.8.8.8.8.8.8.",
"8.8.8.8.8.8.8.8.8.8.8.8.8.8.8.8.8.8.8.8.8.8.8.8.8.8.8.8.8.8.8.8.8.8.8.8.8.8.8.8.8.8.8.8.8.8.8.8.8.8.8.8.8.8.8.8.8.8.8.8.8.8.8.8.",
"8.8.8.8.8.8.8.8.8.8.8.8.8.8.8.8.8.8.8.8.8.8.8.8.8.8.8.8.8.8.8.8.8.8.8.8.8.8.8.8.8.8.8.8.8.8.8.8.8.8.8.8.8.8.8.8.8.8.8.8.8.8.8.8.",
"8.8.8.8.8.8.8.8.8.8.8.8.8.8.8.8.8.8.8.8.8.8.8.8.8.8.8.8.8.8.8.8.8.8.8.8.8.8.8.8.8.8.8.8.8.8.8.8.8.8.8.8.8.8.8.8.8.8.8.8.8.8.8.8.",
"8.8.8.8.8.8.8.8.8.8.8.8.8.8.8.8.8.8.8.8.8.8.8.8.8.8.8.8.8.8.8.8.8.8.8.8.8.8.8.8.8.8.8.8.8.8.8.8.8.8.8.8.8.8.8.8.8.8.8.8.8.8.8.8.",
"8.8.8.8.8.8.8.8.8.8.8.8.8.8.8.8.8.8.8.8.8.8.8.8.8.8.8.8.8.8.8.8.8.8.8.8.8.8.8.8.8.8.8.8.8.8.8.8.8.8.8.8.8.8.8.8.8.8.8.8.8.8.8.8."
};
