/* XPM */
static char *_574843151856[] = {
/* columns rows colors chars-per-pixel */
"64 64 125 2 ",
"   c black",
".  c gray3",
"X  c #101010",
"o  c #181818",
"O  c #212118",
"+  c #292118",
"@  c gray16",
"#  c #313121",
"$  c #393131",
"%  c #393939",
"&  c #5A3108",
"*  c #524218",
"=  c #5A4A21",
"-  c #635221",
";  c #7B5A21",
":  c #6B6339",
">  c #4A4A42",
",  c #525242",
"<  c gray32",
"1  c #5A5A52",
"2  c #5A5A5A",
"3  c #5A634A",
"4  c #6B6B4A",
"5  c #7B734A",
"6  c #63635A",
"7  c #6B6B5A",
"8  c #7B7B5A",
"9  c #6B6B63",
"0  c #73736B",
"q  c #737B73",
"w  c #7B7B73",
"e  c #9C1800",
"r  c #8C4A08",
"t  c #944210",
"y  c #945A10",
"u  c #B55A18",
"i  c #946B18",
"p  c #B57B10",
"a  c #8C7B39",
"s  c #AD7321",
"d  c #AD7B31",
"f  c #CE6B18",
"g  c #846B42",
"h  c #B58410",
"j  c #BD8410",
"k  c #C68C18",
"l  c #DE8410",
"z  c #CE9410",
"x  c #F79410",
"c  c #EFAD18",
"v  c #E7B518",
"b  c #FFB518",
"n  c #DE8429",
"m  c #CE9C29",
"M  c #F79C29",
"N  c #FFC618",
"B  c #FFD618",
"V  c #E7C621",
"C  c #FFC621",
"Z  c #FFDE21",
"A  c #FFD631",
"S  c #F7E721",
"D  c #FFE721",
"F  c #FFEF21",
"G  c #FFF721",
"H  c #FFFF21",
"J  c #A58C4A",
"K  c #AD9C5A",
"L  c #8C8C63",
"P  c #94946B",
"I  c #84847B",
"U  c #8C8C7B",
"Y  c #8C947B",
"T  c #BDB56B",
"R  c #DEB54A",
"E  c #DECE4A",
"W  c #FFDE6B",
"Q  c #FFF76B",
"!  c gray55",
"~  c #94948C",
"^  c #949C8C",
"/  c gray61",
"(  c #A59C8C",
")  c #A5A584",
"_  c #A5AD94",
"`  c #A5A59C",
"'  c #ADAD9C",
"]  c #ADB59C",
"[  c #B5B59C",
"{  c gray68",
"}  c #ADB5AD",
"|  c #B5B5A5",
" . c #B5BDA5",
".. c #BDBDA5",
"X. c #B5BDAD",
"o. c gray71",
"O. c gray74",
"+. c #BDC6AD",
"@. c #C6CEB5",
"#. c #C6C6BD",
"$. c #C6CEBD",
"%. c #CED6BD",
"&. c #CECEC6",
"*. c #D6D6C6",
"=. c #DEDEC6",
"-. c #DED6CE",
";. c #D6DECE",
":. c #DEE7CE",
">. c #E7E7CE",
",. c #E7EFCE",
"<. c #EFF7D6",
"1. c #F7F7DE",
"2. c #DEDEE7",
"3. c #E7E7E7",
"4. c #EFEFEF",
"5. c #F7EFEF",
"6. c #F7F7E7",
"7. c #FFFFE7",
"8. c #F7F7EF",
"9. c #FFFFEF",
"0. c #FFF7F7",
"q. c #FFFFF7",
"w. c #F7FFFF",
"e. c white",
"r. c None",
/* pixels */
"r.r.r.r.r.r.r.r.r.r.r.r.r.r.r.r.r.r.r.r.r.r.r.r.r.r.r.r.r.r.r.r.r.r.r.r.r.r.r.r.r.r.r.r.r.r.r.r.r.r.r.r.r.r.r.r.r.r.r.r.r.r.r.r.",
"r.r.r.r.r.r.r.r.r.r.r.r.r.r.r.r.r.r.r.r.r.r.r.r.r.r.r.r.r.r.r.r.r.r.r.r.r.r.r.r.r.r.r.r.r.r.r.r.r.r.r.r.r.r.r.r.r.r.r.r.r.r.r.r.",
"r.r.r.r.r.r.r.r.r.r.r.r.r.r.r.r.r.r.r.r.r.r.r.r.r.r.r.r.r.r.r.r.r.r.r.r.r.r.r.r.r.r.r.r.r.r.r.r.r.r.r.r.r.r.r.r.r.r.r.r.r.r.r.r.",
"r.r.r.r.r.r.r.r.r.r.r.r.r.r.r.r.r.r.r.r.r.r.r.r.r.r.r.r.r.r.r.r.r.r.r.r.r.r.r.r.r.r.r.r.r.r.r.r.r.r.r.r.r.r.r.r.r.r.r.r.r.r.r.r.",
"r.r.r.r.r.r.r.r.r.r.r.r.r.r.r.r.r.r.r.r.r.r.r.r.r.r.r.r.r.r.r.r.r.r.r.r.r.r.r.r.r.r.r.r.r.r.r.r.r.r.r.r.r.r.r.r.r.r.r.r.r.r.r.r.",
"r.r.r.r.r.r.r.r.r.r.r.r.r.r.r.r.r.r.r.r.r.r.r.r.r.r.r.r.r.r.r.r.r.r.r.r.r.r.r.r.r.r.r.r.r.r.r.r.r.r.r.r.r.r.r.r.r.r.r.r.r.r.r.r.",
"r.r.r.r.r.r.r.r.r.r.r.r.r.r.r.r.r.r.r.r.r.r.r.r.r.r.r.r.r.r.r.r.r.r.r.r.r.r.r.r.r.r.r.r.r.r.r.r.r.r.r.r.r.r.r.r.r.r.r.r.r.r.r.r.",
"r.r.r.r.r.r.r.r.r.r.r.r.r.r.r.r.r.r.r.r.r.r.r.r.r.r.r.r.r.r.r.r.r.r.r.r.r.r.r.r.r.r.r.r.r.r.r.r.r.r.r.r.r.r.r.r.r.r.r.r.r.r.r.r.",
"r.r.r.r.r.r.r.r.r.r.r.r.r.r.r.r.r.r.r.r.r.r.r.r.r.r.r.r.r.r.r.r.r.r.r.r.r.r.r.r.r.r.r.r.r.r.r.r.r.r.r.r.r.r.r.r.r.r.r.r.r.r.r.r.",
"r.r.r.r.r.r.r.r.r.r.r.r.r.r.r.r.r.r.r.r.r.r.r.r.r.r.r.r.r.r.r.r.r.r.r.r.r.r.r.r.r.* r.r.r.r.r.r.r.r.r.r.r.r.r.r.r.r.r.r.r.r.r.r.",
"r.r.r.r.r.r.r.r.r.r.r.r.r.r.r.r.r.r.r.r.r.r.r.r.r.r.r.r.r.r.r.r.r.r.r.# # r.r.= * r.r.r.r.r.r.r.r.r.r.r.r.r.r.r.r.r.r.r.r.r.r.r.",
"r.r.r.r.r.r.r.r.r.r.r.r.r.r.r.r.r.r.r.r.r.r.r.r.r.r.r.r.r.r.r.r.r.r.r.& + * = * r.r.r.r.r.r.r.r.r.r.r.r.r.r.r.r.r.r.r.r.r.r.r.r.",
"r.r.r.r.r.r.r.r.r.r.r.r.r.r.r.r.r.r.r.r.r.r.r.r.r.r.r.r.r.r.r.r.r.r.r.r.= - i r.r.r.r.r.r.r.r.r.r.r.r.r.r.r.r.r.r.r.r.r.r.r.r.r.",
"r.r.r.r.r.r.r.r.r.r.r.r.r.r.r.r.r.r.r.r.r.r.r.r.r.r.r.r.r.r.r.r.r.r.r.m F H H H D m r.r.r.r.r.r.r.r.r.r.r.r.r.r.r.r.r.r.r.r.r.r.",
"r.r.r.r.r.r.r.r.r.r.r.r.r.r.r.r.r.r.r.r.r.r.r.r.r.r.r.r.r.r.r.r.r.r.C G H H H H G Z v r.r.r.r.r.r.r.r.r.r.r.r.r.r.r.r.r.r.r.r.r.",
"r.r.r.r.r.r.r.r.r.r.r.r.r.r.r.i ; r.r.r.r.r.r.r.r.r.r.r.r.r.r.r.r.m D H H H H H V Z b 2 2 < r.r.r.r.r.r.r.r.r.r.r.r.r.r.r.r.r.r.",
"r.r.r.r.r.r.r.r.r.r.r.r.r.r.r.~ ; r.r.r.r.r.r.r.r.r.r.r.r.r.r.r.r.h V G H Q : $ X + h 9 ! < , r.r.r.r.r.r.r.r.r.r.r.r.r.r.r.r.r.",
"r.r.r.r.r.r.r.r.r.r.r.r.r.r.7 } L ; r.r.r.r.r.r.r.r.r.r.r.r.r.r.  o + a V + @ o.2.! X 2 } < $ r.r.r.r.r.r.r.r.r.r.r.r.r.r.r.r.r.",
"r.r.r.r.r.r.r.r.r.r.r.r.r.r.O ! 0 & r.r.r.r.r.r.r.r.r.r.r.r.r.  I &.! %   o 4.e.e.e.!   O > % r.r.r.r.r.r.r.r.r.r.r.r.r.r.r.r.r.",
"r.r.r.r.r.r.r.r.r.r.r.r.r.r.> >   & ; r.r.r.r.r.r.@ > r.r.r.r.o 4.4.4.2.` 2.e.5.e.e.4.. @ $ @ > r.r.r.r.r.r.r.r.r.E r.r.r.r.r.r.",
"r.r.r.r.r.r.r.r.r.r.r.r.r.r.r.1 o X * 8 Y ^ I       X r.r.r.r.% 4.4.4.o.-.w.o.@ 5.e.e.. O O o r.r.r.r.r.r.r.r.r.B c r.r.r.r.r.r.",
"r.r.r.r.r.r.r.r.r.r.r.r.r.r.r.3 O   X ! } o.} O     @ r.r.r.r.O 2.4.4.2 I 2.3.0 e.e.} . y X.0 r.r.r.r.r.V r.r.N l i V E r.r.r.r.",
"r.r.r.r.r.r.r.r.r.r.r.r.r.r.r.r.@ @ o < ` ` ` < 0 { #.{ r.r.r.+ ! 4.4.2.  X 9 2.e.} @ r c 1.r.r.r.r.r.r.c C G x h B c s r.r.r.r.",
"r.r.r.r.r.r.r.r.r.r.r.r.r.r.r.r.% 2 ! ! @ .   o } &.&.#.r.r.r.r.> 0 / > - V & o $ a h D b >.r.r.r.r.r.r.l c F S B f p E K r.r.r.",
"r.r.r.r.r.r.r.r.r.r.r.r.r.r.r.r.r.> I ~ >       0 } I % % r.r.r.z ; - = N B z v S F B b l 6.) r.r.r.r.r.x l B G N V B b j r.r.r.",
"r.r.r.r.r.r.r.r.r.r.r.r.r.r.r.r.r.1 @ $ % > 6 q ! O     . r.r.r.x N Z B f u p x c b x l J e.-.( r.r.r.z u l N Z F c s ; r.r.r.r.",
"r.r.r.r.r.r.r.r.r.r.r.r.r.r.r.r.r.r.$     9 } o.o.>     $ w r.r.i l x l t e e e r f u r -.:.3.;.] m D B x x b b k r.r.r.r.r.r.r.",
"r.r.r.r.r.r.r.r.r.r.r.r.r.r.r.r.r.r.% % @ % ! ~ ! 6 0 { #.} r.r.r.r r r t e e e & & # 4 -.d @.>.A Z B N b l f i r.r.r.r.r.r.r.r.",
"r.r.r.r.r.r.r.r.r.r.r.r.r.r.r.r.r.r.r.> ! / $       ~ &.&.#.r.r.r.-.P g r r e & & + @ O ; j p Z Z B N b l ; r.r.r.r.r.r.r.r.r.r.",
"r.r.r.r.r.r.r.r.r.r.r.r.r.r.r.r.r.r.r.< 6 I 9 .     > ~ 6 @ # r.r.T n f k j i y y + O o s s f v N b x l ; r.r.r.r.r.r.r.r.r.r.r.",
"r.r.r.r.r.r.r.r.r.r.r.r.r.r.r.r.r.r.r.r.$ X O 2 ! / ` O       J H v f f k k k k z h & ; k s u x b l y ; r.r.r.r.r.r.r.r.r.r.r.r.",
"r.r.r.r.r.r.r.r.r.r.r.r.r.r.r.r.r.r.r.r.% X   % ` o.O.6   @ 6 T D v u u j j k k k k k k k s r l y L ^ r.r.r.r.r.r.r.r.r.r.r.r.r.",
"r.r.r.r.r.r.r.r.r.r.r.r.r.r.r.r.r.r.r.r.r.> 9 6 6 2 < % / #.&.O.M x r s p h j j j j j j k k & = _ o.{ r.r.r.r.r.r.r.r.r.r.r.r.r.",
"r.r.r.r.r.r.r.r.r.r.r.r.r.r.r.r.r.r.r.r.r.3 I / 2       0 #.#.] s r y p p h z k G G V V S p h V W e.8.r.r.r.r.r.r.r.r.r.r.r.r.r.",
"r.r.r.r.r.r.r.r.r.r.r.r.r.r.r.r.r.r.r.r.r.r.r.L 5 * * + ; J s r : Y v z v Z G S G G S h h p B C R e.e.r.r.r.r.r.r.r.r.r.r.r.r.r.",
"r.r.r.r.r.r.r.r.r.r.r.r.r.r.r.r.r.r.r.r.r.r.r.m V N N r u ; r.r.| 0.7.W A Z Z D D D v p p p B b R e.5.r.r.r.r.r.r.r.r.r.r.r.r.r.",
"r.r.r.r.r.r.r.r.r.r.r.r.r.r.r.r.r.r.r.r.r.r.r.r.c x y r ; r.r.&.e.e.e.e.9.<.W W A A m d J T ,.7.e.e.4.[ r.r.r.r.r.r.r.r.r.r.r.r.",
"r.r.r.r.r.r.r.r.r.r.r.r.r.r.r.r.r.r.r.r.r.r.r.r.p z s - r.r.2.e.e.e.e.e.e.e.e.e.e.e.0.;.&.0.e.e.e.e.e.9.[ r.r.r.r.r.r.r.r.r.r.r.",
"r.r.r.r.r.r.r.r.r.r.r.r.r.r.r.r.r.r.r.r.r.r.r.r.r.u j r.r.@.e.e.e.e.e.e.e.e.e.e.e.e.e.e.e.e.e.e.e.e.e.e.1.r.r.r.r.r.r.r.r.r.r.r.",
"r.r.r.r.r.r.r.r.r.r.r.r.r.r.r.r.r.r.r.r.r.r.r.r.r.r.r.r.P e.e.0.;.0.e.e.e.e.e.e.e.e.e.e.e.e.e.e.e.e.e.e.9.] r.r.r.r.r.r.r.r.r.r.",
"r.r.r.r.r.r.r.r.r.r.r.r.r.r.r.r.r.r.r.r.r.r.r.r.r.r.r.r.;.0.*.+. .:.e.e.e.e.e.e.e.e.e.e.e.e.e.e.e.e.e.e.q.=.r.r.r.r.r.r.r.r.r.r.",
"r.r.r.r.r.r.r.r.r.r.r.r.r.r.r.r.r.r.r.r.r.r.r.r.r.r.r.L $.[ ] [ | +.5.e.e.e.e.e.e.e.e.e.e.e.e.e.e.e.e.e.e.1.Y r.r.r.r.r.r.r.r.r.",
"r.r.r.r.r.r.r.r.r.r.r.r.r.r.r.r.r.r.r.r.r.r.r.r.r.r.r.Y ^ _ ] [ [ | &.e.e.e.e.e.e.e.e.e.e.e.e.e.e.e.e.e.e.6.' r.r.r.r.r.r.r.r.r.",
"r.r.r.r.r.r.r.r.r.r.r.r.r.r.r.r.r.r.r.r.r.r.r.r.r.r.r.Y ( _ ' ] [ [ [ 3.e.e.e.e.e.e.e.e.e.e.e.e.e.e.e.e.e.7.+.r.r.r.r.r.r.r.r.r.",
"r.r.r.r.r.r.r.r.r.r.r.r.r.r.r.r.r.r.r.r.r.r.r.r.r.r.r.U ^ _ | +.$.:.0.e.~ I e.e.e.&.6 0.e.e.e.e.e.e.e.e.e.7.$.r.r.r.r.r.r.r.r.r.",
"r.r.r.r.r.r.r.r.r.r.r.r.r.r.r.r.r.r.r.r.r.r.r.r.r.r.P :.0.e.e.e.e.e.e.e.9 I e.e.e.{ @ e.e.e.e.e.e.e.e.e.e.6.@.r.r.r.r.r.r.r.r.r.",
"r.r.r.r.r.r.r.r.r.r.r.r.r.r.r.r.r.r.r.r.r.r.r.r.r.r.) 1.e.e.e.e.e.e.e.e.2.4.e.e.e.2.o.e.e.e.e.e.e.e.e.e.q.1.+.r.r.r.r.r.r.r.r.r.",
"r.r.r.r.r.r.r.r.r.r.r.r.r.r.r.r.r.r.r.r.r.r.r.r.r.r.P >.9.e.e.e.e.e.e.q.e.e.e.e.e.e.e.e.e.e.e.e.e.e.e.e.7.:.] r.r.r.r.r.r.r.r.r.",
"r.r.r.r.r.r.r.r.r.r.r.r.r.r.r.r.r.r.r.r.r.r.r.r.r.r.r.@.<.7.q.e.e.9.1.,.1.7.7.9.9.7.7.7.9.q.e.e.e.e.e.9.<.%._ r.r.r.r.r.r.r.r.r.",
"r.r.r.r.r.r.r.r.r.r.r.r.r.r.r.r.r.r.r.r.r.r.r.r.r.r.r._ %.>.<.6.7.7.,._ ] $.:.,.,.>.=.+.%.7.e.e.q.9.7.<.*...U r.r.r.r.r.r.r.r.r.",
"r.r.r.r.r.r.r.r.r.r.r.r.r.r.r.r.r.r.r.r.r.r.r.r.r.r.r.w ' +.%.*.=.,.1.9...u d J J J u T 6.7.7.1.1.<.:.%.+.( 9 r.r.r.r.r.r.r.r.r.",
"r.r.r.r.r.r.r.r.r.r.r.r.r.r.r.r.r.r.r.r.r.r.r.r.r.r.r.r.w _ [  .+.@.%.,.6.<.T n n R >.q.7.,.=.*.%.$.+. .( q 4 r.r.r.r.r.r.r.r.r.",
"r.r.r.r.r.r.r.r.r.r.r.r.r.r.r.r.r.r.r.r.r.r.r.r.r.r.r.r.r.9 I Y ~ ^ ( ..>.7.q.e.e.q.7.,.$.+... .| ] _ ~ q 3 r.r.r.r.r.r.r.r.r.r.",
"r.r.r.r.r.r.r.r.r.r.r.r.r.r.r.r.r.r.r.r.r.r.r.r.r.r.r.r.r.r.4 6 2 9 I ' %.>.<.1.1.1.>.$.' ~ Y Y Y Y I 7 3 r.r.r.r.r.r.r.r.r.r.r.",
"r.r.r.r.r.r.r.r.r.r.r.r.r.r.r.r.r.r.r.r.r.r.r.r.r.r.r.r.r.r.r.r.3 3 q (  .@.%.%.%.%.@.+._ U 9 6 2 2 1 r.r.r.r.r.r.r.r.r.r.r.r.r.",
"r.r.r.r.r.r.r.r.r.r.r.r.r.r.r.r.r.r.r.r.r.r.r.r.r.r.r.r.r.r.r.r.r.r.4 0 Y _ ] [ [ [ ] _ Y q 1 1 1 4 r.r.r.r.r.r.r.r.r.r.r.r.r.r.",
"r.r.r.r.r.r.r.r.r.r.r.r.r.r.r.r.r.r.r.r.r.r.r.r.r.r.r.r.r.r.r.r.r.r.r.r.7 0 I Y Y Y U w 6 1 3 r.r.r.r.r.r.r.r.r.r.r.r.r.r.r.r.r.",
"r.r.r.r.r.r.r.r.r.r.r.r.r.r.r.r.r.r.r.r.r.r.r.r.r.r.r.r.r.r.r.r.r.r.r.r.r.r.3 3 2 1 1 3 r.r.r.r.r.r.r.r.r.r.r.r.r.r.r.r.r.r.r.r.",
"r.r.r.r.r.r.r.r.r.r.r.r.r.r.r.r.r.r.r.r.r.r.r.r.r.r.r.r.r.r.r.r.r.r.r.r.r.r.r.r.r.r.r.r.r.r.r.r.r.r.r.r.r.r.r.r.r.r.r.r.r.r.r.r.",
"r.r.r.r.r.r.r.r.r.r.r.r.r.r.r.r.r.r.r.r.r.r.r.r.r.r.r.r.r.r.r.r.r.r.r.r.r.r.r.r.r.r.r.r.r.r.r.r.r.r.r.r.r.r.r.r.r.r.r.r.r.r.r.r.",
"r.r.r.r.r.r.r.r.r.r.r.r.r.r.r.r.r.r.r.r.r.r.r.r.r.r.r.r.r.r.r.r.r.r.r.r.r.r.r.r.r.r.r.r.r.r.r.r.r.r.r.r.r.r.r.r.r.r.r.r.r.r.r.r.",
"r.r.r.r.r.r.r.r.r.r.r.r.r.r.r.r.r.r.r.r.r.r.r.r.r.r.r.r.r.r.r.r.r.r.r.r.r.r.r.r.r.r.r.r.r.r.r.r.r.r.r.r.r.r.r.r.r.r.r.r.r.r.r.r.",
"r.r.r.r.r.r.r.r.r.r.r.r.r.r.r.r.r.r.r.r.r.r.r.r.r.r.r.r.r.r.r.r.r.r.r.r.r.r.r.r.r.r.r.r.r.r.r.r.r.r.r.r.r.r.r.r.r.r.r.r.r.r.r.r.",
"r.r.r.r.r.r.r.r.r.r.r.r.r.r.r.r.r.r.r.r.r.r.r.r.r.r.r.r.r.r.r.r.r.r.r.r.r.r.r.r.r.r.r.r.r.r.r.r.r.r.r.r.r.r.r.r.r.r.r.r.r.r.r.r."
};
