/* XPM */
static char *_574843148353[] = {
/* columns rows colors chars-per-pixel */
"64 64 123 2 ",
"   c black",
".  c gray3",
"X  c #101010",
"o  c #181818",
"O  c #212118",
"+  c #292118",
"@  c gray16",
"#  c #313121",
"$  c #393131",
"%  c #393939",
"&  c #5A3108",
"*  c #524218",
"=  c #5A4A21",
"-  c #635221",
";  c #7B5A21",
":  c #6B6339",
">  c #4A4A42",
",  c #525242",
"<  c gray32",
"1  c #5A5A52",
"2  c #5A5A5A",
"3  c #5A634A",
"4  c #6B6B4A",
"5  c #7B734A",
"6  c #63635A",
"7  c #6B6B5A",
"8  c #7B7B5A",
"9  c #6B6B63",
"0  c #73736B",
"q  c #737B73",
"w  c #7B7B73",
"e  c #9C1800",
"r  c #8C4A08",
"t  c #944210",
"y  c #945A10",
"u  c #B55A18",
"i  c #946B18",
"p  c #B57B10",
"a  c #AD7321",
"s  c #AD7B31",
"d  c #CE6B18",
"f  c #B58410",
"g  c #BD8410",
"h  c #C68C18",
"j  c #DE8410",
"k  c #CE9410",
"l  c #F79410",
"z  c #EFAD18",
"x  c #E7B518",
"c  c #FFB518",
"v  c #DE8429",
"b  c #CE9C29",
"n  c #FFC618",
"m  c #FFD618",
"M  c #E7C621",
"N  c #FFC621",
"B  c #FFDE21",
"V  c #FFD631",
"C  c #F7E721",
"Z  c #FFE721",
"A  c #FFEF21",
"S  c #FFF721",
"D  c #FFFF21",
"F  c #84845A",
"G  c #A58C4A",
"H  c #AD9C5A",
"J  c #8C8C63",
"K  c #94946B",
"L  c #84847B",
"P  c #8C8C7B",
"I  c #8C947B",
"U  c #BDB56B",
"Y  c #DEB54A",
"T  c #DECE4A",
"R  c #FFDE6B",
"E  c #FFF76B",
"W  c gray55",
"Q  c #94948C",
"!  c #949C8C",
"~  c gray61",
"^  c #A59C8C",
"/  c #A5A584",
"(  c #A5AD94",
")  c #A5A59C",
"_  c #ADAD9C",
"`  c #ADB59C",
"'  c #B5B59C",
"]  c gray68",
"[  c #ADB5AD",
"{  c #B5B5A5",
"}  c #B5BDA5",
"|  c #BDBDA5",
" . c #B5BDAD",
".. c gray71",
"X. c gray74",
"o. c #BDC6AD",
"O. c #C6CEB5",
"+. c #C6C6BD",
"@. c #C6CEBD",
"#. c #CED6BD",
"$. c #CECEC6",
"%. c #D6D6C6",
"&. c #DEDEC6",
"*. c #DED6CE",
"=. c #D6DECE",
"-. c #DEE7CE",
";. c #E7E7CE",
":. c #E7EFCE",
">. c #EFF7D6",
",. c #F7F7DE",
"<. c #DEDEE7",
"1. c #E7E7E7",
"2. c #EFEFEF",
"3. c #F7EFEF",
"4. c #F7F7E7",
"5. c #FFFFE7",
"6. c #F7F7EF",
"7. c #FFFFEF",
"8. c #FFF7F7",
"9. c #FFFFF7",
"0. c #F7FFFF",
"q. c white",
"w. c None",
/* pixels */
"w.w.w.w.w.w.w.w.w.w.w.w.w.w.w.w.w.w.w.w.w.w.w.w.w.w.w.w.w.w.w.w.w.w.w.w.w.w.w.w.w.w.w.w.w.w.w.w.w.w.w.w.w.w.w.w.w.w.w.w.w.w.w.w.",
"w.w.w.w.w.w.w.w.w.w.w.w.w.w.w.w.w.w.w.w.w.w.w.w.w.w.w.w.w.w.w.w.w.w.w.w.w.w.w.w.w.w.w.w.w.w.w.w.w.w.w.w.w.w.w.w.w.w.w.w.w.w.w.w.",
"w.w.w.w.w.w.w.w.w.w.w.w.w.w.w.w.w.w.w.w.w.w.w.w.w.w.w.w.w.w.w.w.w.w.w.w.w.w.w.w.w.w.w.w.w.w.w.w.w.w.w.w.w.w.w.w.w.w.w.w.w.w.w.w.",
"w.w.w.w.w.w.w.w.w.w.w.w.w.w.w.w.w.w.w.w.w.w.w.w.w.w.w.w.w.w.w.w.w.w.w.w.w.w.w.w.w.w.w.w.w.w.w.w.w.w.w.w.w.w.w.w.w.w.w.w.w.w.w.w.",
"w.w.w.w.w.w.w.w.w.w.w.w.w.w.w.w.w.w.w.w.w.w.w.w.w.w.w.w.w.w.w.w.w.w.w.w.w.w.w.w.w.w.w.w.w.w.w.w.w.w.w.w.w.w.w.w.w.w.w.w.w.w.w.w.",
"w.w.w.w.w.w.w.w.w.w.w.w.w.w.w.w.w.w.w.w.w.w.w.w.w.w.w.w.w.w.w.w.w.w.w.w.w.w.w.w.w.w.w.w.w.w.w.w.w.w.w.w.w.w.w.w.w.w.w.w.w.w.w.w.",
"w.w.w.w.w.w.w.w.w.w.w.w.w.w.w.w.w.w.w.w.w.w.w.w.w.w.w.w.w.w.w.w.w.w.w.w.w.w.w.w.w.w.w.w.w.w.w.w.w.w.w.w.w.w.w.w.w.w.w.w.w.w.w.w.",
"w.w.w.w.w.w.w.w.w.w.w.w.w.w.w.w.w.w.w.w.w.w.w.w.w.w.w.w.w.w.w.w.w.w.w.w.w.w.w.w.w.w.w.w.w.w.w.w.w.w.w.w.w.w.w.w.w.w.w.w.w.w.w.w.",
"w.w.w.w.w.w.w.w.w.w.w.w.w.w.w.w.w.w.w.w.w.w.w.w.w.w.w.w.w.w.w.w.w.w.w.w.w.w.w.w.w.w.w.w.w.w.w.w.w.w.w.w.w.w.w.w.w.w.w.w.w.w.w.w.",
"w.w.w.w.w.w.w.w.w.w.w.w.w.w.w.w.w.w.w.w.w.w.w.w.w.w.w.w.w.w.w.w.w.w.w.w.w.w.w.w.w.: w.w.w.w.w.w.w.w.w.w.w.w.w.w.w.w.w.w.w.w.w.w.",
"w.w.w.w.w.w.w.w.w.w.w.w.w.w.w.w.w.w.w.w.w.w.w.w.w.w.w.w.w.w.w.w.w.w.= = + w.w.- * w.w.w.w.w.w.w.w.w.w.w.w.w.w.w.w.w.w.w.w.w.w.w.",
"w.w.w.w.w.w.w.w.w.w.w.w.w.w.w.w.w.w.w.w.w.w.w.w.w.w.w.w.w.w.w.w.w.w.w.* + + = * w.w.w.w.w.w.w.w.w.w.w.w.w.w.w.w.w.w.w.w.w.w.w.w.",
"w.w.w.w.w.w.w.w.w.w.w.w.w.w.w.w.w.w.w.w.w.w.w.w.w.w.w.w.w.w.w.w.w.w.w.w.- - ; w.w.w.w.w.w.w.w.w.w.w.w.w.w.w.w.w.w.w.w.w.w.w.w.w.",
"w.w.w.w.w.w.w.w.w.w.w.w.w.w.w.w.w.w.w.w.w.w.w.w.w.w.w.w.w.w.w.w.w.w.w.M D D D S B b w.w.w.w.w.w.w.w.w.w.w.w.w.w.w.w.w.w.w.w.w.w.",
"w.w.w.w.w.w.w.w.w.w.w.w.w.w.w.w.w.i r w.w.w.w.w.w.w.w.w.w.w.w.w.w.w.C D D D D D S B b w.w.w.w.w.w.w.w.w.w.w.w.w.w.w.w.w.w.w.w.w.",
"w.w.w.w.w.w.w.w.w.w.w.w.w.w.w.w.w.w.; w.w.w.w.w.w.w.w.w.w.w.w.w.w.N A D D D D D A B c 2 < 1 w.w.w.w.w.w.w.w.w.w.w.w.w.w.w.w.w.w.",
"w.w.w.w.w.w.w.w.w.w.w.w.w.w.w.w.w.9 5 - w.w.w.w.w.w.w.w.w.w.w.w., i k C D E H $ X + p 6 0 < w.w.w.w.w.w.w.w.w.w.w.w.w.w.w.w.w.w.",
"w.w.w.w.w.w.w.w.w.w.w.w.w.w.w.w.w.w.3 ; w.w.w.w.w.w.w.w.w.w.# X   X % , b & @ 7 ..L o q [ < > w.w.w.w.w.w.w.w.w.w.w.w.w.w.w.w.w.",
"w.w.w.w.w.w.w.w.w.w.w.w.w.w.w.w.w.w.< w w , w.w.> 9 ^ ] ..] o     . ~ >     ..q.q.0.)   $ > $ w.w.w.w.w.w.w.w.w.w.w.w.w.w.w.w.w.",
"w.w.w.w.w.w.w.w.w.w.w.w.w.w.w.w.w.w.3 W ~ $       < ..X.+.X.$ o 2 ) *.2.[ <.0.<.0.0.2.o O % @ w.w.w.w.w.w.w.w.w.w.w.w.w.w.w.w.w.",
"w.w.w.w.w.w.w.w.w.w.w.w.w.w.w.w.w.w.w.< 0 2 .     @ ) ) L 2 2 ..+.+.X.~ $.0.=.$ 2.0.0.@ o @ o w.w.w.w.w.w.w.w.w.w.w.w.w.w.w.w.w.",
"w.w.w.w.w.w.w.w.w.w.w.w.w.w.w.w.w.w.w.$   O L Q Q ~ %       @ ..+.[ 9 > W <.2.2 0.0.=.  & Q > w.w.w.w.w.w.w.w.w.b A b w.w.w.w.w.",
"w.w.w.w.w.w.w.w.w.w.w.w.w.w.w.w.w.w.w., o   0 [ ....2       o q > .   [ @ . q <.q.q.> & v q.w.w.w.w.w.w.M b w.M n g i w.w.w.w.w.",
"w.w.w.w.w.w.w.w.w.w.w.w.w.w.w.w.w.w.w.w.6 0 6 6 0 q 2 < q ~ ..<       o ; M +   @ > i n l 3.w.w.w.w.w.w.k l D c u b A B w.w.w.w.",
"w.w.w.w.w.w.w.w.w.w.w.w.w.w.w.w.w.w.w.w.6 Q W o     . Q X.X.+.W X $ L ^ n n k x M S m c d 6.w.w.w.w.w.w.l l B x B c h a w.w.w.w.",
"w.w.w.w.w.w.w.w.w.w.w.w.w.w.w.w.w.w.w.w.3 > 0 $ X     6 ] Q 0 > Q +.+...a y g z c c l d H <.I w.w.w.w.b j d m A n k M S T w.w.w.",
"w.w.w.w.w.w.w.w.w.w.w.w.w.w.w.w.w.w.w.w.w.O   $ Q ~ ~ W X       L +.X.q * e e e u d u r 1.1.*.^ w.b A c d j n m A n z k s w.w.w.",
"w.w.w.w.w.w.w.w.w.w.w.w.w.w.w.w.w.w.w.w.w.% @ O W [ ..] O     . 2 < o   + e e e & & # P =.o.2.R C Z B n l l c c k w.w.w.w.w.w.w.",
"w.w.w.w.w.w.w.w.w.w.w.w.w.w.w.w.w.w.w.w.w., L W 2 > < < < L ~ ..) o     @ t e & & @ @ @ s a b Z B m n c j u y ; w.w.w.w.w.w.w.w.",
"w.w.w.w.w.w.w.w.w.w.w.w.w.w.w.w.w.w.w.w.w.w.6 Q 0       $ [ X.+.X.% % W ..a i a y o O o y d j m n c l j ; w.w.w.w.w.w.w.w.w.w.w.",
"w.w.w.w.w.w.w.w.w.w.w.w.w.w.w.w.w.w.w.w.w.w., O > $ @ O $ L q 2 $ 2 +.+.+.H k k k - + y p u d c l j y w.w.w.w.w.w.w.w.w.w.w.w.w.",
"w.w.w.w.w.w.w.w.w.w.w.w.w.w.w.w.w.w.w.w.w.w.w.X   6 [ [ [ >       @ [ ] H f h h h h h g p y u d y F w.w.w.w.w.w.w.w.w.w.w.w.w.w.",
"w.w.w.w.w.w.w.w.w.w.w.w.w.w.w.w.w.w.w.w.w.w.w.w.+ : ) ) [ L . o & * a f f g g g g g g f f & & I ..] w.w.w.w.w.w.w.w.w.w.w.w.w.w.",
"w.w.w.w.w.w.w.w.w.w.w.w.w.w.w.w.w.w.w.w.w.w.w.w.& k D l v j d u r f h p p M k k C M k M M p h T 3.=.w.w.w.w.w.w.w.w.w.w.w.w.w.w.",
"w.w.w.w.w.w.w.w.w.w.w.w.w.w.w.w.w.w.w.w.w.w.w.G y p n u y r ; 5 K x N M C S S S S S M h f p n Y q.8.w.w.w.w.w.w.w.w.w.w.w.w.w.w.",
"w.w.w.w.w.w.w.w.w.w.w.w.w.w.w.w.w.w.w.w.w.w.w.x j d u & - w.w.( 2.,.R V B B Z Z Z Z f p a p c U q.1.w.w.w.w.w.w.w.w.w.w.w.w.w.w.",
"w.w.w.w.w.w.w.w.w.w.w.w.w.w.w.w.w.w.w.w.w.w.w.s p y r & w.w. .8.q.q.q.7.:.R V V V V G G H %.7.q.q.1.` w.w.w.w.w.w.w.w.w.w.w.w.w.",
"w.w.w.w.w.w.w.w.w.w.w.w.w.w.w.w.w.w.w.w.w.w.w.w.j d y w.w. .q.q.q.q.q.q.q.3.1.q.q.q.3.$.-.8.q.q.q.q.7./ w.w.w.w.w.w.w.w.w.w.w.w.",
"w.w.w.w.w.w.w.w.w.w.w.w.w.w.w.w.w.w.w.w.w.w.w.w.w.y r w.Q 8.q.q.3.1.=.$.o.} o.3.q.q.q.q.q.q.q.q.q.q.q.>.w.w.w.w.w.w.w.w.w.w.w.w.",
"w.w.w.w.w.w.w.w.w.w.w.w.w.w.w.w.w.w.w.w.w.w.w.w.w.w.w.F { o.o.} } } } } } } } -.q.q.q.q.q.q.q.q.q.q.q.7.` w.w.w.w.w.w.w.w.w.w.w.",
"w.w.w.w.w.w.w.w.w.w.w.w.w.w.w.w.w.w.w.w.w.w.w.w.w.w.w.I ( ` ' } } } } } } } } $.q.q.q.q.q.q.q.q.q.q.q.9.&.w.w.w.w.w.w.w.w.w.w.w.",
"w.w.w.w.w.w.w.w.w.w.w.w.w.w.w.w.w.w.w.w.w.w.w.w.w.w.w.! ( ` ' } } } } } { { o.1.q.q.q.q.q.q.q.q.q.q.q.q.,.I w.w.w.w.w.w.w.w.w.w.",
"w.w.w.w.w.w.w.w.w.w.w.w.w.w.w.w.w.w.w.w.w.w.w.w.w.w.{ =.$.@. .o.{ { ' ' =.2.8.q.q.q.q.q.q.q.q.q.q.q.q.q.4.( w.w.w.w.w.w.w.w.w.w.",
"w.w.w.w.w.w.w.w.w.w.w.w.w.w.w.w.w.w.w.w.w.w.w.w.w.w.7.q.q.q.q.q.q.8.q.3.=.q.q.q.q.q.q.q.q.q.q.q.q.q.q.q.5.o.w.w.w.w.w.w.w.w.w.w.",
"w.w.w.w.w.w.w.w.w.w.w.w.w.w.w.w.w.w.w.w.w.w.w.w.w.w.7.q.q.q.q.q.q.q.q.Q q q.q.q.<.2 1.q.q.q.q.q.q.q.q.q.5.@.w.w.w.w.w.w.w.w.w.w.",
"w.w.w.w.w.w.w.w.w.w.w.w.w.w.w.w.w.w.w.w.w.w.w.w.w.w.5.q.q.q.q.q.q.q.q.L % q.q.q.$.  8.q.q.q.q.q.q.q.q.q.5.O.w.w.w.w.w.w.w.w.w.w.",
"w.w.w.w.w.w.w.w.w.w.w.w.w.w.w.w.w.w.w.w.w.w.w.w.w.^ ,.q.q.q.q.q.q.q.q.3.<.q.q.q.8.] q.q.q.q.q.q.q.q.q.9.>.o.8 w.w.w.w.w.w.w.w.w.",
"w.w.w.w.w.w.w.w.w.w.w.w.w.w.w.w.w.w.w.w.w.w.w.w.w.w.;.7.q.q.q.q.q.q.9.q.q.q.q.q.q.q.q.q.q.q.q.q.q.q.q.5.-.} w.w.w.w.w.w.w.w.w.w.",
"w.w.w.w.w.w.w.w.w.w.w.w.w.w.w.w.w.w.w.w.w.w.w.w.w.w.O.>.5.7.q.q.9.,.:.,.5.5.5.7.7.7.5.7.q.q.q.q.q.9.7.>.#.( w.w.w.w.w.w.w.w.w.w.",
"w.w.w.w.w.w.w.w.w.w.w.w.w.w.w.w.w.w.w.w.w.w.w.w.w.w.( #.;.,.4.5.5.:.` ` #.-.;.:.;.&.o.O.5.9.9.9.7.5.>.%.} P w.w.w.w.w.w.w.w.w.w.",
"w.w.w.w.w.w.w.w.w.w.w.w.w.w.w.w.w.w.w.w.w.w.w.w.w.w.J ` O.#.&.-.:.,.9.U u s G G G u U ,.5.5.,.>.:.-.#.| ^ 9 w.w.w.w.w.w.w.w.w.w.",
"w.w.w.w.w.w.w.w.w.w.w.w.w.w.w.w.w.w.w.w.w.w.w.w.w.w.w.L ( ' | o.O.#.;.7.4.U v v Y *.q.5.>.&.%.#.O.o.} ^ w 4 w.w.w.w.w.w.w.w.w.w.",
"w.w.w.w.w.w.w.w.w.w.w.w.w.w.w.w.w.w.w.w.w.w.w.w.w.w.w.w.9 P I ! ! ^ } -.4.7.q.q.9.5.:.#.o.| { ' ` ( Q q 3 w.w.w.w.w.w.w.w.w.w.w.",
"w.w.w.w.w.w.w.w.w.w.w.w.w.w.w.w.w.w.w.w.w.w.w.w.w.w.w.w.w.4 6 7 9 L ( O.-.>.,.,.,.;.#.` Q I I I P w 7 3 w.w.w.w.w.w.w.w.w.w.w.w.",
"w.w.w.w.w.w.w.w.w.w.w.w.w.w.w.w.w.w.w.w.w.w.w.w.w.w.w.w.w.w.w.3 1 q ^ } O.#.#.#.#.@.o.( P 9 6 2 1 3 w.w.w.w.w.w.w.w.w.w.w.w.w.w.",
"w.w.w.w.w.w.w.w.w.w.w.w.w.w.w.w.w.w.w.w.w.w.w.w.w.w.w.w.w.w.w.w.w.4 q I ( ` ' ' ' _ ( I q 1 1 3 w.w.w.w.w.w.w.w.w.w.w.w.w.w.w.w.",
"w.w.w.w.w.w.w.w.w.w.w.w.w.w.w.w.w.w.w.w.w.w.w.w.w.w.w.w.w.w.w.w.w.w.w.7 0 L P I P P w 6 1 3 w.w.w.w.w.w.w.w.w.w.w.w.w.w.w.w.w.w.",
"w.w.w.w.w.w.w.w.w.w.w.w.w.w.w.w.w.w.w.w.w.w.w.w.w.w.w.w.w.w.w.w.w.w.w.w.w.3 3 2 1 3 3 4 w.w.w.w.w.w.w.w.w.w.w.w.w.w.w.w.w.w.w.w.",
"w.w.w.w.w.w.w.w.w.w.w.w.w.w.w.w.w.w.w.w.w.w.w.w.w.w.w.w.w.w.w.w.w.w.w.w.w.w.w.w.w.w.w.w.w.w.w.w.w.w.w.w.w.w.w.w.w.w.w.w.w.w.w.w.",
"w.w.w.w.w.w.w.w.w.w.w.w.w.w.w.w.w.w.w.w.w.w.w.w.w.w.w.w.w.w.w.w.w.w.w.w.w.w.w.w.w.w.w.w.w.w.w.w.w.w.w.w.w.w.w.w.w.w.w.w.w.w.w.w.",
"w.w.w.w.w.w.w.w.w.w.w.w.w.w.w.w.w.w.w.w.w.w.w.w.w.w.w.w.w.w.w.w.w.w.w.w.w.w.w.w.w.w.w.w.w.w.w.w.w.w.w.w.w.w.w.w.w.w.w.w.w.w.w.w.",
"w.w.w.w.w.w.w.w.w.w.w.w.w.w.w.w.w.w.w.w.w.w.w.w.w.w.w.w.w.w.w.w.w.w.w.w.w.w.w.w.w.w.w.w.w.w.w.w.w.w.w.w.w.w.w.w.w.w.w.w.w.w.w.w.",
"w.w.w.w.w.w.w.w.w.w.w.w.w.w.w.w.w.w.w.w.w.w.w.w.w.w.w.w.w.w.w.w.w.w.w.w.w.w.w.w.w.w.w.w.w.w.w.w.w.w.w.w.w.w.w.w.w.w.w.w.w.w.w.w.",
"w.w.w.w.w.w.w.w.w.w.w.w.w.w.w.w.w.w.w.w.w.w.w.w.w.w.w.w.w.w.w.w.w.w.w.w.w.w.w.w.w.w.w.w.w.w.w.w.w.w.w.w.w.w.w.w.w.w.w.w.w.w.w.w."
};
