/* XPM */
static char *_574843067299[] = {
/* columns rows colors chars-per-pixel */
"64 64 121 2 ",
"   c black",
".  c gray3",
"X  c #101010",
"o  c #181818",
"O  c #212118",
"+  c #292118",
"@  c gray16",
"#  c #393131",
"$  c #393939",
"%  c #5A3108",
"&  c #524218",
"*  c #5A4A21",
"=  c #635221",
"-  c #7B5A21",
";  c #6B6339",
":  c #4A4A42",
">  c #525242",
",  c gray32",
"<  c #5A5A52",
"1  c #5A5A5A",
"2  c #5A634A",
"3  c #6B6B42",
"4  c #6B6B4A",
"5  c #7B734A",
"6  c #63635A",
"7  c #6B6B5A",
"8  c #6B6B63",
"9  c #73736B",
"0  c #737B73",
"q  c #7B7B73",
"w  c #9C1800",
"e  c #8C4A08",
"r  c #945A10",
"t  c #B55A18",
"y  c #946B18",
"u  c #B57B10",
"i  c #8C7B39",
"p  c #AD7321",
"a  c #AD7B31",
"s  c #CE6B18",
"d  c #846B42",
"f  c #B58410",
"g  c #BD8410",
"h  c #C68C18",
"j  c #DE8410",
"k  c #CE9410",
"l  c #F79410",
"z  c #EFAD18",
"x  c #E7B518",
"c  c #FFB518",
"v  c #DE8429",
"b  c #CE9C29",
"n  c #FFC618",
"m  c #FFD618",
"M  c #E7C621",
"N  c #FFC621",
"B  c #FFDE21",
"V  c #FFD631",
"C  c #F7E721",
"Z  c #FFE721",
"A  c #FFEF21",
"S  c #FFF721",
"D  c #FFFF21",
"F  c #84845A",
"G  c #A58C4A",
"H  c #AD9C5A",
"J  c #8C8C63",
"K  c #94946B",
"L  c #84847B",
"P  c #8C8C7B",
"I  c #8C947B",
"U  c #BDB56B",
"Y  c #DEB54A",
"T  c #DECE4A",
"R  c #FFDE6B",
"E  c #FFF76B",
"W  c gray55",
"Q  c #94948C",
"!  c #949C8C",
"~  c gray61",
"^  c #A59C8C",
"/  c #A5A584",
"(  c #A5AD94",
")  c #A5A59C",
"_  c #ADAD9C",
"`  c #ADB59C",
"'  c #B5B59C",
"]  c gray68",
"[  c #ADB5AD",
"{  c #B5BDA5",
"}  c #BDBDA5",
"|  c gray71",
" . c gray74",
".. c #BDC6AD",
"X. c #C6CEB5",
"o. c #C6C6BD",
"O. c #C6CEBD",
"+. c #CED6BD",
"@. c #CECEC6",
"#. c #D6D6C6",
"$. c #DEDEC6",
"%. c #DED6CE",
"&. c #D6DECE",
"*. c #DEE7CE",
"=. c #E7E7CE",
"-. c #E7EFCE",
";. c #EFF7D6",
":. c #F7F7DE",
">. c #DEDEE7",
",. c #E7E7E7",
"<. c #EFEFEF",
"1. c #F7EFEF",
"2. c #F7F7E7",
"3. c #FFFFE7",
"4. c #F7F7EF",
"5. c #FFFFEF",
"6. c #FFF7F7",
"7. c #FFFFF7",
"8. c #F7FFFF",
"9. c white",
"0. c None",
/* pixels */
"0.0.0.0.0.0.0.0.0.0.0.0.0.0.0.0.0.0.0.0.0.0.0.0.0.0.0.0.0.0.0.0.0.0.0.0.0.0.0.0.0.0.0.0.0.0.0.0.0.0.0.0.0.0.0.0.0.0.0.0.0.0.0.0.",
"0.0.0.0.0.0.0.0.0.0.0.0.0.0.0.0.0.0.0.0.0.0.0.0.0.0.0.0.0.0.0.0.0.0.0.0.0.0.0.0.0.0.0.0.0.0.0.0.0.0.0.0.0.0.0.0.0.0.0.0.0.0.0.0.",
"0.0.0.0.0.0.0.0.0.0.0.0.0.0.0.0.0.0.0.0.0.0.0.0.0.0.0.0.0.0.0.0.0.0.0.0.0.0.0.0.0.0.0.0.0.0.0.0.0.0.0.0.0.0.0.0.0.0.0.0.0.0.0.0.",
"0.0.0.0.0.0.0.0.0.0.0.0.0.0.0.0.0.0.0.0.0.0.0.0.0.0.0.0.0.0.0.0.0.0.0.0.0.0.0.0.0.0.0.0.0.0.0.0.0.0.0.0.0.0.0.0.0.0.0.0.0.0.0.0.",
"0.0.0.0.0.0.0.0.0.0.0.0.0.0.0.0.0.0.0.0.0.0.0.0.0.0.0.0.0.0.0.0.0.0.0.0.0.0.0.0.0.0.0.0.0.0.0.0.0.0.0.0.0.0.0.0.0.0.0.0.0.0.0.0.",
"0.0.0.0.0.0.0.0.0.0.0.0.0.0.0.0.0.0.0.0.0.0.0.0.0.0.0.0.0.0.0.0.0.0.0.0.0.0.0.0.0.0.0.0.0.0.0.0.0.0.0.0.0.0.0.0.0.0.0.0.0.0.0.0.",
"0.0.0.0.0.0.0.0.0.0.0.0.0.0.0.0.0.0.0.0.0.0.0.0.0.0.0.0.0.0.0.0.0.0.0.0.0.0.0.0.0.0.0.0.0.0.0.0.0.0.0.0.0.0.0.0.0.0.0.0.0.0.0.0.",
"0.0.0.0.0.0.0.0.0.0.0.0.0.0.0.0.0.0.0.0.0.0.0.0.0.0.0.0.0.0.0.0.0.0.0.0.0.0.0.0.0.0.0.0.0.0.0.0.0.0.0.0.0.0.0.0.0.0.0.0.0.0.0.0.",
"0.0.0.0.0.0.0.> 0.0.0.0.0.0.0.0.0.0.0.0.0.0.0.0.0.0.0.0.0.0.0.0.0.0.0.0.0.0.0.0.0.0.0.0.0.0.0.0.0.0.0.0.0.0.0.0.0.0.0.0.0.0.0.0.",
"0.0.0.0.0.0.0.$ 0.0.0.0.0.0.0.0.0.0.0.0.0.0.0.0.0.0.0.0.0.0.0.0.0.0.0.0.0.0.0.= 0.0.0.0.0.0.0.0.0.0.0.0.0.0.0.0.0.0.0.0.0.0.0.0.",
"0.0.0.0.0.0.0.2 : 0.0.0.0.0.0.0.0.0.0.0.0.0.0.0.0.0.0.0.0.0.0.0.* & + 0.0.* & 0.0.0.0.0.0.0.0.0.0.0.0.0.0.0.0.0.0.0.0.0.0.0.0.0.",
"0.0.0.0.0.0.0.0., 0.0.0.0.0.0.0.0.0.0.0.0.0.0.0.0.0.0.0.0.0.0.0.0.& + + = & 0.0.0.0.0.0.0.0.0.0.0.0.0.0.0.0.0.0.0.0.0.0.0.0.0.0.",
"0.0.0.0.0.0.0.0.< 2 0.0.0.p 0.0.0.0.0.0.0.0.0.0.0.0.0.0.0.0.0.0.0.0.= = y 0.0.0.0.0.0.0.0.0.0.0.0.0.0.0.0.0.0.0.0.0.0.0.0.0.0.0.",
"0.0.0.0.0.0.0.0.0.1 o : ~ = e 0.0.0.0.0.0.0.0.0.0.0.0.0.0.0.0.0.0.C D D D S B b 0.0.0.0.0.0.0.0.0.0.0.0.0.0.0.0.0.0.0.0.0.0.0.0.",
"0.0.0.0.0.0.0.0.0., o X ) J % 0.0.0.0.0.0.0.0.0.0.0.0.0.0.0.0.0.Z D D D D D A B b 0.0.0.0.0.0.0.0.0.0.0.0.0.0.0.0.0.0.0.0.0.0.0.",
"0.0.0.0.0.0.0.0.0.> # 6 6 1 % - 0.0.0.0.0.0.0.0.0.0.0.0.0.0.0.n A D D D D D A B c 1 , 2 0.0.0.0.0.0.0.0.0.0.0.0.0.0.0.0.0.0.0.0.",
"0.0.0.0.0.0.0.0.0.0.@ W 0   + % 0.0.0.0.0.0.0.0.0.0.0.0.0.0.0.y k C D E H > . + u 6 9 , > 0.0.0.0.0.0.0.0.0.0.0.0.0.0.0.0.0.0.0.",
"0.0.0.0.0.0.0.0.0.0.< 6 9 @ @ % 0.0.0.0.0.0.0.0.0.0.0.0.0.0.  # , 3 b y o 9 | L . L [ , : 0.0.0.0.0.0.0.0.0.0.0.0.0.0.0.0.0.0.0.",
"0.0.0.0.0.0.0.0.0.0.0., X , ] = - 0.0.0.0.0.0.0.0.0.0.0.0.  ] <.o.$ . . | 9.8.8.~   # : # 0.0.0.0.0.0.0.0.0.0.0.0.0.0.0.0.0.0.0.",
"0.0.0.0.0.0.0.0.0.0.0.$ X @ ) F % 0.0.0.0.0.0.0.0.0.0.0.0.# 8.8.8.8.] >.8.<.8.8.<.o O $ @ 0.0.0.0.0.0.0.0.0.0.0.0.0.0.0.0.0.0.0.",
"0.0.0.0.0.0.0.0.0.0.0.$ : W : + % 0.0.0.0.0.0.0.0.0.0.0.0., 8.8.8.~  .8.%.@ <.8.8.@ o @ o 0.0.0.0.0.0.0.0.0.0.0.0.0.0.0.0.0.0.0.",
"0.0.0.0.0.0.0.0.0.0.0.0.# Q 8   % - 0.0.0.0.0.0.0.0.0.0.0.@ <.8.8.$ W >.>.< 8.8.>.  % W $ 0.0.0.0.0.0.0.0.0.b A b 0.0.0.0.0.0.0.",
"0.0.0.0.0.0.0.0.0.0.0.0.6 $ # , ; % 0.0.0.0.0.0.0.0.0.0.0.O ] 8.8.%.# O 7 >.9.9.: % h 9.0.0.0.0.0.0.M b 0.M n g 0.0.0.0.0.0.0.0.",
"0.0.0.0.0.0.0.0.0.0.0.0.0.$   9 ] % 0.0.0.0.0.0.0.0.0.0.0.0.: 1 0 @ y C % X # # y n l 1.0.0.0.0.0.0.k z D c p b A B 0.0.0.0.0.0.",
"0.0.0.0.0.0.0.0.0.0.0.0.0.@ , 6 0 * = 0.0.0.0.0.0.0.0.0.0.a M u i y n N k f T S m c v 1.0.0.0.0.0.0.l l B M B c g y 0.0.0.0.0.0.",
"0.0.0.0.0.0.0.0.0.0.0.0.0.0.6 ~ O X % 0.0.0.0.0.0.0.0.0.0.0.z n m n s t t z c c l s H ,.0.0.0.0.0.l j s m A z k M C b 0.0.0.0.0.",
"0.0.0.0.0.0.0.0.0.0.0.0.0.0.0.L > + % 0.0.0.0.0.0.0.0.0.0.0.t j j t w w w w t s t % 4.>.%.^ 0.b A c s j n m A n z k a 0.0.0.0.0.",
"0.0.0.0.0.0.0.0.0.0.0.0.0.0.0.0.0.0.= - 0.0.0.0.0.0.0.0.0.0.K - e e w w w w % % & K *...;.R C Z B n l l c c k 0.0.0.0.0.0.0.0.0.",
"0.0.0.0.0.0.0.0.0.0.0.0.0.0.0.0.0.0.0.% 0.0.0.0.0.0.0.0.0.0.6.@.d r e e w % % @ @ @ a p b Z B m n c j t y 0.0.0.0.0.0.0.0.0.0.0.",
"0.0.0.0.0.0.0.0.0.0.0.0.0.0.0.0.0.0.0.% - 0.0.0.0.0.0.0.0.U E v s h k u y p r o O O u s k m n c l j - 0.0.0.0.0.0.0.0.0.0.0.0.0.",
"0.0.0.0.0.0.0.0.0.0.0.0.0.0.0.0.0.0.0.= - 0.0.0.0.0.0.b C D A s u h h h k k k = + r u t g c l j r 0.0.0.0.0.0.0.0.0.0.0.0.0.0.0.",
"0.0.0.0.0.0.0.0.0.0.0.0.0.0.0.0.0.0.0.0.e a b T T T S D A m n u r g g h h h h h h g u r t s r F 0.0.0.0.0.0.0.0.0.0.0.0.0.0.0.0.",
"0.0.0.0.0.0.0.0.0.0.0.0.0.0.0.0.0.0.0.0.r z D D Z Z m n c l j r u f f g g g g g g f f % * I | ] 0.0.0.0.0.0.0.0.0.0.0.0.0.0.0.0.",
"0.0.0.0.0.0.0.0.0.0.0.0.0.0.0.0.0.0.0.b m C N k l c l j j t e u h u u x k k C M k M M y f T 1.&.0.0.0.0.0.0.0.0.0.0.0.0.0.0.0.0.",
"0.0.0.0.0.0.0.0.0.0.0.0.0.0.0.0.0.0.0.0.l g r e s s r e - 5 ^ x B M C S S S S S C h f u x Y 9.6.0.0.0.0.0.0.0.0.0.0.0.0.0.0.0.0.",
"0.0.0.0.0.0.0.0.0.0.0.0.0.0.0.0.0.0.0.0.p e - e e = 0.0.0.( <.:.R V B B Z Z Z Z f u p u c U 9.,.0.0.0.0.0.0.0.0.0.0.0.0.0.0.0.0.",
"0.0.0.0.0.0.0.0.0.0.0.0.0.0.0.0.0.0.0.0.0.t y 0.0.0.0.0.O.9.9.9.9.5.;.R V V V V G G H +.9.9.9.,...0.0.0.0.0.0.0.0.0.0.0.0.0.0.0.",
"0.0.0.0.0.0.0.0.0.0.0.0.0.0.0.0.0.0.0.0.0.0.0.0.0.0.0.>.9.9.9.9.9.9.9.9.9.9.9.9.1.@.&.6.9.9.9.9.5./ 0.0.0.0.0.0.0.0.0.0.0.0.0.0.",
"0.0.0.0.0.0.0.0.0.0.0.0.0.0.0.0.0.0.0.0.0.0.0.0.0.0.#.9.9.9.9.9.9.9.9.9.9.9.9.9.9.9.9.9.9.9.9.9.9.:.0.0.0.0.0.0.0.0.0.0.0.0.0.0.",
"0.0.0.0.0.0.0.0.0.0.0.0.0.0.0.0.0.0.0.0.0.0.0.0.0.( 9.9.9.9.9.9.9.9.9.9.9.9.9.9.9.9.9.9.9.9.9.9.9.5.` 0.0.0.0.0.0.0.0.0.0.0.0.0.",
"0.0.0.0.0.0.0.0.0.0.0.0.0.0.0.0.0.0.0.0.0.0.0.0.0.1.9.9.9.9.9.9.9.9.9.9.9.9.9.9.9.9.9.9.9.9.9.9.9.7.$.0.0.0.0.0.0.0.0.0.0.0.0.0.",
"0.0.0.0.0.0.0.0.0.0.0.0.0.0.0.0.0.0.0.0.0.0.0.0.0.9.9.9.9.9.9.9.9.9.9.9.9.9.9.9.9.9.9.9.9.9.9.9.9.9.:.I 0.0.0.0.0.0.0.0.0.0.0.0.",
"0.0.0.0.0.0.0.0.0.0.0.0.0.0.0.0.0.0.0.0.0.0.0.0.#.9.9.9.9.9.9.9.9.9.9.9.9.9.9.9.9.9.9.9.9.9.9.9.9.9.2.( 0.0.0.0.0.0.0.0.0.0.0.0.",
"0.0.0.0.0.0.0.0.0.0.0.0.0.0.0.0.0.0.0.0.0.0.0.0.5.9.9.9.9.9.9.9.9.,.>.9.9.9.9.9.9.9.9.9.9.9.9.9.9.9.3...0.0.0.0.0.0.0.0.0.0.0.0.",
"0.0.0.0.0.0.0.0.0.0.0.0.0.0.0.0.0.0.0.0.0.0.0.0.5.9.9.9.9.9.9.9.9.Q 9 9.9.9.>., >.9.9.9.9.9.9.9.9.9.3.X.0.0.0.0.0.0.0.0.0.0.0.0.",
"0.0.0.0.0.0.0.0.0.0.0.0.0.0.0.0.0.0.0.0.0.0.0./ 2.9.9.9.9.9.9.9.9.0 , 9.9.9. .  1.9.9.9.9.9.9.9.9.9.2.X.0.0.0.0.0.0.0.0.0.0.0.0.",
"0.0.0.0.0.0.0.0.0.0.0.0.0.0.0.0.0.0.0.0.0.0.0.^ :.9.9.9.9.9.9.9.9.1.<.9.9.9.9.] 9.9.9.9.9.9.9.9.9.7.;...0.0.0.0.0.0.0.0.0.0.0.0.",
"0.0.0.0.0.0.0.0.0.0.0.0.0.0.0.0.0.0.0.0.0.0.0.K =.5.9.9.9.9.9.9.7.7.9.9.9.9.9.9.9.9.9.9.9.9.9.9.9.3.*.` 0.0.0.0.0.0.0.0.0.0.0.0.",
"0.0.0.0.0.0.0.0.0.0.0.0.0.0.0.0.0.0.0.0.0.0.0.0.X.;.3.7.9.9.7.2.-.:.3.3.3.5.5.5.3.5.7.9.9.9.9.7.5.;.+.( 0.0.0.0.0.0.0.0.0.0.0.0.",
"0.0.0.0.0.0.0.0.0.0.0.0.0.0.0.0.0.0.0.0.0.0.0.0.( +.=.:.2.3.3.-.` _ +.*.=.-.=.$.....3.7.7.7.5.3.;.#.{ P 0.0.0.0.0.0.0.0.0.0.0.0.",
"0.0.0.0.0.0.0.0.0.0.0.0.0.0.0.0.0.0.0.0.0.0.0.0.J ` X.+.$.*.-.:.7.} t a G K G t U 1.3.3.:.:.-.*.+.} ^ 8 0.0.0.0.0.0.0.0.0.0.0.0.",
"0.0.0.0.0.0.0.0.0.0.0.0.0.0.0.0.0.0.0.0.0.0.0.0.0.L ( ' } ..X.+.-.5.2.Y v v Y %.7.3.;.$.#.+.O...{ ^ 0 4 0.0.0.0.0.0.0.0.0.0.0.0.",
"0.0.0.0.0.0.0.0.0.0.0.0.0.0.0.0.0.0.0.0.0.0.0.0.0.0.8 P I ! ! ^ } *.3.7.9.9.7.3.-.+...} { ' ` ( Q 9 2 0.0.0.0.0.0.0.0.0.0.0.0.0.",
"0.0.0.0.0.0.0.0.0.0.0.0.0.0.0.0.0.0.0.0.0.0.0.0.0.0.0.4 7 7 8 L ( X.=.;.:.:.;.=.+.` ! I I I P q 7 2 0.0.0.0.0.0.0.0.0.0.0.0.0.0.",
"0.0.0.0.0.0.0.0.0.0.0.0.0.0.0.0.0.0.0.0.0.0.0.0.0.0.0.0.0.2 < 0 ^ { X.+.+.+.+.X...( P 8 1 1 1 2 0.0.0.0.0.0.0.0.0.0.0.0.0.0.0.0.",
"0.0.0.0.0.0.0.0.0.0.0.0.0.0.0.0.0.0.0.0.0.0.0.0.0.0.0.0.0.0.0.4 9 I ( ` ' ' ' ` ( I 0 < < 2 0.0.0.0.0.0.0.0.0.0.0.0.0.0.0.0.0.0.",
"0.0.0.0.0.0.0.0.0.0.0.0.0.0.0.0.0.0.0.0.0.0.0.0.0.0.0.0.0.0.0.0.0.7 9 L I I I P q 6 < 2 0.0.0.0.0.0.0.0.0.0.0.0.0.0.0.0.0.0.0.0.",
"0.0.0.0.0.0.0.0.0.0.0.0.0.0.0.0.0.0.0.0.0.0.0.0.0.0.0.0.0.0.0.0.0.0.0.4 1 < 1 < 2 0.0.0.0.0.0.0.0.0.0.0.0.0.0.0.0.0.0.0.0.0.0.0.",
"0.0.0.0.0.0.0.0.0.0.0.0.0.0.0.0.0.0.0.0.0.0.0.0.0.0.0.0.0.0.0.0.0.0.0.0.0.0.0.0.0.0.0.0.0.0.0.0.0.0.0.0.0.0.0.0.0.0.0.0.0.0.0.0.",
"0.0.0.0.0.0.0.0.0.0.0.0.0.0.0.0.0.0.0.0.0.0.0.0.0.0.0.0.0.0.0.0.0.0.0.0.0.0.0.0.0.0.0.0.0.0.0.0.0.0.0.0.0.0.0.0.0.0.0.0.0.0.0.0.",
"0.0.0.0.0.0.0.0.0.0.0.0.0.0.0.0.0.0.0.0.0.0.0.0.0.0.0.0.0.0.0.0.0.0.0.0.0.0.0.0.0.0.0.0.0.0.0.0.0.0.0.0.0.0.0.0.0.0.0.0.0.0.0.0.",
"0.0.0.0.0.0.0.0.0.0.0.0.0.0.0.0.0.0.0.0.0.0.0.0.0.0.0.0.0.0.0.0.0.0.0.0.0.0.0.0.0.0.0.0.0.0.0.0.0.0.0.0.0.0.0.0.0.0.0.0.0.0.0.0.",
"0.0.0.0.0.0.0.0.0.0.0.0.0.0.0.0.0.0.0.0.0.0.0.0.0.0.0.0.0.0.0.0.0.0.0.0.0.0.0.0.0.0.0.0.0.0.0.0.0.0.0.0.0.0.0.0.0.0.0.0.0.0.0.0.",
"0.0.0.0.0.0.0.0.0.0.0.0.0.0.0.0.0.0.0.0.0.0.0.0.0.0.0.0.0.0.0.0.0.0.0.0.0.0.0.0.0.0.0.0.0.0.0.0.0.0.0.0.0.0.0.0.0.0.0.0.0.0.0.0."
};
