/* XPM */
static char *_574843052957[] = {
/* columns rows colors chars-per-pixel */
"64 64 121 2 ",
"   c black",
".  c gray3",
"X  c #101010",
"o  c #181818",
"O  c #212118",
"+  c #292118",
"@  c gray16",
"#  c #313121",
"$  c #393131",
"%  c #393939",
"&  c #5A3108",
"*  c #5A4A21",
"=  c #635221",
"-  c #7B5A21",
";  c #6B6339",
":  c #4A4A42",
">  c #525242",
",  c gray32",
"<  c #5A5A52",
"1  c #5A5A5A",
"2  c #5A634A",
"3  c #6B6B4A",
"4  c #7B734A",
"5  c #63635A",
"6  c #6B6B5A",
"7  c #7B7B5A",
"8  c #6B6B63",
"9  c #73736B",
"0  c #737B73",
"q  c #7B7B73",
"w  c #9C1800",
"e  c #8C4A08",
"r  c #944210",
"t  c #945A10",
"y  c #B55A18",
"u  c #946B18",
"i  c #B57B10",
"p  c #8C7B39",
"a  c #AD7321",
"s  c #AD7B31",
"d  c #CE6B18",
"f  c #846B42",
"g  c #B58410",
"h  c #BD8410",
"j  c #C68C18",
"k  c #DE8410",
"l  c #CE9410",
"z  c #F79410",
"x  c #EFAD18",
"c  c #E7B518",
"v  c #FFB518",
"b  c #DE8429",
"n  c #CE9C29",
"m  c #F79C29",
"M  c #FFC618",
"N  c #FFD618",
"B  c #E7C621",
"V  c #FFC621",
"C  c #FFDE21",
"Z  c #FFD631",
"A  c #F7E721",
"S  c #FFE721",
"D  c #FFEF21",
"F  c #FFF721",
"G  c #FFFF21",
"H  c #84845A",
"J  c #A58C4A",
"K  c #AD9C5A",
"L  c #84847B",
"P  c #8C8C7B",
"I  c #8C947B",
"U  c #BDB56B",
"Y  c #DEB54A",
"T  c #DECE4A",
"R  c #FFDE6B",
"E  c #FFF76B",
"W  c gray55",
"Q  c #94948C",
"!  c #949C8C",
"~  c gray61",
"^  c #A59C8C",
"/  c #A5A584",
"(  c #A5AD94",
")  c #A5A59C",
"_  c #ADAD9C",
"`  c #ADB59C",
"'  c #B5B59C",
"]  c gray68",
"[  c #ADB5AD",
"{  c #B5B5A5",
"}  c #B5BDA5",
"|  c #BDBDA5",
" . c #B5BDAD",
".. c gray71",
"X. c gray74",
"o. c #BDC6AD",
"O. c #C6CEB5",
"+. c #C6C6BD",
"@. c #C6CEBD",
"#. c #CED6BD",
"$. c #CECEC6",
"%. c #D6D6C6",
"&. c #DEDEC6",
"*. c #D6DECE",
"=. c #DEE7CE",
"-. c #E7E7CE",
";. c #E7EFCE",
":. c #EFF7D6",
">. c #F7F7DE",
",. c #DEDEE7",
"<. c #E7E7E7",
"1. c #EFEFEF",
"2. c #F7EFEF",
"3. c #F7F7E7",
"4. c #FFFFE7",
"5. c #FFFFEF",
"6. c #FFF7F7",
"7. c #FFFFF7",
"8. c #F7FFFF",
"9. c white",
"0. c None",
/* pixels */
"0.0.0.0.0.0.0.0.0.0.0.0.0.0.0.0.0.0.0.0.0.0.0.0.0.0.0.0.0.0.0.0.0.0.0.0.0.0.0.0.0.0.0.0.0.0.0.0.0.0.0.0.0.0.0.0.0.0.0.0.0.0.0.0.",
"0.0.0.0.0.0.0.0.0.0.0.0.0.0.0.0.0.0.0.0.0.0.0.0.0.0.0.0.0.0.0.0.0.0.0.0.0.0.0.0.0.0.0.0.0.0.0.0.0.0.0.0.0.0.0.0.0.0.0.0.0.0.0.0.",
"0.0.0.0.0.0.0.0.0.0.0.0.0.0.0.0.0.0.0.0.0.0.0.0.0.0.0.0.0.0.0.0.0.0.0.0.0.0.0.0.0.0.0.0.0.0.0.0.0.0.0.0.0.0.0.0.0.0.0.0.0.0.0.0.",
"0.0.0.0.0.0.0.0.0.0.0.0.0.0.0.0.0.0.0.0.0.0.0.0.0.0.0.0.0.0.0.0.0.0.0.0.0.0.0.0.0.0.0.0.0.0.0.0.0.0.0.0.0.0.0.0.0.0.0.0.0.0.0.0.",
"0.0.0.0.0.0.0.0.0.0.0.0.0.0.0.0.0.0.0.0.0.0.0.0.0.0.0.0.0.0.0.0.0.0.0.0.0.0.0.0.0.0.0.0.0.0.0.0.0.0.0.0.0.0.0.0.0.0.0.0.0.0.0.0.",
"0.0.0.0.0.0.0.0.0.0.0.0.0.0.0.0.0.0.0.0.0.0.0.0.0.0.0.0.0.0.0.0.0.0.0.0.0.0.0.0.0.0.0.0.0.0.0.0.0.0.0.0.0.0.0.0.0.0.0.0.0.0.0.0.",
"0.0.0.0.0.0.0.0.0.0.0.0.0.0.0.0.0.0.0.0.0.0.0.0.0.0.0.0.0.0.0.0.0.0.0.0.0.0.0.0.0.0.0.0.0.0.0.0.0.0.0.0.0.0.0.0.0.0.0.0.0.0.0.0.",
"0.0.0.0.0.0.0.0.0.0.0.0.0.0.0.0.0.0.0.0.0.0.0.0.0.0.0.0.0.0.0.0.0.0.0.0.0.0.0.0.0.0.0.0.0.0.0.0.0.0.0.0.0.0.0.0.0.0.0.0.0.0.0.0.",
"0.0.0.0.0.0.0.0.0.0.0.0.0.0.0.0.0.0.0.0.0.0.0.0.0.0.0.0.0.0.0.0.0.0.0.0.0.0.0.0.0.0.0.0.0.0.0.0.0.0.0.0.0.0.0.0.0.0.0.0.0.0.0.0.",
"0.0.0.0.0.0.0.0.0.0.0.0.0.0.0.0.0.0.0.0.0.0.0.0.0.0.0.0.0.0.0.0.0.0.0.0.0.0.; 0.0.0.0.0.0.0.0.0.0.0.0.0.0.0.0.0.0.0.0.0.0.0.0.0.",
"0.0.0.0.0.0.0.0.0.0.0.0.0.0.0.0.0.0.0.0.0.0.0.0.0.0.0.0.0.0.0.0.* * 0.0.0.+ 0.0.0.0.0.0.0.0.0.0.0.0.0.0.0.0.0.0.0.0.0.0.0.0.0.0.",
"0.0.0.0.0.0.0.0.0.0.0.0.0.0.0.0.0.0.0.0.0.0.0.0.0.0.0.0.0.0.0.0.& X # 0.+ 0.0.0.0.0.0.0.0.0.0.0.0.0.0.0.0.0.0.0.0.0.0.0.0.0.0.0.",
"0.0.0.0.0.0.0.0.0.0.0.0.0.0.0.0.0.0.0.0.0.0.0.0.0.0.0.0.0.0.0.0.0.* X & - 0.0.0.0.0.0.0.0.0.0.0.0.0.0.0.0.0.0.0.0.0.0.0.0.0.0.0.",
"0.0.0.0.0.0.0.0.0.0.0.0.0.0.0.0.0.0.0.0.0.0.0.0.0.0.0.0.0.0.0.0.0.n A G G F B 0.0.0.0.0.0.0.0.0.0.0.0.0.0.0.0.0.0.0.0.0.0.0.0.0.",
"0.0.0.0.0.0.0.0.0.0.0.0.0.0.0.0.0.0.0.0.0.0.0.0.0.0.0.0.0.0.0.0.V G G G G G D N s 3 0.0.0.0.0.0.0.0.0.0.0.0.0.0.0.0.0.0.0.0.0.0.",
"0.0.0.0.0.0.0.0.0.0.0.a - 0.0.0.0.0.0.0.0.0.0.0.0.0.0.0.0.0.0.c D G G G F B A N p 1 1 > 0.0.0.0.0.0.0.0.0.0.0.0.0.0.0.0.0.0.0.0.",
"0.0.0.: $ 9 $ $ 1 @ : f e 0.0.0.0.0.0.0.0.0.0.0.0.0.0.0.0.0.0.N S F A = # @ . i p Q 0 : > 0.0.0.0.0.0.0.0.0.0.0.0.0.0.0.0.0.0.0.",
"0.0.0.0.. , 8 o 1 $ X 9 & - 0.0.0.0.0.0.0.0.0.0.0.0.0.0.0.0.X & i C & @ ..,.Q O O 8 9 : $ 0.0.0.0.0.0.n C 0.0.0.0.0.0.0.0.0.0.0.",
"0.0.0.0.2 8 @ $ 5 $ : 1 + & 0.0.0.0.0.0.0.0.0.0.0.0.0.0.0.  9 1 %   o *.9.9.9.[ . o : % $ 0.0.0.0.0.0.v k n D 0.0.0.0.0.0.0.0.0.",
"0.0.0.0.0.L 1 X 1 % O L @ + e 0.0.0.0.0.0.0.0.0.0.0.0.0.$ 9 ,.,.X.8 +.9.9.9.9.9.% X $ $ @ 0.0.0.0.0.0.z a v z p 0.0.0.0.0.0.0.0.",
"0.0.0.0.0.0.@ % 5 @ $ , $ : - - 0.0.0.0.0.0.0.0.0.0.0.0.+ W ,.,.,.+.8.9.@ +.9.9.: & # , O 0.0.0.A 0.B v z z i N M 0.0.0.0.0.0.0.",
"0.0.0.0.0.0.: o 9 % O 5 o $ 3 e 0.0.0.0.0.0.0.0.0.0.0.0.$ 0 ,.,.] @ 2.9.W ,.9.,.  i T 9.0.0.0.0.x N G D S x v z - 0.0.0.0.0.0.0.",
"0.0.0.0.0.0.0.5 5 O : : @ : , & e 0.0.0.0.0.0.0.0.0.0.0.0.$ ,.,.,.8 O 0 X.,...$ & N V 9.0.0.0.0.s M Z E E F x - 0.0.0.0.0.0.0.0.",
"0.0.0.0.0.0.0.0.L @ @ 5 o , 8 o & - 0.0.0.0.0.0.0.0.0.0.0.$ 0 X.*.# l g @ @ ; J F N m 7.0.0.0.0.0.h x S S C j 0.0.0.0.0.0.0.0.0.",
"0.0.0.0.0.0.0.0.> o 5 : @ , : $ * e 0.0.0.0.0.0.0.0.0.0.0.0.& X X u Z M c B D C M z Y 2.$.0.0.0.0.e z M M k 0.0.0.0.0.0.0.0.0.0.",
"0.0.0.0.0.0.0.0.0.@ : 9 O , : . 1 = - 0.0.0.0.0.0.0.0.0.0.0.x N S c y t x z z z z y o.%.-.*.} 0.V v z z k - 0.0.0.0.0.0.0.0.0.0.",
"0.0.0.0.0.0.0.0.0.0.0 $ @ 1 % @ , $ e 0.0.0.0.0.0.0.0.0.0.0.a z z k r r w w t y e p 6.s U <.5.Z N M v y = 0.0.0.0.0.0.0.0.0.0.0.",
"0.0.0.0.0.0.0.0.0.0.8 6 O 1 : O 9 % + e 0.0.0.0.0.0.0.0.0.0.0.e y y r w w w & @ @ W U i j #.Z N M M z t 0.0.0.0.0.0.0.0.0.0.0.0.",
"0.0.0.0.0.0.0.0.0.0.0.0.0.0.0.0.0.0.0.& u 0.0.0.0.0.0.0.0.0.0.0.- f - e w e & @ @ O i l h C N M v z y 0.0.0.0.0.0.0.0.0.0.0.0.0.",
"0.0.0.0.0.0.0.0.0.0.0.0.0.0.0.0.0.0.0.0.e 0.0.0.0.0.0.0.0.0.0.0./ K d g a t e + X + m l a N M v z y 0.0.0.0.0.0.0.0.0.0.0.0.0.0.",
"0.0.0.0.0.0.0.0.0.0.0.0.0.0.0.0.0.0.0.0.= t 0.0.0.0.0.0.0.0.0.j k k d h j j j i - j l j y v v k e H 0.0.0.0.0.0.0.0.0.0.0.0.0.0.",
"0.0.0.0.0.0.0.0.0.0.0.0.0.0.0.0.0.0.0.0.0.e 0.0.0.0.0.0.0.B G Z d y a g h h j j j j l j t k y p { ] 0.0.0.0.0.0.0.0.0.0.0.0.0.0.",
"0.0.0.0.0.0.0.0.0.0.0.0.0.0.0.0.0.0.0.0.0.0.t 0.n n n T G F A M y e u i g g h h h h A h l = *  .,.,.0.0.0.0.0.0.0.0.0.0.0.0.0.0.",
"0.0.0.0.0.0.0.0.0.0.0.0.0.0.0.0.0.0.0.0.0.0.e z G G G F N M v z t e i i i g B F B A l j D A A E 9.9.0.0.0.0.0.0.0.0.0.0.0.0.0.0.",
"0.0.0.0.0.0.0.0.0.0.0.0.0.0.0.0.0.0.0.0.0.0.B B V x M v z z d e 4 p u l B A F F B i i j D S N Y 9.9.^ 0.0.0.0.0.0.0.0.0.0.0.0.0.",
"0.0.0.0.0.0.0.0.0.0.0.0.0.0.0.0.0.0.0.0.0.0.l h e e d k y - f O.6.2.&.R N C C S l i i c C N M Y 9.7.0.0.0.0.0.0.0.0.0.0.0.0.0.0.",
"0.0.0.0.0.0.0.0.0.0.0.0.0.0.0.0.0.0.0.0.0.0.0.e e & & = 0.0.<.9.9.9.9.9.>.R Z Z n a s Y R R -.3.9.<.^ 0.0.0.0.0.0.0.0.0.0.0.0.0.",
"0.0.0.0.0.0.0.0.0.0.0.0.0.0.0.0.0.0.0.0.0.0.0.0.s u 0.0.0.2.9.9.9.9.9.9.9.9.9.9.6.$.=.6.9.9.9.9.9.9.7.} 0.0.0.0.0.0.0.0.0.0.0.0.",
"0.0.0.0.0.0.0.0.0.0.0.0.0.0.0.0.0.0.0.0.0.0.0.0.0.0.0.0.=.9.9.9.9.9.9.9.9.9.9.9.9.9.9.9.9.9.9.9.9.9.9.>.0.0.0.0.0.0.0.0.0.0.0.0.",
"0.0.0.0.0.0.0.0.0.0.0.0.0.0.0.0.0.0.0.0.0.0.0.0.0.0.0.0.9.9.9.9.9.9.9.9.9.9.9.9.9.9.9.9.9.9.9.9.9.9.9.5.| 0.0.0.0.0.0.0.0.0.0.0.",
"0.0.0.0.0.0.0.0.0.0.0.0.0.0.0.0.0.0.0.0.0.0.0.0.0.0.0.2.9.9.9.9.9.9.9.9.9.9.9.9.9.9.9.9.9.9.9.9.9.9.9.7.=.0.0.0.0.0.0.0.0.0.0.0.",
"0.0.0.0.0.0.0.0.0.0.0.0.0.0.0.0.0.0.0.0.0.0.0.0.0.0.0.9.9.9.9.9.9.9.9.9.9.9.9.9.9.9.9.9.9.9.9.9.9.9.9.9.>.^ 0.0.0.0.0.0.0.0.0.0.",
"0.0.0.0.0.0.0.0.0.0.0.0.0.0.0.0.0.0.0.0.0.0.0.0.0.0.-.9.9.9.9.9.9.9.9.9.9.9.9.9.9.9.9.9.9.9.9.9.9.9.9.9.3._ 0.0.0.0.0.0.0.0.0.0.",
"0.0.0.0.0.0.0.0.0.0.0.0.0.0.0.0.0.0.0.0.0.0.0.0.0.0.5.9.9.9.9.9.9.9.9.$.<.9.9.9.9.2.9.9.9.9.9.9.9.9.9.9.4.o.0.0.0.0.0.0.0.0.0.0.",
"0.0.0.0.0.0.0.0.0.0.0.0.0.0.0.0.0.0.0.0.0.0.0.0.0.0.5.9.9.9.9.9.9.9.9.5 ~ 9.9.9.) ..9.9.9.9.9.9.9.9.9.9.4.O.0.0.0.0.0.0.0.0.0.0.",
"0.0.0.0.0.0.0.0.0.0.0.0.0.0.0.0.0.0.0.0.0.0.0.0.0.0.3.9.9.9.9.9.9.9.9.% ) 9.9.9.9 : 9.9.9.9.9.9.9.9.9.9.4.O.0.0.0.0.0.0.0.0.0.0.",
"0.0.0.0.0.0.0.0.0.0.0.0.0.0.0.0.0.0.0.0.0.0.0.0.0.0.>.9.9.9.9.9.9.9.9.1.9.9.9.9.*...9.9.9.9.9.9.9.9.9.5.>.o.0.0.0.0.0.0.0.0.0.0.",
"0.0.0.0.0.0.0.0.0.0.0.0.0.0.0.0.0.0.0.0.0.0.0.0.0.0.=.5.9.9.9.9.9.7.7.9.9.9.9.9.9.9.9.9.9.9.9.9.9.9.9.4.=.` 0.0.0.0.0.0.0.0.0.0.",
"0.0.0.0.0.0.0.0.0.0.0.0.0.0.0.0.0.0.0.0.0.0.0.0.0.0.o.;.4.5.7.9.5.:.;.>.4.4.5.5.4.4.4.5.9.9.9.9.9.9.5.:.#.( 0.0.0.0.0.0.0.0.0.0.",
"0.0.0.0.0.0.0.0.0.0.0.0.0.0.0.0.0.0.0.0.0.0.0.0.0.0.^ @.=.:.>.4.4.-.^ / #.=.;.-.-.%.} =.5.9.9.7.5.4.:.%.| P 0.0.0.0.0.0.0.0.0.0.",
"0.0.0.0.0.0.0.0.0.0.0.0.0.0.0.0.0.0.0.0.0.0.0.0.0.0.7 ( o.@.#.&.;.4.7.U y s J J s r O.3.4.4.3.>.:.-.#.o.^ 8 0.0.0.0.0.0.0.0.0.0.",
"0.0.0.0.0.0.0.0.0.0.0.0.0.0.0.0.0.0.0.0.0.0.0.0.0.0.0.q ^ _ } o.O.#.:.5.-.Y b b Y :.5.3.;.&.&.#.#.O.| ^ q 3 0.0.0.0.0.0.0.0.0.0.",
"0.0.0.0.0.0.0.0.0.0.0.0.0.0.0.0.0.0.0.0.0.0.0.0.0.0.0.0.8 L I I Q ( o.;.4.7.9.9.7.4.=.O.o.o.| } ' _ ! 0 2 0.0.0.0.0.0.0.0.0.0.0.",
"0.0.0.0.0.0.0.0.0.0.0.0.0.0.0.0.0.0.0.0.0.0.0.0.0.0.0.0.0.3 1 6 8 P ` #.-.:.>.>.:.=.O.( Q I Q Q I L 6 2 0.0.0.0.0.0.0.0.0.0.0.0.",
"0.0.0.0.0.0.0.0.0.0.0.0.0.0.0.0.0.0.0.0.0.0.0.0.0.0.0.0.0.0.0.2 1 0 ^ } O.#.#.#.#.O.| ^ L 8 5 5 1 < 0.0.0.0.0.0.0.0.0.0.0.0.0.0.",
"0.0.0.0.0.0.0.0.0.0.0.0.0.0.0.0.0.0.0.0.0.0.0.0.0.0.0.0.0.0.0.0.0.3 9 I ( ` ' { ' ` ( I 9 < < < 3 0.0.0.0.0.0.0.0.0.0.0.0.0.0.0.",
"0.0.0.0.0.0.0.0.0.0.0.0.0.0.0.0.0.0.0.0.0.0.0.0.0.0.0.0.0.0.0.0.0.0.0.6 9 L P I I P 0 5 < 2 0.0.0.0.0.0.0.0.0.0.0.0.0.0.0.0.0.0.",
"0.0.0.0.0.0.0.0.0.0.0.0.0.0.0.0.0.0.0.0.0.0.0.0.0.0.0.0.0.0.0.0.0.0.0.0.0.2 2 < < < 2 3 0.0.0.0.0.0.0.0.0.0.0.0.0.0.0.0.0.0.0.0.",
"0.0.0.0.0.0.0.0.0.0.0.0.0.0.0.0.0.0.0.0.0.0.0.0.0.0.0.0.0.0.0.0.0.0.0.0.0.0.0.0.0.0.0.0.0.0.0.0.0.0.0.0.0.0.0.0.0.0.0.0.0.0.0.0.",
"0.0.0.0.0.0.0.0.0.0.0.0.0.0.0.0.0.0.0.0.0.0.0.0.0.0.0.0.0.0.0.0.0.0.0.0.0.0.0.0.0.0.0.0.0.0.0.0.0.0.0.0.0.0.0.0.0.0.0.0.0.0.0.0.",
"0.0.0.0.0.0.0.0.0.0.0.0.0.0.0.0.0.0.0.0.0.0.0.0.0.0.0.0.0.0.0.0.0.0.0.0.0.0.0.0.0.0.0.0.0.0.0.0.0.0.0.0.0.0.0.0.0.0.0.0.0.0.0.0.",
"0.0.0.0.0.0.0.0.0.0.0.0.0.0.0.0.0.0.0.0.0.0.0.0.0.0.0.0.0.0.0.0.0.0.0.0.0.0.0.0.0.0.0.0.0.0.0.0.0.0.0.0.0.0.0.0.0.0.0.0.0.0.0.0.",
"0.0.0.0.0.0.0.0.0.0.0.0.0.0.0.0.0.0.0.0.0.0.0.0.0.0.0.0.0.0.0.0.0.0.0.0.0.0.0.0.0.0.0.0.0.0.0.0.0.0.0.0.0.0.0.0.0.0.0.0.0.0.0.0.",
"0.0.0.0.0.0.0.0.0.0.0.0.0.0.0.0.0.0.0.0.0.0.0.0.0.0.0.0.0.0.0.0.0.0.0.0.0.0.0.0.0.0.0.0.0.0.0.0.0.0.0.0.0.0.0.0.0.0.0.0.0.0.0.0."
};
