/* XPM */
static char *_574843165048[] = {
/* columns rows colors chars-per-pixel */
"64 64 126 2 ",
"   c black",
".  c gray3",
"X  c #101010",
"o  c #181818",
"O  c #212118",
"+  c #292118",
"@  c gray16",
"#  c #313121",
"$  c #393131",
"%  c #393939",
"&  c #5A3108",
"*  c #524218",
"=  c #5A4A21",
"-  c #635221",
";  c #7B5A21",
":  c #6B6339",
">  c #4A4A42",
",  c #525242",
"<  c gray32",
"1  c #5A5A52",
"2  c #5A5A5A",
"3  c #5A634A",
"4  c #6B6B4A",
"5  c #7B734A",
"6  c #63635A",
"7  c #6B6B5A",
"8  c #737352",
"9  c #7B7B5A",
"0  c #6B6B63",
"q  c #73736B",
"w  c #737B73",
"e  c #7B7B73",
"r  c #9C1800",
"t  c #8C4A08",
"y  c #944210",
"u  c #945A10",
"i  c #B55A18",
"p  c #946B18",
"a  c #B57B10",
"s  c #8C7B39",
"d  c #AD7321",
"f  c #AD7B31",
"g  c #CE6B18",
"h  c #846B42",
"j  c #B58410",
"k  c #BD8410",
"l  c #C68C18",
"z  c #DE8410",
"x  c #CE9410",
"c  c #F79410",
"v  c #EFAD18",
"b  c #E7B518",
"n  c #FFB518",
"m  c #DE8429",
"M  c #CE9C29",
"N  c #F79C29",
"B  c #FFC618",
"V  c #FFD618",
"C  c #E7C621",
"Z  c #FFC621",
"A  c #FFDE21",
"S  c #FFD631",
"D  c #F7E721",
"F  c #FFE721",
"G  c #FFEF21",
"H  c #FFF721",
"J  c #FFFF21",
"K  c #84845A",
"L  c #A58C4A",
"P  c #8C8C63",
"I  c #94946B",
"U  c #84847B",
"Y  c #8C8C7B",
"T  c #8C947B",
"R  c #BDB56B",
"E  c #DEB54A",
"W  c #DECE4A",
"Q  c #FFDE6B",
"!  c #FFF76B",
"~  c gray55",
"^  c #94948C",
"/  c #949C8C",
"(  c gray61",
")  c #A59C8C",
"_  c #A5A584",
"`  c #A5AD94",
"'  c #A5A59C",
"]  c #ADAD9C",
"[  c #ADB59C",
"{  c #B5B59C",
"}  c gray68",
"|  c #ADB5AD",
" . c #B5B5A5",
".. c #B5BDA5",
"X. c #BDBDA5",
"o. c #B5BDAD",
"O. c gray71",
"+. c gray74",
"@. c #BDC6AD",
"#. c #C6CEB5",
"$. c #C6C6BD",
"%. c #C6CEBD",
"&. c #CED6BD",
"*. c #CECEC6",
"=. c #D6D6C6",
"-. c #DEDEC6",
";. c #DED6CE",
":. c #D6DECE",
">. c #DEE7CE",
",. c #E7E7CE",
"<. c #E7EFCE",
"1. c #EFF7D6",
"2. c #F7F7DE",
"3. c #DEDEE7",
"4. c #E7E7E7",
"5. c #EFEFEF",
"6. c #F7EFEF",
"7. c #F7F7E7",
"8. c #FFFFE7",
"9. c #F7F7EF",
"0. c #FFFFEF",
"q. c #FFF7F7",
"w. c #FFFFF7",
"e. c #F7FFFF",
"r. c white",
"t. c None",
/* pixels */
"t.t.t.t.t.t.t.t.t.t.t.t.t.t.t.t.t.t.t.t.t.t.t.t.t.t.t.t.t.t.t.t.t.t.t.t.t.t.t.t.t.t.t.t.t.t.t.t.t.t.t.t.t.t.t.t.t.t.t.t.t.t.t.t.",
"t.t.t.t.t.t.t.t.t.t.t.t.t.t.t.t.t.t.t.t.t.t.t.t.t.t.t.t.t.t.t.t.t.t.t.t.t.t.t.t.t.t.t.t.t.t.t.t.t.t.t.t.t.t.t.t.t.t.t.t.t.t.t.t.",
"t.t.t.t.t.t.t.t.t.t.t.t.t.t.t.t.t.t.t.t.t.t.t.t.t.t.t.t.t.t.t.t.t.t.t.t.t.t.t.t.t.t.t.t.t.t.t.t.t.t.t.t.t.t.t.t.t.t.t.t.t.t.t.t.",
"t.t.t.t.t.t.t.t.t.t.t.t.t.t.t.t.t.t.t.t.t.t.t.t.t.t.t.t.t.t.t.t.t.t.t.t.t.t.t.t.t.t.t.t.t.t.t.t.t.t.t.t.t.t.t.t.t.t.t.t.t.t.t.t.",
"t.t.t.t.t.t.t.t.t.t.t.t.t.t.t.t.t.t.t.t.t.t.t.t.t.t.t.t.t.t.t.t.t.t.t.t.t.t.t.t.t.t.t.t.t.t.t.t.t.t.t.t.t.t.t.t.t.t.t.t.t.t.t.t.",
"t.t.t.t.t.t.t.t.t.t.t.t.t.t.t.t.t.t.t.t.t.t.t.t.t.t.t.t.t.t.t.t.t.t.t.t.t.t.t.t.t.t.t.t.t.t.t.t.t.t.t.t.t.t.t.t.t.t.t.t.t.t.t.t.",
"t.t.t.t.t.t.t.t.t.t.t.t.t.t.t.t.t.t.t.t.t.t.t.t.t.t.t.t.t.t.t.t.t.t.t.t.t.t.t.t.t.t.t.t.t.t.t.t.t.t.t.t.t.t.t.t.t.t.t.t.t.t.t.t.",
"t.t.t.t.t.t.t.t.t.t.t.t.t.t.t.t.t.t.t.t.t.t.t.t.t.t.t.t.t.t.t.t.t.t.t.t.t.t.t.t.t.t.t.t.t.t.t.t.t.t.t.t.t.t.t.t.t.t.t.t.t.t.t.t.",
"t.t.t.t.t.t.t.t.t.t.t.t.t.t.t.t.t.t.t.t.t.t.t.t.t.t.t.t.t.t.t.t.t.t.t.t.t.t.t.t.t.t.t.t.t.t.t.t.t.t.t.t.t.t.t.t.t.t.t.t.t.t.t.t.",
"t.t.t.t.t.t.t.t.t.t.t.t.t.t.t.t.t.t.t.t.t.t.t.t.t.t.t.t.t.t.t.t.t.t.t.t.t.t.t.t.t.: = t.t.t.t.t.t.t.t.t.t.t.t.t.t.t.t.t.t.t.t.t.",
"t.t.t.t.t.t.t.t.t.t.t.t.t.t.t.t.t.t.t.t.t.t.t.t.t.t.t.t.t.t.t.t.t.t.t.t.= t.t.t.& t.t.t.t.t.t.t.t.t.t.t.t.t.t.t.t.t.t.t.t.t.t.t.",
"t.t.t.t.t.t.t.t.t.t.t.t.t.t.t.t.t.t.t.t.t.t.t.t.t.t.t.t.t.t.t.t.t.t.t.t.X + t.= # t.t.t.t.t.t.t.t.t.t.t.t.t.t.t.t.t.t.t.t.t.t.t.",
"t.t.t.t.t.t.t.t.t.t.t.t.t.t.t.t.t.t.t.t.t.t.t.t.t.t.t.t.t.t.t.t.t.t.t.t.t.+ + = t.t.t.t.t.t.t.t.t.t.t.t.t.t.t.t.t.t.t.t.t.t.t.t.",
"t.t.t.t.t.t.t.t.t.t.t.t.t.t.t.t.t.t.t.t.t.t.t.t.t.t.t.t.t.t.t.t.t.t.t.t.t.M D J H D M t.t.t.t.t.t.t.t.t.t.t.t.t.t.t.t.t.t.t.t.t.",
"t.t.t.t.t.t.t.t.t.t.t.t.t.t.t.t.t.t.t.t.t.t.t.t.t.t.t.t.t.t.t.t.t.t.t.t.F J J J J J F b t.4 t.t.t.t.t.t.t.t.t.t.t.t.t.t.t.t.t.t.",
"t.t.t.t.t.t.t.t.t.t.t.t.t.t.t.t.t.t.t.t.t.t.t.t.t.t.t.t.t.t.t.t.t.t.t.V H J J J C D F M 2 2 < t.t.t.t.t.t.t.t.t.t.t.t.t.t.t.t.t.",
"t.t.t.t.t.t.t.t.t.t.t.t.t.t.t.t.t.t.t.t.t.t.t.t.t.t.t.t.t.t.t.t.t.t.M A G J M + O X ; M 0 } < % t.t.t.t.t.t.W t.t.t.t.t.t.t.t.t.",
"t.t.t.t.t.t.t.t.t.t.t.t.t.t.p ; t.t.t.t.t.t.t.t.t.t.t.t.t.t.t.t.t.# & a C a   w 3.$.%   $ ~ < % , t.t.t.t.M B f D M t.t.t.t.t.t.",
"t.t.t.t.t.t.t.t.t.t.t.t.t.) [ t ; t.t.t.t.t.t.t.t.t.t.t.t.t.t.t.# @ < o %   U r.r.r.9.@   % > % # t.t.t.t.m c k n d W t.t.t.t.t.",
"t.t.t.t.t.t.t.t.t.t.t.t.# +.4._ t t.t.t.t.t.t.t.t.t.t.t.t.t.t.t.  $.3.O.0 w r.e.6.r.r.^   $ $ @ @ t.t.t.t.c z c z M n f t.t.t.t.",
"t.t.t.t.t.t.t.t.t.t.t.    $ +.< & u t.t.t.t.t.t.t.t.t.t.t.t.t.t.o 3.3.3.*.3.e.U q r.r.' X p > < % t.M S t.G Z B c n i t.t.t.t.t.",
"t.t.t.t.t.t.t.t.t.[ 4.$   6 w     & ; t.t.t.t.t.t.t.t.t.t.t.t.t.  *.3.3.> } e.*.' r.r.> & V <.[ t.t.f v A H J J G x t.t.t.t.t.t.",
"t.t.t.t.t.t.t.t.T q.e.O.' 6.4.% > I u t.t.t.t.t.t.t.t.t.t.t.t.t.O ( 3.3.' % < ' 3.;.w . C V Q X.t.t.t.p B V H H D M t.t.t.t.t.t.",
"t.t.t.t.t.t.t.t.@ *.3.@ q 5.3.2 *.4.5 t t.t.t.t.t.t.t.t.t.t.t.t.t.< | 4.^ & x * O , s D F n Q [ t.t.t.t.t c V V v t.t.t.t.t.t.t.",
"t.t.t.t.t.t.t.o   < $     ~ X   < ;.< & ; t.t.t.t.t.t.t.t.t.t.t.t.t.X o   B A b b F F V n z 7.;.*.) t.t.a z n n i t.t.t.t.t.t.t.",
"t.t.t.t.t.t.Y >   ' q   6 *.O   6 6   X t t.t.t.t.t.t.t.t.t.t.t.t.t.B V D z i a v c c c z L r.R ,.4.*.M B n c i t.t.t.t.t.t.t.t.",
"t.t.t.t.t.t.( } q 3.3.U 6.e.' ( q.3.@ > P t t.t.t.t.t.t.t.t.t.t.t.t.z v n i y y r r i u t ;.#.a [ 6.<.B B n c ; t.t.t.t.t.t.t.t.",
"t.t.t.t.t.t.q } 2 *.| $ :.3.$ ^ 6.*.2 3.:.; ; t.t.t.t.t.t.t.t.t.t.t.; u i i r r r r & # $ | j a M ! B B B n g t.t.t.t.t.t.t.t.t.",
"t.t.t.t.t.t.@ < . 6 @   2 %   X ~ X   U $.> t t.t.t.t.t.t.t.t.t.t.t.t.t.- ; - y r t + @ @ * l x b V B n n c ; t.t.t.t.t.t.t.t.t.",
"t.t.t.t.t.t.t.% o > >   ^ 6   q +.o   U %   + t t.t.t.t.t.t.t.t.t.t.t.t.) R f j d u & X X p N x x B n n z t t.t.t.t.t.t.t.t.t.t.",
"t.t.t.t.t.t.t.4 0 U } 2 3.:.U 6.e.~ O.q.+.@ t.& u t.t.t.t.t.t.t.t.t.t.d g m g k l l l a a x x l l n c g ; / t.t.t.t.t.t.t.t.t.t.",
"t.t.t.t.t.t.t.t.U w | 0 *.| % 3.*.@ } q.o.t.t.t.t t.t.t.t.t.t.t.t.M H N g i i j k k l l l l x k g z u K o.} t.t.t.t.t.t.t.t.t.t.",
"t.t.t.t.t.t.t.t.t.% 0 o q $   6 @   O t.t.t.t.t.- u t.t.t.t.t.t.D J H b i u p a a j k k k x b k C & = *.q.5.t.t.t.t.t.t.t.t.t.t.",
"t.t.t.t.t.t.t.t.t.t.% O $ %   ' 2   t.t.t.t.t.t.t.- u t.t.W D J F V n c t t d a a b G C C C j x J D D Q r.r.` t.t.t.t.t.t.t.t.t.",
"t.t.t.t.t.t.t.t.t.t., 6 0 } 6 3.;.t.t.t.t.t.t.t.t.t.t b G J F V n c z i h s p l b G G H x a a D H F V Q r.r.) t.t.t.t.t.t.t.t.t.",
"t.t.t.t.t.t.t.t.t.t.t.U q | 0 *.[ t.t.t.t.t.t.t.t.t.x b D x c c z u h @.q.5.&.Q S A A C a a j A A V B E r.r.T t.t.t.t.t.t.t.t.t.",
"t.t.t.t.t.t.t.t.t.t.t.t.> q O 0 t.t.t.t.t.t.t.t.t.t.b B a t i i ; t.6.r.r.r.r.r.2.<.Q Z d d d Q Q Q <.q.r.4.T t.t.t.t.t.t.t.t.t.",
"t.t.t.t.t.t.t.t.t.t.t.t.t.$ O $ t.t.t.t.t.t.t.t.t.t.; i t ; t - t.q.r.r.r.r.r.r.r.r.r.r.>.:.4.r.r.r.r.r.r.r.w.X.t.t.t.t.t.t.t.t.",
"t.t.t.t.t.t.t.t.t.t.t.t.t., 6 3 t.t.t.t.t.t.t.t.t.t.t.; d x t.t.*.r.r.r.r.r.r.r.r.r.r.r.r.r.r.r.r.r.r.r.r.r.r.2.t.t.t.t.t.t.t.t.",
"t.t.t.t.t.t.t.t.t.t.t.t.t.t.e t.t.t.t.t.t.t.t.t.t.t.t.t.t.t.t.t.r.r.r.r.r.r.r.r.r.r.r.r.r.r.r.r.r.r.r.r.r.r.r.0.X.t.t.t.t.t.t.t.",
"t.t.t.t.t.t.t.t.t.t.t.t.t.t.t.t.t.t.t.t.t.t.t.t.t.t.t.t.t.t.t.6.r.r.r.r.r.r.r.r.r.r.r.r.r.r.r.r.r.r.r.r.r.r.r.w.>.t.t.t.t.t.t.t.",
"t.t.t.t.t.t.t.t.t.t.t.t.t.t.t.t.t.t.t.t.t.t.t.t.t.t.t.t.t.t.t.r.r.r.r.r.r.r.r.r.r.r.r.r.r.r.r.r.r.r.r.r.r.r.r.r.2.) t.t.t.t.t.t.",
"t.t.t.t.t.t.t.t.t.t.t.t.t.t.t.t.t.t.t.t.t.t.t.t.t.t.t.t.t.t.>.r.r.r.r.r.r.r.r.r.r.r.r.r.r.r.r.r.r.r.r.r.r.r.r.r.7.] t.t.t.t.t.t.",
"t.t.t.t.t.t.t.t.t.t.t.t.t.t.t.t.t.t.t.t.t.t.t.t.t.t.t.t.t.t.0.r.r.r.r.r.r.r.r.:.4.r.r.r.r.6.r.r.r.r.r.r.r.r.r.r.8.@.t.t.t.t.t.t.",
"t.t.t.t.t.t.t.t.t.t.t.t.t.t.t.t.t.t.t.t.t.t.t.t.t.t.t.t.t.t.0.r.r.r.r.r.r.r.r.0 ( r.r.r.} } r.r.r.r.r.r.r.r.r.r.8.#.t.t.t.t.t.t.",
"t.t.t.t.t.t.t.t.t.t.t.t.t.t.t.t.t.t.t.t.t.t.t.t.t.t.t.t.t.t.7.r.r.r.r.r.r.r.r.@ *.r.r.r.2 q r.r.r.r.r.r.r.r.r.r.7.#.t.t.t.t.t.t.",
"t.t.t.t.t.t.t.t.t.t.t.t.t.t.t.t.t.t.t.t.t.t.t.t.t.t.t.t.t.t.2.w.r.r.r.r.r.r.r.5.r.r.r.r.+.:.r.r.r.r.r.r.r.r.r.w.1.@.t.t.t.t.t.t.",
"t.t.t.t.t.t.t.t.t.t.t.t.t.t.t.t.t.t.t.t.t.t.t.t.t.t.t.t.t.t.>.0.w.r.r.r.r.w.w.r.r.r.r.r.r.r.r.r.r.r.r.r.r.r.r.8.>.[ t.t.t.t.t.t.",
"t.t.t.t.t.t.t.t.t.t.t.t.t.t.t.t.t.t.t.t.t.t.t.t.t.t.t.t.t.t.@.<.7.0.w.r.0.1.<.2.8.8.0.0.0.8.8.0.r.r.r.r.r.r.8.1.&./ t.t.t.t.t.t.",
"t.t.t.t.t.t.t.t.t.t.t.t.t.t.t.t.t.t.t.t.t.t.t.t.t.t.t.t.t.t.) %.-.1.2.8.8.>.` ` &.>.<.<.,.=...,.0.r.r.w.0.8.1.-.X.Y t.t.t.t.t.t.",
"t.t.t.t.t.t.t.t.t.t.t.t.t.t.t.t.t.t.t.t.t.t.t.t.t.t.t.t.t.t.9 ` @.%.&.-.1.7.w.m i f L L f i #.7.8.8.7.2.1.,.&.@.) 0 t.t.t.t.t.t.",
"t.t.t.t.t.t.t.t.t.t.t.t.t.t.t.t.t.t.t.t.t.t.t.t.t.t.t.t.t.t.t.e ) ] { X.#.&.1.w.,.E m m R 7.w.2.<.-.-.&.&.#.X.) e 4 t.t.t.t.t.t.",
"t.t.t.t.t.t.t.t.t.t.t.t.t.t.t.t.t.t.t.t.t.t.t.t.t.t.t.t.t.t.t.t.8 e T T ^ ` @.<.8.w.r.r.0.8.-.#.@.@.X...{ ] / e 3 t.t.t.t.t.t.t.",
"t.t.t.t.t.t.t.t.t.t.t.t.t.t.t.t.t.t.t.t.t.t.t.t.t.t.t.t.t.t.t.t.t.4 2 6 0 Y [ &.,.1.2.2.1.>.#.` T T ^ ^ T U 7 3 t.t.t.t.t.t.t.t.",
"t.t.t.t.t.t.t.t.t.t.t.t.t.t.t.t.t.t.t.t.t.t.t.t.t.t.t.t.t.t.t.t.t.t.t.4 3 e ) ..#.&.&.=.&.#.X.) U 0 6 6 2 1 t.t.t.t.t.t.t.t.t.t.",
"t.t.t.t.t.t.t.t.t.t.t.t.t.t.t.t.t.t.t.t.t.t.t.t.t.t.t.t.t.t.t.t.t.t.t.t.t.4 q T ` [ {  .{ [ ` T 0 1 1 1 3 t.t.t.t.t.t.t.t.t.t.t.",
"t.t.t.t.t.t.t.t.t.t.t.t.t.t.t.t.t.t.t.t.t.t.t.t.t.t.t.t.t.t.t.t.t.t.t.t.t.t.t.7 q U T T T Y e 6 1 3 t.t.t.t.t.t.t.t.t.t.t.t.t.t.",
"t.t.t.t.t.t.t.t.t.t.t.t.t.t.t.t.t.t.t.t.t.t.t.t.t.t.t.t.t.t.t.t.t.t.t.t.t.t.t.t.t.3 3 1 1 1 3 4 t.t.t.t.t.t.t.t.t.t.t.t.t.t.t.t.",
"t.t.t.t.t.t.t.t.t.t.t.t.t.t.t.t.t.t.t.t.t.t.t.t.t.t.t.t.t.t.t.t.t.t.t.t.t.t.t.t.t.t.t.t.t.t.t.t.t.t.t.t.t.t.t.t.t.t.t.t.t.t.t.t.",
"t.t.t.t.t.t.t.t.t.t.t.t.t.t.t.t.t.t.t.t.t.t.t.t.t.t.t.t.t.t.t.t.t.t.t.t.t.t.t.t.t.t.t.t.t.t.t.t.t.t.t.t.t.t.t.t.t.t.t.t.t.t.t.t.",
"t.t.t.t.t.t.t.t.t.t.t.t.t.t.t.t.t.t.t.t.t.t.t.t.t.t.t.t.t.t.t.t.t.t.t.t.t.t.t.t.t.t.t.t.t.t.t.t.t.t.t.t.t.t.t.t.t.t.t.t.t.t.t.t.",
"t.t.t.t.t.t.t.t.t.t.t.t.t.t.t.t.t.t.t.t.t.t.t.t.t.t.t.t.t.t.t.t.t.t.t.t.t.t.t.t.t.t.t.t.t.t.t.t.t.t.t.t.t.t.t.t.t.t.t.t.t.t.t.t.",
"t.t.t.t.t.t.t.t.t.t.t.t.t.t.t.t.t.t.t.t.t.t.t.t.t.t.t.t.t.t.t.t.t.t.t.t.t.t.t.t.t.t.t.t.t.t.t.t.t.t.t.t.t.t.t.t.t.t.t.t.t.t.t.t.",
"t.t.t.t.t.t.t.t.t.t.t.t.t.t.t.t.t.t.t.t.t.t.t.t.t.t.t.t.t.t.t.t.t.t.t.t.t.t.t.t.t.t.t.t.t.t.t.t.t.t.t.t.t.t.t.t.t.t.t.t.t.t.t.t."
};
