/* XPM */
static char *_574843062530[] = {
/* columns rows colors chars-per-pixel */
"64 64 123 2 ",
"   c black",
".  c gray3",
"X  c #101010",
"o  c #181818",
"O  c #212118",
"+  c #292118",
"@  c gray16",
"#  c #313121",
"$  c #393131",
"%  c #393939",
"&  c #5A3108",
"*  c #524218",
"=  c #5A4A21",
"-  c #635221",
";  c #7B5A21",
":  c #4A4A42",
">  c #525242",
",  c gray32",
"<  c #5A5A52",
"1  c #5A5A5A",
"2  c #5A634A",
"3  c #6B6B42",
"4  c #6B6B4A",
"5  c #73734A",
"6  c #7B734A",
"7  c #63635A",
"8  c #6B6B5A",
"9  c #737352",
"0  c #6B6B63",
"q  c #73736B",
"w  c #737B73",
"e  c #7B7B73",
"r  c #9C1800",
"t  c #8C4A08",
"y  c #944210",
"u  c #945A10",
"i  c #B55A18",
"p  c #946B18",
"a  c #B57B10",
"s  c #8C7B39",
"d  c #AD7321",
"f  c #AD7B31",
"g  c #CE6B18",
"h  c #846B42",
"j  c #B58410",
"k  c #BD8410",
"l  c #C68C18",
"z  c #DE8410",
"x  c #CE9410",
"c  c #F79410",
"v  c #EFAD18",
"b  c #E7B518",
"n  c #FFB518",
"m  c #DE8429",
"M  c #CE9C29",
"N  c #F79C29",
"B  c #FFC618",
"V  c #FFD618",
"C  c #E7C621",
"Z  c #FFC621",
"A  c #FFDE21",
"S  c #FFD631",
"D  c #F7E721",
"F  c #FFE721",
"G  c #FFEF21",
"H  c #FFF721",
"J  c #FFFF21",
"K  c #A58C4A",
"L  c #94946B",
"P  c #84847B",
"I  c #8C8C7B",
"U  c #8C947B",
"Y  c #BDB56B",
"T  c #DEB54A",
"R  c #DECE4A",
"E  c #FFDE6B",
"W  c #FFF76B",
"Q  c gray55",
"!  c #94948C",
"~  c #949C8C",
"^  c gray61",
"/  c #A59C8C",
"(  c #A5A584",
")  c #A5AD94",
"_  c #A5A59C",
"`  c #ADAD9C",
"'  c #ADB59C",
"]  c #B5B59C",
"[  c gray68",
"{  c #ADB5AD",
"}  c #B5B5A5",
"|  c #B5BDA5",
" . c #BDBDA5",
".. c #B5BDAD",
"X. c gray71",
"o. c #BDC6AD",
"O. c #C6CEB5",
"+. c #C6C6BD",
"@. c #C6CEBD",
"#. c #CED6BD",
"$. c #CECEC6",
"%. c #D6D6C6",
"&. c #DEDEC6",
"*. c #DED6CE",
"=. c #D6DECE",
"-. c #DEE7CE",
";. c #E7E7CE",
":. c #E7EFCE",
">. c #EFF7D6",
",. c #F7F7DE",
"<. c #DEDEE7",
"1. c #E7E7E7",
"2. c #EFEFEF",
"3. c #F7EFEF",
"4. c #F7F7E7",
"5. c #FFFFE7",
"6. c #F7F7EF",
"7. c #FFFFEF",
"8. c #FFF7F7",
"9. c #FFFFF7",
"0. c #F7FFFF",
"q. c white",
"w. c None",
/* pixels */
"w.w.w.w.w.w.w.w.w.w.w.w.w.w.w.w.w.w.w.w.w.w.w.w.w.w.w.w.w.w.w.w.w.w.w.w.w.w.w.w.w.w.w.w.w.w.w.w.w.w.w.w.w.w.w.w.w.w.w.w.w.w.w.w.",
"w.w.w.w.w.w.w.w.w.w.w.w.w.w.w.w.w.w.w.w.w.w.w.w.w.w.w.w.w.w.w.w.w.w.w.w.w.w.w.w.w.w.w.w.w.w.w.w.w.w.w.w.w.w.w.w.w.w.w.w.w.w.w.w.",
"w.w.w.w.w.w.w.w.w.w.w.w.w.w.w.w.w.w.w.w.w.w.w.w.w.w.w.w.w.w.w.w.w.w.w.w.w.w.w.w.w.w.w.w.w.w.w.w.w.w.w.w.w.w.w.w.w.w.w.w.w.w.w.w.",
"w.w.w.w.w.w.w.w.w.w.w.w.w.w.w.w.w.w.w.w.w.w.w.w.w.w.w.w.w.w.w.w.w.w.w.w.w.w.w.w.w.w.w.w.w.w.w.w.w.w.w.w.w.w.w.w.w.w.w.w.w.w.w.w.",
"w.w.w.w.w.w.w.w.w.w.w.w.w.w.w.w.w.w.w.w.w.w.w.w.w.w.w.w.w.w.w.w.w.w.w.w.w.w.w.w.w.w.w.w.w.w.w.w.w.w.w.w.w.w.w.w.w.w.w.w.w.w.w.w.",
"w.w.w.w.w.w.w.w.w.w.w.w.w.w.w.w.w.w.w.w.w.w.w.w.w.w.w.w.w.w.w.w.w.w.w.w.w.w.w.w.w.w.w.w.w.w.w.w.w.w.w.w.w.w.w.w.w.w.w.w.w.w.w.w.",
"w.w.w.w.w.w.w.w.w.w.w.w.w.w.w.w.w.w.w.w.w.w.w.w.w.w.w.w.w.w.w.w.w.w.w.w.w.w.w.w.w.w.w.w.w.w.w.w.w.w.w.w.w.w.w.w.w.w.w.w.w.w.w.w.",
"w.w.w.w.w.w.w.w.w.w.w.w.w.w.w.w.w.w.w.w.w.w.w.w.w.w.w.w.w.w.w.w.w.w.w.w.w.w.w.w.w.w.w.w.w.w.w.w.w.w.w.w.w.w.w.w.w.w.w.w.w.w.w.w.",
"w.w.w.w.w.w.w.w.w.w.w.w.w.w.w.w.w.w.w.w.w.w.w.w.w.w.w.w.w.w.w.w.w.w.w.w.w.w.w.w.w.w.w.w.w.w.w.w.w.w.w.w.w.w.w.w.w.w.w.w.w.w.w.w.",
"w.w.w.w.w.w.w.w.w.w.w.w.w.w.w.w.w.w.w.w.w.w.w.w.w.w.w.w.w.w.w.w.w.w.w.w.w.w.- w.w.w.w.w.w.w.w.w.w.w.w.w.w.w.w.w.w.w.w.w.w.w.w.w.",
"w.w.w.w.w.w.w.w.w.w.w.w.w.w.w.w.w.w.w.w.w.w.w.w.w.w.w.w.w.w.w.w.& # w.w.= * w.w.w.w.w.w.w.w.w.w.w.w.w.w.w.w.w.w.w.w.w.w.w.w.w.w.",
"w.w.w.w.w.w.w.w.w.w.w.w.w.w.w.w.w.w.w.w.w.w.w.w.w.w.w.w.w.w.w.w.* + # = * w.w.w.w.w.w.w.w.w.w.w.w.w.w.w.w.w.w.w.w.w.w.w.w.w.w.w.",
"w.w.w.w.w.w.w.w.w.w.w.w.w.w.w.w.w.w.w.w.w.w.w.w.w.w.w.w.w.w.w.w.w.# & - w.w.w.w.w.w.w.w.w.w.w.w.w.w.w.w.w.w.w.w.w.w.w.w.w.w.w.w.",
"w.w.w.w.w.w.w.> w.w.w.d w.w.w.w.w.w.w.w.w.w.w.w.w.w.w.w.w.w.w.w.M G J J J D M w.w.w.w.w.w.w.w.w.w.w.w.w.w.w.w.w.w.w.w.w.w.w.w.w.",
"w.w.w.w.w.w.w.2 : o P h t w.w.w.w.w.w.w.w.w.w.w.w.w.w.w.w.w.w.C H J J J J H A M w.w.w.w.w.w.w.w.w.w.w.w.w.w.w.w.w.w.w.w.w.w.w.w.",
"w.w.w.w.w.w.w.w.: X , ~ - w.w.w.w.w.w.w.w.w.w.w.w.w.w.w.w.w.M F J J J J J C A B 1 1 , w.w.w.w.w.w.w.w.w.w.w.w.w.w.w.w.w.w.w.w.w.",
"w.w.w.w.w.w.w.w.: $ q , & t w.w.w.w.w.w.w.w.w.w.w.w.w.w.w.w.j C H J W 5 $   + x 0 Q , > w.w.w.w.w.w.w.w.w.w.w.w.w.w.w.w.w.w.w.w.",
"w.w.w.w.w.w.w.w.w.@ P ,   & w.w.w.w.w.w.w.w.w.w.w.w.w.w.w.  X O s C & @ X.<.Q X 1 { , $ w.w.w.w.w.w.w.w.w.w.w.w.w.w.w.w.w.w.w.w.",
"w.w.w.w.w.w.w.w.w.> , : $ = - w.w.w.w.w.w.w.w.w.w.w.w.w.. 7 <.! @   @ <.q.q.q.Q   O : $ w.w.w.w.w.w.w.w.w.w.w.w.w.w.w.w.w.w.w.w.",
"w.w.w.w.w.w.w.w.w.w., X 1 P & w.w.w.w.w.w.w.w.w.w.w.w.w.o 2.2.2.<.! <.q.6.q.q.2.. @ $ @ : w.w.w.w.w.w.w.w.w.R w.w.w.w.w.w.w.w.w.",
"w.w.w.w.w.w.w.w.w.w.> @ % Q * ; w.w.w.w.w.w.w.w.w.w.w.w.% 2.2.2.[ *.0.[ % 3.q.q.. X O o w.w.w.w.w.w.w.w.w.V v w.w.w.w.w.w.w.w.w.",
"w.w.w.w.w.w.w.w.w.w.w.@ P : . t w.w.w.w.w.w.w.w.w.w.w.w.o <.2.2., P <.<.7 q.q.{ . i +.0 w.w.w.w.w.C w.w.B z s C R w.w.w.w.w.w.w.",
"w.w.w.w.w.w.w.w.w.w.w.: 1 0 X & ; w.w.w.w.w.w.w.w.w.w.w.# _ 2.2.<.  o 0 <.q.^ $ t v >.w.w.w.w.w.w.v b H c l V v d w.w.w.w.w.w.w.",
"w.w.w.w.w.w.w.w.w.w.w.w., o , 9 & w.w.w.w.w.w.w.w.w.w.w.w.> w ^ : - C & o $ 3 j V n ;.w.w.w.w.w.w.z n G A V a d R T w.w.w.w.w.w.",
"w.w.w.w.w.w.w.w.w.w.w.w.% O @ ! - - w.w.w.w.w.w.w.w.w.w.w.x p - - B Z b b C G V n z 4./ w.w.w.w.w.c z V H V V V n a w.w.w.w.w.w.",
"w.w.w.w.w.w.w.w.w.w.w.w.w.$ q , + & w.w.w.w.w.w.w.w.w.w.w.c B A V k i a c v n c z f q.$./ w.w.w.x u z B A G v p w.w.w.w.w.w.w.w.",
"w.w.w.w.w.w.w.w.w.w.w.w.w.w.0 7 X & ; w.w.w.w.w.w.w.w.w.w.p z c z y r r r t i i t *.;.1.=...M D V c c n n l w.w.w.w.w.w.w.w.w.w.",
"w.w.w.w.w.w.w.w.w.w.w.w.w.w.w.w.w.- t w.w.w.w.w.w.w.w.w.w.w.; t t y r r r & & # 2 -.f O.:.S F V B n z g p w.w.w.w.w.w.w.w.w.w.w.",
"w.w.w.w.w.w.w.w.w.w.w.w.w.w.w.w.w.w.& w.w.w.w.w.w.w.w.w.w.w.*.L ; u t r & & + @ @ ; l a A V V B n z t w.w.w.w.w.w.w.w.w.w.w.w.w.",
"w.w.w.w.w.w.w.w.w.w.w.w.w.w.w.w.w.w.- ; w.w.w.w.w.w.w.w.w.w.Y g g l k d p p + o o p a g b B n c z ; w.w.w.w.w.w.w.w.w.w.w.w.w.w.",
"w.w.w.w.w.w.w.w.w.w.w.w.w.w.w.w.w.w.w.t w.w.w.w.w.w.w.w.R J b g g l l l x x d & ; l a i c n z u w.w.w.w.w.w.w.w.w.w.w.w.w.w.w.w.",
"w.w.w.w.w.w.w.w.w.w.w.w.w.w.w.w.w.w.w.- t w.w.w.w.w.D J J F v i i k k l l l l l l l d t z u 6 ~ w.w.w.w.w.w.w.w.w.w.w.w.w.w.w.w.",
"w.w.w.w.w.w.w.w.w.w.w.w.w.w.w.w.w.w.w.w.t B J J J J G A B n c t d a j k k k k k k l x & * / X.[ w.w.w.w.w.w.w.w.w.w.w.w.w.w.w.w.",
"w.w.w.w.w.w.w.w.w.w.w.w.w.w.w.w.w.w.w.R x C G Z V B n c c g t u a a j x l C D C C D a x C E q.2.w.w.w.w.w.w.w.w.w.w.w.w.w.w.w.w.",
"w.w.w.w.w.w.w.w.w.w.w.w.w.w.w.w.w.w.w.f B c u i z c z i t h / N x x D H H H H D j a a b Z T q.q.w.w.w.w.w.w.w.w.w.w.w.w.w.w.w.w.",
"w.w.w.w.w.w.w.w.w.w.w.w.w.w.w.w.w.w.w.w.u t & t t t ; w.w.} 8.5.:.S A A F F F b a a a V n T q.3.w.w.w.w.w.w.w.w.w.w.w.w.w.w.w.w.",
"w.w.w.w.w.w.w.w.w.w.w.w.w.w.w.w.w.w.w.w.w.d d ; w.w.w.w.=.q.q.q.q.q.>.E E S S M f K Y ,.5.q.q.2.` w.w.w.w.w.w.w.w.w.w.w.w.w.w.w.",
"w.w.w.w.w.w.w.w.w.w.w.w.w.w.w.w.w.w.w.w.w.w.w.w.w.w.w.3.q.q.q.q.q.q.q.q.q.q.q.8.$.=.8.q.q.q.q.q.7.) w.w.w.w.w.w.w.w.w.w.w.w.w.w.",
"w.w.w.w.w.w.w.w.w.w.w.w.w.w.w.w.w.w.w.w.w.w.w.w.w.w.$.q.q.q.q.q.q.q.q.q.q.q.q.q.q.q.q.q.q.q.q.q.q.,.w.w.w.w.w.w.w.w.w.w.w.w.w.w.",
"w.w.w.w.w.w.w.w.w.w.w.w.w.w.w.w.w.w.w.w.w.w.w.w.w.w.q.q.q.q.q.q.q.q.q.q.q.q.q.q.q.q.q.q.q.q.q.q.q.7.' w.w.w.w.w.w.w.w.w.w.w.w.w.",
"w.w.w.w.w.w.w.w.w.w.w.w.w.w.w.w.w.w.w.w.w.w.w.w.w.3.q.q.q.q.q.q.q.q.q.q.q.q.q.q.q.q.q.q.q.q.q.q.q.9.&.w.w.w.w.w.w.w.w.w.w.w.w.w.",
"w.w.w.w.w.w.w.w.w.w.w.w.w.w.w.w.w.w.w.w.w.w.w.w.w.q.q.q.q.q.q.q.q.q.q.q.q.q.q.q.q.q.q.q.q.q.q.q.q.q.,.U w.w.w.w.w.w.w.w.w.w.w.w.",
"w.w.w.w.w.w.w.w.w.w.w.w.w.w.w.w.w.w.w.w.w.w.w.w.#.q.q.q.q.q.q.q.q.q.q.q.q.q.q.q.q.q.q.q.q.q.q.q.q.q.4.) w.w.w.w.w.w.w.w.w.w.w.w.",
"w.w.w.w.w.w.w.w.w.w.w.w.w.w.w.w.w.w.w.w.w.w.w.w.7.q.q.q.q.q.q.q.q.q.q.q.q.q.q.q.q.q.q.q.q.q.q.q.q.q.5.o.w.w.w.w.w.w.w.w.w.w.w.w.",
"w.w.w.w.w.w.w.w.w.w.w.w.w.w.w.w.w.w.w.w.w.w.w.w.7.q.q.q.q.q.q.q.q.Q P q.q.q.$.0 8.q.q.q.q.q.q.q.q.q.5.O.w.w.w.w.w.w.w.w.w.w.w.w.",
"w.w.w.w.w.w.w.w.w.w.w.w.w.w.w.w.w.w.w.w.w.w.w.w.4.q.q.q.q.q.q.q.q.1 0 q.q.q.[ O q.q.q.q.q.q.q.q.q.q.4.O.w.w.w.w.w.w.w.w.w.w.w.w.",
"w.w.w.w.w.w.w.w.w.w.w.w.w.w.w.w.w.w.w.w.w.w.w./ ,.q.q.q.q.q.q.q.q.1.3.q.q.q.<.[ q.q.q.q.q.q.q.q.q.9.,.o.w.w.w.w.w.w.w.w.w.w.w.w.",
"w.w.w.w.w.w.w.w.w.w.w.w.w.w.w.w.w.w.w.w.w.w.w.w.;.7.q.q.q.q.q.q.9.q.q.q.q.q.q.q.q.q.q.q.q.q.q.q.q.5.-.' w.w.w.w.w.w.w.w.w.w.w.w.",
"w.w.w.w.w.w.w.w.w.w.w.w.w.w.w.w.w.w.w.w.w.w.w.w.O.>.5.9.q.q.9.,.:.,.5.5.7.7.7.5.5.7.q.q.q.q.q.9.5.>.#.) w.w.w.w.w.w.w.w.w.w.w.w.",
"w.w.w.w.w.w.w.w.w.w.w.w.w.w.w.w.w.w.w.w.w.w.w.w.) #.;.>.,.5.5.;.' ( @.-.:.:.;.&.o.@.5.9.q.9.7.5.>.%. .I w.w.w.w.w.w.w.w.w.w.w.w.",
"w.w.w.w.w.w.w.w.w.w.w.w.w.w.w.w.w.w.w.w.w.w.w.w.e ` O.#.%.-.:.4.7. .i f K K K y Y ,.5.5.,.,.:.-.#.o./ 0 w.w.w.w.w.w.w.w.w.w.w.w.",
"w.w.w.w.w.w.w.w.w.w.w.w.w.w.w.w.w.w.w.w.w.w.w.w.w.e ) ' | o.O.#.:.7.,.T m m T ;.9.5.:.&.%.#.@.O.| / e w.w.w.w.w.w.w.w.w.w.w.w.w.",
"w.w.w.w.w.w.w.w.w.w.w.w.w.w.w.w.w.w.w.w.w.w.w.w.w.w.0 I U ! ~ )  .;.5.9.9.q.9.5.;.@.o. .| ] ' ) ! w 2 w.w.w.w.w.w.w.w.w.w.w.w.w.",
"w.w.w.w.w.w.w.w.w.w.w.w.w.w.w.w.w.w.w.w.w.w.w.w.w.w.w.4 7 8 0 I ) #.-.>.,.,.>.;.@.` ! U U U U P 8 2 w.w.w.w.w.w.w.w.w.w.w.w.w.w.",
"w.w.w.w.w.w.w.w.w.w.w.w.w.w.w.w.w.w.w.w.w.w.w.w.w.w.w.w.w.2 < w / | O.#.#.#.#.O.o.) P 0 7 1 1 < w.w.w.w.w.w.w.w.w.w.w.w.w.w.w.w.",
"w.w.w.w.w.w.w.w.w.w.w.w.w.w.w.w.w.w.w.w.w.w.w.w.w.w.w.w.w.w.w.4 q U ) ' ] ] ] ` ) U q < < < w.w.w.w.w.w.w.w.w.w.w.w.w.w.w.w.w.w.",
"w.w.w.w.w.w.w.w.w.w.w.w.w.w.w.w.w.w.w.w.w.w.w.w.w.w.w.w.w.w.w.w.w.8 q P U U U I e 7 < 2 w.w.w.w.w.w.w.w.w.w.w.w.w.w.w.w.w.w.w.w.",
"w.w.w.w.w.w.w.w.w.w.w.w.w.w.w.w.w.w.w.w.w.w.w.w.w.w.w.w.w.w.w.w.w.w.w.4 2 1 < < 2 4 w.w.w.w.w.w.w.w.w.w.w.w.w.w.w.w.w.w.w.w.w.w.",
"w.w.w.w.w.w.w.w.w.w.w.w.w.w.w.w.w.w.w.w.w.w.w.w.w.w.w.w.w.w.w.w.w.w.w.w.w.w.w.w.w.w.w.w.w.w.w.w.w.w.w.w.w.w.w.w.w.w.w.w.w.w.w.w.",
"w.w.w.w.w.w.w.w.w.w.w.w.w.w.w.w.w.w.w.w.w.w.w.w.w.w.w.w.w.w.w.w.w.w.w.w.w.w.w.w.w.w.w.w.w.w.w.w.w.w.w.w.w.w.w.w.w.w.w.w.w.w.w.w.",
"w.w.w.w.w.w.w.w.w.w.w.w.w.w.w.w.w.w.w.w.w.w.w.w.w.w.w.w.w.w.w.w.w.w.w.w.w.w.w.w.w.w.w.w.w.w.w.w.w.w.w.w.w.w.w.w.w.w.w.w.w.w.w.w.",
"w.w.w.w.w.w.w.w.w.w.w.w.w.w.w.w.w.w.w.w.w.w.w.w.w.w.w.w.w.w.w.w.w.w.w.w.w.w.w.w.w.w.w.w.w.w.w.w.w.w.w.w.w.w.w.w.w.w.w.w.w.w.w.w.",
"w.w.w.w.w.w.w.w.w.w.w.w.w.w.w.w.w.w.w.w.w.w.w.w.w.w.w.w.w.w.w.w.w.w.w.w.w.w.w.w.w.w.w.w.w.w.w.w.w.w.w.w.w.w.w.w.w.w.w.w.w.w.w.w.",
"w.w.w.w.w.w.w.w.w.w.w.w.w.w.w.w.w.w.w.w.w.w.w.w.w.w.w.w.w.w.w.w.w.w.w.w.w.w.w.w.w.w.w.w.w.w.w.w.w.w.w.w.w.w.w.w.w.w.w.w.w.w.w.w."
};
