/* XPM */
static char *_574843113591[] = {
/* columns rows colors chars-per-pixel */
"64 64 123 2 ",
"   c black",
".  c gray3",
"X  c #101010",
"o  c #181818",
"O  c #212118",
"+  c #292118",
"@  c gray16",
"#  c #313121",
"$  c #393131",
"%  c #393939",
"&  c #5A3108",
"*  c #524218",
"=  c #5A4A21",
"-  c #635221",
";  c #7B5A21",
":  c #6B6339",
">  c #4A4A42",
",  c #525242",
"<  c gray32",
"1  c #5A5A52",
"2  c #5A5A5A",
"3  c #5A634A",
"4  c #6B6B4A",
"5  c #63635A",
"6  c #6B6B5A",
"7  c #737352",
"8  c #6B6B63",
"9  c #73736B",
"0  c #737B73",
"q  c #7B7B73",
"w  c #9C1800",
"e  c #8C4A08",
"r  c #944210",
"t  c #945A10",
"y  c #B55A18",
"u  c #946B18",
"i  c #B57B10",
"p  c #AD7321",
"a  c #AD7B31",
"s  c #CE6B18",
"d  c #846B42",
"f  c #B58410",
"g  c #BD8410",
"h  c #C68C18",
"j  c #DE8410",
"k  c #CE9410",
"l  c #F79410",
"z  c #EFAD18",
"x  c #E7B518",
"c  c #FFB518",
"v  c #DE8429",
"b  c #CE9C29",
"n  c #F79C29",
"m  c #FFC618",
"M  c #FFD618",
"N  c #E7C621",
"B  c #FFC621",
"V  c #FFDE21",
"C  c #FFD631",
"Z  c #F7E721",
"A  c #FFE721",
"S  c #FFEF21",
"D  c #FFF721",
"F  c #FFFF21",
"G  c #84845A",
"H  c #A58C4A",
"J  c #AD9C5A",
"K  c #94946B",
"L  c #84847B",
"P  c #8C8C7B",
"I  c #8C947B",
"U  c #BDB56B",
"Y  c #DEB54A",
"T  c #DECE4A",
"R  c #FFDE6B",
"E  c #FFF76B",
"W  c gray55",
"Q  c #94948C",
"!  c #949C8C",
"~  c gray61",
"^  c #A59C8C",
"/  c #A5A584",
"(  c #A5AD94",
")  c #A5A59C",
"_  c #ADAD9C",
"`  c #ADB59C",
"'  c #B5B59C",
"]  c gray68",
"[  c #ADB5AD",
"{  c #B5B5A5",
"}  c #B5BDA5",
"|  c #BDBDA5",
" . c #B5BDAD",
".. c gray71",
"X. c gray74",
"o. c #BDC6AD",
"O. c #C6CEB5",
"+. c #C6C6BD",
"@. c #C6CEBD",
"#. c #CED6BD",
"$. c #CECEC6",
"%. c #D6D6C6",
"&. c #DEDEC6",
"*. c #DED6CE",
"=. c #D6DECE",
"-. c #DEE7CE",
";. c #E7E7CE",
":. c #E7EFCE",
">. c #EFF7D6",
",. c #F7F7DE",
"<. c #DEDEE7",
"1. c #E7E7E7",
"2. c #EFEFEF",
"3. c #F7EFEF",
"4. c #F7F7E7",
"5. c #FFFFE7",
"6. c #F7F7EF",
"7. c #FFFFEF",
"8. c #FFF7F7",
"9. c #FFFFF7",
"0. c #F7FFFF",
"q. c white",
"w. c None",
/* pixels */
"w.w.w.w.w.w.w.w.w.w.w.w.w.w.w.w.w.w.w.w.w.w.w.w.w.w.w.w.w.w.w.w.w.w.w.w.w.w.w.w.w.w.w.w.w.w.w.w.w.w.w.w.w.w.w.w.w.w.w.w.w.w.w.w.",
"w.w.w.w.w.w.w.w.w.w.w.w.w.w.w.w.w.w.w.w.w.w.w.w.w.w.w.w.w.w.w.w.w.w.w.w.w.w.w.w.w.w.w.w.w.w.w.w.w.w.w.w.w.w.w.w.w.w.w.w.w.w.w.w.",
"w.w.w.w.w.w.w.w.w.w.w.w.w.w.w.w.w.w.w.w.w.w.w.w.w.w.w.w.w.w.w.w.w.w.w.w.w.w.w.w.w.w.w.w.w.w.w.w.w.w.w.w.w.w.w.w.w.w.w.w.w.w.w.w.",
"w.w.w.w.w.w.w.w.w.w.w.w.w.w.w.w.w.w.w.w.w.w.w.w.w.w.w.w.w.w.w.w.w.w.w.w.w.w.w.w.w.w.w.w.w.w.w.w.w.w.w.w.w.w.w.w.w.w.w.w.w.w.w.w.",
"w.w.w.w.w.w.w.w.w.w.w.w.w.w.w.w.w.w.w.w.w.w.w.w.w.w.w.w.w.w.w.w.w.w.w.w.w.w.w.w.w.w.w.w.w.w.w.w.w.w.w.w.w.w.w.w.w.w.w.w.w.w.w.w.",
"w.w.w.w.w.w.w.w.w.w.w.w.w.w.w.w.w.w.w.w.w.w.w.w.w.w.w.w.w.w.w.w.w.w.w.w.w.w.w.w.w.w.w.w.w.w.w.w.w.w.w.w.w.w.w.w.w.w.w.w.w.w.w.w.",
"w.w.w.w.w.w.w.w.w.w.w.w.w.w.w.w.w.w.w.w.w.w.w.w.w.w.w.w.w.w.w.w.w.w.w.w.w.w.w.w.w.w.w.w.w.w.w.w.w.w.w.w.w.w.w.w.w.w.w.w.w.w.w.w.",
"w.w.w.w.w.w.w.w.w.w.w.w.w.w.w.w.w.w.w.w.w.w.w.w.w.w.w.w.w.w.w.w.w.w.w.w.w.w.w.w.w.w.w.w.w.w.w.w.w.w.w.w.w.w.w.w.w.w.w.w.w.w.w.w.",
"w.w.w.w.w.w.w.w.w.w.w.w.w.w.w.w.w.w.w.w.w.w.w.w.w.w.w.w.w.w.w.w.w.w.w.w.w.w.w.w.w.w.w.w.w.w.w.w.w.w.w.w.w.w.w.w.w.w.w.w.w.w.w.w.",
"w.w.w.w.w.w.w.w.w.w.w.w.w.w.w.w.w.w.w.w.w.w.w.w.w.w.w.w.w.w.w.w.w.w.w.w.w.w.w.w.w.w.w.w.w.w.w.w.w.w.w.w.w.w.w.w.w.w.w.w.w.w.w.w.",
"w.w.w.w.w.w.w.w.w.w.w.w.w.w.w.w.w.w.w.w.w.w.w.w.w.w.w.w.w.w.w.w.w.w.w.w.w.w.w.* : w.w.* w.w.w.w.w.w.w.w.w.w.w.w.w.w.w.w.w.w.w.w.",
"w.w.w.w.w.w.w.w.w.w.w.w.w.w.w.w.w.w.w.w.w.w.w.w.w.w.w.w.w.w.w.w.w.w.w.w.w.w.w.w.= - * # w.- * w.w.w.w.w.w.w.w.w.w.w.w.w.w.w.w.w.",
"w.w.w.w.w.w.w.w.w.w.w.w.w.w.w.w.w.w.w.w.w.w.w.w.w.w.w.w.w.w.w.w.w.w.w.w.w.w.w.w.w.& + # + * w.w.w.w.w.w.w.w.w.w.w.w.w.w.w.w.w.w.",
"w.w.w.w.w.w.w.w.w.w.w.w.w.w.w.w.w.w.w.w.w.w.w.w.w.w.w.w.w.w.w.w.w.w.w.w.w.w.b N Z Z x u w.w.w.w.w.w.w.w.w.w.w.w.w.w.w.w.w.w.w.w.",
"w.w.w.w.w.w.w.w.w.w.w.w.w.w.w.w.w.w.w.w.w.w.w.w.w.w.w.w.w.w.w.w.w.w.w.w.w.N F F F F F S x w.w.w.w.w.w.w.w.w.w.w.w.w.w.w.w.w.w.w.",
"w.w.w.w.w.w.w.w.w.w.w.w.w.w.w.w.w.w.w.w.w.w.w.w.w.w.w.w.w.w.w.w.w.w.w.w.B S F F F F F D V z w.w.w.w.w.w.w.w.w.w.w.w.w.w.w.w.w.w.",
"w.w.w.w.w.w.w.w.w.w.w.w.w.w.w.w.w.w.w.w.w.w.w.w.w.w.w.w.w.w.w.w.w.w.w.p M k = = - T F S M c a w.w.w.w.w.w.w.w.w.w.w.w.w.w.w.w.w.",
"w.w.w.w.w.w.w.w.w.w.w.w.w.w.w.w.w.w.w.w.w.w.w.w.w.w.w.w.w.w.w.w.w.w.=   ;   8 Q > . N V m k t 3 w.w.u t w.w.w.w.w.w.w.w.w.w.w.w.",
"w.w.w.w.w.w.w.w.w.w.w.w.w.w.w.w.w.w.w.w.w.w.w.w.w.w.w.w.w.w.w.w.w.w.z X   $.q.q.0.9 + f #   o X > u e _ w.w.w.w.w.w.w.w.w.w.w.w.",
"w.w.w.w.w.w.w.w.w.w.w.w.w.w.w.w.w.w.w.w.w.w.w.w.w.w.w.w.w.w.w.w.w.a m & 8 q.q.q.q.3.$ X > L W @ e e | q.o.T w.w.w.w.w.w.w.w.w.w.",
"w.w.w.w.w.w.w.w.w.w.w.w.w.w.w.w.w.w.w.w.w.w.w.w.w.w.w.w.w.w.w.w.w.n M & Q q.q.q.[ *.<.+.X.X.X.G e > 2.0.2 u w.w.w.w.w.w.w.w.w.w.",
"w.w.w.w.w.w.w.w.w.w.w.w.w.w.w.w.w.w.w.w.w.w.w.w.w.w.w.w.w.w.w.w.w.c V u 2 q.q.3.X ..<.] 9 X./ e X   L 5   + N b w.w.w.w.w.w.w.w.",
"w.w.w.w.w.w.w.w.w.w.w.w.w.w.w.w.w.w.w.w.w.w.w.w.w.w.w.w.w.w.w.w.w.c V N o Q q.q...W ~ < 8 ` e ^ @   ~ <     K w.w.w.w.w.w.w.w.w.",
"w.w.w.w.w.w.w.w.w.w.w.w.w.w.w.w.w.w.w.w.w.w.w.w.w.w.w.w.w.w.w.w.w.l m D b * < 9 @ - X ) ( t K q...Q q.1.@ ) q.` w.w.w.w.w.w.w.w.",
"w.w.w.w.w.w.w.w.w.w.w.w.w.w.w.w.w.w.w.w.w.w.w.w.w.w.w.w.w.w.w.w.$.v l M S D f u k F f # t & ..q.Q ] q.q.~ 8.q.0.w.w.w.w.w.w.w.w.",
"w.w.w.w.w.w.w.w.w.w.w.w.w.w.w.w.w.w.w.w.w.w.w.w.w.w.w.w.w.w.w.8.q.Y s l c c c c l z j e &   $ W   X *.W   Q q.] @ w.w.w.w.w.w.w.",
"w.w.w.w.w.w.w.w.w.w.w.w.w.w.w.w.w.w.w.w.w.w.w.w.w.w.w.w.w.o.q.q.5.N e y s s r y y e e d Q . 0 ~ .   W o   . W     % w.w.w.w.w.w.",
"w.w.w.w.w.w.w.w.w.w.w.w.w.w.w.w.w.w.w.w.w.w.w.w.w.w.w.w.} q.q.,.F N f t e & & w w t ; 8.0.Q 0.q.2 L q.Q . 8 =.O   9 w.w.w.w.w.w.",
"w.w.w.w.w.w.w.w.w.w.w.w.w.w.w.w.w.w.w.w.w.w.w.w.w.w.w.w.8.q.5.R D D h g u e & w t & % 2...> 2.q.~ <.q.q.Q q.q.~ 9 0.O.w.w.w.w.w.",
"w.w.w.w.w.w.w.w.w.w.w.w.w.w.w.w.w.w.w.w.w.w.w.w.w.w.w.w.q.5.B A M D C k f u e e e X   0 X   0 )   < 8.] $ 1.q.) =.q.8.w.w.w.w.w.",
"w.w.w.w.w.w.w.w.w.w.w.w.w.w.w.w.w.w.w.w.w.w.w.w.w.w.w.=.q.R m A D B Z b k h i e i * > 2.<   9 <     L     L ]   9 q.L > w.w.w.w.",
"w.w.w.w.w.w.w.w.w.w.w.w.w.w.w.w.w.w.w.w.w.w.w.w.w.w.w.q.q.R c A F F A x h g e i f p ;.q.<.0 q.1.@ 8 3.%   L >   o 0   X w.w.w.w.",
"w.w.w.w.w.w.w.w.w.w.w.w.w.w.w.w.w.w.w.w.w.w.w.w.w.w.w.q.q.E j M F F D m k e t i i i J 8.X.L 8.q.] 8.q...W 8.[ X ..Q   o w.w.w.w.",
"w.w.w.w.w.w.w.w.w.w.w.w.w.w.w.w.w.w.w.w.w.w.w.w.w.w.w.q.q.R l m S F F l t i f i i p t K .   [ [ . ..q.~ +.q.3.[ q.1.$ w.w.w.w.w.",
"w.w.w.w.w.w.w.w.w.w.w.w.w.w.w.w.w.w.w.w.w.w.w.w.w.w.w.q.q.C k c M S S M g N V M k i t ; O   9 @   $ Q   < 3.> W q.=.w.w.w.w.w.w.",
"w.w.w.w.w.w.w.w.w.w.w.w.w.w.w.w.w.w.w.w.w.w.w.w.w.w.w.6.q.R x l m z l z l B M B m B U ` L 9 0.~   W 0   O 8   $ =.w.w.w.w.w.w.w.",
"w.w.w.w.w.w.w.w.w.w.w.w.w.w.w.w.w.w.w.w.w.w.w.w.w.w.o.q.q.q.4.Y j z j y b C R R >.q.q.8.o.$.q.0.) q.<.$ *.Q   $ w.w.w.w.w.w.w.w.",
"w.w.w.w.w.w.w.w.w.w.w.w.w.w.w.w.w.w.w.w.w.w.w.w.w.w.q.q.q.q.q.-.p e t H $.3.q.q.q.3.1.$.` ' 1.W 5 q.1...q.2., w.w.w.w.w.w.w.w.w.",
"w.w.w.w.w.w.w.w.w.w.w.w.w.w.w.w.w.w.w.w.w.w.w.w.w.8.q.q.q.q.q.3.} ^ } } } o.=.o.} o.o.} ' _ P   X $.$ 8 q.O.w.w.w.w.w.w.w.w.w.w.",
"w.w.w.w.w.w.w.w.w.w.w.w.w.w.w.w.w.w.w.w.w.w.w.w.| q.q.q.q.q.q.8.@.} } } } } $.1.3.q.8.o.' ` ^ o $ L   O  .w.w.w.w.w.w.w.w.w.w.w.",
"w.w.w.w.w.w.w.w.w.w.w.w.w.w.w.w.w.w.w.w.w.w.w.w.9.q.q.q.q.q.q.q.-.} } } } o.q.q.q.q.q.=.' ` ( L 2.=.X , w.w.w.w.w.w.w.w.w.w.w.w.",
"w.w.w.w.w.w.w.w.w.w.w.w.w.w.w.w.w.w.w.w.w.w.w.` q.q.q.q.q.q.q.q.q.-.$.$.1.8.q.q.q.q.q.8.O.` _ { q.0.7 w.w.w.w.w.w.w.w.w.w.w.w.w.",
"w.w.w.w.w.w.w.w.w.w.w.w.w.w.w.w.w.w.w.w.w.w.w.-.q.q.q.q.q.q.q.q.q.q.q.q.q.q.q.q.q.q.q.q.2.} ( ( <.] 8 w.w.w.w.w.w.w.w.w.w.w.w.w.",
"w.w.w.w.w.w.w.w.w.w.w.w.w.w.w.w.w.w.w.w.w.w.w.7.q.q.q.q.q.q.q.q.q.1.2.q.q.q.q.q.q.q.q.q.q.$.( ^ ! P 9 w.w.w.w.w.w.w.w.w.w.w.w.w.",
"w.w.w.w.w.w.w.w.w.w.w.w.w.w.w.w.w.w.w.w.w.w.w.7.q.q.q.q.q.q.q.q.q.~ 0 q.q.q.1.2 <.q.q.q.q.8.` ^ Q P q w.w.w.w.w.w.w.w.w.w.w.w.w.",
"w.w.w.w.w.w.w.w.w.w.w.w.w.w.w.w.w.w.w.w.w.w./ 7.q.q.q.q.q.q.q.q.q.L % q.q.q.$.  1.q.q.q.q.q.=.! I P 0 w.w.w.w.w.w.w.w.w.w.w.w.w.",
"w.w.w.w.w.w.w.w.w.w.w.w.w.w.w.w.w.w.w.w.w.w./ 4.q.q.q.q.q.q.q.q.q.3.+.q.q.q.q.) q.q.q.q.q.q.8.` I L 0 7 w.w.w.w.w.w.w.w.w.w.w.w.",
"w.w.w.w.w.w.w.w.w.w.w.w.w.w.w.w.w.w.w.w.w.w.I >.7.q.q.q.q.q.q.q.9.9.q.q.q.q.q.q.q.q.q.q.q.q.q.X.P q 8 w.w.w.w.w.w.w.w.w.w.w.w.w.",
"w.w.w.w.w.w.w.w.w.w.w.w.w.w.w.w.w.w.w.w.w.w.w.%.,.7.q.q.q.q.9.4.>.,.5.5.5.5.5.5.5.7.9.q.q.q.9.&.L 0 8 w.w.w.w.w.w.w.w.w.w.w.w.w.",
"w.w.w.w.w.w.w.w.w.w.w.w.w.w.w.w.w.w.w.w.w.w.w.{ &.,.5.5.7.7.5.&.^ ' #.-.;.:.;.%.' o.5.9.7.5.,.:.L 8 5 w.w.w.w.w.w.w.w.w.w.w.w.w.",
"w.w.w.w.w.w.w.w.w.w.w.w.w.w.w.w.w.w.w.w.w.w.w.P o.#.&.;.:.:.:.>.4.H y H H H a y | 9.5.4.:.-.#.O.q 6 3 w.w.w.w.w.w.w.w.w.w.w.w.w.",
"w.w.w.w.w.w.w.w.w.w.w.w.w.w.w.w.w.w.w.w.w.w.w.w.I ' o.O.O.O.@.%.:.7.*.Y v v Y >.9.5.:.%.O.o.} _ L 1 4 w.w.w.w.w.w.w.w.w.w.w.w.w.",
"w.w.w.w.w.w.w.w.w.w.w.w.w.w.w.w.w.w.w.w.w.w.w.w.w.L ! ( ( ( ( ( o.:.5.9.q.9.7.4.;.O.| ` ( ^ ! P 6 3 w.w.w.w.w.w.w.w.w.w.w.w.w.w.",
"w.w.w.w.w.w.w.w.w.w.w.w.w.w.w.w.w.w.w.w.w.w.w.w.w.w.6 8 9 9 q I ` #.:.,.,.,.:.&.O.( I L L q 8 2 4 w.w.w.w.w.w.w.w.w.w.w.w.w.w.w.",
"w.w.w.w.w.w.w.w.w.w.w.w.w.w.w.w.w.w.w.w.w.w.w.w.w.w.w.w.1 1 6 P _ o.#.#.#.#.O.o.` Q q 2 1 1 3 w.w.w.w.w.w.w.w.w.w.w.w.w.w.w.w.w.",
"w.w.w.w.w.w.w.w.w.w.w.w.w.w.w.w.w.w.w.w.w.w.w.w.w.w.w.w.w.w.3 8 I ( ` ' ' ` _ ^ I q 2 1 4 w.w.w.w.w.w.w.w.w.w.w.w.w.w.w.w.w.w.w.",
"w.w.w.w.w.w.w.w.w.w.w.w.w.w.w.w.w.w.w.w.w.w.w.w.w.w.w.w.w.w.w.4 6 0 P P I P L 0 5 1 4 w.w.w.w.w.w.w.w.w.w.w.w.w.w.w.w.w.w.w.w.w.",
"w.w.w.w.w.w.w.w.w.w.w.w.w.w.w.w.w.w.w.w.w.w.w.w.w.w.w.w.w.w.w.w.w.w.3 3 1 1 1 3 w.w.w.w.w.w.w.w.w.w.w.w.w.w.w.w.w.w.w.w.w.w.w.w.",
"w.w.w.w.w.w.w.w.w.w.w.w.w.w.w.w.w.w.w.w.w.w.w.w.w.w.w.w.w.w.w.w.w.w.w.w.w.w.w.w.w.w.w.w.w.w.w.w.w.w.w.w.w.w.w.w.w.w.w.w.w.w.w.w.",
"w.w.w.w.w.w.w.w.w.w.w.w.w.w.w.w.w.w.w.w.w.w.w.w.w.w.w.w.w.w.w.w.w.w.w.w.w.w.w.w.w.w.w.w.w.w.w.w.w.w.w.w.w.w.w.w.w.w.w.w.w.w.w.w.",
"w.w.w.w.w.w.w.w.w.w.w.w.w.w.w.w.w.w.w.w.w.w.w.w.w.w.w.w.w.w.w.w.w.w.w.w.w.w.w.w.w.w.w.w.w.w.w.w.w.w.w.w.w.w.w.w.w.w.w.w.w.w.w.w.",
"w.w.w.w.w.w.w.w.w.w.w.w.w.w.w.w.w.w.w.w.w.w.w.w.w.w.w.w.w.w.w.w.w.w.w.w.w.w.w.w.w.w.w.w.w.w.w.w.w.w.w.w.w.w.w.w.w.w.w.w.w.w.w.w.",
"w.w.w.w.w.w.w.w.w.w.w.w.w.w.w.w.w.w.w.w.w.w.w.w.w.w.w.w.w.w.w.w.w.w.w.w.w.w.w.w.w.w.w.w.w.w.w.w.w.w.w.w.w.w.w.w.w.w.w.w.w.w.w.w.",
"w.w.w.w.w.w.w.w.w.w.w.w.w.w.w.w.w.w.w.w.w.w.w.w.w.w.w.w.w.w.w.w.w.w.w.w.w.w.w.w.w.w.w.w.w.w.w.w.w.w.w.w.w.w.w.w.w.w.w.w.w.w.w.w."
};
