/* XPM */
static char *_574843090534[] = {
/* columns rows colors chars-per-pixel */
"64 64 119 2 ",
"   c black",
".  c gray3",
"X  c #101010",
"o  c #181818",
"O  c #212118",
"+  c #292118",
"@  c gray16",
"#  c #313121",
"$  c #393131",
"%  c #393939",
"&  c #5A3108",
"*  c #524218",
"=  c #5A4A21",
"-  c #635221",
";  c #7B5A21",
":  c #4A4A42",
">  c #525242",
",  c gray32",
"<  c #5A5A52",
"1  c #5A5A5A",
"2  c #5A634A",
"3  c #6B6B4A",
"4  c #63635A",
"5  c #6B6B5A",
"6  c #7B7B5A",
"7  c #6B6B63",
"8  c #73736B",
"9  c #737B73",
"0  c #7B7B73",
"q  c #9C1800",
"w  c #8C4A08",
"e  c #944210",
"r  c #945A10",
"t  c #B55A18",
"y  c #946B18",
"u  c #B57B10",
"i  c #8C7B39",
"p  c #AD7321",
"a  c #AD7B31",
"s  c #CE6B18",
"d  c #B58410",
"f  c #BD8410",
"g  c #C68C18",
"h  c #DE8410",
"j  c #CE9410",
"k  c #F79410",
"l  c #EFAD18",
"z  c #E7B518",
"x  c #FFB518",
"c  c #DE8429",
"v  c #CE9C29",
"b  c #FFC618",
"n  c #FFD618",
"m  c #E7C621",
"M  c #FFC621",
"N  c #FFDE21",
"B  c #FFD631",
"V  c #F7E721",
"C  c #FFE721",
"Z  c #FFEF21",
"A  c #FFF721",
"S  c #FFFF21",
"D  c #A58C4A",
"F  c #AD9C5A",
"G  c #8C8C63",
"H  c #94946B",
"J  c #84847B",
"K  c #8C8C7B",
"L  c #8C947B",
"P  c #BDB56B",
"I  c #DEB54A",
"U  c #DECE4A",
"Y  c #FFDE6B",
"T  c gray55",
"R  c #94948C",
"E  c #949C8C",
"W  c gray61",
"Q  c #A59C8C",
"!  c #A5A584",
"~  c #A5AD94",
"^  c #A5A59C",
"/  c #ADAD9C",
"(  c #ADB59C",
")  c #B5B59C",
"_  c gray68",
"`  c #ADB5AD",
"'  c #B5B5A5",
"]  c #B5BDA5",
"[  c #BDBDA5",
"{  c gray71",
"}  c gray74",
"|  c #BDC6AD",
" . c #C6CEB5",
".. c #C6C6BD",
"X. c #C6CEBD",
"o. c #CED6BD",
"O. c #CECEC6",
"+. c #D6D6C6",
"@. c #DEDEC6",
"#. c #DED6CE",
"$. c #D6DECE",
"%. c #DEE7CE",
"&. c #E7E7CE",
"*. c #E7EFCE",
"=. c #EFF7D6",
"-. c #F7F7DE",
";. c #DEDEE7",
":. c #E7E7E7",
">. c #EFEFEF",
",. c #F7EFEF",
"<. c #F7F7E7",
"1. c #FFFFE7",
"2. c #F7F7EF",
"3. c #FFFFEF",
"4. c #FFF7F7",
"5. c #FFFFF7",
"6. c #F7FFFF",
"7. c white",
"8. c None",
/* pixels */
"8.8.8.8.8.8.8.8.8.8.8.8.8.8.8.8.8.8.8.8.8.8.8.8.8.8.8.8.8.8.8.8.8.8.8.8.8.8.8.8.8.8.8.8.8.8.8.8.8.8.8.8.8.8.8.8.8.8.8.8.8.8.8.8.",
"8.8.8.8.8.8.8.8.8.8.8.8.8.8.8.8.8.8.8.8.8.8.8.8.8.8.8.8.8.8.8.8.8.8.8.8.8.8.8.8.8.8.8.8.8.8.8.8.8.8.8.8.8.8.8.8.8.8.8.8.8.8.8.8.",
"8.8.8.8.8.8.8.8.8.8.8.8.8.8.8.8.8.8.8.8.8.8.8.8.8.8.8.8.8.8.8.8.8.8.8.8.8.8.8.8.8.8.8.8.8.8.8.8.8.8.8.8.8.8.8.8.8.8.8.8.8.8.8.8.",
"8.8.8.8.8.8.8.8.8.8.8.8.8.8.8.8.8.8.8.8.8.8.8.8.8.8.8.8.8.8.8.8.8.8.8.8.8.8.8.8.8.8.8.8.8.8.8.8.8.8.8.8.8.8.8.8.8.8.8.8.8.8.8.8.",
"8.8.8.8.8.8.8.8.8.8.8.8.8.8.8.8.8.8.8.8.8.8.8.8.8.8.8.8.8.8.8.8.8.8.8.8.8.8.8.8.8.8.8.8.8.8.8.8.8.8.8.8.8.8.8.8.8.8.8.8.8.8.8.8.",
"8.8.8.8.8.8.8.8.8.8.8.8.8.8.8.8.8.8.8.8.8.8.8.8.8.8.8.8.8.8.8.8.8.8.8.8.8.8.8.8.8.8.8.8.8.8.8.8.8.8.8.8.8.8.8.8.8.8.8.8.8.8.8.8.",
"8.8.8.8.8.8.8.8.8.8.8.8.8.8.8.8.8.8.8.8.8.8.8.8.8.8.8.8.8.8.8.8.8.8.8.8.8.8.8.8.8.8.8.8.8.8.8.8.8.8.8.8.8.8.8.8.8.8.8.8.8.8.8.8.",
"8.8.8.8.8.8.8.8.8.8.8.8.8.8.8.8.8.8.8.8.8.8.8.8.8.8.8.8.8.8.8.8.8.8.8.8.8.8.8.8.8.8.8.8.8.8.8.8.8.8.8.8.8.8.8.8.8.8.8.8.8.8.8.8.",
"8.8.8.8.8.8.8.8.8.8.8.8.8.8.8.8.8.8.8.8.8.8.> . 8.8.8.8.8.8.8.8.8.8.8.8.8.8.8.8.8.8.8.8.8.8.8.8.8.8.8.8.8.8.8.8.8.8.8.8.8.8.8.8.",
"8.8.8.8.8.8.8.8.8.8.8.8.8.8.8.8.8.8.8.8.8.8.@     > 8.8.8.8.8.8.8.8.8.8.8.8.8.8.8.8.8.8.8.8.8.8.8.8.8.8.8.8.8.8.8.8.8.8.8.8.8.8.",
"8.8.8.8.8.8.8.8.8.8.8.8.8.8.8.8.8.8.8.8.8.8.J .     : 8.8.8.8.8.8.8.8.8.8.8.8.8.* 8.8.X 8.8.8.8.8.8.8.8.8.8.8.8.8.8.8.8.8.8.8.8.",
"8.8.8.8.8.8.8.8.8.8.8.8.8.8.8.8.8.8.8.8.8.` 4._ o   J #.L 8.8.8.8.8.8.8.8.8.8.8.8.- 8.X 8.= & * 8.8.8.8.8.8.8.8.8.8.8.8.8.8.8.8.",
"8.8.8.8.8.8.8.8.8.8.8.8.8.8.8.8.8.8.8.8.8.} 4.4..., O.:.;.' 8.8.8.8.8.8.8.8.8.8.8.8.& + * 8.8.8.8.8.8.8.8.8.8.8.8.8.8.8.8.8.8.8.",
"8.8.8.8.8.8.8.8.8.8.8.8.8.8.8.8.8.8.8.8.> O ` >.,.T J $.;.;.{ : 8.8.8.8.8.8.8.U V S g g v 8.8.8.8.8.8.8.8.8.8.8.8.8.8.8.8.8.8.8.",
"8.8.8.8.8.8.8.8.8.8.8.8.8.8.8.8.8.8.8.8.@   . J #.$   $ _ O.J     O > 8.8.8.N S S v & d Z M 8.8.8.8.8.8.8.8.8.8.8.8.8.8.8.8.8.8.",
"8.8.8.8.8.8.8.8.8.8.8.8.8.8.8.8.8.8.8.K W X     1 O       , %         8 9 D D ; - 2 & S Z n x 8.8.8.8.8.8.8.8.8.8.8.8.8.8.8.8.8.",
"8.8.8.8.8.8.8.8.8.8.8.8.8.8.8.8.8.8.8.{ 4.` O . _ .., .   : } 9 @ . $ T J 7 O   $ & v A C n x a 8.8.8.8.8.8.8.8.8.8.8.8.8.8.8.8.",
"8.8.8.8.8.8.8.8.8.8.8.8.8.8.8.8.8.8.8.W >.4.$.7 $.:.;.T @ W ..} _ J % , 1 : o @ + + = n m y & # , 2 8.8.8.8.8.8.8.8.8.8.8.8.8.8.",
"8.8.8.8.8.8.8.8.8.8.8.8.8.8.8.8.8.8.>   9 :.:.1 9 #.;.$.T , W ` _ 7       : 4 + + W o - % @ : @   : 8.8.8.8.8.8.8.8.8.8.8.8.8.8.",
"8.8.8.8.8.8.8.8.8.8.8.8.8.8.8.8.8.8.%     , _ o   @ ^ ..%     @ 1 $ .   o 4 : $ 6 7.{ % 8 ` } } O @ > 8.8.8.8.8.8.8.8.8.8.8.8.8.",
"8.8.8.8.8.8.8.8.8.8.8.8.8.8.8.8.8.8.;.,     8 $       , $ .     $ T 7 , O X : & ;.9 6.;.O...O...4 o > 8.8.8.v C v 8.8.8.8.8.8.8.",
"8.8.8.8.8.8.8.8.8.8.8.8.8.8.8.8.8.{ 4.>.7 @ ..;.J X   T } T : o 8 T 9 :   o # L ^ @ >.;.% T O...4 X : 8.8.8.b h a U 8.8.8.8.8.8.",
"8.8.8.8.8.8.8.8.8.8.8.8.8.8.8.8.8.8.O.4.>.T O.:.;.{ 4 ` ..{ _ 4 O $ $ $ % X & :.4.J , _ , { O.} o X i N v N s g N l 8.8.8.8.8.8.",
"8.8.8.8.8.8.8.8.8.8.8.8.8.8.8.8.8.8.8.{ $.$ O R #.O., O 8 W W O     O 4 : + + 8 $ + y + ` #...T O 8.8.k b n j b u g U 8.8.8.8.8.",
"8.8.8.8.8.8.8.8.8.8.8.8.8.8.8.8.8.8.8.8.0 X     , T X       : : @ o $ $ : & V u u m Z y   $ . + L 8.8.k k N A k N N l 8.8.8.8.8.",
"8.8.8.8.8.8.8.8.8.8.8.8.8.8.8.8.8.8.8.8.8.8.O     8 J @ .   8 T 8 %   O # u x x b h h f v z z h H 8.f s s b n Z z y 8.8.8.8.8.8.",
"8.8.8.8.8.8.8.8.8.8.8.8.8.8.8.8.8.8.8.8.8.8.8.: $ ` ..` T , 4 4 , O O o & s s e e r w w l l k r ! s k s h x x j 8.8.8.8.8.8.8.8.",
"8.8.8.8.8.8.8.8.8.8.8.8.8.8.8.8.8.8.8.8.8.8.8.8.8.E ` ` W O     @ 1 % & w w & & q q q e r w w H [ s l x k k p 8.8.8.8.8.8.8.8.8.",
"8.8.8.8.8.8.8.8.8.8.8.8.8.8.8.8.8.8.8.8.8.8.8.8.8.8.8.8.7 o X . , i & - d u w & q q w & & & D 2.a t l k w 8.8.8.8.8.8.8.8.8.8.8.",
"8.8.8.8.8.8.8.8.8.8.8.8.8.8.8.8.8.8.8.8.8.8.8.8.8.8.8.8.8.8.7.@.M u & z v j u r w r p f # @ $ H t s k r 8.8.8.8.8.8.8.8.8.8.8.8.",
"8.8.8.8.8.8.8.8.8.8.8.8.8.8.8.8.8.8.8.8.8.8.8.8.8.8.8.8.8. .<.h z & & A z j j g g g f u O O O & w r ; 8.8.8.8.8.8.8.8.8.8.8.8.8.",
"8.8.8.8.8.8.8.8.8.8.8.8.8.8.8.8.8.8.8.8.8.8.8.8.8.8.8.8.8.#.s s w & r S m g g g f f d u & X X & - 8.8.8.8.8.8.8.8.8.8.8.8.8.8.8.",
"8.8.8.8.8.8.8.8.8.8.8.8.8.8.8.8.8.8.8.8.8.8.8.8.8.8.8.8.8.P s s w w u A A j f f d u u u w = G E 8.8.8.8.8.8.8.8.8.8.8.8.8.8.8.8.",
"8.8.8.8.8.8.8.8.8.8.8.8.8.8.8.8.8.8.8.8.8.8.8.8.8.8.8.8.8.t s s t s p S S S m j j g u u y y ! ^ 8.8.8.8.8.8.8.8.8.8.8.8.8.8.8.8.",
"8.8.8.8.8.8.8.8.8.8.8.8.8.8.8.8.8.8.8.8.8.8.8.8.8.8.8.8.8.s s r r t u A A A A Z C N z u y r G W 8.8.8.8.8.8.8.8.8.8.8.8.8.8.8.8.",
"8.8.8.8.8.8.8.8.8.8.8.8.8.8.8.8.8.8.8.8.8.8.8.8.8.8.8.8.8.r t t w y u N C C N N n n M z D ! Q E 8.8.8.8.8.8.8.8.8.8.8.8.8.8.8.8.",
"8.8.8.8.8.8.8.8.8.8.8.8.8.8.8.8.8.8.8.8.8.8.8.8.8.8.8.8.[ a w w ~ ! F Y Y B B B Y P P ) ) ( ' / E Q 8.8.8.8.8.8.8.8.8.8.8.8.8.8.",
"8.8.8.8.8.8.8.8.8.8.8.8.8.8.8.8.8.8.8.8.8.8.8.8.8.8.8.8. .~ H ( ] ] ] $.,.,.$.| ' ] ] ] :.O.( ~ >.3.8.8.8.8.8.8.8.8.8.8.8.8.8.8.",
"8.8.8.8.8.8.8.8.8.8.8.8.8.8.8.8.8.8.8.8.8.8.8.8.8.8.8./ ~ ( ] ] [ [ ] ] ] ] ] ] ]  .%.4.7.7.4.4.7.7.@.8.8.8.8.8.8.8.8.8.8.8.8.8.",
"8.8.8.8.8.8.8.8.8.8.8.8.8.8.8.8.8.8.8.8.8.8.8.8.8.8.H Q / ) ] ] ] ] ] ] ] ] | %.4.7.7.7.7.7.7.7.7.7.3.! 8.8.8.8.8.8.8.8.8.8.8.8.",
"8.8.8.8.8.8.8.8.8.8.8.8.8.8.8.8.8.8.8.8.8.8.8.8.8.8.L ~ ( ) ] ] ] ] ] ] O.,.7.7.7.7.7.7.7.7.7.7.7.7.7.+.8.8.8.8.8.8.8.8.8.8.8.8.",
"8.8.8.8.8.8.8.8.8.8.8.8.8.8.8.8.8.8.8.8.8.8.8.8.8.8.:.$.%.$. . .|  .$.4.7.7.7.7.7.7.7.7.7.7.7.7.7.7.7.-.H 8.8.8.8.8.8.8.8.8.8.8.",
"8.8.8.8.8.8.8.8.8.8.8.8.8.8.8.8.8.8.8.8.8.8.8.8.8.%.7.7.7.7.7.7.7.7.7.7.7.7.7.7.7.7.7.7.7.7.7.7.7.7.7.<.~ 8.8.8.8.8.8.8.8.8.8.8.",
"8.8.8.8.8.8.8.8.8.8.8.8.8.8.8.8.8.8.8.8.8.8.8.8.8.3.7.7.7.7.7.7.7.7.7.2.>.7.7.7.7.4.7.7.7.7.7.7.7.7.7.1.| 8.8.8.8.8.8.8.8.8.8.8.",
"8.8.8.8.8.8.8.8.8.8.8.8.8.8.8.8.8.8.8.8.8.8.8.8.8.3.7.7.7.7.7.7.7.7.7.W T 7.7.7.} 4 4.7.7.7.7.7.7.7.7.1.X.8.8.8.8.8.8.8.8.8.8.8.",
"8.8.8.8.8.8.8.8.8.8.8.8.8.8.8.8.8.8.8.8.8.8.8.8.! 3.7.7.7.7.7.7.7.7.7., 7 7.7.7.W X 7.7.7.7.7.7.7.7.7.1.X.8.8.8.8.8.8.8.8.8.8.8.",
"8.8.8.8.8.8.8.8.8.8.8.8.8.8.8.8.8.8.8.8.8.8.8.8.! <.7.7.7.7.7.7.7.7.7...,.7.7.7.,.} 7.7.7.7.7.7.7.7.5.-.| 6 8.8.8.8.8.8.8.8.8.8.",
"8.8.8.8.8.8.8.8.8.8.8.8.8.8.8.8.8.8.8.8.8.8.8.8.Q =.3.7.7.7.7.7.7.7.5.7.7.7.7.7.7.7.7.7.7.7.7.7.7.7.1.%.) 6 8.8.8.8.8.8.8.8.8.8.",
"8.8.8.8.8.8.8.8.8.8.8.8.8.8.8.8.8.8.8.8.8.8.8.8.8.+.-.3.5.7.7.7.3.-.=.-.1.1.1.3.1.1.1.3.7.7.7.7.5.1.=.X.Q 8.8.8.8.8.8.8.8.8.8.8.",
"8.8.8.8.8.8.8.8.8.8.8.8.8.8.8.8.8.8.8.8.8.8.8.8.8.( @.=.<.1.1.1.1.o.Q [ +.&.*.&.%.+./ X.1.5.3.1.-.*.o.) J 8.8.8.8.8.8.8.8.8.8.8.",
"8.8.8.8.8.8.8.8.8.8.8.8.8.8.8.8.8.8.8.8.8.8.8.8.8.K [ o.@.%.&.*.=.-.<.s t D H D a t  .5.1.-.=.%.+. .' R 5 8.8.8.8.8.8.8.8.8.8.8.",
"8.8.8.8.8.8.8.8.8.8.8.8.8.8.8.8.8.8.8.8.8.8.8.8.8.8.L ) | |  . .X.+.=.3.#.I c c I ,.5.<.*.+.X.| [ / R 7 3 8.8.8.8.8.8.8.8.8.8.8.",
"8.8.8.8.8.8.8.8.8.8.8.8.8.8.8.8.8.8.8.8.8.8.8.8.8.8.8.0 E Q ~ Q Q /  .=.3.5.7.5.3.<.%. .[ ) / ~ E L 7 2 8.8.8.8.8.8.8.8.8.8.8.8.",
"8.8.8.8.8.8.8.8.8.8.8.8.8.8.8.8.8.8.8.8.8.8.8.8.8.8.8.8.5 7 8 8 0 L ' +.*.-.-.-.*.@.| Q L J J 0 7 1 3 8.8.8.8.8.8.8.8.8.8.8.8.8.",
"8.8.8.8.8.8.8.8.8.8.8.8.8.8.8.8.8.8.8.8.8.8.8.8.8.8.8.8.8.8.2 < 5 L / | o.o.o.o. .| ( R 9 1 < < 2 8.8.8.8.8.8.8.8.8.8.8.8.8.8.8.",
"8.8.8.8.8.8.8.8.8.8.8.8.8.8.8.8.8.8.8.8.8.8.8.8.8.8.8.8.8.8.8.8.2 8 L ~ ( ) ) ( / Q L 0 < < 2 8.8.8.8.8.8.8.8.8.8.8.8.8.8.8.8.8.",
"8.8.8.8.8.8.8.8.8.8.8.8.8.8.8.8.8.8.8.8.8.8.8.8.8.8.8.8.8.8.8.8.8.8.5 9 K L L K J 9 4 < 2 8.8.8.8.8.8.8.8.8.8.8.8.8.8.8.8.8.8.8.",
"8.8.8.8.8.8.8.8.8.8.8.8.8.8.8.8.8.8.8.8.8.8.8.8.8.8.8.8.8.8.8.8.8.8.8.8.2 2 < < < 2 8.8.8.8.8.8.8.8.8.8.8.8.8.8.8.8.8.8.8.8.8.8.",
"8.8.8.8.8.8.8.8.8.8.8.8.8.8.8.8.8.8.8.8.8.8.8.8.8.8.8.8.8.8.8.8.8.8.8.8.8.8.8.8.8.8.8.8.8.8.8.8.8.8.8.8.8.8.8.8.8.8.8.8.8.8.8.8.",
"8.8.8.8.8.8.8.8.8.8.8.8.8.8.8.8.8.8.8.8.8.8.8.8.8.8.8.8.8.8.8.8.8.8.8.8.8.8.8.8.8.8.8.8.8.8.8.8.8.8.8.8.8.8.8.8.8.8.8.8.8.8.8.8.",
"8.8.8.8.8.8.8.8.8.8.8.8.8.8.8.8.8.8.8.8.8.8.8.8.8.8.8.8.8.8.8.8.8.8.8.8.8.8.8.8.8.8.8.8.8.8.8.8.8.8.8.8.8.8.8.8.8.8.8.8.8.8.8.8.",
"8.8.8.8.8.8.8.8.8.8.8.8.8.8.8.8.8.8.8.8.8.8.8.8.8.8.8.8.8.8.8.8.8.8.8.8.8.8.8.8.8.8.8.8.8.8.8.8.8.8.8.8.8.8.8.8.8.8.8.8.8.8.8.8.",
"8.8.8.8.8.8.8.8.8.8.8.8.8.8.8.8.8.8.8.8.8.8.8.8.8.8.8.8.8.8.8.8.8.8.8.8.8.8.8.8.8.8.8.8.8.8.8.8.8.8.8.8.8.8.8.8.8.8.8.8.8.8.8.8.",
"8.8.8.8.8.8.8.8.8.8.8.8.8.8.8.8.8.8.8.8.8.8.8.8.8.8.8.8.8.8.8.8.8.8.8.8.8.8.8.8.8.8.8.8.8.8.8.8.8.8.8.8.8.8.8.8.8.8.8.8.8.8.8.8."
};
