/* XPM */
static char *_574843169791[] = {
/* columns rows colors chars-per-pixel */
"64 64 120 2 ",
"   c black",
".  c gray3",
"X  c #101010",
"o  c #181818",
"O  c #212118",
"+  c #292118",
"@  c gray16",
"#  c #313121",
"$  c #393131",
"%  c #393939",
"&  c #5A3108",
"*  c #524218",
"=  c #5A4A21",
"-  c #635221",
";  c #7B5A21",
":  c #4A4A42",
">  c #525242",
",  c gray32",
"<  c #5A5A52",
"1  c #5A5A5A",
"2  c #5A634A",
"3  c #6B6B4A",
"4  c #63635A",
"5  c #6B6B5A",
"6  c #7B7B5A",
"7  c #6B6B63",
"8  c #73736B",
"9  c #737B73",
"0  c #7B7B73",
"q  c #9C1800",
"w  c #8C4A08",
"e  c #944210",
"r  c #945A10",
"t  c #B55A18",
"y  c #946B18",
"u  c #B57B10",
"i  c #8C7B39",
"p  c #AD7321",
"a  c #AD7B31",
"s  c #CE6B18",
"d  c #846B42",
"f  c #B58410",
"g  c #BD8410",
"h  c #C68C18",
"j  c #DE8410",
"k  c #CE9410",
"l  c #F79410",
"z  c #EFAD18",
"x  c #E7B518",
"c  c #FFB518",
"v  c #DE8429",
"b  c #CE9C29",
"n  c #F79C29",
"m  c #FFC618",
"M  c #FFD618",
"N  c #E7C621",
"B  c #FFC621",
"V  c #FFDE21",
"C  c #FFD631",
"Z  c #F7E721",
"A  c #FFE721",
"S  c #FFEF21",
"D  c #FFF721",
"F  c #FFFF21",
"G  c #84845A",
"H  c #A58C4A",
"J  c #AD9C5A",
"K  c #8C8C63",
"L  c #84847B",
"P  c #8C8C7B",
"I  c #8C947B",
"U  c #DEB54A",
"Y  c #DECE4A",
"T  c #FFDE6B",
"R  c #FFF76B",
"E  c gray55",
"W  c #94948C",
"Q  c #949C8C",
"!  c gray61",
"~  c #A59C8C",
"^  c #A5A584",
"/  c #A5AD94",
"(  c #A5A59C",
")  c #ADAD9C",
"_  c #ADB59C",
"`  c #B5B59C",
"'  c gray68",
"]  c #ADB5AD",
"[  c #B5B5A5",
"{  c #B5BDA5",
"}  c #BDBDA5",
"|  c gray71",
" . c gray74",
".. c #BDC6AD",
"X. c #C6CEB5",
"o. c #C6C6BD",
"O. c #C6CEBD",
"+. c #CED6BD",
"@. c #CECEC6",
"#. c #D6D6C6",
"$. c #DEDEC6",
"%. c #DED6CE",
"&. c #D6DECE",
"*. c #DEE7CE",
"=. c #E7E7CE",
"-. c #E7EFCE",
";. c #EFF7D6",
":. c #F7F7DE",
">. c #DEDEE7",
",. c #E7E7E7",
"<. c #EFEFEF",
"1. c #F7EFEF",
"2. c #F7F7E7",
"3. c #FFFFE7",
"4. c #FFFFEF",
"5. c #FFF7F7",
"6. c #FFFFF7",
"7. c #F7FFFF",
"8. c white",
"9. c None",
/* pixels */
"9.9.9.9.9.9.9.9.9.9.9.9.9.9.9.9.9.9.9.9.9.9.9.9.9.9.9.9.9.9.9.9.9.9.9.9.9.9.9.9.9.9.9.9.9.9.9.9.9.9.9.9.9.9.9.9.9.9.9.9.9.9.9.9.",
"9.9.9.9.9.9.9.9.9.9.9.9.9.9.9.9.9.9.9.9.9.9.9.9.9.9.9.9.9.9.9.9.9.9.9.9.9.9.9.9.9.9.9.9.9.9.9.9.9.9.9.9.9.9.9.9.9.9.9.9.9.9.9.9.",
"9.9.9.9.9.9.9.9.9.9.9.9.9.9.9.9.9.9.9.9.9.9.9.9.9.9.9.9.9.9.9.9.9.9.9.9.9.9.9.9.9.9.9.9.9.9.9.9.9.9.9.9.9.9.9.9.9.9.9.9.9.9.9.9.",
"9.9.9.9.9.9.9.9.9.9.9.9.9.9.9.9.9.9.9.9.9.9.9.9.9.9.9.9.9.9.9.9.9.9.9.9.9.9.9.9.9.9.9.9.9.9.9.9.9.9.9.9.9.9.9.9.9.9.9.9.9.9.9.9.",
"9.9.9.9.9.9.9.9.9.9.9.9.9.9.9.9.9.9.9.9.9.9.9.9.9.9.9.9.9.9.9.9.9.9.9.9.9.9.9.9.9.9.9.9.9.9.9.9.9.9.9.9.9.9.9.9.9.9.9.9.9.9.9.9.",
"9.9.9.9.9.9.9.9.9.9.9.9.9.9.9.9.9.9.9.9.9.9.9.9.9.9.9.9.9.9.9.9.9.9.9.9.9.9.9.9.9.9.9.9.9.9.9.9.9.9.9.9.9.9.9.9.9.9.9.9.9.9.9.9.",
"9.9.9.9.9.9.9.9.9.9.9.9.9.9.9.9.9.9.9.9.9.9.9.9.9.9.9.9.9.9.9.9.9.9.9.9.9.9.9.9.9.9.9.9.9.9.9.9.9.9.9.9.9.9.9.9.9.9.9.9.9.9.9.9.",
"9.9.9.9.9.9.9.9.9.9.9.9.9.9.9.9.9.9.9.9.9.9.9.9.9.9.9.9.9.9.9.9.9.9.9.9.9.9.9.9.9.9.9.9.9.9.9.9.9.9.9.9.9.9.9.9.9.9.9.9.9.9.9.9.",
"9.9.9.9.9.9.9.9.9.9.9.9.9.9.9.9.9.9.9.9.9.9.9.9.9.9.9.9.9.9.9.9.9.9.9.9.9.9.9.9.9.9.9.9.9.9.9.9.9.9.9.9.9.9.9.9.9.9.9.9.9.9.9.9.",
"9.9.9.9.9.9.9.9.9.9.9.9.9.9.9.9.9.9.9.9.9.9.9.9.9.9.9.9.9.9.9.9.9.9.9.9.9.9.9.9.9.9.9.9.9.= 9.9.9.9.9.9.9.9.9.9.9.9.9.9.9.9.9.9.",
"9.9.9.9.9.9.9.9.9.9.9.9.9.9.9.9.9.9.9.9.9.9.9.9.9.9.9.9.9.9.9.9.9.9.9.9.9.9.9.9.9.9.9.9.+ 9.9.9.9.9.9.9.9.9.9.9.9.9.9.9.9.9.9.9.",
"9.9.9.9.9.9.9.9.9.9.9.9.9.9.9.9.9.9.9.9.9.9.9.9.9.9.9.9.9.9.9.9.9.9.9.9.9.9.9.+ X * 9.+ 9.9.9.9.9.9.9.9.9.9.9.9.9.9.9.9.9.9.9.9.",
"9.9.9.9.9.9.9.9.9.9.9.9.9.9.9.9.9.9.9.9.9.9.9.9.9.9.9.9.9.9.9.9.9.9.9.9.9.9.9.9.= X & - 9.9.9.9.9.9.9.9.9.9.9.9.9.9.9.9.9.9.9.9.",
"9.9.9.9.9.9.9.9.9.9.9.9.9.9.9.9.9.9.9.9.9.9.9.9.9.9.9.9.9.9.9.9.9.9.9.9.9.9.9.9.9.N D F D N 9.9.9.9.9.9.9.9.9.9.9.9.9.9.9.9.9.9.",
"9.9.9.9.9.9.9.9.9.9.9.9.9.9.9.9.9.9.9.9.9.9.9.9.9.9.9.9.9.9.9.9.9.9.9.9.9.9.9.b D F F F F D M b 3 3 9.9.9.9.9.9.9.9.9.9.9.9.9.9.",
"9.9.9.9.9.9.9.9.9.9.9.9.9.9.9.9.9.9.9.9.9.9.9.9.9.9.9.9.9.9.9.9.9.9.9.9.9.9.9.A F F F D N Z V i 1 1 : 9.9.9.9.9.9.9.9.9.9.9.9.9.",
"9.9.9.9.9.9.9.9.9.9.9.9.9.9.9.9.9.9.9.9.9.9.9.9.9.9.9.9.9.9.9.9.9.9.9.9.9.9.x A D S ; O O + f i E E , % 9.9.9.9.b Z 9.Y 9.9.9.9.",
"9.9.9.9.9.9.9.9.9.9.9.9.9.9.9.9.9.9.t ; 9.9.9.9.9.9.9.9.9.9.9.9.9.9.9.9.9.# - x A + O @.>.E o # , 8 : % 9.9.9.9.b c b m a b 9.9.",
"9.9.9.9.9.9.9.9.9.9.9.9.9.9.9.9.9.I G w 9.9.9.9.9.9.9.9.9.9.9.9.9.9.9.9.  @ @ $ * . >.8.8.8.!   o : % $ : 9.9.9.v l v l h m 9.9.",
"9.9.9.9.9.9.9.9.9.9.9.9.9.9.9.9.@ ] o.d r 9.9.9.9.9.9.9.9.9.9.9.9.9.9.9.o >.>.W : | 8.8.8.8.8.@ o $ $ @ % 9.9.9.n l l j z j 9.9.",
"9.9.9.9.9.9.9.9.9.9.9.9.9.9.E .   $ ( % w ; 9.9.9.9.9.9.9.9.9.9.9.9.9.9., >.>.>.o.7.8.$ @.8.8.@ ; = L $ 9.b Z b D S S M l ; 9.9.",
"9.9.9.9.9.9.9.9.9.9.9.9.9.,.1.4 o E 9   X w 9.9.9.9.9.9.9.9.9.9.9.9.9.9.% >.>.o.o ,.7.L o.8.>.  k B 4.K 9.9.k A F F F F N 9.9.9.",
"9.9.9.9.9.9.9.9.9.9.9.> L 1.5.E ' ,.&.: , d w 9.9.9.9.9.9.9.9.9.9.9.9.9.X  .>.>.7 % 7  .>.| @ & V m 3.K 9.9.9.k m A A M g 9.9.9.",
"9.9.9.9.9.9.9.9.9.9.>     ( 1   $ @.! $ ]  .y y 9.9.9.9.9.9.9.9.9.9.9.9.> L %.>.1 u y # @ * J F M l 4.K 9.9.9.; s c m c y 9.9.9.",
"9.9.9.9.9.9.9.9.9.I $   O | $   o E o   $ ( % w y 9.9.9.9.9.9.9.9.9.9.9.9.# X @ + V M k N A V m c v 7.) O.9.9.9.g l l s 9.9.9.9.",
"9.9.9.9.9.9.9.9.9.1.o.$ >.8.o.1 >.1.4 o E 8   + w 9.9.9.9.9.9.9.9.9.9.9.9.a x N B u r l l l l l s } %.b *.<.} m m c j ; 9.9.9.9.",
"9.9.9.9.9.9.9.9.%.1.>.8 1.8.( 8 <.5.E ' ,.&., 1 d w 9.9.9.9.9.9.9.9.9.9.9.9.l c l w e q q e t w ; 1.J u } 8.T m m c j 9.9.9.9.9.",
"9.9.9.9.9.9.9.$ L >.:   E W     W ,   @ o.L @ ]  .; ; 9.9.9.9.9.9.9.9.9.9.9.; t t t q q q w + @ 1 ^ g u Y T m m m c r 9.9.9.9.9.",
"9.9.9.9.9.9.>   X 4     1 ,   o  .%   $ E X   % W + w 9.9.9.9.9.9.9.9.9.9.9.9.- & - ; q e & O @ O ; h k N M m c c s 9.9.9.9.9.9.",
"9.9.9.9.9.9.$   @ ] @ @ >.%.% %.8.%.7 <.<.7 % ' 7   + w 9.9.9.9.9.9.9.9.9.9.9.9.W J g f p r + o o b n h x m c l j ; 9.9.9.9.9.9.",
"9.9.9.9.9.9.9.@ ( ,.' ' 1.,.7 ,.7.E 1 1.<.1 ] ,.&.: 9.- r 9.9.9.9.9.9.9.9.9.9.p s j s g h h h y h k k g l c l s d ( 9.9.9.9.9.9.",
"9.9.9.9.9.9.9.9.@.>.8 4 &.7   7 L     L @   @ | 9.9.9.9.w y 9.9.9.9.9.9.9.9.Z j s t t f g g h h h h x k j j w G  .| 9.9.9.9.9.9.",
"9.9.9.9.9.9.9.9.P ] X   4     1 4   $ >.:   : 9.9.9.9.9.9.w 9.9.9.9.9.9.N F D k t r y u u f g g g Z k x N & * #.5.8.9.9.9.9.9.9.",
"9.9.9.9.9.9.9.9.9.<   X ' : @ >.>.1 ,.8.%.9.9.9.9.9.9.9.9.- r 9.9.b N D S M c l w w p u f x Z N Z N f Z F D S R 8.8./ 9.9.9.9.9.",
"9.9.9.9.9.9.9.9.9.9.$ 4 >. .! <.>., &.<.9.9.9.9.9.9.9.9.9.9.- g A F S V c l l s ; i y h N A S S f u f D D A M T 8.8.~ 9.9.9.9.9.",
"9.9.9.9.9.9.9.9.9.9.9.] >.W % %.,   , 9.9.9.9.9.9.9.9.9.9.9.b x A k l l l t r ) 1.,.$.T C M V x u u h A V M m U 8.8.I 9.9.9.9.9.",
"9.9.9.9.9.9.9.9.9.9.9.9.| @   , o   > 9.9.9.9.9.9.9.9.9.9.9.b c p w r t w 9.<.8.8.8.8.8.:.T T U p p h C T T =.2.8.<.I 9.9.9.9.9.",
"9.9.9.9.9.9.9.9.9.9.9.9.9..   ] 4 $ 9.9.9.9.9.9.9.9.9.9.9.9.9.r r r w - 9.1.8.8.8.8.8.8.8.8.8.5.&.&.5.8.8.8.8.8.8.8.6.} 9.9.9.9.",
"9.9.9.9.9.9.9.9.9.9.9.9.9.> , >.@.9.9.9.9.9.9.9.9.9.9.9.9.9.9.9.p k i 9.#.8.8.8.8.8.8.8.8.8.8.8.8.8.8.8.8.8.8.8.8.8.8.:.9.9.9.9.",
"9.9.9.9.9.9.9.9.9.9.9.9.9.9.W &./ 9.9.9.9.9.9.9.9.9.9.9.9.9.9.9.9.9.9.9.8.8.8.8.8.8.8.8.8.8.8.8.8.8.8.8.8.8.8.8.8.8.8.4.} 9.9.9.",
"9.9.9.9.9.9.9.9.9.9.9.9.9.9.9.) 9.9.9.9.9.9.9.9.9.9.9.9.9.9.9.9.9.9.9.1.8.8.8.8.8.8.8.8.8.8.8.8.8.8.8.8.8.8.8.8.8.8.8.6.=.9.9.9.",
"9.9.9.9.9.9.9.9.9.9.9.9.9.9.9.9.9.9.9.9.9.9.9.9.9.9.9.9.9.9.9.9.9.9.9.8.8.8.8.8.8.8.8.8.8.8.8.8.8.8.8.8.8.8.8.8.8.8.8.8.:.~ 9.9.",
"9.9.9.9.9.9.9.9.9.9.9.9.9.9.9.9.9.9.9.9.9.9.9.9.9.9.9.9.9.9.9.9.9.9.#.8.8.8.8.8.8.8.8.8.8.8.8.8.8.8.8.8.8.8.8.8.8.8.8.8.2.) 9.9.",
"9.9.9.9.9.9.9.9.9.9.9.9.9.9.9.9.9.9.9.9.9.9.9.9.9.9.9.9.9.9.9.9.9.9.4.8.8.8.8.8.8.8.8.,.<.8.8.8.8.1.8.8.8.8.8.8.8.8.8.8.3...9.9.",
"9.9.9.9.9.9.9.9.9.9.9.9.9.9.9.9.9.9.9.9.9.9.9.9.9.9.9.9.9.9.9.9.9.9.4.8.8.8.8.8.8.8.5.: ] 8.8.8.( ( 8.8.8.8.8.8.8.8.8.8.3.X.9.9.",
"9.9.9.9.9.9.9.9.9.9.9.9.9.9.9.9.9.9.9.9.9.9.9.9.9.9.9.9.9.9.9.9.9.9.2.8.8.8.8.8.8.8.8.O o.8.8.8., 7 8.8.8.8.8.8.8.8.8.8.2.X.9.9.",
"9.9.9.9.9.9.9.9.9.9.9.9.9.9.9.9.9.9.9.9.9.9.9.9.9.9.9.9.9.9.9.9.9.9.:.8.8.8.8.8.8.8.8.,.8.8.8.8.| %.8.8.8.8.8.8.8.8.8.6.;...9.9.",
"9.9.9.9.9.9.9.9.9.9.9.9.9.9.9.9.9.9.9.9.9.9.9.9.9.9.9.9.9.9.9.9.9.9.*.4.6.8.8.8.8.6.6.8.8.8.8.8.8.8.8.8.8.8.8.8.8.8.8.3.*.{ 9.9.",
"9.9.9.9.9.9.9.9.9.9.9.9.9.9.9.9.9.9.9.9.9.9.9.9.9.9.9.9.9.9.9.9.9.9...-.2.4.6.8.4.-.-.:.3.3.4.4.4.3.3.6.8.8.8.8.8.8.3.;.+./ 9.9.",
"9.9.9.9.9.9.9.9.9.9.9.9.9.9.9.9.9.9.9.9.9.9.9.9.9.9.9.9.9.9.9.9.9.9.~ O.$.;.:.3.3.$.~ ) +.*.-.-.=.#.{ =.6.8.6.6.4.3.;.#.} P 9.9.",
"9.9.9.9.9.9.9.9.9.9.9.9.9.9.9.9.9.9.9.9.9.9.9.9.9.9.9.9.9.9.9.9.9.9.6 / ..O.+.*.-.2.5.H t a H H a t X.2.3.3.2.:.;.=.+...~ 6 9.9.",
"9.9.9.9.9.9.9.9.9.9.9.9.9.9.9.9.9.9.9.9.9.9.9.9.9.9.9.9.9.9.9.9.9.9.9.0 ~ ) [ } X.#.;.4.%.U v v U 2.4.:.-.$.$.#.+.X.} ~ 0 9.9.9.",
"9.9.9.9.9.9.9.9.9.9.9.9.9.9.9.9.9.9.9.9.9.9.9.9.9.9.9.9.9.9.9.9.9.9.9.9.7 0 I I W / X.-.3.6.8.8.4.2.$.X...} } { ` ) Q 0 2 9.9.9.",
"9.9.9.9.9.9.9.9.9.9.9.9.9.9.9.9.9.9.9.9.9.9.9.9.9.9.9.9.9.9.9.9.9.9.9.9.9.9.2 4 7 I ` +.=.;.:.:.;.$.../ W I W W I L 5 < 9.9.9.9.",
"9.9.9.9.9.9.9.9.9.9.9.9.9.9.9.9.9.9.9.9.9.9.9.9.9.9.9.9.9.9.9.9.9.9.9.9.9.9.9.3 2 0 ~ { X.+.+.+.+.X.{ Q 0 7 5 4 1 < 9.9.9.9.9.9.",
"9.9.9.9.9.9.9.9.9.9.9.9.9.9.9.9.9.9.9.9.9.9.9.9.9.9.9.9.9.9.9.9.9.9.9.9.9.9.9.9.9.3 8 I / _ ` [ ` _ / I 7 < < < 3 9.9.9.9.9.9.9.",
"9.9.9.9.9.9.9.9.9.9.9.9.9.9.9.9.9.9.9.9.9.9.9.9.9.9.9.9.9.9.9.9.9.9.9.9.9.9.9.9.9.9.9.5 8 L P I I P 0 4 < 2 9.9.9.9.9.9.9.9.9.9.",
"9.9.9.9.9.9.9.9.9.9.9.9.9.9.9.9.9.9.9.9.9.9.9.9.9.9.9.9.9.9.9.9.9.9.9.9.9.9.9.9.9.9.9.9.9.2 2 1 < < 2 3 9.9.9.9.9.9.9.9.9.9.9.9.",
"9.9.9.9.9.9.9.9.9.9.9.9.9.9.9.9.9.9.9.9.9.9.9.9.9.9.9.9.9.9.9.9.9.9.9.9.9.9.9.9.9.9.9.9.9.9.9.9.9.9.9.9.9.9.9.9.9.9.9.9.9.9.9.9.",
"9.9.9.9.9.9.9.9.9.9.9.9.9.9.9.9.9.9.9.9.9.9.9.9.9.9.9.9.9.9.9.9.9.9.9.9.9.9.9.9.9.9.9.9.9.9.9.9.9.9.9.9.9.9.9.9.9.9.9.9.9.9.9.9.",
"9.9.9.9.9.9.9.9.9.9.9.9.9.9.9.9.9.9.9.9.9.9.9.9.9.9.9.9.9.9.9.9.9.9.9.9.9.9.9.9.9.9.9.9.9.9.9.9.9.9.9.9.9.9.9.9.9.9.9.9.9.9.9.9.",
"9.9.9.9.9.9.9.9.9.9.9.9.9.9.9.9.9.9.9.9.9.9.9.9.9.9.9.9.9.9.9.9.9.9.9.9.9.9.9.9.9.9.9.9.9.9.9.9.9.9.9.9.9.9.9.9.9.9.9.9.9.9.9.9.",
"9.9.9.9.9.9.9.9.9.9.9.9.9.9.9.9.9.9.9.9.9.9.9.9.9.9.9.9.9.9.9.9.9.9.9.9.9.9.9.9.9.9.9.9.9.9.9.9.9.9.9.9.9.9.9.9.9.9.9.9.9.9.9.9.",
"9.9.9.9.9.9.9.9.9.9.9.9.9.9.9.9.9.9.9.9.9.9.9.9.9.9.9.9.9.9.9.9.9.9.9.9.9.9.9.9.9.9.9.9.9.9.9.9.9.9.9.9.9.9.9.9.9.9.9.9.9.9.9.9."
};
