/* XPM */
static char *_574843079556[] = {
/* columns rows colors chars-per-pixel */
"64 64 122 2 ",
"   c black",
".  c gray3",
"X  c #101010",
"o  c #181818",
"O  c #212118",
"+  c gray16",
"@  c #313121",
"#  c #393131",
"$  c #393939",
"%  c #5A3108",
"&  c #524218",
"*  c #5A4A21",
"=  c #635221",
"-  c #7B5A21",
";  c #6B6339",
":  c #4A4A42",
">  c #525242",
",  c gray32",
"<  c #5A5A52",
"1  c #5A5A5A",
"2  c #5A634A",
"3  c #6B6B4A",
"4  c #7B734A",
"5  c #63635A",
"6  c #6B6B5A",
"7  c #737352",
"8  c #7B7B5A",
"9  c #6B6B63",
"0  c #73736B",
"q  c #737B73",
"w  c #7B7B73",
"e  c #9C1800",
"r  c #8C4A08",
"t  c #944210",
"y  c #945A10",
"u  c #B55A18",
"i  c #946B18",
"p  c #B57B10",
"a  c #8C7B39",
"s  c #AD7321",
"d  c #AD7B31",
"f  c #CE6B18",
"g  c #846B42",
"h  c #B58410",
"j  c #BD8410",
"k  c #C68C18",
"l  c #DE8410",
"z  c #CE9410",
"x  c #F79410",
"c  c #EFAD18",
"v  c #E7B518",
"b  c #FFB518",
"n  c #DE8429",
"m  c #CE9C29",
"M  c #FFC618",
"N  c #FFD618",
"B  c #E7C621",
"V  c #FFC621",
"C  c #FFDE21",
"Z  c #FFD631",
"A  c #F7E721",
"S  c #FFE721",
"D  c #FFEF21",
"F  c #FFF721",
"G  c #FFFF21",
"H  c #A58C4A",
"J  c #AD9C5A",
"K  c #8C8C63",
"L  c #94946B",
"P  c #84847B",
"I  c #8C8C7B",
"U  c #8C947B",
"Y  c #BDB56B",
"T  c #DEB54A",
"R  c #DECE4A",
"E  c #FFDE6B",
"W  c #FFF76B",
"Q  c gray55",
"!  c #94948C",
"~  c #949C8C",
"^  c gray61",
"/  c #A59C8C",
"(  c #A5A584",
")  c #A5AD94",
"_  c #A5A59C",
"`  c #ADAD9C",
"'  c #ADB59C",
"]  c #B5B59C",
"[  c gray68",
"{  c #ADB5AD",
"}  c #B5B5A5",
"|  c #B5BDA5",
" . c #BDBDA5",
".. c gray71",
"X. c gray74",
"o. c #BDC6AD",
"O. c #C6CEB5",
"+. c #C6C6BD",
"@. c #C6CEBD",
"#. c #CED6BD",
"$. c #CECEC6",
"%. c #D6D6C6",
"&. c #DEDEC6",
"*. c #DED6CE",
"=. c #D6DECE",
"-. c #DEE7CE",
";. c #E7E7CE",
":. c #E7EFCE",
">. c #EFF7D6",
",. c #F7F7DE",
"<. c #DEDEE7",
"1. c #E7E7E7",
"2. c #EFEFEF",
"3. c #F7EFEF",
"4. c #F7F7E7",
"5. c #FFFFE7",
"6. c #FFFFEF",
"7. c #FFF7F7",
"8. c #FFFFF7",
"9. c #F7FFFF",
"0. c white",
"q. c None",
/* pixels */
"q.q.q.q.q.q.q.q.q.q.q.q.q.q.q.q.q.q.q.q.q.q.q.q.q.q.q.q.q.q.q.q.q.q.q.q.q.q.q.q.q.q.q.q.q.q.q.q.q.q.q.q.q.q.q.q.q.q.q.q.q.q.q.q.",
"q.q.q.q.q.q.q.q.q.q.q.q.q.q.q.q.q.q.q.q.q.q.q.q.q.q.q.q.q.q.q.q.q.q.q.q.q.q.q.q.q.q.q.q.q.q.q.q.q.q.q.q.q.q.q.q.q.q.q.q.q.q.q.q.",
"q.q.q.q.q.q.q.q.q.q.q.q.q.q.q.q.q.q.q.q.q.q.q.q.q.q.q.q.q.q.q.q.q.q.q.q.q.q.q.q.q.q.q.q.q.q.q.q.q.q.q.q.q.q.q.q.q.q.q.q.q.q.q.q.",
"q.q.q.q.q.q.q.q.q.q.q.q.q.q.q.q.q.q.q.q.q.q.q.q.q.q.q.q.q.q.q.q.q.q.q.q.q.q.q.q.q.q.q.q.q.q.q.q.q.q.q.q.q.q.q.q.q.q.q.q.q.q.q.q.",
"q.q.q.q.q.q.q.q.q.q.q.q.q.q.q.q.q.q.q.q.q.q.q.q.q.q.q.q.q.q.q.q.q.q.q.q.q.q.q.q.q.q.q.q.q.q.q.q.q.q.q.q.q.q.q.q.q.q.q.q.q.q.q.q.",
"q.q.q.q.q.q.q.q.q.q.q.q.q.q.q.q.q.q.q.q.q.q.q.q.q.q.q.q.q.q.q.q.q.q.q.q.q.q.q.q.q.q.q.q.q.q.q.q.q.q.q.q.q.q.q.q.q.q.q.q.q.q.q.q.",
"q.q.q.q.q.q.q.q.q.q.q.q.3 q.q.q.q.q.q.q.q.q.q.q.q.q.q.q.q.q.q.q.q.q.q.q.q.q.q.q.q.q.q.q.q.q.q.q.q.q.q.q.q.q.q.q.q.q.q.q.q.q.q.q.",
"q.q.q.q.q.q.q.q.q.q.q.q.q q.q.q.q.q.q.q.q.q.q.q.q.q.q.q.q.q.q.q.q.q.q.q.q.q.q.q.q.q.q.q.q.q.q.q.q.q.q.q.q.q.q.q.q.q.q.q.q.q.q.q.",
"q.q.q.q.q.q.q.q.q.q.q.q.P Q q.q.q.q.q.q.q.q.q.q.q.q.q.q.q.q.q.q.q.q.q.q.q.q.q.q.q.q.q.q.q.q.q.q.q.q.q.q.q.q.q.q.q.q.q.q.q.q.q.q.",
"q.q.q.q.q.q.q.q.q.q.q.q.< 0 O q.q.q.q.q.q.q.q.q.q.q.q.q.q.q.q.q.q.q.q.q.q.q.q.q.q.q.q.q.q.q.q.q.q.q.q.q.q.q.q.q.q.q.q.q.q.q.q.q.",
"q.q.q.q.q.q.q.q.q.q.q.q.$ $ X X I q.q.q.q.q.q.q.q.q.q.q.q.q.q.q.q.q.q.q.& q.O q.q.= & & q.q.q.q.q.q.q.q.q.q.q.q.q.q.q.q.q.q.q.q.",
"q.q.q.q.q.q.q.q.q.q.q.q., # 1 O [ +.~ > q.q.q.q.i y q.q.q.q.q.q.q.q.q.q.q.& @ @ * & q.q.q.q.q.q.q.q.q.q.q.q.q.q.q.q.q.q.q.q.q.q.",
"q.q.q.q.q.q.q.q.q.q.q.q.0 9 { ! _ +.{ .     ! [ g % q.q.q.q.q.q.q.q.q.q.q.a - - = q.q.q.q.q.q.q.q.q.q.q.q.q.q.q.q.q.q.q.q.q.q.q.",
"q.q.q.q.q.q.q.q.q.q.q.q.9 ! ! X.+ , Q X     ! [ g % q.q.q.q.q.q.q.q.q.m D G G G D V q.q.q.q.q.q.q.q.q.q.q.q.q.q.q.q.q.q.q.q.q.q.",
"q.q.q.q.q.q.q.q.q.q.q.q.< 0 + P O   X ^ Q 0 : # % & q.q.q.q.q.q.q.q.m F G G G G G S M q.q.q.q.q.q.q.q.q.q.q.q.q.q.q.q.q.q.q.q.q.",
"q.q.q.q.q.q.q.q.q.q.q.q.> # O . 1 O o { X.[ X   % * q.q.q.q.q.q.q.q.C F G G G G F S N x q.q.q.q.q.q.q.q.q.q.q.q.q.q.q.q.q.q.q.q.",
"q.q.q.q.q.q.q.q.q.q.q.q.5 $ 0 O _ X.P q ! Q O o % * q.q.q.q.q.q.q.z % * a R W G A i i j g 1 q.q.q.q.q.q.q.q.q.q.q.q.q.q.q.q.q.q.",
"q.q.q.q.q.q.q.q.q.q.q.q.9 q [ ^ ! +.{ X   . ^ _ - & q.q.q.q.q.q.O   0 ! : X h m > + # . : 5 : q.q.q.q.q.q.q.q.q.q.q.q.q.q.q.q.q.",
"q.q.q.q.q.q.q.q.q.q.q.q.6 Q P ..# , P o   X ^ _ - * q.q.q.q.q.q.  P 0.0.7.0     1 +.=...o , : q.q.q.q.q.q.q.q.q.q.q.q.q.q.q.q.q.",
"q.q.q.q.q.q.q.q.q.q.q.q.q., + 1 +   X ^ Q 9 $ # % = q.q.q.q.q.q.O 9.0.0.0.0.! ..2.2.<.<.0 O $ > q.q.q.q.q.q.q.q.q.q.q.q.q.q.q.q.",
"q.q.q.q.q.q.q.q.q.q.q.q.q.+ +   0 $ + { X._ .   % = q.q.q.q.q.q.+ 9.0.0.$.Q 9.2._ X.<.<.Q . # $ q.q.q.q.q.q.q.q.q.q.q.q.q.q.q.q.",
"q.q.q.q.q.q.q.q.q.q.q.q.q.> Q $ ^ +.! 5 0 0 + # % = q.q.q.q.q.q.o =.0.0._ 3 3.2.O Q <.<.0 . o q.q.q.q.q.q.q.q.q.q.q.q.q.q.q.q.q.",
"q.q.q.q.q.q.q.q.q.q.q.q.q.q.^ ..P ..{ X   X _ _ = = q.q.q.q.q.m = 1 <.0.7.0 X , $.<.2...# > < q.q.q.q.q.q.q.q.q.q.q.q.q.q.q.q.q.",
"q.q.q.q.q.q.q.q.q.q.q.q.q.q.q.[ # O 1 + o O ^ ! % ; q.q.q.q.q.m N a @ : . * B % # 0 q + % L q.q.q.q.q.q.A q.q.B S N q.q.q.q.q.q.",
"q.q.q.q.q.q.q.q.q.q.q.q.q.q.q.q.$   X [ { Q O   % = q.q.q.q.q.d M S A m h M N x - = i v x ( q.q.q.q.q.q.b v A c p i q.q.q.q.q.q.",
"q.q.q.q.q.q.q.q.q.q.q.q.q.q.q.q.q.q.$ { ..!     % q.q.q.q.q.q.q.l b M b b l u y M N M b f o.q.q.q.q.q.c b z b z B F Z q.q.q.q.q.",
"q.q.q.q.q.q.q.q.q.q.q.q.q.q.q.q.q.q.q.q.q.q.q.q.% q.q.q.q.q.q.-.H f l u t e e e u l l u - 3.q.q.q.R b x f z C V j s s q.q.q.q.q.",
"q.q.q.q.q.q.q.q.q.q.q.q.q.q.q.q.q.q.q.q.q.q.q.q.% q.q.q.q.q.3.0.&.y r % r e e e t r r % 1.*.d B G D M l f M N B A F G m q.q.q.q.",
"q.q.q.q.q.q.q.q.q.q.q.q.q.q.q.q.q.q.q.q.q.q.q.q.% q.q.q.q.o.0.6.T k j y r y e % % & @ : +.f l D C N b x x b b c k j j q.q.q.q.q.",
"q.q.q.q.q.q.q.q.q.q.q.q.q.q.q.q.q.q.q.q.q.q.q.q.% q.q.q.q.Y T N c j z k p i r i j + + O * f j M M b x u s y i q.q.q.q.q.q.q.q.q.",
"q.q.q.q.q.q.q.q.q.q.q.q.q.q.q.q.q.q.q.q.q.q.q.q.% i s s z M M b l k k z z z z k k & o X r u p x x u - q.q.q.q.q.q.q.q.q.q.q.q.q.",
"q.q.q.q.q.q.q.q.q.q.q.q.q.q.q.q.q.q.q.q.q.q.q.B % f B b x x l u y B k k k k k k j p = r y r r y - q.q.q.q.q.q.q.q.q.q.q.q.q.q.q.",
"q.q.q.q.q.q.q.q.q.q.q.q.q.q.q.q.q.q.q.q.q.q.m C p B v u u r r % z F z j j j j j h h p r * 4 / Q q.q.q.q.q.q.q.q.q.q.q.q.q.q.q.q.",
"q.q.q.q.q.q.q.q.q.q.q.q.q.q.q.q.q.q.q.q.q.q.m V N V r % % % - s D G F v z B B z p z p i i J { U q.q.q.q.q.q.q.q.q.q.q.q.q.q.q.q.",
"q.q.q.q.q.q.q.q.q.q.q.q.q.q.q.q.q.q.q.q.q.q.z f p r % = / { a p S D F F F F F A A C z p i a [ o.q.q.q.q.q.q.q.q.q.q.q.q.q.q.q.q.",
"q.q.q.q.q.q.q.q.q.q.q.q.q.q.q.q.q.q.q.q.q.q.q.j u = q.q.I _ ( Y Z C S S S S S C C N M m T L [ ' q.q.q.q.q.q.q.q.q.q.q.q.q.q.q.q.",
"q.q.q.q.q.q.q.q.q.q.q.q.q.q.q.q.q.q.q.q.q.q.q.- - q.q.q./ ` 2.0.0.>.:.E Z Z Z E E E #.] ' o.7.0. .q.q.q.q.q.q.q.q.q.q.q.q.q.q.q.",
"q.q.q.q.q.q.q.q.q.q.q.q.q.q.q.q.q.q.q.q.q.q.q.q.q.q.q./ ` 2.0.0.0.0.0.0.0.0.0.0.0.0.3.O.o.2.0.0.6.( q.q.q.q.q.q.q.q.q.q.q.q.q.q.",
"q.q.q.q.q.q.q.q.q.q.q.q.q.q.q.q.q.q.q.q.q.q.q.q.q.q.U ) %.0.0.0.0.0.0.0.0.0.0.0.0.0.0.0.0.0.0.0.0.:.q.q.q.q.q.q.q.q.q.q.q.q.q.q.",
"q.q.q.q.q.q.q.q.q.q.q.q.q.q.q.q.q.q.q.q.q.q.q.q.q.K / } 7.0.0.0.0.0.0.0.0.0.0.0.0.0.0.0.0.0.0.0.0.6.) q.q.q.q.q.q.q.q.q.q.q.q.q.",
"q.q.q.q.q.q.q.q.q.q.q.q.q.q.q.q.q.q.q.q.q.q.q.q.q.U ' 7.0.0.0.0.0.0.0.0.0.0.0.0.0.0.0.0.0.0.0.0.0.8.&.q.q.q.q.q.q.q.q.q.q.q.q.q.",
"q.q.q.q.q.q.q.q.q.q.q.q.q.q.q.q.q.q.q.q.q.q.q.q./ -.0.0.0.0.0.0.0.0.0.0.0.0.0.0.0.0.0.0.0.0.0.0.0.0.,.L q.q.q.q.q.q.q.q.q.q.q.q.",
"q.q.q.q.q.q.q.q.q.q.q.q.q.q.q.q.q.q.q.q.q.q.q.q.&.0.0.0.0.0.0.0.0.0.0.0.0.0.0.0.0.0.0.0.0.0.0.0.0.0.4.) q.q.q.q.q.q.q.q.q.q.q.q.",
"q.q.q.q.q.q.q.q.q.q.q.q.q.q.q.q.q.q.q.q.q.q.q.q.6.0.0.0.0.0.0.0.0.0.<.7.0.0.0.0.3.0.0.0.0.0.0.0.0.0.5.o.q.q.q.q.q.q.q.q.q.q.q.q.",
"q.q.q.q.q.q.q.q.q.q.q.q.q.q.q.q.q.q.q.q.q.q.q.q.6.0.0.0.0.0.0.0.0.<.$ *.0.0.0.[ ! 0.0.0.0.0.0.0.0.0.5.@.q.q.q.q.q.q.q.q.q.q.q.q.",
"q.q.q.q.q.q.q.q.q.q.q.q.q.q.q.q.q.q.q.q.q.q.q.q.6.0.0.0.0.0.0.0.0.2.. <.0.0.0., 0 0.0.0.0.0.0.0.0.0.5.@.q.q.q.q.q.q.q.q.q.q.q.q.",
"q.q.q.q.q.q.q.q.q.q.q.q.q.q.q.q.q.q.q.q.q.q.q.( 4.0.0.0.0.0.0.0.0.0.X.0.0.0.0...<.0.0.0.0.0.0.0.0.8.>.o.8 q.q.q.q.q.q.q.q.q.q.q.",
"q.q.q.q.q.q.q.q.q.q.q.q.q.q.q.q.q.q.q.q.q.q.q.U :.6.0.0.0.0.0.0.0.8.0.0.0.0.0.0.0.0.0.0.0.0.0.0.0.5.-.] 7 q.q.q.q.q.q.q.q.q.q.q.",
"q.q.q.q.q.q.q.q.q.q.q.q.q.q.q.q.q.q.q.q.q.q.q.q.#.,.6.8.0.0.0.5.>.,.4.5.5.6.5.6.5.5.6.0.0.0.0.8.5.>.@.) q.q.q.q.q.q.q.q.q.q.q.q.",
"q.q.q.q.q.q.q.q.q.q.q.q.q.q.q.q.q.q.q.q.q.q.q.q.' %.:.,.5.5.5.>.O./ o.&.;.:.;.-.#.` >.6.8.6.5.4.:.#.} I q.q.q.q.q.q.q.q.q.q.q.q.",
"q.q.q.q.q.q.q.q.q.q.q.q.q.q.q.q.q.q.q.q.q.q.q.q.P | @.%.&.;.:.>.6.*.u u H H H u u ;.5.5.,.>.;.&.@. .~ 6 q.q.q.q.q.q.q.q.q.q.q.q.",
"q.q.q.q.q.q.q.q.q.q.q.q.q.q.q.q.q.q.q.q.q.q.q.q.q.I `  .o.o.O.#.&.4.6. .n n n o.8.6.,.;.%.#.O. .] ~ 0 3 q.q.q.q.q.q.q.q.q.q.q.q.",
"q.q.q.q.q.q.q.q.q.q.q.q.q.q.q.q.q.q.q.q.q.q.q.q.q.q.w U ~ / / / ' #.,.6.8.0.8.6.,.%.o. .] ` ) / U 9 2 q.q.q.q.q.q.q.q.q.q.q.q.q.",
"q.q.q.q.q.q.q.q.q.q.q.q.q.q.q.q.q.q.q.q.q.q.q.q.q.q.q.3 6 9 9 P / o.&.>.,.,.>.:.%. ./ U I I P q 1 2 q.q.q.q.q.q.q.q.q.q.q.q.q.q.",
"q.q.q.q.q.q.q.q.q.q.q.q.q.q.q.q.q.q.q.q.q.q.q.q.q.q.q.q.q.2 < 9 U ] O.#.#.#.#.O.o.` U 0 1 < < 2 q.q.q.q.q.q.q.q.q.q.q.q.q.q.q.q.",
"q.q.q.q.q.q.q.q.q.q.q.q.q.q.q.q.q.q.q.q.q.q.q.q.q.q.q.q.q.q.q.2 0 U ) ' ] ] ' ` / U w < < 2 q.q.q.q.q.q.q.q.q.q.q.q.q.q.q.q.q.q.",
"q.q.q.q.q.q.q.q.q.q.q.q.q.q.q.q.q.q.q.q.q.q.q.q.q.q.q.q.q.q.q.q.q.6 0 P U U I I q 5 < 2 q.q.q.q.q.q.q.q.q.q.q.q.q.q.q.q.q.q.q.q.",
"q.q.q.q.q.q.q.q.q.q.q.q.q.q.q.q.q.q.q.q.q.q.q.q.q.q.q.q.q.q.q.q.q.q.q.2 2 1 < < 2 q.q.q.q.q.q.q.q.q.q.q.q.q.q.q.q.q.q.q.q.q.q.q.",
"q.q.q.q.q.q.q.q.q.q.q.q.q.q.q.q.q.q.q.q.q.q.q.q.q.q.q.q.q.q.q.q.q.q.q.q.q.q.q.q.q.q.q.q.q.q.q.q.q.q.q.q.q.q.q.q.q.q.q.q.q.q.q.q.",
"q.q.q.q.q.q.q.q.q.q.q.q.q.q.q.q.q.q.q.q.q.q.q.q.q.q.q.q.q.q.q.q.q.q.q.q.q.q.q.q.q.q.q.q.q.q.q.q.q.q.q.q.q.q.q.q.q.q.q.q.q.q.q.q.",
"q.q.q.q.q.q.q.q.q.q.q.q.q.q.q.q.q.q.q.q.q.q.q.q.q.q.q.q.q.q.q.q.q.q.q.q.q.q.q.q.q.q.q.q.q.q.q.q.q.q.q.q.q.q.q.q.q.q.q.q.q.q.q.q.",
"q.q.q.q.q.q.q.q.q.q.q.q.q.q.q.q.q.q.q.q.q.q.q.q.q.q.q.q.q.q.q.q.q.q.q.q.q.q.q.q.q.q.q.q.q.q.q.q.q.q.q.q.q.q.q.q.q.q.q.q.q.q.q.q.",
"q.q.q.q.q.q.q.q.q.q.q.q.q.q.q.q.q.q.q.q.q.q.q.q.q.q.q.q.q.q.q.q.q.q.q.q.q.q.q.q.q.q.q.q.q.q.q.q.q.q.q.q.q.q.q.q.q.q.q.q.q.q.q.q.",
"q.q.q.q.q.q.q.q.q.q.q.q.q.q.q.q.q.q.q.q.q.q.q.q.q.q.q.q.q.q.q.q.q.q.q.q.q.q.q.q.q.q.q.q.q.q.q.q.q.q.q.q.q.q.q.q.q.q.q.q.q.q.q.q."
};
