/* XPM */
static char *_574843071675[] = {
/* columns rows colors chars-per-pixel */
"64 64 122 2 ",
"   c black",
".  c gray3",
"X  c #101010",
"o  c #181818",
"O  c #212118",
"+  c #292118",
"@  c gray16",
"#  c #313121",
"$  c #393131",
"%  c #393939",
"&  c #5A3108",
"*  c #524218",
"=  c #5A4A21",
"-  c #635221",
";  c #7B5A21",
":  c #6B6339",
">  c #4A4A42",
",  c #525242",
"<  c gray32",
"1  c #5A5A52",
"2  c #5A5A5A",
"3  c #5A634A",
"4  c #6B6B4A",
"5  c #63635A",
"6  c #6B6B5A",
"7  c #6B6B63",
"8  c #73736B",
"9  c #737B73",
"0  c #7B7B73",
"q  c #9C1800",
"w  c #8C4A08",
"e  c #944210",
"r  c #945A10",
"t  c #B55A18",
"y  c #946B18",
"u  c #B57B10",
"i  c #8C7B39",
"p  c #AD7321",
"a  c #AD7B31",
"s  c #CE6B18",
"d  c #846B42",
"f  c #B58410",
"g  c #BD8410",
"h  c #C68C18",
"j  c #DE8410",
"k  c #CE9410",
"l  c #F79410",
"z  c #EFAD18",
"x  c #E7B518",
"c  c #FFB518",
"v  c #DE8429",
"b  c #CE9C29",
"n  c #FFC618",
"m  c #FFD618",
"M  c #E7C621",
"N  c #FFC621",
"B  c #FFDE21",
"V  c #FFD631",
"C  c #F7E721",
"Z  c #FFE721",
"A  c #FFEF21",
"S  c #FFF721",
"D  c #FFFF21",
"F  c #84845A",
"G  c #A58C4A",
"H  c #AD9C5A",
"J  c #8C8C63",
"K  c #94946B",
"L  c #84847B",
"P  c #8C8C7B",
"I  c #8C947B",
"U  c #BDB56B",
"Y  c #DEB54A",
"T  c #DECE4A",
"R  c #FFDE6B",
"E  c #FFF76B",
"W  c gray55",
"Q  c #94948C",
"!  c #949C8C",
"~  c gray61",
"^  c #A59C8C",
"/  c #A5A584",
"(  c #A5AD94",
")  c #A5A59C",
"_  c #ADAD9C",
"`  c #ADB59C",
"'  c #B5B59C",
"]  c gray68",
"[  c #ADB5AD",
"{  c #B5B5A5",
"}  c #B5BDA5",
"|  c #BDBDA5",
" . c #B5BDAD",
".. c gray71",
"X. c gray74",
"o. c #BDC6AD",
"O. c #C6CEB5",
"+. c #C6CEBD",
"@. c #CED6BD",
"#. c #CECEC6",
"$. c #D6D6C6",
"%. c #DEDEC6",
"&. c #DED6CE",
"*. c #D6DECE",
"=. c #DEE7CE",
"-. c #E7E7CE",
";. c #E7EFCE",
":. c #EFF7D6",
">. c #F7F7DE",
",. c #DEDEE7",
"<. c #E7E7E7",
"1. c #EFEFEF",
"2. c #F7EFEF",
"3. c #F7F7E7",
"4. c #FFFFE7",
"5. c #F7F7EF",
"6. c #FFFFEF",
"7. c #FFF7F7",
"8. c #FFFFF7",
"9. c #F7FFFF",
"0. c white",
"q. c None",
/* pixels */
"q.q.q.q.q.q.q.q.q.q.q.q.q.q.q.q.q.q.q.q.q.q.q.q.q.q.q.q.q.q.q.q.q.q.q.q.q.q.q.q.q.q.q.q.q.q.q.q.q.q.q.q.q.q.q.q.q.q.q.q.q.q.q.q.",
"q.q.q.q.q.q.q.q.q.q.q.q.q.q.q.q.q.q.q.q.q.q.q.q.q.q.q.q.q.q.q.q.q.q.q.q.q.q.q.q.q.q.q.q.q.q.q.q.q.q.q.q.q.q.q.q.q.q.q.q.q.q.q.q.",
"q.q.q.q.q.q.q.q.q.q.q.q.q.q.q.q.q.q.q.q.q.q.q.q.q.q.q.q.q.q.q.q.q.q.q.q.q.q.q.q.q.q.q.q.q.q.q.q.q.q.q.q.q.q.q.q.q.q.q.q.q.q.q.q.",
"q.q.q.q.q.q.q.q.q.q.q.q.q.q.q.q.q.q.q.q.q.q.q.q.q.q.q.q.q.q.q.q.q.q.q.q.q.q.q.q.q.q.q.q.q.q.q.q.q.q.q.q.q.q.q.q.q.q.q.q.q.q.q.q.",
"q.q.q.q.q.q.q.q.q.q.q.q.q.q.q.q.q.q.q.q.q.q.q.q.q.q.q.q.q.q.q.q.q.q.q.q.q.q.q.q.q.q.q.q.q.q.q.q.q.q.q.q.q.q.q.q.q.q.q.q.q.q.q.q.",
"q.q.q.q.q.q.q.q.q.q.q.q.q.q.q.q.q.q.q.q.q.q.q.q.q.q.q.q.q.q.q.q.q.q.q.q.q.q.q.q.q.q.q.q.q.q.q.q.q.q.q.q.q.q.q.q.q.q.q.q.q.q.q.q.",
"q.q.q.q.q.q.q.q.q.q.q.q.q.q.q.q.q.q.q.q.q.q.q.q.q.q.q.q.q.q.q.q.q.q.q.q.q.q.q.q.q.q.q.q.q.q.q.q.q.q.q.q.q.q.q.q.q.q.q.q.q.q.q.q.",
"q.q.q.q.q.q.q.q.$ q.q.q.q.q.q.q.q.q.q.q.q.q.q.q.q.q.q.q.q.q.q.q.q.q.q.q.q.q.q.q.q.q.q.q.q.q.q.q.q.q.q.q.q.q.q.q.q.q.q.q.q.q.q.q.",
"q.q.q.q.q.q.q.q.$ q.q.q.q.q.q.q.q.q.q.q.q.q.q.q.q.q.q.q.q.q.q.q.q.q.q.q.q.q.q.q.q.q.q.q.q.q.q.q.q.q.q.q.q.q.q.q.q.q.q.q.q.q.q.q.",
"q.q.q.q.q.q.q.q.> q.q.q.q.q.q.q.q.q.q.q.q.q.q.q.q.q.q.q.q.q.q.q.q.q.q.q.q.q.q.q.q.q.q.q.q.q.q.q.q.q.q.q.q.q.q.q.q.q.q.q.q.q.q.q.",
"q.q.q.q.q.q.q.q., , q.q.q.q.q.q.q.q.q.q.q.q.q.q.q.q.q.q.q.q.q.q.* - + * q.q.* = q.q.q.q.q.q.q.q.q.q.q.q.q.q.q.q.q.q.q.q.q.q.q.q.",
"q.q.q.q.q.q.q.q.q.< q.q.q.q.q.p q.q.q.q.q.q.q.q.q.q.q.q.q.q.q.q.q.= & X q.+ q.q.q.q.q.q.q.q.q.q.q.q.q.q.q.q.q.q.q.q.q.q.q.q.q.q.",
"q.q.q.q.q.q.q.q.q.5 L O # P I w ; q.q.q.q.q.q.q.q.q.q.q.q.q.q.q.q.q.; ; y q.q.q.q.q.q.q.q.q.q.q.q.q.q.q.q.q.q.q.q.q.q.q.q.q.q.q.",
"q.q.q.q.q.q.q.q.q.2 8 o   W X.; = q.q.q.q.q.q.q.q.q.q.q.q.q.q.q.q.C D D D S N b q.q.q.q.q.q.q.q.q.q.q.q.q.q.q.q.q.q.q.q.q.q.q.q.",
"q.q.q.q.q.q.q.q.q.3 O % % 8 Q - & q.q.q.q.q.q.q.q.q.q.q.q.q.q.q.A D D D D D A m b q.q.q.q.q.q.q.q.q.q.q.q.q.q.q.q.q.q.q.q.q.q.q.",
"q.q.q.q.q.q.q.q.q.q.O > [ W   X & q.q.q.q.q.q.q.q.q.q.q.q.q.q.m A D D D D D A m c d 2 q.q.q.q.q.q.q.q.q.q.q.q.q.q.q.q.q.q.q.q.q.",
"q.q.q.q.q.q.q.q.q.q.> 2 Q ) o   & : q.q.q.q.q.q.q.q.q.q.q.q.- - a M D E T H # + u 6 5 < q.q.q.q.q.q.q.q.q.q.q.q.q.q.q.q.q.q.q.q.",
"q.q.q.q.q.q.q.q.q.q.1 W @ O 5 W ; - q.q.q.q.q.q.q.q.q.q.q.q.  > $ > y f X < W L X 7 ] < , q.q.q.q.q.q.q.q.q.q.q.q.q.q.q.q.q.q.q.",
"q.q.q.q.q.q.q.q.q.q.4 2 $   < X.F & q.q.q.q.q.q.q.q.q.q.q.  X.9.1.Q . . 5 1.9.9.~ o % > $ q.q.q.q.q.q.q.q.q.q.q.q.q.q.q.q.q.q.q.",
"q.q.q.q.q.q.q.q.q.q.q.@ $ 5 5 L , & q.q.q.q.q.q.q.q.q.q.q.> 9.9.9.9.,.X.9.9.9.9.9.$ O % @ q.q.q.q.q.q.q.q.q.q.q.q.q.q.q.q.q.q.q.",
"q.q.q.q.q.q.q.q.q.q.q.% @ ~ ] o   & q.q.q.q.q.q.q.q.q.q.q.< 9.9.9.Q ..9.&.$ 1.9.9.> X @ o q.q.q.q.q.q.q.q.q.q.q.q.q.q.q.q.q.q.q.",
"q.q.q.q.q.q.q.q.q.q.q., 9 7 W $ o & - q.q.q.q.q.q.q.q.q.q.o 1.9.9.5 L ,.1.> 1.9.9.. + > # q.q.q.q.q.q.q.q.q.q.q.q.q.q.q.q.q.q.q.",
"q.q.q.q.q.q.q.q.q.q.q.q.9 >   > [ F & q.q.q.q.q.q.q.q.q.q.O ) 1.9.,.>   8 1.7.1.2 + a *.q.q.q.q.q.q.q.q.q.q.q.C T q.q.q.q.q.q.q.",
"q.q.q.q.q.q.q.q.q.q.q.q.% % o @ [ I & q.q.q.q.q.q.q.q.q.q.p : % 7 @ ; M + . % $ = k v =.q.q.q.q.q.q.x M q.M n l a q.q.q.q.q.q.q.",
"q.q.q.q.q.q.q.q.q.q.q.q.q.o W ~ % # & q.q.q.q.q.q.q.q.q.q.z B k i y n N k f b C B c v $.q.q.q.q.q.q.l l A l r h M H q.q.q.q.q.q.",
"q.q.q.q.q.q.q.q.q.q.q.q.q.q.L ] %   & ; q.q.q.q.q.q.q.q.q.p z n n n t t u c n c l s / o.q.q.q.q.q.x c j m M Z n z g q.q.q.q.q.q.",
"q.q.q.q.q.q.q.q.q.q.q.q.q.q.q.q.q.> = - q.q.q.q.q.q.q.q.q.q.t j j e q q q q s s t ; 7.#.q.q.q.T B l t u m B j f b T q.q.q.q.q.q.",
"q.q.q.q.q.q.q.q.q.q.q.q.q.q.q.q.q.q.q.w q.q.q.q.q.q.q.q.q.O./ w w w q q q e & & & ` <.,.| T S A B c j z n m A m m N q.q.q.q.q.q.",
"q.q.q.q.q.q.q.q.q.q.q.q.q.q.q.q.q.q.q.& q.q.q.q.q.q.q.q.q.0.2.G u r w q q & & @ @ 8 i v x Z B m n l l l l j a q.q.q.q.q.q.q.q.q.",
"q.q.q.q.q.q.q.q.q.q.q.q.q.q.q.q.q.q.q.& ; q.q.q.q.q.q.q.U E b s h k f y r p - O O O t s k n n c l t ; ; q.q.q.q.q.q.q.q.q.q.q.q.",
"q.q.q.q.q.q.q.q.q.q.q.q.q.q.q.q.q.q.q.- ; q.q.q.q.q.T S S Z k t h h h k k k f + . - t t j c l s r q.q.q.q.q.q.q.q.q.q.q.q.q.q.q.",
"q.q.q.q.q.q.q.q.q.q.q.q.q.q.q.q.q.q.q.q.w M C S C A Z m n c j r g h h h h h h h g u r w t r d q.q.q.q.q.q.q.q.q.q.q.q.q.q.q.q.q.",
"q.q.q.q.q.q.q.q.q.q.q.q.q.q.q.q.q.q.q.M u x D m n c c l j s w u f g g g g g g g f u & & K _ ~ q.q.q.q.q.q.q.q.q.q.q.q.q.q.q.q.q.",
"q.q.q.q.q.q.q.q.q.q.q.q.q.q.q.q.q.q.q.B B V g t j j s t w ; f C k u h C k k C k f f k u H ,...q.q.q.q.q.q.q.q.q.q.q.q.q.q.q.q.q.",
"q.q.q.q.q.q.q.q.q.q.q.q.q.q.q.q.q.q.q.g g r w w r w - : ~ K k B A C S S S S S S C M u y H 0.2.q.q.q.q.q.q.q.q.q.q.q.q.q.q.q.q.q.",
"q.q.q.q.q.q.q.q.q.q.q.q.q.q.q.q.q.q.q.a t r & - q.q.q.q._ $.;.R V B Z Z Z Z Z B u p y y @.0.*.q.q.q.q.q.q.q.q.q.q.q.q.q.q.q.q.q.",
"q.q.q.q.q.q.q.q.q.q.q.q.q.q.q.q.q.q.q.q.y r q.q.q.q.q._ 7.0.0.0.6.;.R R V V V R G H ( 1.0.0.2.| q.q.q.q.q.q.q.q.q.q.q.q.q.q.q.q.",
"q.q.q.q.q.q.q.q.q.q.q.q.q.q.q.q.q.q.q.q.q.q.q.q.q.q. .7.0.0.0.0.0.0.0.0.0.0.0.0.*.O.*.0.0.0.0.6.( q.q.q.q.q.q.q.q.q.q.q.q.q.q.q.",
"q.q.q.q.q.q.q.q.q.q.q.q.q.q.q.q.q.q.q.q.q.q.q.q.q. .0.0.0.0.0.0.0.0.0.0.0.0.0.0.0.0.0.0.0.0.0.0.:.q.q.q.q.q.q.q.q.q.q.q.q.q.q.q.",
"q.q.q.q.q.q.q.q.q.q.q.q.q.q.q.q.q.q.q.q.q.q.q.q.^ 5.0.0.0.0.0.0.0.0.0.0.0.0.0.0.0.0.0.0.0.0.0.0.6.` q.q.q.q.q.q.q.q.q.q.q.q.q.q.",
"q.q.q.q.q.q.q.q.q.q.q.q.q.q.q.q.q.q.q.q.q.q.q.q.5.0.0.0.0.0.0.0.0.0.0.0.0.0.0.0.0.0.0.0.0.0.0.0.8.%.q.q.q.q.q.q.q.q.q.q.q.q.q.q.",
"q.q.q.q.q.q.q.q.q.q.q.q.q.q.q.q.q.q.q.q.q.q.q.q.0.0.0.0.0.0.0.0.0.0.0.0.0.0.0.0.0.0.0.0.0.0.0.0.0.>.K q.q.q.q.q.q.q.q.q.q.q.q.q.",
"q.q.q.q.q.q.q.q.q.q.q.q.q.q.q.q.q.q.q.q.q.q.q.%.0.0.0.0.0.0.0.0.0.0.0.0.0.0.0.0.0.0.0.0.0.0.0.0.0.3.( q.q.q.q.q.q.q.q.q.q.q.q.q.",
"q.q.q.q.q.q.q.q.q.q.q.q.q.q.q.q.q.q.q.q.q.q.q.6.0.0.0.0.0.0.0.0.5.#.0.0.0.0.0.0.0.0.0.0.0.0.0.0.0.4.o.q.q.q.q.q.q.q.q.q.q.q.q.q.",
"q.q.q.q.q.q.q.q.q.q.q.q.q.q.q.q.q.q.q.q.q.q.q.6.0.0.0.0.0.0.0.0.[ 2 0.0.0.7.2 X.0.0.0.0.0.0.0.0.0.4.+.q.q.q.q.q.q.q.q.q.q.q.q.q.",
"q.q.q.q.q.q.q.q.q.q.q.q.q.q.q.q.q.q.q.q.q.q.q.3.0.0.0.0.0.0.0.0.] $ 0.0.0.2.X ..0.0.0.0.0.0.0.0.0.4.+.q.q.q.q.q.q.q.q.q.q.q.q.q.",
"q.q.q.q.q.q.q.q.q.q.q.q.q.q.q.q.q.q.q.q.q.q./ >.0.0.0.0.0.0.0.0.9.&.0.0.0.0.] 2.0.0.0.0.0.0.0.0.8.:.o.q.q.q.q.q.q.q.q.q.q.q.q.q.",
"q.q.q.q.q.q.q.q.q.q.q.q.q.q.q.q.q.q.q.q.q.q.I ;.6.0.0.0.0.0.0.8.8.0.0.0.0.0.0.0.0.0.0.0.0.0.0.0.4.=.} q.q.q.q.q.q.q.q.q.q.q.q.q.",
"q.q.q.q.q.q.q.q.q.q.q.q.q.q.q.q.q.q.q.q.q.q.q.+.:.4.8.0.0.0.3.;.:.4.4.4.6.6.4.4.6.8.0.0.0.0.8.6.:.@.( q.q.q.q.q.q.q.q.q.q.q.q.q.",
"q.q.q.q.q.q.q.q.q.q.q.q.q.q.q.q.q.q.q.q.q.q.q._ @.-.>.3.4.4.:.} ^ +.%.-.;.-.%.O.o.3.8.8.8.4.4.:.$.} P q.q.q.q.q.q.q.q.q.q.q.q.q.",
"q.q.q.q.q.q.q.q.q.q.q.q.q.q.q.q.q.q.q.q.q.q.q.J ' O.@.%.=.;.>.6.o.t t G G G t v 2.6.4.>.:.;.%.@.| ! 7 q.q.q.q.q.q.q.q.q.q.q.q.q.",
"q.q.q.q.q.q.q.q.q.q.q.q.q.q.q.q.q.q.q.q.q.q.q.q.L ( { | o.O.@.-.6.>.U v v Y &.8.6.:.=.$.@.O.o.{ ^ 9 4 q.q.q.q.q.q.q.q.q.q.q.q.q.",
"q.q.q.q.q.q.q.q.q.q.q.q.q.q.q.q.q.q.q.q.q.q.q.q.q.9 P Q ! ! ^ } %.3.6.8.0.8.4.:.@.o.| { ' _ ( Q 8 3 q.q.q.q.q.q.q.q.q.q.q.q.q.q.",
"q.q.q.q.q.q.q.q.q.q.q.q.q.q.q.q.q.q.q.q.q.q.q.q.q.q.4 6 6 7 L ( O.=.:.>.>.>.-.@.' Q I I I P 0 5 3 q.q.q.q.q.q.q.q.q.q.q.q.q.q.q.",
"q.q.q.q.q.q.q.q.q.q.q.q.q.q.q.q.q.q.q.q.q.q.q.q.q.q.q.q.3 1 8 ! { O.@.@.@.@.O.o.( P 7 2 2 1 3 q.q.q.q.q.q.q.q.q.q.q.q.q.q.q.q.q.",
"q.q.q.q.q.q.q.q.q.q.q.q.q.q.q.q.q.q.q.q.q.q.q.q.q.q.q.q.q.q.3 8 I ( ` ' ' ' _ ( I 9 1 1 1 q.q.q.q.q.q.q.q.q.q.q.q.q.q.q.q.q.q.q.",
"q.q.q.q.q.q.q.q.q.q.q.q.q.q.q.q.q.q.q.q.q.q.q.q.q.q.q.q.q.q.q.q.6 8 L P I I P 9 5 1 3 q.q.q.q.q.q.q.q.q.q.q.q.q.q.q.q.q.q.q.q.q.",
"q.q.q.q.q.q.q.q.q.q.q.q.q.q.q.q.q.q.q.q.q.q.q.q.q.q.q.q.q.q.q.q.q.q.4 3 1 1 3 3 q.q.q.q.q.q.q.q.q.q.q.q.q.q.q.q.q.q.q.q.q.q.q.q.",
"q.q.q.q.q.q.q.q.q.q.q.q.q.q.q.q.q.q.q.q.q.q.q.q.q.q.q.q.q.q.q.q.q.q.q.q.q.q.q.q.q.q.q.q.q.q.q.q.q.q.q.q.q.q.q.q.q.q.q.q.q.q.q.q.",
"q.q.q.q.q.q.q.q.q.q.q.q.q.q.q.q.q.q.q.q.q.q.q.q.q.q.q.q.q.q.q.q.q.q.q.q.q.q.q.q.q.q.q.q.q.q.q.q.q.q.q.q.q.q.q.q.q.q.q.q.q.q.q.q.",
"q.q.q.q.q.q.q.q.q.q.q.q.q.q.q.q.q.q.q.q.q.q.q.q.q.q.q.q.q.q.q.q.q.q.q.q.q.q.q.q.q.q.q.q.q.q.q.q.q.q.q.q.q.q.q.q.q.q.q.q.q.q.q.q.",
"q.q.q.q.q.q.q.q.q.q.q.q.q.q.q.q.q.q.q.q.q.q.q.q.q.q.q.q.q.q.q.q.q.q.q.q.q.q.q.q.q.q.q.q.q.q.q.q.q.q.q.q.q.q.q.q.q.q.q.q.q.q.q.q.",
"q.q.q.q.q.q.q.q.q.q.q.q.q.q.q.q.q.q.q.q.q.q.q.q.q.q.q.q.q.q.q.q.q.q.q.q.q.q.q.q.q.q.q.q.q.q.q.q.q.q.q.q.q.q.q.q.q.q.q.q.q.q.q.q.",
"q.q.q.q.q.q.q.q.q.q.q.q.q.q.q.q.q.q.q.q.q.q.q.q.q.q.q.q.q.q.q.q.q.q.q.q.q.q.q.q.q.q.q.q.q.q.q.q.q.q.q.q.q.q.q.q.q.q.q.q.q.q.q.q."
};
