/* XPM */
static char *_574843105603[] = {
/* columns rows colors chars-per-pixel */
"64 64 124 2 ",
"   c black",
".  c gray3",
"X  c #101010",
"o  c #181818",
"O  c #212118",
"+  c #292118",
"@  c gray16",
"#  c #313121",
"$  c #393131",
"%  c #393939",
"&  c #5A3108",
"*  c #524218",
"=  c #5A4A21",
"-  c #635221",
";  c #7B5A21",
":  c #6B6339",
">  c #4A4A42",
",  c #525242",
"<  c gray32",
"1  c #5A5A52",
"2  c #5A5A5A",
"3  c #5A634A",
"4  c #6B6B42",
"5  c #6B6B4A",
"6  c #63635A",
"7  c #6B6B5A",
"8  c #737352",
"9  c #7B7B5A",
"0  c #6B6B63",
"q  c #73736B",
"w  c #737B73",
"e  c #7B7B73",
"r  c #9C1800",
"t  c #8C4A08",
"y  c #945A10",
"u  c #B55A18",
"i  c #946B18",
"p  c #B57B10",
"a  c #8C7B39",
"s  c #AD7321",
"d  c #AD7B31",
"f  c #CE6B18",
"g  c #B58410",
"h  c #BD8410",
"j  c #C68C18",
"k  c #DE8410",
"l  c #CE9410",
"z  c #F79410",
"x  c #EFAD18",
"c  c #E7B518",
"v  c #FFB518",
"b  c #DE8429",
"n  c #CE9C29",
"m  c #F79C29",
"M  c #FFC618",
"N  c #FFD618",
"B  c #E7C621",
"V  c #FFC621",
"C  c #FFDE21",
"Z  c #FFD631",
"A  c #F7E721",
"S  c #FFE721",
"D  c #FFEF21",
"F  c #FFF721",
"G  c #FFFF21",
"H  c #A58C4A",
"J  c #AD9C5A",
"K  c #8C8C63",
"L  c #94946B",
"P  c #84847B",
"I  c #8C8C7B",
"U  c #8C947B",
"Y  c #BDB56B",
"T  c #DEB54A",
"R  c #DECE4A",
"E  c #FFDE6B",
"W  c #FFF76B",
"Q  c gray55",
"!  c #94948C",
"~  c #949C8C",
"^  c gray61",
"/  c #A59C8C",
"(  c #A5A584",
")  c #A5AD94",
"_  c #A5A59C",
"`  c #ADAD9C",
"'  c #ADB59C",
"]  c #B5B59C",
"[  c gray68",
"{  c #ADB5AD",
"}  c #B5B5A5",
"|  c #B5BDA5",
" . c #BDBDA5",
".. c #B5BDAD",
"X. c gray71",
"o. c gray74",
"O. c #BDC6AD",
"+. c #C6CEB5",
"@. c #C6C6BD",
"#. c #C6CEBD",
"$. c #CED6BD",
"%. c #CECEC6",
"&. c #D6D6C6",
"*. c #DEDEC6",
"=. c #DED6CE",
"-. c #D6DECE",
";. c #DEE7CE",
":. c #E7E7CE",
">. c #E7EFCE",
",. c #EFF7D6",
"<. c #F7F7DE",
"1. c #DEDEE7",
"2. c #E7E7E7",
"3. c #EFEFEF",
"4. c #F7EFEF",
"5. c #F7F7E7",
"6. c #FFFFE7",
"7. c #F7F7EF",
"8. c #FFFFEF",
"9. c #FFF7F7",
"0. c #FFFFF7",
"q. c #F7FFFF",
"w. c white",
"e. c None",
/* pixels */
"e.e.e.e.e.e.e.e.e.e.e.e.e.e.e.e.e.e.e.e.e.e.e.e.e.e.e.e.e.e.e.e.e.e.e.e.e.e.e.e.e.e.e.e.e.e.e.e.e.e.e.e.e.e.e.e.e.e.e.e.e.e.e.e.",
"e.e.e.e.e.e.e.e.e.e.e.e.e.e.e.e.e.e.e.e.e.e.e.e.e.e.e.e.e.e.e.e.e.e.e.e.e.e.e.e.e.e.e.e.e.e.e.e.e.e.e.e.e.e.e.e.e.e.e.e.e.e.e.e.",
"e.e.e.e.e.e.e.e.e.e.e.e.e.e.e.e.e.e.e.e.e.e.e.e.e.e.e.e.e.e.e.e.e.e.e.e.e.e.e.e.e.e.e.e.e.e.e.e.e.e.e.e.e.e.e.e.e.e.e.e.e.e.e.e.",
"e.e.e.e.e.e.e.e.e.e.e.e.e.e.e.e.e.e.e.e.e.e.e.e.e.e.e.e.e.e.e.e.e.e.e.e.e.e.e.e.e.e.e.e.e.e.e.e.e.e.e.e.e.e.e.e.e.e.e.e.e.e.e.e.",
"e.e.e.e.e.e.e.e.e.e.e.e.e.e.e.e.e.e.e.e.e.e.e.e.e.e.e.e.e.e.e.e.e.e.e.e.e.e.e.e.e.e.e.e.e.e.e.e.e.e.e.e.e.e.e.e.e.e.e.e.e.e.e.e.",
"e.e.e.e.e.e.e.e.e.e.e.e.e.e.e.e.e.e.e.e.e.e.e.e.e.e.e.e.e.e.e.e.e.e.e.e.e.e.e.e.e.e.e.e.e.e.e.e.e.e.e.e.e.e.e.e.e.e.e.e.e.e.e.e.",
"e.e.e.e.e.e.e.e.e.e.e.e.e.e.e.e.e.e.e.e.e.e.e.e.e.e.e.e.e.e.e.e.e.e.e.e.e.e.e.e.e.e.e.e.e.e.e.e.e.e.e.e.e.e.e.e.e.e.e.e.e.e.e.e.",
"e.e.e.e.e.e.e.e.e.e.e.e.e.e.e.e.e.e.e.e.e.e.e.e.e.e.e.e.e.e.e.e.e.e.e.e.e.e.e.e.e.e.e.e.e.e.e.e.e.e.e.e.e.e.e.e.e.e.e.e.e.e.e.e.",
"e.e.e.e.e.e.e.e.e.e.e.e.e.e.e.e.e.e.e.e.e.e.e.e.e.e.e.e.e.e.e.e.e.e.e.e.e.e.e.e.e.e.e.e.e.e.e.e.e.e.e.e.e.e.e.e.e.e.e.e.e.e.e.e.",
"e.e.e.e.e.e.e.e.e.e.e.e.e.e.e.e.e.e.e.e.e.e.e.e.e.e.e.e.e.e.e.e.e.e.e.e.e.e.e.e.e.e.e.e.e.e.e.e.e.e.e.e.e.e.e.e.e.e.e.e.e.e.e.e.",
"e.e.e.e.e.e.e.e.e.e.e.e.e.e.e.e.e.e.e.e.e.e.e.e.e.e.e.e.e.e.e.e.e.e.e.e.e.e.e.e.e.e.= = e.e.e.e.e.e.e.e.e.e.e.e.e.e.e.e.e.e.e.e.",
"e.e.e.e.e.e.e.e.e.e.e.e.e.e.e.e.e.e.e.e.e.e.e.e.e.e.e.e.e.e.e.e.e.e.e.e.e.e.e.e.e.e.e.e.* e.X e.e.- e.e.e.e.e.e.e.e.e.e.e.e.e.e.",
"e.e.e.e.e.e.e.e.e.e.e.e.e.e.e.e.e.e.e.e.e.e.e.e.e.e.e.e.e.e.e.e.e.e.e.e.e.e.e.e.e.e.e.e.* & . * + e.e.e.e.e.e.e.e.e.e.e.e.e.e.e.",
"e.e.e.e.e.e.e.e.e.e.e.e.e.e.e.e.e.e.e.e.e.e.e.e.e.e.e.e.e.e.e.e.e.e.e.e.e.e.e.e.e.e.R B B B i e.e.e.e.e.e.e.e.e.e.e.e.e.e.e.e.e.",
"e.e.e.e.e.e.e.e.e.e.e.e.e.e.e.e.e.e.e.e.e.e.e.e.e.e.e.e.e.e.e.e.e.e.e.e.e.e.e.e.n D G G G G F N e.e.e.e.e.e.e.e.e.e.e.e.e.e.e.e.",
"e.e.e.e.e.e.e.e.e.e.e.e.e.e.e.e.e.e.e.e.e.e.e.e.e.e.e.e.e.e.e.e.e.e.e.e.e.e.e.e.S G G G G G G S M e.e.e.e.e.e.e.e.e.e.e.e.e.e.e.",
"e.e.e.e.e.e.e.e.e.e.e.e.e.e.e.e.e.e.e.e.e.e.e.e.e.e.e.e.e.e.e.e.e.e.e.e.e.e.e.M S i = 4 d D F C M z e.e.e.e.e.e.e.e.e.e.e.e.e.e.",
"e.e.e.e.e.e.e.e.e.e.e.e.e.e.e.e.e.e.e.e.e.e.e.e.e.e.e.e.e.e.e.e.e.e.e.e.e.e.X & + O w q O & N N M z : e.e.e.e.d e.e.e.e.e.e.e.e.",
"e.e.e.e.e.e.e.e.e.e.e.e.e.e.e.e.e.e.e.e.e.e.e.e.e.e.e.e.e.e.e.e.e.e.e.e.e.n y   $ 3.w.w.-.o ; d X     % B e.i y e.e.e.e.e.e.e.e.",
"e.e.e.e.e.e.e.e.e.e.e.e.e.e.e.e.e.e.e.e.e.e.e.e.e.e.e.e.e.e.e.e.e.e.e.e.e.M c   %.w.w.w.w.[ o @ < w < . i u i 2.e.e.e.e.e.e.e.e.",
"e.e.e.e.e.e.e.e.e.e.e.e.e.e.e.e.e.e.e.e.e.e.e.e.e.e.e.e.e.e.e.e.e.e.e.e.n N c . w.w.w.7.X.q.{ [ X.o.{ o y y 2.w.O.d e.e.e.e.e.e.",
"e.e.e.e.e.e.e.e.e.e.e.e.e.e.e.e.e.e.e.e.e.e.e.e.e.e.e.e.e.e.e.e.e.e.e.e.n N A X =.w.w.! % 3.-.0 [ X.{ t t X =._ o e.e.e.e.e.e.e.",
"e.e.e.e.e.e.e.e.e.e.e.e.e.e.e.e.e.e.e.e.e.e.e.e.e.e.e.e.e.e.e.e.e.e.e.e.m N F - @ 1.w.1.{ P { . { { d y X   P     7 e.e.e.e.e.e.",
"e.e.e.e.e.e.e.e.e.e.e.e.e.e.e.e.e.e.e.e.e.e.e.e.e.e.e.e.e.e.e.e.e.e.e.e.b v S A a > 0 6 $ & 0 _ X.d i 4.< Q 4.@ 2 %.e.e.e.e.e.e.",
"e.e.e.e.e.e.e.e.e.e.e.e.e.e.e.e.e.e.e.e.e.e.e.e.e.e.e.e.e.e.e.e.e.e.e.2.Y z M C F C y i A S + 7 d y 2.w.o.w.w.{ q.9.e.e.e.e.e.e.",
"e.e.e.e.e.e.e.e.e.e.e.e.e.e.e.e.e.e.e.e.e.e.e.e.e.e.e.e.e.e.e.e.e.| w.w.E f z v v v v c x z t y t   X.Q O 3.X.6 w.^ e.e.e.e.e.e.",
"e.e.e.e.e.e.e.e.e.e.e.e.e.e.e.e.e.e.e.e.e.e.e.e.e.e.e.e.e.e.e.e.+.w.w.6.D p u f f y r k t t y d #   P X   w   $ P @ e.e.e.e.e.e.",
"e.e.e.e.e.e.e.e.e.e.e.e.e.e.e.e.e.e.e.e.e.e.e.e.e.e.e.e.e.e.e.| w.w.<.G G l p t & & r r r u i 9.! o.q.$ ! X.X _ > e.e.e.e.e.e.e.",
"e.e.e.e.e.e.e.e.e.e.e.e.e.e.e.e.e.e.e.e.e.e.e.e.e.e.e.e.e.e.e.w.w.8.E F G n h p t & r r u & X.q.Q 4.w.X.w.1.X.! e.e.e.e.e.e.e.e.",
"e.e.e.e.e.e.e.e.e.e.e.e.e.e.e.e.e.e.e.e.e.e.e.e.e.e.e.e.e.e.| w.5.V C C F E n p i t t y &   6 <   =.w 0 4.0 $ e.e.e.e.e.e.e.e.e.",
"e.e.e.e.e.e.e.e.e.e.e.e.e.e.e.e.e.e.e.e.e.e.e.e.e.e.e.e.e.e.2.w.:.v C S D Z c l j h u t ; o @.@ . w   > > $ e.e.e.e.e.e.e.e.e.e.",
"e.e.e.e.e.e.e.e.e.e.e.e.e.e.e.e.e.e.e.e.e.e.e.e.e.e.e.e.e.e.w.w.:.z M D G D C l h u t p s %.w.P o.@.$ ! , e.e.e.e.e.e.e.e.e.e.e.",
"e.e.e.e.e.e.e.e.e.e.e.e.e.e.e.e.e.e.e.e.e.e.e.e.e.e.e.e.e.e.w.w.>.p v F G G M c y t p p p $.7._ w.-.{ , e.e.e.e.e.e.e.e.e.e.e.e.",
"e.e.e.e.e.e.e.e.e.e.e.e.e.e.e.e.e.e.e.e.e.e.e.e.e.e.e.e.e.e.w.w.W l v S G G M p y g p p s J % % @.$ % e.e.e.e.e.e.e.e.e.e.e.e.e.",
"e.e.e.e.e.e.e.e.e.e.e.e.e.e.e.e.e.e.e.e.e.e.e.e.e.e.e.e.e.e.w.w.Z B z N D F M p l C c l p i . < $ > e.e.e.e.e.e.e.e.e.e.e.e.e.e.",
"e.e.e.e.e.e.e.e.e.e.e.e.e.e.e.e.e.e.e.e.e.e.e.e.e.e.e.e.e.e.9.w.E Z z M x l M v l N V M T Y P ! 0 e.e.e.e.e.e.e.e.e.e.e.e.e.e.e.",
"e.e.e.e.e.e.e.e.e.e.e.e.e.e.e.e.e.e.e.e.e.e.e.e.e.e.e.e.e.O.w.w.w.6.E f x x u j Z E E ,.w.3.q P ` U 9 e.e.e.e.e.e.e.e.e.e.e.e.e.",
"e.e.e.e.e.e.e.e.e.e.e.e.e.e.e.e.e.e.e.e.e.e.e.e.e.e.e.e.e.w.w.w.w.w.9.n t y H O.4.w.w.w.7.6 { ' ) / $.e.e.e.e.e.e.e.e.e.e.e.e.e.",
"e.e.e.e.e.e.e.e.e.e.e.e.e.e.e.e.e.e.e.e.e.e.e.e.e.e.e.e.9.w.w.w.w.w.w.+.L | | | O.2.-.+.2 U } ] ` ) / O.e.e.e.e.e.e.e.e.e.e.e.e.",
"e.e.e.e.e.e.e.e.e.e.e.e.e.e.e.e.e.e.e.e.e.e.e.e.e.e.e.O.w.w.w.w.w.w.w.-.| | | | | O.+.P 1.4.O.] ' ) ~ I K e.e.e.e.e.e.e.e.e.e.e.",
"e.e.e.e.e.e.e.e.e.e.e.e.e.e.e.e.e.e.e.e.e.e.e.e.e.e.e.0.w.w.w.w.w.w.w.2.| | | | | 4.=.w.w.w.-.] ' ) / U e e.e.e.e.e.e.e.e.e.e.e.",
"e.e.e.e.e.e.e.e.e.e.e.e.e.e.e.e.e.e.e.e.e.e.e.e.e.e.' w.w.w.w.w.w.w.w.w.;.+.+.-.2.w.w.w.w.w.;.] ' ` / ! P e.e.e.e.e.e.e.e.e.e.e.",
"e.e.e.e.e.e.e.e.e.e.e.e.e.e.e.e.e.e.e.e.e.e.e.e.e.e.:.w.w.w.w.w.w.w.w.w.w.w.w.w.w.w.w.w.w.w.9...' ) / ~ I 9 e.e.e.e.e.e.e.e.e.e.",
"e.e.e.e.e.e.e.e.e.e.e.e.e.e.e.e.e.e.e.e.e.e.e.e.e.e.8.w.w.w.w.w.w.w.w.w.w.1.w.w.w.w.w.w.w.w.w.O.` ) / ~ I w e.e.e.e.e.e.e.e.e.e.",
"e.e.e.e.e.e.e.e.e.e.e.e.e.e.e.e.e.e.e.e.e.e.e.e.e.e.8.w.w.w.w.w.w.w.w.w.^ P w.w.w.w.< =.w.w.w.;.) ) / ! I e e.e.e.e.e.e.e.e.e.e.",
"e.e.e.e.e.e.e.e.e.e.e.e.e.e.e.e.e.e.e.e.e.e.e.e.e.e.8.w.w.w.w.w.w.w.w.w.Q $ w.w.w.3.. =.w.w.w.-.) / / U I e e.e.e.e.e.e.e.e.e.e.",
"e.e.e.e.e.e.e.e.e.e.e.e.e.e.e.e.e.e.e.e.e.e.e.e.e.( 5.w.w.w.w.w.w.w.w.w.4.o.w.w.w.w.{ w.w.w.w.1./ / ! U P q 8 e.e.e.e.e.e.e.e.e.",
"e.e.e.e.e.e.e.e.e.e.e.e.e.e.e.e.e.e.e.e.e.e.e.e.e./ ,.8.w.w.w.w.w.w.w.0.0.w.w.w.w.w.w.w.w.w.w.1.~ ! U I e 0 5 e.e.e.e.e.e.e.e.e.",
"e.e.e.e.e.e.e.e.e.e.e.e.e.e.e.e.e.e.e.e.e.e.e.e.e.e.&.<.8.w.w.w.w.0.5.,.<.6.6.6.6.6.6.6.6.0.w.;.U U I P w 0 e.e.e.e.e.e.e.e.e.e.",
"e.e.e.e.e.e.e.e.e.e.e.e.e.e.e.e.e.e.e.e.e.e.e.e.e.e.| *.<.6.6.8.8.6.*./ ' $.;.:.:.;.&.|  .6.0.%.I P P e 0 6 e.e.e.e.e.e.e.e.e.e.",
"e.e.e.e.e.e.e.e.e.e.e.e.e.e.e.e.e.e.e.e.e.e.e.e.e.e.U O.$.;.:.>.>.>.<.8.b u H L L H u  .0.8.5. .e e w 0 7 3 e.e.e.e.e.e.e.e.e.e.",
"e.e.e.e.e.e.e.e.e.e.e.e.e.e.e.e.e.e.e.e.e.e.e.e.e.e.e.U } O.+.+.+.#.&.>.8.:.b b b T :.w.6.>.&.) q 0 0 7 1 e.e.e.e.e.e.e.e.e.e.e.",
"e.e.e.e.e.e.e.e.e.e.e.e.e.e.e.e.e.e.e.e.e.e.e.e.e.e.e.e.P / ) ) ) / ) O.:.8.0.w.w.8.5.:.+. .' I 0 7 7 1 3 e.e.e.e.e.e.e.e.e.e.e.",
"e.e.e.e.e.e.e.e.e.e.e.e.e.e.e.e.e.e.e.e.e.e.e.e.e.e.e.e.e.7 0 q w e I ' $.>.<.<.<.>.*.+.) U P 0 2 1 1 5 e.e.e.e.e.e.e.e.e.e.e.e.",
"e.e.e.e.e.e.e.e.e.e.e.e.e.e.e.e.e.e.e.e.e.e.e.e.e.e.e.e.e.e.e.3 1 7 I ) O.$.$.$.$.+.O.' ~ e 2 1 1 3 e.e.e.e.e.e.e.e.e.e.e.e.e.e.",
"e.e.e.e.e.e.e.e.e.e.e.e.e.e.e.e.e.e.e.e.e.e.e.e.e.e.e.e.e.e.e.e.5 3 0 U ) ' ] ] ' ) / U e 1 1 5 e.e.e.e.e.e.e.e.e.e.e.e.e.e.e.e.",
"e.e.e.e.e.e.e.e.e.e.e.e.e.e.e.e.e.e.e.e.e.e.e.e.e.e.e.e.e.e.e.e.e.e.5 7 w P I U I P q 2 1 5 e.e.e.e.e.e.e.e.e.e.e.e.e.e.e.e.e.e.",
"e.e.e.e.e.e.e.e.e.e.e.e.e.e.e.e.e.e.e.e.e.e.e.e.e.e.e.e.e.e.e.e.e.e.e.e.e.3 3 1 1 1 3 e.e.e.e.e.e.e.e.e.e.e.e.e.e.e.e.e.e.e.e.e.",
"e.e.e.e.e.e.e.e.e.e.e.e.e.e.e.e.e.e.e.e.e.e.e.e.e.e.e.e.e.e.e.e.e.e.e.e.e.e.e.e.e.e.e.e.e.e.e.e.e.e.e.e.e.e.e.e.e.e.e.e.e.e.e.e.",
"e.e.e.e.e.e.e.e.e.e.e.e.e.e.e.e.e.e.e.e.e.e.e.e.e.e.e.e.e.e.e.e.e.e.e.e.e.e.e.e.e.e.e.e.e.e.e.e.e.e.e.e.e.e.e.e.e.e.e.e.e.e.e.e.",
"e.e.e.e.e.e.e.e.e.e.e.e.e.e.e.e.e.e.e.e.e.e.e.e.e.e.e.e.e.e.e.e.e.e.e.e.e.e.e.e.e.e.e.e.e.e.e.e.e.e.e.e.e.e.e.e.e.e.e.e.e.e.e.e.",
"e.e.e.e.e.e.e.e.e.e.e.e.e.e.e.e.e.e.e.e.e.e.e.e.e.e.e.e.e.e.e.e.e.e.e.e.e.e.e.e.e.e.e.e.e.e.e.e.e.e.e.e.e.e.e.e.e.e.e.e.e.e.e.e.",
"e.e.e.e.e.e.e.e.e.e.e.e.e.e.e.e.e.e.e.e.e.e.e.e.e.e.e.e.e.e.e.e.e.e.e.e.e.e.e.e.e.e.e.e.e.e.e.e.e.e.e.e.e.e.e.e.e.e.e.e.e.e.e.e.",
"e.e.e.e.e.e.e.e.e.e.e.e.e.e.e.e.e.e.e.e.e.e.e.e.e.e.e.e.e.e.e.e.e.e.e.e.e.e.e.e.e.e.e.e.e.e.e.e.e.e.e.e.e.e.e.e.e.e.e.e.e.e.e.e."
};
