/* XPM */
static char *_574843045513[] = {
/* columns rows colors chars-per-pixel */
"64 64 123 2 ",
"   c black",
".  c gray3",
"X  c #101010",
"o  c #181818",
"O  c #212118",
"+  c #292118",
"@  c gray16",
"#  c #313121",
"$  c #393131",
"%  c #393939",
"&  c #5A3108",
"*  c #524218",
"=  c #5A4A21",
"-  c #635221",
";  c #7B5A21",
":  c #4A4A42",
">  c #525242",
",  c gray32",
"<  c #5A5A52",
"1  c #5A5A5A",
"2  c #5A634A",
"3  c #6B6B4A",
"4  c #7B734A",
"5  c #63635A",
"6  c #6B6B5A",
"7  c #7B7B5A",
"8  c #6B6B63",
"9  c #73736B",
"0  c #737B73",
"q  c #7B7B73",
"w  c #9C1800",
"e  c #8C4A08",
"r  c #944210",
"t  c #945A10",
"y  c #B55A18",
"u  c #946B18",
"i  c #B57B10",
"p  c #8C7B39",
"a  c #AD7321",
"s  c #AD7B31",
"d  c #CE6B18",
"f  c #846B42",
"g  c #B58410",
"h  c #BD8410",
"j  c #C68C18",
"k  c #DE8410",
"l  c #CE9410",
"z  c #F79410",
"x  c #EFAD18",
"c  c #E7B518",
"v  c #FFB518",
"b  c #DE8429",
"n  c #CE9C29",
"m  c #F79C29",
"M  c #FFC618",
"N  c #FFD618",
"B  c #E7C621",
"V  c #FFC621",
"C  c #FFDE21",
"Z  c #FFD631",
"A  c #F7E721",
"S  c #FFE721",
"D  c #FFEF21",
"F  c #FFF721",
"G  c #FFFF21",
"H  c #84845A",
"J  c #A58C4A",
"K  c #AD9C5A",
"L  c #8C8C63",
"P  c #94946B",
"I  c #84847B",
"U  c #8C8C7B",
"Y  c #8C947B",
"T  c #BDB56B",
"R  c #DEB54A",
"E  c #DECE4A",
"W  c #FFDE6B",
"Q  c gray55",
"!  c #94948C",
"~  c #949C8C",
"^  c gray61",
"/  c #A59C8C",
"(  c #A5A584",
")  c #A5AD94",
"_  c #A5A59C",
"`  c #ADAD9C",
"'  c #ADB59C",
"]  c #B5B59C",
"[  c gray68",
"{  c #ADB5AD",
"}  c #B5B5A5",
"|  c #B5BDA5",
" . c #BDBDA5",
".. c gray71",
"X. c gray74",
"o. c #BDC6AD",
"O. c #C6CEB5",
"+. c #C6C6BD",
"@. c #C6CEBD",
"#. c #CED6BD",
"$. c #CECEC6",
"%. c #D6D6C6",
"&. c #DEDEC6",
"*. c #DED6CE",
"=. c #D6DECE",
"-. c #DEE7CE",
";. c #E7E7CE",
":. c #E7EFCE",
">. c #EFF7D6",
",. c #F7F7DE",
"<. c #DEDEE7",
"1. c #E7E7E7",
"2. c #EFEFEF",
"3. c #F7EFEF",
"4. c #F7F7E7",
"5. c #FFFFE7",
"6. c #F7F7EF",
"7. c #FFFFEF",
"8. c #FFF7F7",
"9. c #FFFFF7",
"0. c #F7FFFF",
"q. c white",
"w. c None",
/* pixels */
"w.w.w.w.w.w.w.w.w.w.w.w.w.w.w.w.w.w.w.w.w.w.w.w.w.w.w.w.w.w.w.w.w.w.w.w.w.w.w.w.w.w.w.w.w.w.w.w.w.w.w.w.w.w.w.w.w.w.w.w.w.w.w.w.",
"w.w.w.w.w.w.w.w.w.w.w.w.w.w.w.w.w.w.w.w.w.w.w.w.w.w.w.w.w.w.w.w.w.w.w.w.w.w.w.w.w.w.w.w.w.w.w.w.w.w.w.w.w.w.w.w.w.w.w.w.w.w.w.w.",
"w.w.w.w.w.w.w.w.w.w.w.w.w.w.w.w.w.w.w.w.w.w.w.w.w.w.w.w.w.w.w.w.w.w.w.w.w.w.w.w.w.w.w.w.w.w.w.w.w.w.w.w.w.w.w.w.w.w.w.w.w.w.w.w.",
"w.w.w.w.w.w.w.w.w.w.w.w.w.w.w.w.w.w.w.w.w.w.w.w.w.w.w.w.w.w.w.w.w.w.w.w.w.w.w.w.w.w.w.w.w.w.w.w.w.w.w.w.w.w.w.w.w.w.w.w.w.w.w.w.",
"w.w.w.w.w.w.w.w.w.w.w.w.w.w.w.w.w.w.w.w.w.w.w.w.w.w.w.w.w.w.w.w.w.w.w.w.w.w.w.w.w.w.w.w.w.w.w.w.w.w.w.w.w.w.w.w.w.w.w.w.w.w.w.w.",
"w.w.w.w.w.w.w.w.w.w.w.w.w.w.w.w.w.w.w.w.w.w.w.w.w.w.w.w.w.w.w.w.w.w.w.w.w.w.w.w.w.w.w.w.w.w.w.w.w.w.w.w.w.w.w.w.w.w.w.w.w.w.w.w.",
"w.w.w.w.w.w.w.w.w.w.w.w.w.w.w.w.w.w.w.w.w.w.w.w.w.w.w.w.w.w.w.w.w.w.w.w.w.w.w.w.w.w.w.w.w.w.w.w.w.w.w.w.w.w.w.w.w.w.w.w.w.w.w.w.",
"w.w.w.w.w.w.w.w.w.w.w.w.w.w.w.w.w.w.w.w.w.w.w.w.w.w.w.w.w.w.w.w.w.w.w.w.w.w.w.w.w.w.w.w.w.w.w.w.w.w.w.w.w.w.w.w.w.w.w.w.w.w.w.w.",
"w.w.w.w.w.w.w.w.w.w.w.w.w.w.w.w.w.w.w.w.w.w.w.w.w.w.w.w.w.w.w.w.w.w.w.w.w.w.w.w.w.w.w.w.w.w.w.w.w.w.w.w.w.w.w.w.w.w.w.w.w.w.w.w.",
"w.w.w.w.w.w.w.w.w.w.w.w.w.w.w.w.w.w.w.w.w.w.w.w.w.w.w.w.w.w.w.w.w.w.w.w.w.w.w.w.- w.w.w.w.w.w.w.w.w.w.w.w.w.w.w.w.w.w.w.w.w.w.w.",
"w.w.w.w.w.w.w.w.w.w.w.w.w.w.w.w.w.w.w.w.w.w.w.w.w.w.w.w.w.w.w.w.w.w.w.w.w.w.w.+ w.w.w.w.w.w.w.w.w.w.w.w.w.w.w.w.w.w.w.w.w.w.w.w.",
"w.w.w.w.w.w.w.w.w.w.w.w.w.w.w.w.w.w.w.w.w.w.w.w.w.w.w.w.w.w.w.w.w.w.+ X * w.+ w.w.w.w.w.w.w.w.w.w.w.w.w.w.w.w.w.w.w.w.w.w.w.w.w.",
"w.w.w.w.w.w.w.w.w.w.w.w.w.w.w.w.w.w.w.w.w.w.w.w.w.w.w.w.w.w.w.w.w.w.w.* X + - w.w.w.w.w.w.w.w.w.w.w.w.w.w.w.w.w.w.w.w.w.w.w.w.w.",
"w.w.w.w.w.w.w.w.w.w.w.w.w.w.w.w.w.w.w.w.w.w.w.w.w.w.w.w.w.w.w.w.w.w.w.w.n A G F B w.w.w.w.w.w.w.w.w.w.w.w.w.w.w.w.w.w.w.w.w.w.w.",
"w.w.w.w.w.w.w.w.w.w.w.w.w.w.w.w.w.w.w.w.w.w.w.w.w.w.w.w.w.w.w.w.w.w.n F G G G G F N s 3 2 w.w.w.w.w.w.w.w.w.w.w.w.w.w.w.w.w.w.w.",
"w.w.w.w.w.w.w.w.w.w.w.w.w.w.w.w.w.w.w.w.w.w.w.w.w.w.w.w.w.w.w.w.w.w.S G G G A B A C J 1 1 : w.w.w.w.w.w.w.w.w.w.w.w.w.w.w.w.w.w.",
"w.w.w.w.w.w.w.w.w.w.w.w.w.w.w.w.w.w.w.w.w.w.w.w.w.w.w.w.w.w.w.w.w.v S F D = # @ o g p Q Q , % w.w.w.w.n C w.E w.w.w.w.w.w.w.w.w.",
"w.w.w.w.w.w.w.w.w.w.w.w.w.; e w.w.w.w.w.w.w.w.w.w.w.w.w.w.w.w.w.# - l S = @ +.<.Q o + : 9 : % w.w.w.w.b v n M s E w.w.w.w.w.w.w.",
"w.w.w.w.w.w.w.w.w.w.6 + % Q ; ; w.w.w.w.w.w.w.w.w.w.w.w.w.w.w.X $ @ $ = o <.q.q.q._   X : % $ : w.w.w.b z l z l M s w.w.w.w.w.w.",
"w.w.w.w.w.w.w.w.: _ [ @   5 < e w.w.w.w.w.w.w.w.w.w.w.w.w.w.w.@ $.$.^ : +.q.q.q.q.q.@ o $ $ @ % w.w.w.m z z d v k w.w.w.w.w.w.w.",
"w.w.w.w.w.w.q .   , [ 5 , Q @ + e w.w.w.w.w.w.w.w.w.w.w.w.w.w., <.<.<.+.0.q.$ X.q.q.: ; = I $ w.n A n F D D N z ; w.w.w.w.w.w.w.",
"w.w.w.w.w.=.1., . 1 ,   $ ^ I O = t w.w.w.w.w.w.w.w.w.w.w.w.w.% <.<.X.@ <.0.I $.q.*.  j M 7.L w.w.c C G G G G V w.w.w.w.w.w.w.w.",
"w.w.w.: ^ 3.3.! ! <...@ O 8 @ % I ; ; w.w.w.w.w.w.w.w.w.w.w.w.O X.<.<.9 o I $.3...o & S M ,.P w.w.w.z M A S N h w.w.w.w.w.w.w.w.",
"w.w.@   X { ,   $ $._ : _ [ @   8 > e w.w.w.w.w.w.w.w.w.w.w.w.% I +.<.1 i u % @ ; E G N z 8.H w.w.w.; d v M v u w.w.w.w.w.w.w.w.",
"w.w..   % { o   O Q X   , _ , 5 Q O + e w.w.w.w.w.w.w.w.w.w.w.w.# + @ & C N c c S C M z b 0.) +.w.w.w.h z z d w.w.w.w.w.w.w.w.w.",
"w.w.> I 6.q._ , 1.2.1 O I ,   % ^ 9 @ - ; w.w.w.w.w.w.w.w.w.w.w.s c B B d t l z z z z d T *.n ;.2. .c M v k ; w.w.w.w.w.w.w.w.w.",
"w.w.w.} 8.1., I 3.1.9 _ <.X.@ % 5 o : I ; ; w.w.w.w.w.w.w.w.w.w.w.z v x e r w w r y e f 3.K i  .q.W M M v k w.w.w.w.w.w.w.w.w.w.",
"w.w.w.w.` @   . ! $   @ X.8 $ [ [ @ X 5 * e w.w.w.w.w.w.w.w.w.w.w.; y y y w w w e # @ % ( h i E W M M M v t w.w.w.w.w.w.w.w.w.w.",
"w.w.w.w.w.o   8 *.@   , ! X   , I % I Q o + t w.w.w.w.w.w.w.w.w.w.w.- - - ; w r & O @ O ; j l B N M v v d w.w.w.w.w.w.w.w.w.w.w.",
"w.w.w.w.w.w.! 8.q.{ ! 2.1.9 5 { :   % ^ 5 % e ; w.w.w.w.w.w.w.w.w.w.w.Y T s g t t # X X n m l c M v z k ; w.w.w.w.w.w.w.w.w.w.w.",
"w.w.w.w.w.w./ 2.+.@ 8 1.X.$ _ <.{ % w.w.w.w.w.t ; w.w.w.w.w.w.w.w.w.a d k d h j j h u g l l h z v z d 4 ^ w.w.w.w.w.w.w.w.w.w.w.",
"w.w.w.w.w.w.w.I .   . I     @ ) w.w.w.w.w.w.w.w.e w.w.w.w.w.w.w.w.A k d y a g h h j j j j c l z k e H X.X.w.w.w.w.w.w.w.w.w.w.w.",
"w.w.w.w.w.w.w.w.@ O +.1.% O w.w.w.w.w.w.w.w.w.w.- t w.w.w.w.w.E G F l y t t i i g h h h B j c B & * #.8.q.w.w.w.w.w.w.w.w.w.w.w.",
"w.w.w.w.w.w.w.w.w.$.q.8.~ w.w.w.w.w.w.w.w.w.w.w.w.e a B A F F S N v z e e a i g l A B B c g A G F D W q.q.) w.w.w.w.w.w.w.w.w.w.",
"w.w.w.w.w.w.w.w.w.w.<.w.w.w.w.w.w.w.w.w.w.w.w.w.w.u i F F Z N v z k y ; J u l B D D A g i g F F S N E q.q./ w.w.w.w.w.w.w.w.w.w.",
"w.w.w.w.w.w.w.w.w.w.w.w.w.w.w.w.w.w.w.w.w.w.w.w.w.n N x i k z k y u  .3.1.&.Z Z C C c i i l S C C M R q.q.Y w.w.w.w.w.w.w.w.w.w.",
"w.w.w.w.w.w.w.w.w.w.w.w.w.w.w.w.w.w.w.w.w.w.w.w.w.w.a t - e e e w.2.q.q.q.q.q.5.:.W c a a n Z W W ;.>.q.2.U w.w.w.w.w.w.w.w.w.w.",
"w.w.w.w.w.w.w.w.w.w.w.w.w.w.w.w.w.w.w.w.w.w.w.w.w.w.w.t j ; w.w.8.q.q.q.q.q.q.q.q.q.8.=.-.8.q.q.q.q.q.q.q.9.| w.w.w.w.w.w.w.w.w.",
"w.w.w.w.w.w.w.w.w.w.w.w.w.w.w.w.w.w.w.w.w.w.w.w.w.w.w.w.p w.w.=.q.q.q.q.q.q.q.q.q.q.q.q.q.q.q.q.q.q.q.q.q.q.,.w.w.w.w.w.w.w.w.w.",
"w.w.w.w.w.w.w.w.w.w.w.w.w.w.w.w.w.w.w.w.w.w.w.w.w.w.w.w.w.w.w.q.q.q.q.q.q.q.q.q.q.q.q.q.q.q.q.q.q.q.q.q.q.q.7. .w.w.w.w.w.w.w.w.",
"w.w.w.w.w.w.w.w.w.w.w.w.w.w.w.w.w.w.w.w.w.w.w.w.w.w.w.w.w.w.3.q.q.q.q.q.q.q.q.q.q.q.q.q.q.q.q.q.q.q.q.q.q.q.9.-.w.w.w.w.w.w.w.w.",
"w.w.w.w.w.w.w.w.w.w.w.w.w.w.w.w.w.w.w.w.w.w.w.w.w.w.w.w.w.w.q.q.q.q.q.q.q.q.q.q.q.q.q.q.q.q.q.q.q.q.q.q.q.q.q.,./ w.w.w.w.w.w.w.",
"w.w.w.w.w.w.w.w.w.w.w.w.w.w.w.w.w.w.w.w.w.w.w.w.w.w.w.w.w.%.q.q.q.q.q.q.q.q.q.q.q.q.q.q.q.q.q.q.q.q.q.q.q.q.q.4.` w.w.w.w.w.w.w.",
"w.w.w.w.w.w.w.w.w.w.w.w.w.w.w.w.w.w.w.w.w.w.w.w.w.w.w.w.w.7.q.q.q.q.q.q.q.q.*.2.q.q.q.q.3.q.q.q.q.q.q.q.q.q.q.5.o.w.w.w.w.w.w.w.",
"w.w.w.w.w.w.w.w.w.w.w.w.w.w.w.w.w.w.w.w.w.w.w.w.w.w.w.w.w.7.q.q.q.q.q.q.q.8.< [ q.q.q.{ [ q.q.q.q.q.q.q.q.q.q.5.O.w.w.w.w.w.w.w.",
"w.w.w.w.w.w.w.w.w.w.w.w.w.w.w.w.w.w.w.w.w.w.w.w.w.w.w.w.w.4.q.q.q.q.q.q.q.8.O +.q.q.q.1 0 q.q.q.q.q.q.q.q.q.q.4.O.w.w.w.w.w.w.w.",
"w.w.w.w.w.w.w.w.w.w.w.w.w.w.w.w.w.w.w.w.w.w.w.w.w.w.w.w.w.,.q.q.q.q.q.q.q.q.1.q.q.q.q...<.q.q.q.q.q.q.q.q.q.7.>.o.w.w.w.w.w.w.w.",
"w.w.w.w.w.w.w.w.w.w.w.w.w.w.w.w.w.w.w.w.w.w.w.w.w.w.w.w.w.-.5.q.q.q.q.q.9.9.q.q.q.q.q.q.q.q.q.q.q.q.q.q.q.q.5.-.' w.w.w.w.w.w.w.",
"w.w.w.w.w.w.w.w.w.w.w.w.w.w.w.w.w.w.w.w.w.w.w.w.w.w.w.w.w.o.:.5.7.9.q.7.:.:.,.5.5.5.7.5.5.5.9.q.q.q.q.q.q.7.>.#.) w.w.w.w.w.w.w.",
"w.w.w.w.w.w.w.w.w.w.w.w.w.w.w.w.w.w.w.w.w.w.w.w.w.w.w.w.w./ @.&.>.,.5.5.-./ ' #.;.;.;.;.%.| ;.7.q.q.9.7.5.>.&. .U w.w.w.w.w.w.w.",
"w.w.w.w.w.w.w.w.w.w.w.w.w.w.w.w.w.w.w.w.w.w.w.w.w.w.w.w.w.7 ) o.@.%.&.:.4.8.b y s J J s y o.4.5.5.4.,.>.;.#.o./ 8 w.w.w.w.w.w.w.",
"w.w.w.w.w.w.w.w.w.w.w.w.w.w.w.w.w.w.w.w.w.w.w.w.w.w.w.w.w.w.q / ` ]  .O.%.>.7.*.R b b T 3.7.,.;.&.&.%.#.O. ./ q 3 w.w.w.w.w.w.w.",
"w.w.w.w.w.w.w.w.w.w.w.w.w.w.w.w.w.w.w.w.w.w.w.w.w.w.w.w.w.w.w.8 q Y Y ! ) O.:.5.9.q.q.7.4.&.O.o.o. .| ] ` ~ q 2 w.w.w.w.w.w.w.w.",
"w.w.w.w.w.w.w.w.w.w.w.w.w.w.w.w.w.w.w.w.w.w.w.w.w.w.w.w.w.w.w.w.w.2 1 8 Y ' #.;.>.,.,.>.-.o.) Y Y ! ! Y I 6 < w.w.w.w.w.w.w.w.w.",
"w.w.w.w.w.w.w.w.w.w.w.w.w.w.w.w.w.w.w.w.w.w.w.w.w.w.w.w.w.w.w.w.w.w.2 2 q / | O.#.#.#.#.O. ./ q 8 5 5 1 < w.w.w.w.w.w.w.w.w.w.w.",
"w.w.w.w.w.w.w.w.w.w.w.w.w.w.w.w.w.w.w.w.w.w.w.w.w.w.w.w.w.w.w.w.w.w.w.w.3 0 Y ) ` ] } ] ' / Y 9 < < < 3 w.w.w.w.w.w.w.w.w.w.w.w.",
"w.w.w.w.w.w.w.w.w.w.w.w.w.w.w.w.w.w.w.w.w.w.w.w.w.w.w.w.w.w.w.w.w.w.w.w.w.w.6 9 I U Y Y U q 5 < 2 w.w.w.w.w.w.w.w.w.w.w.w.w.w.w.",
"w.w.w.w.w.w.w.w.w.w.w.w.w.w.w.w.w.w.w.w.w.w.w.w.w.w.w.w.w.w.w.w.w.w.w.w.w.w.w.w.2 2 < < < 2 3 w.w.w.w.w.w.w.w.w.w.w.w.w.w.w.w.w.",
"w.w.w.w.w.w.w.w.w.w.w.w.w.w.w.w.w.w.w.w.w.w.w.w.w.w.w.w.w.w.w.w.w.w.w.w.w.w.w.w.w.w.w.w.w.w.w.w.w.w.w.w.w.w.w.w.w.w.w.w.w.w.w.w.",
"w.w.w.w.w.w.w.w.w.w.w.w.w.w.w.w.w.w.w.w.w.w.w.w.w.w.w.w.w.w.w.w.w.w.w.w.w.w.w.w.w.w.w.w.w.w.w.w.w.w.w.w.w.w.w.w.w.w.w.w.w.w.w.w.",
"w.w.w.w.w.w.w.w.w.w.w.w.w.w.w.w.w.w.w.w.w.w.w.w.w.w.w.w.w.w.w.w.w.w.w.w.w.w.w.w.w.w.w.w.w.w.w.w.w.w.w.w.w.w.w.w.w.w.w.w.w.w.w.w.",
"w.w.w.w.w.w.w.w.w.w.w.w.w.w.w.w.w.w.w.w.w.w.w.w.w.w.w.w.w.w.w.w.w.w.w.w.w.w.w.w.w.w.w.w.w.w.w.w.w.w.w.w.w.w.w.w.w.w.w.w.w.w.w.w.",
"w.w.w.w.w.w.w.w.w.w.w.w.w.w.w.w.w.w.w.w.w.w.w.w.w.w.w.w.w.w.w.w.w.w.w.w.w.w.w.w.w.w.w.w.w.w.w.w.w.w.w.w.w.w.w.w.w.w.w.w.w.w.w.w.",
"w.w.w.w.w.w.w.w.w.w.w.w.w.w.w.w.w.w.w.w.w.w.w.w.w.w.w.w.w.w.w.w.w.w.w.w.w.w.w.w.w.w.w.w.w.w.w.w.w.w.w.w.w.w.w.w.w.w.w.w.w.w.w.w."
};
