/* XPM */
static char *result[] = {
/* columns rows colors chars-per-pixel */
"64 64 24 1 ",
"  c #030000",
". c #040000",
"X c #070000",
"o c #080000",
"O c #100000",
"+ c #2D0000",
"@ c #420000",
"# c #4A0000",
"$ c #730000",
"% c #770000",
"& c #780000",
"* c #930000",
"= c #9E0000",
"- c #A20000",
"; c #A80000",
": c #B80000",
"> c #BE0000",
", c #CC0000",
"< c #CD0000",
"1 c #E00000",
"2 c #E10000",
"3 c #E80000",
"4 c red",
"5 c None",
/* pixels */
"5555555555555555555555555555555555555555555555555555555555555555",
"5555555555555555555555555555555555555555555555555555555555555555",
"5555555555555555555555555555555555555555555555555555555555555555",
"5555555555555555555555555555555555555555555555555555555555555555",
"5555555555555555555555555555555555555555555555555555555555555555",
"5555555555555555555555555444444445555555555555555555555555555555",
"5555555555555555555555444444444444444555555555555555555555555555",
"5555555555555555555554444444444444444445555555555555555555555555",
"5555555555555555555444444444444444444444555555555555555555555555",
"5555555555555555544444444444444444444444455555555555555555555555",
"5555555555555555444444444444444444444444455555555555555555555555",
"5555555555555555444444444444444444444444445555555555555555555555",
"5555555555555554444444443-$244444>%14444445555555555555555555555",
"555555555555555444444444&. ;44444#o-4444445555555555555555555555",
"555555555555554444444444:Oo<44444@X=4444445555555555555555555555",
"555555555555555444444444444444444*+,4444445555555555555555555555",
"5555555555555555544444444444444444444444445555555555555555555555",
"5555555555555555554444444444444444444444445555555555555555555555",
"5555555555555555555444444444444444444444555555555555555555555555",
"5555555555555555555544444444444444444445555555555555555555555555",
"5555555555555555555554444444444444444555555555555555555555555555",
"5555555555555555555555444444444444444555555555555555455555555555",
"5555555555555555555555544444444444445555555555555554455555555555",
"5555555555555555555555544444444444455555555555555544455555555555",
"5555555555555555555555544444444444455555555555555544455555555555",
"5555555555555555555555554444444444455555555555544444455555555555",
"5555555555555555555555554444444444455555555555544444555555555555",
"5555555555555555555555554444444444455555555555544444555555555555",
"5555555555555555555555554444444444455555555555544444555555555555",
"5555555555555555555555544444444444455555555555544445555555555555",
"5555555555555555555555544444444444445555555555444445555555555555",
"5555555555555555555555444444444444445555555555444455555555555555",
"5555555455555555555544444444444444444555555555444455555555555555",
"5555554444444444444444444444444444444455555555444555555555555555",
"5555554444444444444444444444444444444444455544444555555555555555",
"5555544444444444444444444444444444444444444444445555555555555555",
"5555544444444444444444444444444444444444444444445555555555555555",
"5555544444444444444444444444444444444444444444445555555555555555",
"5555554444444445555554444444444444444444444444455555555555555555",
"5555554444444555555555544444444444444444444444455555555555555555",
"5555554444555555555555554444444444555555555544455555555555555555",
"5555555445555555555555555444444445555555555554455555555555555555",
"5555555555555555555555555444444455555555555554455555555555555555",
"5555555555555555555555555444444455555555555554455555555555555555",
"5555555555555555555555555544444555555555555554455555555555555555",
"5555555555555555555555555544444555555555555554455555555555555555",
"5555555555555555555555555544444555555555555555555555555555555555",
"5555555555555555555555555444444555555555555555555555555555555555",
"5555555555555555555555555444444555555555555555555555555555555555",
"5555555555555555555555555444444555555555555555555555555555555555",
"5555555555555555555555554444444455555555555555555555555555555555",
"5555555555555555555555554444444455555555555555555555555555555555",
"5555555555555555555555544444444445555555555555555555555555555555",
"5555555555555555555555544444444444555555555555555555555555555555",
"5555555555555555555555444444444444555555555555555555555555555555",
"5555555555555555555554444444444444455555555555555555555555555555",
"5555555555555555555544444444444444445555555555555555555555555555",
"5555555555555555554444444444454444444455555555555555555555555555",
"5555555555555544444444444444454444444444555555555555555555555555",
"5555555555555544444444444444455444444444455555555555555555555555",
"5555555555555554444444444444555444444444444455555555555555555555",
"5555555555555554444444444444555544444444444555555555555555555555",
"5555555555555555444444444445555554444444445555555555555555555555",
"5555555555555555554444444555555555544444455555555555555555555555"
};
