/* XPM */
static char *_574332616406[] = {
/* columns rows colors chars-per-pixel */
"64 64 12 1 ",
"  c #2F34B5",
". c #2F35B5",
"X c #2F34B6",
"o c #2F35B6",
"O c #2F34B7",
"+ c #2F35B7",
"@ c #3033B6",
"# c #3034B6",
"$ c #3035B6",
"% c #3034B7",
"& c #3035B7",
"* c None",
/* pixels */
"****************************************************************",
"****************************************************************",
"****************************************************************",
"****************************************************************",
"****************************************************************",
"****************************************************************",
"****************************************************************",
"****************************************************************",
"****************************************************************",
"****************************************************************",
"****************************************************************",
"****************************************************************",
"****************************************************************",
"****************************************************************",
"***************************%&&&&&&%*****************************",
"***********************X&&$%&&&&&&%$&&&*************************",
"*********************%%$&&&&&&&&&&&&&&&&o$**********************",
"*******************X+&&&&&&&&&&&&&&&&&&&&&$*********************",
"*****************o$&&&&&&&&&&&&&&&&&&&&&&&&X%*******************",
"****************%$&&&&&&&&&&&&&&&&&&&&&&&&&&$$X*****************",
"***************%&&&&&&&&&&&&&&&&&&&&&&&&&&&&&&&%****************",
"*************oo&&&&&&&&&&&&&&&&&&&&&&&&&&&&&&&&&%***************",
"*************o&&&&&&&&&&&&&&&&&&&&&&&&&&&&&&&&&&%%**************",
"************%$&&&&&&&&&&&&&&&&&&&&&&&&&&&&&&&&&&$XX*************",
"***********%&&&&&&&&&&&&&&&&&&&&&&&&&&&&&&&&&&&&&&$*************",
"**********X%&&&&&&&&&&&&&&&&&&&&&&&&&&&&&&&&&&&&&&&&************",
"**********%%&&&&&&&&&&&&&&&&&&&&&&&&&&&&&&&&&&&&&&&&+***********",
"*********X$%&&&&&&&&&&&&&&&&&&&&&&&&&&&&&&&&&&&&&&&&&***********",
"*********X&&&&&&&&&&&&&&&&&&&&&&&&&&&&&&&&&&&&&&&&&&&o**********",
"********%&&&&&&&&&&&&&&&&&&&&&&&&&&&&&&&&&&&&&&&&&&&&X**********",
"********$&&&&&&&&&&&&&&&&&&&&&&&&&&&&&&&&&&&&&&&&&&&&&X*********",
"*******X&&&&&&&&&&&&&&&&&&&&&&&&&&&&&&&&&&&&&&&&&&&&&&o*********",
"*******&&&&&&&&&&&&&&&&&&&&&&&&&&&&&&&&&&&&&&&&&&&&&&&%*********",
"*******$&&&&&&&&&&&&&&&&&&&&&&&&&&&&&&&&&&&&&&&&&&&&&&$%********",
"*******%&&&&&&&&&&&&&&&&&&&&&&&&&&&&&&&&&&&&&&&&&&&&&&&+********",
"******%&&&&&&&&&&&&&&&&&&&&&&&&&&&&&&&&&&&&&&&&&&&&&&&&&********",
"******&&&&&&&&&&&&&&&&&&&&&&&&&&&&&&&&&&&&&&&&&&&&&&&&&&********",
"******&&&&&&&&&&&&&&&&&&&&&&&&&&&&&&&&&&&&&&&&&&&&&&&&&&********",
"******&&&&&&&&&&&&&&&&&&&&&&&&&&&&&&&&&&&&&&&&&&&&&&&&&&********",
"******&&&&&&&&&&&&&&&&&&&&&&&&&&&&&&&&&&&&&&&&&&&&&&&&&&********",
"******&&&&&&&&&&&&&&&&&&&&&&&&&&&&&&&&&&&&&&&&&&&&&&&&&&********",
"******&&&&&&&&&&&&&&&&&&&&&&&&&&&&&&&&&&&&&&&&&&&&&&&&&&********",
"******%%&&&&&&&&&&&&&&&&&&&&&&&&&&&&&&&&&&&&&&&&&&&&&&&X********",
"*******$&&&&&&&&&&&&&&&&&&&&&&&&&&&&&&&&&&&&&&&&&&&&&&&&********",
"*******&&&&&&&&&&&&&&&&&&&&&&&&&&&&&&&&&&&&&&&&&&&&&&&&X********",
"*******&&&&&&&&&&&&&&&&&&&&&&&&&&&&&&&&&&&&&&&&&&&&&&&&*********",
"*******&&&&&&&&&&&&&&&&&&&&&&&&&&&&&&&&&&&&&&&&&&&&&&&X*********",
"********&&&&&&&&&&&&&&&&&&&&&&&&&&&&&&&&&&&&&&&&&&&&&&X*********",
"********X&&&&&&&&&&&&&&&&&&&&&&&&&&&&&&&&&&&&&&&&&&&&$%*********",
"********$&&&&&&&&&&&&&&&&&&&&&&&&&&&&&&&&&&&&&&&&&&&$o**********",
"*********$&&&&&&&&&&&&&&&&&&&&&&&&&&&&&&&&&&&&&&&&&&$%**********",
"**********X&&&&&&&&&&&&&&&&&&&&&&&&&&&&&&&&&&&&&&&&&%***********",
"**********&$&&&&&&&&&&&&&&&&&&&&&&&&&&&&&&&&&&&&&&&&X***********",
"***********$&&&&&&&&&&&&&&&&&&&&&&&&&&&&&&&&&&&&&&$%************",
"***********X&&&&&&&&&&&&&&&&&&&&&&&&&&&&&&&&&&&&&$o*************",
"************%&&&&&&&&&&&&&&&&&&&&&&&&&&&&&&&&&&&&%**************",
"*************%%$&&&&&&&&&&&&&&&&&&&&&&&&&&&&&&&&X***************",
"**************%X&&&&&&&&&&&&&&&&&&&&&&&&&&&&&&$%****************",
"***************X$&&&&&&&&&&&&&&&&&&&&&&&&&&$&$o*****************",
"*****************&&&&&&&&&&&&&&&&&&&&&&&&&&$&%******************",
"******************+&&&&&&&&&&&&&&&&&&&&&$&&%X*******************",
"********************oX&$&&&&&&&&&&&&&&&&$X%*********************",
"**********************XX%%&&&&&&&&&&&&o+%***********************",
"*************************%+&&&&&&&X&X***************************"
};
