/* XPM */
static char *_574758570882[] = {
/* columns rows colors chars-per-pixel */
"64 64 141 2 ",
"   c gray3",
".  c #182121",
"X  c gray16",
"o  c #313131",
"O  c #393939",
"+  c #42424A",
"@  c gray29",
"#  c gray32",
"$  c #525A5A",
"%  c #5A5A5A",
"&  c #5A6363",
"*  c gray39",
"=  c #636B6B",
"-  c gray42",
";  c #6B6B73",
":  c #6B7373",
">  c gray45",
",  c #73737B",
"<  c #737B7B",
"1  c #840000",
"2  c #8C0000",
"3  c #9C0000",
"4  c #A50000",
"5  c #AD0000",
"6  c #AD0808",
"7  c #B50000",
"8  c #BD0000",
"9  c #AD1818",
"0  c #BD1818",
"q  c #A52929",
"w  c #BD3939",
"e  c #C60000",
"r  c #CE0000",
"t  c #C60808",
"y  c #CE0808",
"u  c #D60000",
"i  c #DE1818",
"p  c #E70000",
"a  c #F70000",
"s  c #F70808",
"d  c #E73939",
"f  c #844242",
"g  c #845A5A",
"h  c #9C5252",
"j  c #AD4242",
"k  c #B55252",
"l  c #9C6363",
"z  c #846B73",
"x  c #847373",
"c  c #847B7B",
"v  c #8C7B7B",
"b  c #9C7B7B",
"n  c #B56363",
"m  c #A56B73",
"M  c #B57373",
"N  c #CE5A5A",
"B  c #CE7373",
"V  c #737B84",
"C  c #7B8484",
"Z  c #7B848C",
"A  c #848484",
"S  c #8C8484",
"D  c #84848C",
"F  c #848C8C",
"G  c gray55",
"H  c #9C8484",
"J  c #848C94",
"K  c #849494",
"L  c #8C9494",
"P  c #8C949C",
"I  c #8C9C9C",
"U  c gray58",
"Y  c #9C9494",
"T  c #949C9C",
"R  c gray61",
"E  c #AD8C8C",
"W  c #BD8C8C",
"Q  c #A59C9C",
"!  c #B59C9C",
"~  c #949CA5",
"^  c #94A5A5",
"/  c #9CA5A5",
"(  c #9CA5AD",
")  c #9CADAD",
"_  c #A5A5A5",
"`  c #A5ADAD",
"'  c gray68",
"]  c #B5ADAD",
"[  c #A5ADB5",
"{  c #A5B5B5",
"}  c #ADB5B5",
"|  c #ADB5BD",
" . c #ADBDBD",
".. c gray71",
"X. c #B5BDBD",
"o. c gray74",
"O. c #CE8C8C",
"+. c #D68C8C",
"@. c #C69C9C",
"#. c #DE9C9C",
"$. c #CEADAD",
"%. c #DEADAD",
"&. c #C6BDBD",
"*. c #B5BDC6",
"=. c #B5C6C6",
"-. c #BDC6C6",
";. c #BDC6CE",
":. c #BDCECE",
">. c #C6C6C6",
",. c #C6CECE",
"<. c #CECECE",
"1. c #D6CECE",
"2. c #C6CED6",
"3. c #D6CED6",
"4. c #C6D6D6",
"5. c #CED6D6",
"6. c #CED6DE",
"7. c #CEDEDE",
"8. c gray84",
"9. c #D6DEDE",
"0. c gray87",
"q. c #D6DEE7",
"w. c #D6E7E7",
"e. c #DEE7E7",
"r. c #D6E7EF",
"t. c #DEE7EF",
"y. c #DEEFEF",
"u. c #DEEFF7",
"i. c #E7E7E7",
"p. c #E7EFEF",
"a. c #EFEFEF",
"s. c #E7EFF7",
"d. c #EFEFF7",
"f. c #E7F7F7",
"g. c #E7F7FF",
"h. c #EFF7FF",
"j. c #EFFFFF",
"k. c gray97",
"l. c #F7FFFF",
"z. c white",
"x. c None",
/* pixels */
"x.x.x.x.x.x.x.x.x.x.x.x.x.x.x.x.x.x.x.x.x.x.x.x.x.x.x.x.x.x.x.x.x.x.x.x.x.x.x.x.x.x.x.x.x.x.x.x.x.x.x.x.x.x.x.x.x.x.x.x.x.x.x.x.",
"x.x.x.x.x.x.x.x.x.x.x.x.x.x.x.x.x.x.x.x.x.x.x.x.x.x.x.x.x.x.x.x.x.x.x.x.x.x.x.x.x.x.x.x.x.x.x.x.x.x.x.x.x.x.x.x.x.x.x.x.x.x.x.x.",
"x.x.x.x.x.x.x.x.x.x.x.x.x.x.x.x.x.x.x.x.x.x.x.x.x.x.x.x.x.x.x.x.x.x.x.x.x.x.x.x.x.x.x.x.x.x.x.x.x.x.x.x.x.x.x.x.x.x.x.x.x.x.x.x.",
"x.x.x.x.x.x.x.x.x.x.x.x.x.x.x.x.x.x.x.x.x.x.x.x.x.x.x.x.x.x.x.x.x.x.x.x.x.x.x.x.x.x.x.x.x.x.x.x.x.x.x.x.x.x.x.x.x.x.x.x.x.x.x.x.",
"x.x.x.x.x.x.x.x.x.x.x.x.x.x.x.x.x.x.x.x.x.x.x.x.x.x.x.x.x.x.x.x.x.x.x.x.x.x.x.x.x.x.x.x.x.x.x.x.x.x.x.x.x.x.x.x.x.x.x.x.x.x.x.x.",
"x.x.x.x.x.x.x.x.x.x.x.x.x.x.x.x.x.x.x.x.x.x.x.x.x.x.x.x.x.x.x.x.x.x.x.x.x.x.x.x.x.x.x.x.x.x.x.x.x.x.x.x.x.x.x.x.x.x.x.x.x.x.x.x.",
"x.x.x.x.x.x.x.x.x.x.x.x.x.x.x.x.x.x.x.x.x.x.x.x.x.x.x.x.x.x.- A A - x.x.x.x.x.x.x.x.x.x.x.x.x.x.x.x.x.x.x.x.x.x.x.x.x.x.x.x.x.x.",
"x.x.x.x.x.x.x.x.x.x.x.x.x.x.x.x.x.x.x.x.x.x.x.x.x.x.x.A <.k.z.z.z.z.k.>.G x.x.x.x.x.x.x.x.x.x.x.x.x.x.x.x.x.x.x.x.x.x.x.x.x.x.x.",
"x.x.x.x.x.x.x.x.x.x.x.x.x.x.x.x.x.x.x.x.x.x.x.x.x.U 0.z.z.z.z.z.z.z.z.z.z.0.U x.x.x.x.x.x.x.x.x.x.x.x.x.x.x.x.x.x.x.x.x.x.x.x.x.",
"x.x.x.x.x.x.x.x.x.x.x.x.x.x.x.x.x.x.x.x.x.x.x.x.>.z.z.z.z.z.z.z.z.z.z.z.z.z.z.>.x.x.x.x.x.x.x.x.x.x.x.x.x.x.x.x.x.x.x.x.x.x.x.x.",
"x.x.x.x.x.x.x.x.x.x.x.x.x.x.x.x.x.x.x.x.x.x.x.a.z.z.z.z.z.z.z.z.z.z.z.z.z.z.z.z.a.- x.x.x.x.x.x.x.x.x.x.x.x.x.x.x.x.x.x.x.x.x.x.",
"x.x.x.x.x.x.x.x.x.x.x.x.x.x.x.x.x.x.x.x.x.- a.z.z.z.z.z.z.z.z.z.z.z.z.z.z.z.z.z.z.k.- x.x.x.x.x.x.x.x.x.x.x.x.x.x.x.x.x.x.x.x.x.",
"x.x.x.x.x.x.x.x.x.x.x.x.x.x.x.x.x.x.x.x.x.p.z.z.z.z.z.z.z.z.z.z.z.z.z.z.z.z.z.z.z.z.0.x.x.x.x.x.x.x.x.x.x.x.x.x.x.x.x.x.x.x.x.x.",
"x.x.x.x.x.x.x.x.x.x.x.x.x.x.x.x.x.x.x.x.5.z.z.z.i.9.z.z.z.z.z.z.z.z.z.z.z.z.a.>.z.z.z.*.x.x.x.x.x.x.x.x.x.x.x.x.x.x.x.x.x.x.x.x.",
"x.x.x.x.x.x.x.x.x.x.x.x.x.x.x.x.x.x.x.D l.z.z.z.<.o 9.z.z.z.z.e.k.z.z.z.z.i.O >.z.z.z.l.T x.x.x.x.x.x.x.x.x.x.x.x.x.x.x.x.x.x.x.",
"x.x.x.x.x.x.x.x.x.x.x.x.x.x.x.x.x.x.x.t.l.z.z.z.z.= + U a.i./ >.3.' 8.a.} @ : k.z.z.z.l.q.x.x.x.x.x.x.x.x.x.x.x.x.x.x.x.x.x.x.x.",
"x.x.x.x.x.x.x.x.x.x.x.x.x.x.x.x.x.x.L s.j.l.z.z.z.k.R @ @ * _ z.z.o.% O # / k.z.z.z.l.j.s.T x.x.x.x.x.x.x.x.x.x.x.x.x.x.x.x.x.x.",
"x.x.x.x.x.x.x.x.x.x.x.x.x.x.x.x.x.F 2.y.f.j.l.l.z.z.z.l.X U >.z.z.i.U o i.z.z.z.l.l.j.g.y.6.U - x.x.x.x.x.x.x.x.x.x.x.x.x.x.x.x.",
"x.x.x.x.x.x.x.x.x.x.x.x.x.x.x.' k.d.7.w.y.f.h.j.l.l.z...  o ..z.z.>.o . o.z.z.l.j.j.f.u.t.q.d.k.' x.x.x.x.x.x.x.x.x.x.x.x.x.x.x.",
"x.x.x.x.x.x.x.x.x.x.x.x.x.- a.z.z.p.6.q.w.y.s.g.j.l.l.>.  . z.z.z.a..   ..l.l.j.h.f.y.r.q.6.t.z.z.a.- x.x.x.x.x.x.x.x.x.x.x.x.x.",
"x.x.x.x.x.x.x.x.x.x.x.x.A k.z.z.z.w.2.6.7.q.t.u.g.j.l.l.} 5.z.z.z.z.5.' l.l.j.h.f.y.w.7.6.4.9.z.z.z.z.G x.x.x.x.x.x.x.x.x.x.x.x.",
"x.x.x.x.x.x.x.x.x.x.x.> z.z.z.z.z.w.:.2.4.6.7.r.u.f.g.j.j.j.j.l.l.l.j.j.j.j.g.f.y.q.7.4.2.:.4.z.z.z.z.k.C x.x.x.x.x.x.x.x.x.x.x.",
"x.x.x.x.x.x.x.x.x.x.x.y.l.l.l.l.z.9.=.;.:.,.4.7.q.7.7.7.7.w.r.t.t.t.w.q.7.7.q.w.q.6.2.:.;.=.5.z.l.l.l.l.y.x.x.x.x.x.x.x.x.x.x.x.",
"x.x.x.x.x.x.x.x.x.x.{ h.g.f.s.f.f.4.X.*.=.=.-.;. .P F L T / ` { } [ / T L G L } 2.:.-.=.*.X.-.f.f.f.f.f.g.-.x.x.x.x.x.x.x.x.x.x.",
"x.x.x.x.x.x.x.x.x.: y.y.w.q.7.6.6.=.} |  . . .| S l v b H z z g x c z E H S m g } =.X. . .|  .6.6.7.7.w.t.y.< x.x.x.x.x.x.x.x.x.",
"x.x.x.x.x.x.x.x.x.^ 7.2.-. .| } | [ [ { } } } { f M U / 3.Y _ ..o.Y _ 8.' U M 1 R | } } } [ } | } |  .=.2.6.` x.x.x.x.x.x.x.x.x.",
"x.x.x.x.x.x.x.x.x.` { I F Z Z Z F T ( ` [ [ [ { f j ..} 1.>.<.-...,.o.1.} } k 2 b { [ [ [ ) ^ F Z Z F J T ` ` x.x.x.x.x.x.x.x.x.",
"x.x.x.x.x.x.x.x.x.- < < < < < < < F ~ ( ` ` [ { j q &.>.+.&.<.$.@.,.&.B >.&.q 3 b [ ` ` ) / L < < < < < < < < x.x.x.x.x.x.x.x.x.",
"x.x.x.x.x.x.x.x.x.x.$ % % % % * * C I / ) ` ` { j 6 @.<.N @.>.B B o.] w >.$.6 3 H ` ( ( / T F * * % % % % % x.x.x.x.x.x.x.x.x.x.",
"x.x.x.x.x.x.x.x.x.x.x.x.x.x.x.x.x.: F T / ( ) [ h 4 M ..w k ' w w ` n 0 $.n 5 3 Q ( / / T K , x.x.x.x.x.x.x.x.x.x.x.x.x.x.x.x.x.",
"x.x.x.x.x.x.x.x.x.x.x.x.x.x.x.x.x.* C J T / / ` M 4 9 M 7 6 b t t H 0 7 n 0 4 9 [ ~ ~ T L C * x.x.x.x.x.x.x.x.x.x.x.x.x.x.x.x.x.",
"x.x.x.x.x.x.x.x.x.x.x.x.x.x.x.x.x.x., C L T ~ / ! 6 4 5 7 7 8 y i 8 7 7 5 5 7 k / I T L C , x.x.x.x.x.x.x.x.x.x.x.x.x.x.x.x.x.x.",
"x.x.x.x.x.x.x.x.x.x.x.x.x.x.x.x.x.x.* V C L P T ` 0 5 5 7 7 8 y y 8 7 7 5 5 p W I L L Z < * x.x.x.x.x.x.x.x.x.x.x.x.x.x.x.x.x.x.",
"x.x.x.x.x.x.x.x.x.x.x.x.x.x.x.x.x.x.x.: V C F L ~ B p 7 5 7 7 8 e 8 7 5 5 u d ) F F C V : x.x.x.x.x.x.x.x.x.x.x.x.x.x.x.x.x.x.x.",
"x.x.x.x.x.x.x.x.x.x.x.x.x.x.x.x.x.x.x.x.< V C C F ' i p u 7 7 8 8 7 7 7 p s ! L C C < < # x.x.x.x.x.x.x.x.x.x.x.x.x.x.x.x.x.x.x.",
"x.x.x.x.x.x.x.x.x.x.x.x.x.x.x.x.x.x.x.x.& < < < C L O.s a u 7 8 8 7 r a a +.T C < < < & x.x.x.x.x.x.x.x.x.x.x.x.x.x.x.x.x.x.x.x.",
"x.x.x.x.x.x.x.x.x.x.x.x.x.x.x.x.x.x.x.x.x.& < < < C T +.s a r p p r a s +.^ < < < < & x.x.x.x.x.x.x.x.x.x.x.x.x.x.x.x.x.x.x.x.x.",
"x.x.x.x.x.x.x.x.x.x.x.x.x.x.x.x.x.x.x.x.x.x.% , < < < P $.d s d d a d #.T < < < < % x.x.x.x.x.x.x.x.x.x.x.x.x.x.x.x.x.x.x.x.x.x.",
"x.x.x.x.x.x.x.x.x.x.x.x.x.x.x.x.x.x.x.x.x.x.x.x.; < < < F { %.#.#.%.} F < < < : x.x.x.x.x.x.x.x.x.x.x.x.x.x.x.x.x.x.x.x.x.x.x.x.",
"x.x.x.x.x.x.x.x.x.x.x.x.x.x.x.x.x.x.x.x.x.x.x.x.x.% : < < < C F F C < < < , % x.x.x.x.x.x.x.x.x.x.x.x.x.x.x.x.x.x.x.x.x.x.x.x.x.",
"x.x.x.x.x.x.x.x.x.x.x.x.x.x.x.x.x.x.x.x.x.x.x.x.x.x.x.$ * ; < < < < : * # x.x.x.x.x.x.x.x.x.x.x.x.x.x.x.x.x.x.x.x.x.x.x.x.x.x.x.",
"x.x.x.x.x.x.x.x.x.x.x.x.x.x.x.x.x.x.x.x.x.x.x.x.x.x.x.x.x.x.x.x.x.x.x.x.x.x.x.x.x.x.x.x.x.x.x.x.x.x.x.x.x.x.x.x.x.x.x.x.x.x.x.x.",
"x.x.x.x.x.x.x.x.x.x.x.x.x.x.x.x.x.x.x.x.x.x.x.x.x.x.x.x.x.x.x.x.x.x.x.x.x.x.x.x.x.x.x.x.x.x.x.x.x.x.x.x.x.x.x.x.x.x.x.x.x.x.x.x.",
"x.x.x.x.x.x.x.x.x.x.x.x.x.x.x.x.x.x.x.x.x.x.x.x.x.x.x.x.x.x.x.x.x.x.x.x.x.x.x.x.x.x.x.x.x.x.x.x.x.x.x.x.x.x.x.x.x.x.x.x.x.x.x.x.",
"x.x.x.x.x.x.x.x.x.x.x.x.x.x.x.x.x.x.x.x.x.x.x.x.x.x.x.x.x.x.x.x.x.x.x.x.x.x.x.x.x.x.x.x.x.x.x.x.x.x.x.x.x.x.x.x.x.x.x.x.x.x.x.x.",
"x.x.x.x.x.x.x.x.x.x.x.x.x.x.x.x.x.x.x.x.x.x.x.x.x.x.x.x.x.x.x.x.x.x.x.x.x.x.x.x.x.x.x.x.x.x.x.x.x.x.x.x.x.x.x.x.x.x.x.x.x.x.x.x.",
"x.x.x.x.x.x.x.x.x.x.x.x.x.x.x.x.x.x.x.x.x.x.x.x.x.x.x.x.x.x.x.x.x.x.x.x.x.x.x.x.x.x.x.x.x.x.x.x.x.x.x.x.x.x.x.x.x.x.x.x.x.x.x.x.",
"x.x.x.x.x.x.x.x.x.x.x.x.x.x.x.x.x.x.x.x.x.x.x.x.x.x.x.x.x.x.x.x.x.x.x.x.x.x.x.x.x.x.x.x.x.x.x.x.x.x.x.x.x.x.x.x.x.x.x.x.x.x.x.x.",
"x.x.x.x.x.x.x.x.x.x.x.x.x.x.x.x.x.x.x.x.x.x.x.x.x.x.x.x.x.x.x.x.x.x.x.x.x.x.x.x.x.x.x.x.x.x.x.x.x.x.x.x.x.x.x.x.x.x.x.x.x.x.x.x.",
"x.x.x.x.x.x.x.x.x.x.x.x.x.x.x.x.x.x.x.x.x.x.x.x.x.x.x.x.x.x.x.x.x.x.x.x.x.x.x.x.x.x.x.x.x.x.x.x.x.x.x.x.x.x.x.x.x.x.x.x.x.x.x.x.",
"x.x.x.x.x.x.x.x.x.x.x.x.x.x.x.x.x.x.x.x.x.x.x.x.x.x.x.x.x.x.x.x.x.x.x.x.x.x.x.x.x.x.x.x.x.x.x.x.x.x.x.x.x.x.x.x.x.x.x.x.x.x.x.x.",
"x.x.x.x.x.x.x.x.x.x.x.x.x.x.x.x.x.x.x.x.x.x.x.x.x.x.x.x.x.x.x.x.x.x.x.x.x.x.x.x.x.x.x.x.x.x.x.x.x.x.x.x.x.x.x.x.x.x.x.x.x.x.x.x.",
"x.x.x.x.x.x.x.x.x.x.x.x.x.x.x.x.x.x.x.x.x.x.x.x.x.x.x.x.x.x.x.x.x.x.x.x.x.x.x.x.x.x.x.x.x.x.x.x.x.x.x.x.x.x.x.x.x.x.x.x.x.x.x.x.",
"x.x.x.x.x.x.x.x.x.x.x.x.x.x.x.x.x.x.x.x.x.x.x.x.x.x.x.x.x.x.x.x.x.x.x.x.x.x.x.x.x.x.x.x.x.x.x.x.x.x.x.x.x.x.x.x.x.x.x.x.x.x.x.x.",
"x.x.x.x.x.x.x.x.x.x.x.x.x.x.x.x.x.x.x.x.x.x.x.x.x.x.x.x.x.x.x.x.x.x.x.x.x.x.x.x.x.x.x.x.x.x.x.x.x.x.x.x.x.x.x.x.x.x.x.x.x.x.x.x.",
"x.x.x.x.x.x.x.x.x.x.x.x.x.x.x.x.x.x.x.x.x.x.x.x.x.x.x.x.x.x.x.x.x.x.x.x.x.x.x.x.x.x.x.x.x.x.x.x.x.x.x.x.x.x.x.x.x.x.x.x.x.x.x.x.",
"x.x.x.x.x.x.x.x.x.x.x.x.x.x.x.x.x.x.x.x.x.x.x.x.x.x.x.x.x.x.x.x.x.x.x.x.x.x.x.x.x.x.x.x.x.x.x.x.x.x.x.x.x.x.x.x.x.x.x.x.x.x.x.x.",
"x.x.x.x.x.x.x.x.x.x.x.x.x.x.x.x.x.x.x.x.x.x.x.x.x.x.x.x.x.x.x.x.x.x.x.x.x.x.x.x.x.x.x.x.x.x.x.x.x.x.x.x.x.x.x.x.x.x.x.x.x.x.x.x.",
"x.x.x.x.x.x.x.x.x.x.x.x.x.x.x.x.x.x.x.x.x.x.x.x.x.x.x.x.x.x.x.x.x.x.x.x.x.x.x.x.x.x.x.x.x.x.x.x.x.x.x.x.x.x.x.x.x.x.x.x.x.x.x.x.",
"x.x.x.x.x.x.x.x.x.x.x.x.x.x.x.x.x.x.x.x.x.x.x.x.x.x.x.x.x.x.x.x.x.x.x.x.x.x.x.x.x.x.x.x.x.x.x.x.x.x.x.x.x.x.x.x.x.x.x.x.x.x.x.x.",
"x.x.x.x.x.x.x.x.x.x.x.x.x.x.x.x.x.x.x.x.x.x.x.x.x.x.x.x.x.x.x.x.x.x.x.x.x.x.x.x.x.x.x.x.x.x.x.x.x.x.x.x.x.x.x.x.x.x.x.x.x.x.x.x.",
"x.x.x.x.x.x.x.x.x.x.x.x.x.x.x.x.x.x.x.x.x.x.x.x.x.x.x.x.x.x.x.x.x.x.x.x.x.x.x.x.x.x.x.x.x.x.x.x.x.x.x.x.x.x.x.x.x.x.x.x.x.x.x.x.",
"x.x.x.x.x.x.x.x.x.x.x.x.x.x.x.x.x.x.x.x.x.x.x.x.x.x.x.x.x.x.x.x.x.x.x.x.x.x.x.x.x.x.x.x.x.x.x.x.x.x.x.x.x.x.x.x.x.x.x.x.x.x.x.x.",
"x.x.x.x.x.x.x.x.x.x.x.x.x.x.x.x.x.x.x.x.x.x.x.x.x.x.x.x.x.x.x.x.x.x.x.x.x.x.x.x.x.x.x.x.x.x.x.x.x.x.x.x.x.x.x.x.x.x.x.x.x.x.x.x."
};
