/* XPM */
static char *_574538845765[] = {
/* columns rows colors chars-per-pixel */
"64 64 234 2 ",
"   c #010101",
".  c #00060C",
"X  c #090A0A",
"o  c #18130C",
"O  c #010910",
"+  c #141312",
"@  c #1C1C1B",
"#  c #061010",
"$  c #24190B",
"%  c #2A1C11",
"&  c #3A2715",
"*  c #252524",
"=  c #2A2A2A",
"-  c #373636",
";  c #34302A",
":  c #441907",
">  c #472B17",
",  c #4B321B",
"<  c #47311A",
"1  c #533A1D",
"2  c #573D1D",
"3  c #592B11",
"4  c #753E13",
"5  c #72380C",
"6  c #5A3E23",
"7  c #543C21",
"8  c #4B3B28",
"9  c #55441F",
"0  c #68411F",
"q  c #5C4223",
"w  c #53462D",
"e  c #674B26",
"r  c #6C4D2A",
"t  c #634726",
"y  c #73532B",
"u  c #7B562C",
"i  c #7E5B32",
"p  c #775634",
"a  c #6C4F2D",
"s  c #4B4B4B",
"d  c #454444",
"f  c gray33",
"g  c #5C5C5C",
"h  c #5B5655",
"j  c #565149",
"k  c #6C594B",
"l  c #7A6649",
"z  c #656159",
"x  c #7B6A58",
"c  c #636364",
"v  c #6A6A6A",
"b  c #6B6161",
"n  c #736E6B",
"m  c #77746C",
"M  c #737473",
"N  c #7B7A7A",
"B  c #6C737B",
"V  c #984B07",
"C  c #8E541C",
"Z  c #AF5B05",
"A  c #A96117",
"S  c #B66817",
"D  c #B5630C",
"F  c #83542A",
"G  c #955D2A",
"H  c #825E33",
"J  c #9C6127",
"K  c #856133",
"L  c #8C6435",
"P  c #896539",
"I  c #946B3A",
"U  c #996E3B",
"Y  c #976935",
"T  c #9B723A",
"R  c #96713F",
"E  c #89662E",
"W  c #A3743F",
"Q  c #A7763D",
"!  c #B4783A",
"~  c #A66B2E",
"^  c #C56202",
"/  c #CB6A02",
"(  c #D97307",
")  c #D36A03",
"_  c #E87701",
"`  c #F27F00",
"'  c #E17F13",
"]  c #C47727",
"[  c #C27B31",
"{  c #856747",
"}  c #816F59",
"|  c #937556",
" . c #956E47",
".. c #A37441",
"X. c #AB7B41",
"o. c #A97742",
"O. c #B37D43",
"+. c #B87E41",
"@. c #A27955",
"#. c #847A6B",
"$. c #F48401",
"%. c #E68416",
"&. c #CF8334",
"*. c #E99739",
"=. c #A88645",
"-. c #BA8446",
";. c #BA8548",
":. c #B68C53",
">. c #9A8166",
",. c #8A877C",
"<. c #9D8F79",
"1. c #AA8A6C",
"2. c #BB9978",
"3. c #B09471",
"4. c #B5AA6E",
"5. c #C48B4B",
"6. c #C68B48",
"7. c #CA914E",
"8. c #CA9A47",
"9. c #CC9350",
"0. c #CF9A50",
"q. c #D39654",
"w. c #D49953",
"e. c #D99B58",
"r. c #C08D53",
"t. c #E19F5B",
"y. c #E79743",
"u. c #DDA857",
"i. c #D0A84D",
"p. c #FAAA4B",
"a. c #E2B94E",
"s. c #E5A55A",
"d. c #EBAB5E",
"f. c #E5A958",
"g. c #EEB55A",
"h. c #E7BA53",
"j. c #F4B65E",
"k. c #E8AD56",
"l. c #C0996B",
"z. c #D7B47A",
"x. c #D0A771",
"c. c #E5A963",
"v. c #F1AF62",
"b. c #FCBC64",
"n. c #F7B866",
"m. c #E8B772",
"M. c #EDC558",
"N. c #FEC46B",
"B. c #FFCA6D",
"V. c #FBC764",
"C. c #FFCD72",
"Z. c #F6CC70",
"A. c #FFD272",
"S. c #FFDA75",
"D. c #FED87B",
"F. c #F5CA6A",
"G. c #FFE27F",
"H. c #7C7C81",
"J. c #7D8080",
"K. c #848484",
"L. c #8B8B8B",
"P. c #8A8787",
"I. c #948D86",
"U. c #94928D",
"Y. c #949393",
"T. c #9B9B9B",
"R. c #98999A",
"E. c #8A8F91",
"W. c #A29C93",
"Q. c #A89E93",
"!. c #B09C85",
"~. c #BEA689",
"^. c #A8A29C",
"/. c #B9AD9D",
"(. c #A4A4A4",
"). c #ACACAC",
"_. c #A8A7A6",
"`. c #B2AAA7",
"'. c #BAB3AA",
"]. c #B4B4B3",
"[. c #BDB6B5",
"{. c #BCBCBC",
"}. c #B9B8B9",
"|. c #C8AA89",
" X c #CCB39A",
".X c #D9B988",
"XX c #C6BAA6",
"oX c #C4BDB4",
"OX c #DDC996",
"+X c #D8C088",
"@X c #ECC688",
"#X c #FFDE83",
"$X c #ECCD9B",
"%X c #FFE684",
"&X c #FFE588",
"*X c #FFEE93",
"=X c #FFF59B",
"-X c #FFF297",
";X c #C4C1BA",
":X c #DBCDBD",
">X c #DDCFA8",
",X c #EDD5AF",
"<X c #FFFBA3",
"1X c #FFFEAC",
"2X c #FFE2BD",
"3X c #EDE7B0",
"4X c #BABAC0",
"5X c #C2BFC5",
"6X c #C3C3C2",
"7X c #CCCCCC",
"8X c #C9C8C7",
"9X c #D1CDCC",
"0X c #CFD1CF",
"qX c #D4D4CD",
"wX c #D9D2C5",
"eX c #CED2D6",
"rX c #D4D4D4",
"tX c #DBDBDB",
"yX c #D9D8D6",
"uX c #E5DDD7",
"iX c #E6DAC5",
"pX c #DEE0DE",
"aX c #E1E1DD",
"sX c #DDDDE3",
"dX c #E4E4E3",
"fX c #EBECEC",
"gX c #E7E6E6",
"hX c #F5F4EF",
"jX c #EDEDF3",
"kX c #F3F3F3",
"lX c #FEFEFE",
"zX c #F8F7F7",
"xX c #EDF0EA",
"cX c None",
/* pixels */
"cXcXcXcXcXcXcXcXcXcXcXcXcXcXcXcXcXcXcXcXcXcXcXcXcXcXcXcXcXcXcXcXcXcXcXcXcXcXcXcXcXcXcXcXcXcXcXcXcXcXcXcXcXcXcXcXcXcXcXcXcXcXcXcX",
"cXcXcXcXcXcXcXcXcXcXcXcXcXcXcXcXcXcXcXcXcXcXcXcXcXcXcXcXcXcXcXcXcXcXcXcXcXcXcXcXcXcXcXcXcXcXcXcXcXcXcXcXcXcXcXcXcXcXcXcXcXcXcXcX",
"cXcXcXcXcXcXcXcXcXcXcXcXcXcXcXcXcXcXcXcXcXcXcXcXcXcXcXcXcXcXcXcXcXcXcXcXcXcXcXcXcXcXcXcXcXcXcXcXcXcXcXcXcXcXcXcXcXcXcXcXcXcXcXcX",
"cXcXcXcXcXcXcXcXcXcXcXcXcXcXcXcXcXcXcXcXcXcXcXcXcXcXcXcXcXcXcXcXcXcXcXcXcXcXcXcXcXcXcXcXcXcXcXcXcXcXcXcXcXcXcXcXcXcXcXcXcXcXcXcX",
"cXcXcXcXcXcXcXcXcXcXcXcXcXcXcXcXcXcXcXcXcXcXcXcXcXcXcXcXcXcXcXcXcXcXcXcXcXcXcXcXcXcXcXcXcXcXcXcXcXcXcXcXcXcXcXcXcXcXcXcXcXcXcXcX",
"cXcXcXcXcXcXcXcXcXcXcXcXcXcXcXcXcXcXcXcXcXcXcXcXcXcXcXcXcXcXcXcXcXcXcXcXcXcXcXcXcXcXcXcXcXcXcXcXcXcXcXcXcXcXcXcXcXcXcXcXcXcXcXcX",
"cXcXcXcXcXcXcXcXcXcXcXcXcXcXcXcXcXcXcXcXcXcXcXcXcXcXcXcXcXcXcXcXcXcXcXcXcXcXcXcXcXcXcXcXcXcXcXcXcXcXcXcXcXcXcXcXcXcXcXcXcXcXcXcX",
"cXcXcXcXcXcXcXcXcXcXcXcXcXcXcXcXcXcXcXcXcXcXcXcXcXcXcXcXcXcXcXcXcXcXcXcXcXcXcXcXcXcXcXcXcXcXcXcXcXcXcXcXcXcXcXcXcXcXcXcXcXcXcXcX",
"cXcXcXcXcXcXcXcXcXcXcXcXcXcXcXcXcXcXcXcXcXcXcXcXcXcXcXcXcXcXcXcXcXcXcXcXcXcXcXcXcXcXcXcXcXcXcXcXcXcXcXcXcXcXcXcXcXcXcXcXcXcXcXcX",
"cXcXcXcXcXcXcXcXcXcXcXcXcXcXcXcXcXcXcXcXcXcXcXcXcXcXcXcXcXcXcXcXcXcXcXcXcXcXcXcXcXcXcXcXcXcXcXcXcXcXcXcXcXcXcXcXcXcXcXcXcXcXcXcX",
"cXcXcXcXcXcXcXcXcXcXcXcXcXcXcXcXcXcXcXcXcXcXcXcXcXcXcXcXc.%.l.jXdXcX).w.[ b cXcXcXcXcXcXcXcXcXcXcXcXcXcXcXcXcXcXcXcXcXcXcXcXcXcX",
"cXcXcXcXcXcXcXcXcXcXcXcXcXcXcXcXcXcXcXcXcXcXcXcXjXzXlX2Xy.( O.hXzXlX$X*.) C cXcXcXcXcXcXcXcXcXcXcXcXcXcXcXcXcXcXcXcXcXcXcXcXcXcX",
"cXcXcXcXcXcXcXcXcXcXcXcXcXcXcXcXcXcXcXcXcXcXjXlXlXlXlX$X' ) G aXlXzX@X' D W 9XrXcXcXcXcXcXcXcXcXcXcXcXcXcXcXcXcXcXcXcXcXcXcXcXcX",
"cXcXcXcXcXcXcXcXcXcXcXcXcXcXcXcXcXcXcXcXcXlXlXlXlXlXlX$X( ^ C uXzXdXc.( D ~ 5XsX8X[.cXcXcXcXcXcXcXcXcXcXcXcXcXcXcXcXcXcXcXcXcXcX",
"cXcXcXcXcXcXcXcXcXcXcXcXcXcXcXcXcXcXcXfXlXlXlXlXlXlXgXl.S ! 2.gXlXfX$Xe.~ F (.gXrXoX[.cXcXcXcXcXcXcXcXcXcXcXcXcXcXcXcXcXcXcXcXcX",
"cXcXcXcXcXcXcXcXcXcXcXcXcXcXcXcXcXcXxXkXlXlXlXlXlXrXP.b |  XxXlXlXlXkXuX!.k b ).yX0X{.[.cXcXcXcXcXcXcXcXcXcXcXcXcXcXcXcXcXcXcXcX",
"cXcXcXcXcXcXcXcXcXcXcXcXcXcXlXlXzXzXzXzXzXlXlXzX8Xv = g 7XlXlXlXlXlXlXlXsXR.d f 4XtXyXqXyXcXcXcXlXlXsXyXcXcXcXcXcXcXcXcXcXcXcXcX",
"cXcXcXcXcXcXcXcXcXcXcXcXcXcXcXlXlXlXlXlXlXlXlXrXf + s {.lXlXlXlXlXlXlXlXlXjX}.M R.yXzXlXlXlXlXlXlXlXcXcXcXcXcXcXcXcXcXcXcXcXcXcX",
"cXcXcXcXcXcXcXcXcXcXcXcXcXcXcXlXlXlXlXlXzXkXpXg +   h rXlXlXlXlXlXlXlXlXlXkXdXtX).).dXlXlXlXlXlXlXuXcXcXcXcXcXcXcXcXcXcXcXcXcXcX",
"cXcXcXcXcXcXcXcXcXcXcXcXcXcXcXrXdXfXfXdX7X].v +     d ].lXlXlXlXlXlXlXlXlXkXgXrX5XT.).rXxXlXlXkXtX(.cXcXcXcXcXcXcXcXcXcXcXcXcXcX",
"cXcXcXcXcXcXcXcXcXcXcXcXcXcXrXqX{.}.].(.Y.M +       * Y.lXlXlXlXlXlXlXlXlXkXdXrX{._.E.R.].6X6X}.R.cXcXcXcXcXcXcXcXcXcXcXcXcXcXcX",
"cXcXcXcXcXcXcXcXcXcXcXcXcXcXuXgXtX6X].].}.c X       + M kXlXlXlXlXlXlXlXlXkXdXrXoX).K.K.T._.R.K.v cXcXcXcXcXcXcXcXcXcXcXcXcXcXcX",
"cXcXcXcXcXcXcXcXcXcXcXcXcX7XdXfXkXfXgXdX{.*         o c gXlXlXlXlXlXlXlXzXkXgXrX4X_.L.N L.T.L.N v cXcXcXcXcXcXcXcXcXcXcXcXcXcXcX",
"cXcXcXcXcXcXcXcXcXcXcXcXcXqXdXfXkXlXlXxXT.          @ N tX{.(.kXlXlXlX8X_.4XpXrX{._.Y.M N T.R.K.v = cXcXcXcXcXcXcXcXcXcXcXcXcXcX",
"cXcXcXcXcXcXcXcXcXcXcXcXcXqXdXfXkXlXlXtXB         + f ).{.s = ).zXlXpXN - c 6X0X}._.Y.M M E.R.K.g @ cXcXcXcXcXcXcXcXcXcXcXcXcXcX",
"cXcXcXcXcXcXcXcXcXcXcXcXcX0XtXfXkXlXlXtXM * * = - v }.tXL.X X g gXlX).d   * R.rX}.(.Y.v v K.R.K.d   cXcXcXcXcXcXcXcXcXcXcXcXcXcX",
"cXcXcXcXcXcXcXcXcXcXcX}.4XrXtXfXzXzXlXfX).U.L._.0XkXlXrXc     s dXlXY.=   @ N rX].^.L.v g N R.N =   cXcXcXcXcXcXcXcXcXcXcXcXcXcX",
"cXcXcXcXcXcXcXcXcXcXcX[.[.7XtXdXfXkXzXfX}.rXfXkXlXlXlX0Xz   X f dXlXY.*   @ M 7X).R.J.v f v L.g     cXcXcXcXcXcXcXcXcXcXcXcXcXcX",
"cXcXcXcXcXcXcXcXcXcXcXoXoX0XrXdXfXkXkXyX(.8XrXgXfXzXlXeXv   X f dXlX_.-   @ N {._.E.N g f M N =     # # cXcXcXcXcXcXcXcXcXcXcXcX",
"cXcXcXcXcXcXcXcXcXcXcXoX[.8XrXtXgXfXkXyX(.}.0XtXgXfXkXgXR.+ + T.dXfX6Xg + - R.).(.K.M h s d -       O O cXcXcXcXcXcXcXcXcXcXcXcX",
"cXcXcXcXcXcXcXcXcXcXcX`.'.4X9XtXdXfXxXtX(.).4X0XyXpXdXdX0XL.K.rXsXuXrX_.N K.).(.E.K.c f - @ X           cXcXcXcXcXcXcXcXcXcXcXcX",
"cXcXcXcXcXcXcXcXcXcXcX`.`.{.8XrXtXgXfXyX(.R.}.6X7XrXtXsXtX0X7XtXrXeX0X5X).).(.Y.L.M g s ; +             cXcXcXcXcXcXcXcXcXcXcXcX",
"cXcXcXcXcXcXcXcXcXcXcXQ.^.}.6X7XyXtXgXtX_.L.`.XX;X8XwXwXrXyXyX0X8XoXXX'././.Q.I.,.n k d = X           . cXcXcXcXcXcXcXcXcXcXcXcX",
"cXcXcXcXcXcXcXcXcXcXcXW.W.].}.8XrXyXaXyX'.<.|..XOX>X$X>X3XiX3X,X>X+Xz.z.z.z.z.2.1.1.| k & X         . O cXcXcXcXcXcXcXcXcXcXcXcX",
"cXcXcXcXcXcXcXcXcXcXcXY.Y._.].{.8X0XyXyXXXx.V.N.A.S.&X*X=X<X<X<X*X%XG.A.B.N.j.b.v.e.9.O.r o         . . cXcXcXcXcXcXcXcXcXcXcXcX",
"cXcXcXcXcXcXcXcXcXcXcXJ.J.(._.].6X8XrX:Xm.b.N.A.G.%X=X1X1X1X1X1X1X=X*XG.S.B.V.b.v.t.q.5. .1 X       cXcXcXcXcXcXcXcXcXcXcXcXcXcX",
"cXcXcXcXcXcXcXcXcXcXcXH.B Y.(.).].6X;Xz.j.N.C.S.G.=X<X<X3X<X1X1X1X1X*XG.S.b.c.v.v.e.q.5.Q u %       cXcXcXcXcXcXcXcXcXcXcXcXcXcX",
"cXcXcXcXcXcXcXcXcXcXcXcXcXP.R.^.].]. Xc.v.N.C.S.*X=X4.w - <.1X1X1X<X*XG.Z.:.& 2 9.e.q.5.X.L 1       cXcXcXcXcXcXcXcXcXcXcXcXcXcX",
"cXcXcXcXcXcXcXcXcXcXcXcXcXN L.T.(.`.~.u.v.b.A.S.*XOXk $ q i.1X1X=X*X%XS.A.u.y & I q.9.;.X.L 6 o   cXcXcXcXcXcXcXcXcXcXcXcXcXcXcX",
"cXcXcXcXcXcXcXcXcXcXcXcXcXcX#.L.R.T.3.w.g.V.V.S.%X@Xl & E M.=X=X*X%XS.C.V.h.;.1 T q.5.-.W L t $   cXcXcXcXcXcXcXcXcXcXcXcXcXcXcX",
"cXcXcXcXcXcXcXcXcXcXcXcXcXcXn H.E.Y.1.7.s.n.b.N.S.D.:. .8.A.%X#XD.A.B.N.n.g.a.L -.7.;.X.R H 6 $   cXcXcXcXcXcXcXcXcXcXcXcXcXcXcX",
"cXcXcXcXcXcXcXcXcXcXcXcXcXcXcXn ,.K.1.7.e.d.j.b.N.B.Z.c.M.M.N.N.N.b.n.v.d.g.a.-.7.5.O.W L y 1 $ cXcXcXcXcXcXcXcXcXcXcXcXcXcXcXcX",
"cXcXcXcXcXcXcXcXcXcXcXcXcXcXcXz v m | ;.9.e.s.v.n.n.n.N.V.M.V.j.d.d.d.s.u.a.i.5.-.O...I u e , @ cXcXcXcXcXcXcXcXcXcXcXcXcXcXcXcX",
"cXcXcXcXcXcXcXcXcXcXcXcXcXcXcXj h b { Q 5.7.q.e.s.f.c.d.f.M.V.g.k.f.u.u.a.i.=.;.X...I H r 1 > = cXcXcXcXcXcXcXcXcXcXcXcXcXcXcXcX",
"cXcXcXcXcXcXcXcXcXcXcXcXcXcXcXcXd j { U ..+.6.7.7.q.0.w.w.q.i.a.a.a.a.a.i.=.T Q U I i r q , : cXcXcXcXcXcXcXcXcXcXcXcXcXcXcXcXcX",
"cXcXcXcXcXcXcXcXcXcXcXcXcXcXcXcXcXcXp U P U O.O.5.5.6.6.6.6.;.=.=.=.Q T E I T I K i r q , > 3 cXcXcXcXcXcXcXcXcXcXcXcXcXcXcXcXcX",
"cXcXcXcXcXcXcXcXcXcXcXcXcXcXcXcXcXcXcX:.U p I T W X.X.O.+.O.O.O.Q T T T T I i i y e 7 < > 8 a cXcXcXcXcXcXcXcXcXcXcXcXcXcXcXcXcX",
"cXcXcXcXcXcXcXcXcXcXcXcXcXcXcXcXcXcXcX~.7.o.p H P I U U U U U U T I I E E i y e q 1 & < 4 u cXcXcXcXcXcXcXcXcXcXcXcXcXcXcXcXcXcX",
"cXcXcXcXcXcXcXcXcXcXcXcXcXcXcXcXcXcXcX8Xz.7.;.K y y p i K H H K H i p y r t 2 1 > > 1 y l l cXcXcXcXcXcXcXcXcXcXcXcXcXcXcXcXcXcX",
"cXcXcXcXcXcXcXcXcXcXcXcXcXcXcXcXcXcXcXeXiXl.6.7.Q E a e e e e e e t 6 2 1 , > , 6 y L I { cXcXcXcXcXcXcXcXcXcXcXcXcXcXcXcXcXcXcX",
"cXcXcXcXcXcXcXcXcXcXcXcXcXcXcXcXcXcXcXeXkX:X2.:.&.-.=.I K y e e q 7 2 2 q e y F L Y  . .cXcXcXcXcXcXcXcXcXcXcXcXcXcXcXcXcXcXcXcX",
"cXcXcXcXcXcXcXcXcXcXcXcXcXcXcXcXcXcXcX7XkXzX;X2.:.-.-.-.O.W  .P L H H L L Y Y W Q @.<.I.cXcXcXcXcXcXcXcXcXcXcXcXcXcXcXcXcXcXcXcX",
"cXcXcXcXcXcXcXcXcXcXcXcXcXcXcXcXcXcXcX8XgXkXjX9X2.} K Y Q ! o.! ! +.+.o.W U  .| 1.oX7X_.cXcXcXcXcXcXcXcXcXcXcXcXcXcXcXcXcXcXcXcX",
"cXcXcXcXcXcXcXcXcXcXcXcXcXcXcXcXcXcXcX5XaXdXtXrX{.J.x I F 4 5 V L J G p l >.^.9XzXlXtXQ.cXcXcXcXcXcXcXcXcXcXcXcXcXcXcXcXcXcXcXcX",
"cXcXcXcXcXcXcXcXcXcXcXcXcXcXcXcXcXcXcX4XsXuXyX8X).H.x ..Y u H cX#.;.W <.{.tXlXlXlXkX0XW.cXcXcXcXcXcXcXcXcXcXcXcXcXcXcXcXcXcXcXcX",
"cXcXcXcXcXcXcXcXcXcXcXcXcXcXcXcXcXcXcX4XyXrX7X5X_.N g h cXcXx cXcXl cX[.6XtXlXlXlXfXrXW.cXcXcXcXcXcXcXcXcXcXcXcXcXcXcXcXcXcXcXcX",
"cXcXcXcXcXcXcXcXcXcXcXcXcXcXcXcXcXcXcX4X0X0X8X}.T.m z cXcXcXcXcXcXcXcX].{.tXzXlXlXfX9XW.cXcXcXcXcXcXcXcXcXcXcXcXcXcXcXcXcXcXcXcX",
"cXcXcXcXcXcXcXcXcXcXcXcXcXcXcXcXcXcXcX`.0XrX7X5XT.m cXcXcXcXcXcXcXcXcX].{.rXzXlXlXfX7XW.cXcXcXcXcXcXcXcXcXcXcXcXcXcXcXcXcXcXcXcX",
"cXcXcXcXcXcXcXcXcXcXcXcXcXcXcXcXcXcXcX=.x.|.|.l.>.p cXcXcXcXcXcXcXcXcX].{.rXlXlXlXjX0XW.cXcXcXcXcXcXcXcXcXcXcXcXcXcXcXcXcXcXcXcX",
"cXcXcXcXcXcXcXcXcXcXcXcXcXcXcXcXcXcXcXA ] ! ] ~ A 0 cXcXcXcXcXcXcXcXcX1.2. X2X2XiX,X X#.cXcXcXcXcXcXcXcXcXcXcXcXcXcXcXcXcXcXcXcX",
"cXcXcXcXcXcXcXcXcXcXcXcXcXcXcXcXcXcXcXA / ^ ^ Z V 5 cXcXcXcXcXcXcXcXcXS S &.p.p.p.y.[ G cXcXcXcXcXcXcXcXcXcXcXcXcXcXcXcXcXcXcXcX",
"cXcXcXcXcXcXcXcXcXcXcXcXcXcXcXcXcXcXcXI / / ^ Z Z 5 cXcXcXcXcXcXcXcXcXS ^ ) $.$.` _ ^ V cXcXcXcXcXcXcXcXcXcXcXcXcXcXcXcXcXcXcXcX",
"cXcXcXcXcXcXcXcXcXcXcXcXcXcXcXcXcXcXcXcXcXcXcXcXcXcXcXcXcXcXcXcXcXcXcXcXA ( $.%.%._ ) V cXcXcXcXcXcXcXcXcXcXcXcXcXcXcXcXcXcXcXcX",
"cXcXcXcXcXcXcXcXcXcXcXcXcXcXcXcXcXcXcXcXcXcXcXcXcXcXcXcXcXcXcXcXcXcXcXcXcXcXcXN N cXcXcXcXcXcXcXcXcXcXcXcXcXcXcXcXcXcXcXcXcXcXcX"
};
