/* XPM */
static char *_574781545675[] = {
/* columns rows colors chars-per-pixel */
"64 64 72 1 ",
"  c #B2161A",
". c #B3161A",
"X c #B2161B",
"o c #B3161B",
"O c #B2171B",
"+ c #B3171B",
"@ c #B4161A",
"# c #B4161B",
"$ c #B2171C",
"% c #B3171C",
"& c #B4171C",
"* c #B4171D",
"= c #BD171C",
"- c #BC171D",
"; c #BD171D",
": c #BE171D",
"> c #B2181C",
", c #B3181C",
"< c #B3181D",
"1 c #B3191D",
"2 c #B3181E",
"3 c #B3191E",
"4 c #B3191F",
"5 c #B4181D",
"6 c #B41A1F",
"7 c #B41B1F",
"8 c #B51B1F",
"9 c #BD181D",
"0 c #BD181E",
"q c #BE181E",
"w c #B41A20",
"e c #B51B20",
"r c #B51F23",
"t c #B61E22",
"y c #BD1B20",
"u c #BE1C22",
"i c #BE3035",
"p c #BF3237",
"a c #E31A23",
"s c #E41A23",
"d c #E31B24",
"f c #E31C24",
"g c #EC1B24",
"h c #ED1B24",
"j c #ED1B25",
"k c #EC1C24",
"l c #ED1C24",
"z c #EC1C26",
"x c #ED1C26",
"c c #EC1D27",
"v c #ED1D27",
"b c #EE353C",
"n c #EE343D",
"m c #EF343D",
"M c #EE353E",
"N c #EF353E",
"B c #EE363E",
"V c #EB969B",
"C c #ED9599",
"Z c #EC969A",
"A c #EC969B",
"S c #EC979B",
"D c #F7AFB3",
"F c #F7AFB4",
"G c #F8AEB1",
"H c #F8AEB2",
"J c #F8AFB2",
"K c #F8AFB3",
"L c #F8AFB4",
"P c #F8B0B3",
"I c #F8B0B4",
"U c None",
/* pixels */
"UUUUUUUUUUUUUUUUUUUUUUUUUUUUUUUUUUUUUUUUUUUUUUUUUUUUUUUUUUUUUUUU",
"UUUUUUUUUUUUUUUUUUUUUUUUUUUUUUUUUUUUUUUUUUUUUUUUUUUUUUUUUUUUUUUU",
"UUUUUUUUUUUUUUUUUUUUUUUUUUUUUUUUUUUUUUUUUUUUUUUUUUUUUUUUUUUUUUUU",
"UUUUUUUUUUUUUUUUUUUUUUUUUUUUUUUUUUUUUUUUUUUUUUUUUUUUUUUUUUUUUUUU",
"UUUUUUUUUUUUUUUUUUUUUUUUUUUUUUUUUUUUUUUUUUUUUUUUUUUUUUUUUUUUUUUU",
"UUUUUUUUUUUUUUUUUUUUUUUUUUUUUUUUUUUUUUUUUUUUUUUUUUUUUUUUUUUUUUUU",
"UUUUUUUUUUUUUUUUUUUUUUUUUUUUUUUUUUUUUUUUUUUUUUUUUUUUUUUUUUUUUUUU",
"UUUUUUUUUUUUUUUUUUUUUUUUUUUUUUUUUUUUUUUUUUUUUUUUUUUUUUUUUUUUUUUU",
"UUUUUUUUUU1%%o>o>>o>o>@>%1UUUUUUUUUUUU1%%o>o>o>oo>o>%1UUUUUUUUUU",
"UUUUUUUUUUoooooo  o  o  o1UUUUUUUUUUUU1ooooo  o ooooo%UUUUUUUUUU",
"UUUUUUUUUU%o    oo>>    ooUUUUUUUUUUUUo   o oooo  ooooUUUUUUUUUU",
"UUUUUUUUUU%oooo>@>@>o>@>o1UUUUUUUUUUUU@oooo>o>>@o>o>o1UUUUUUUUUU",
"UUUUUU1ootsaafZVVVVSVVVZZZw1>1UUUU11%wssafZZZSSSVVVSVZt>o7UUUUUU",
"UUUUUU1ooohhkzPPIIIIIIIIIIooooUUUUooookhgzPPIPIIPPPPII1oo1UUUUUU",
"UUUUUU>ooohhccPPIIIIIIIIIDo ooUUUU&oookhgcDPIIIIIIPPII>oooUUUUUU",
"UUUUUUoooohhhzDPPPPPPPIIIP>oo1UUUU%oookkhzGHPPPPPPIIIP1oooUUUUUU",
"UU1o>yaaaahhhkbbbnnnnMHIIIZZZZ7oo7sasszhhhbnnnnmMMHPIIZZZZi7o1UU",
"UUooo-hchhhhhhhhhhhhhzHIIIIIIIoooohhhhhhhhhhhhhhkcPIIIIIIIioooUU",
"UU%oo-hhhhhhhhhhhhhhzcIIIIIPIIoooohhhhhhhhhhhhhhhzHIIIIIILioo%UU",
"UU%oo=hhhhhhhhhhhhhhhcHDDDDHFD1ooohhhhhhhhhhhhhhhcHIHPIIILi@o1UU",
"UU> o-gghhhhhhhhhhhhhhmmmmmmmnssaahhhhhhhhhhhhhhhhnmmmHIPDi ooUU",
"UUoo -hhhhhhhhhhhhhhhhhhhhhhhhhhhhhhhhhhhhhhhhhhhhhhhcPIPDioooUU",
"UUoo -hhhhhhhhhhhhhhhhhhhhhhhhhhhhhhhhhhhhhhhhhhhhhhhzHIPFioooUU",
"UUo  -hhhhhhhhhhhhhhhhhhhhhhhhhhhhhhhhhhhhhhhhhhhhhhhzHIIFioo1UU",
"UU1o -hhhhhhhhhhhhhhhhhhhhhhhhhhhhhhhhhhhhhhhhhhhhhhhcIIIFioo>UU",
"UUoo -hhhhhhhhhhhhhhhhhhhhhhhhhhhhhhhhhhhhhhhhhhhhhhhcHIILio oUU",
"UUoo -hhhhhhhhhhhhhhhhhhhhhhhhhhhhhhhhhhhhhhhhhhhhhhhzHHIIioo%UU",
"UU>o -hhhhhhhhhhhhhhhhhhhhhhhhhhhhhhhhhhhhhhhhhhhhhhhzHDHHioo%UU",
"UU>oo-hhhhhhhhhhhhhhhhhhhhhhhhhhhhhhhhhhhhhhhhhhhhhhhhbnMb0oo>UU",
"UUooo-hhhhhhhhhhhhhhhhhhhhhhhhhhhhhhhhhhhhhhhhhhhhhhhhhhgk0oooUU",
"UU%oo-khhhhhhhhhhhhhhhhhhhhhhhhhhhhhhhhhhhhhhhhhhhhhhhhhhh-oo%UU",
"UU1oo-ghhghhhhhhhhhhhhhhhhhhhhhhhhhhhhhhhhhhhhhhhhhhhhghhh9oo1UU",
"UUUUUU99-=hhhhhhhhhzhhhhhhhhhhhhhhhhhhhhhhhhhhhhhhhhhh=--9UUUUUU",
"UUUUUUoooohhhhhhhhhhhhhhhhhhhhhhhhhhhhhhhhhhhhhhhhhhhh@oo@UUUUUU",
"UUUUUUoooohhhhhhhhhhhhhhhhhhhhhhhhhhhhhhhhhhhhhhhhhhhhooooUUUUUU",
"UUUUUU1o>ohhhhhhhhhhhhhhhhhhhhhhhhhhhhhhhhhhhhhhhhhhhko>>>UUUUUU",
"UUUUUUUUUU9--=hhhhhhhhhhhhhhhhhhhhhhhhhhhhhhhhhhhz=9-9UUUUUUUUUU",
"UUUUUUUUUU%ooohhhhhhhhhhhhhhhhhhhhhhhhhhhhhhhhhhhhooooUUUUUUUUUU",
"UUUUUUUUUU%ooohhhhhhhhhhhhhhhhhhhhhhhhhhhhhhhhhhhh@oooUUUUUUUUUU",
"UUUUUUUUUU1o>ohhhhhhhhhhhhhhhhhhhhhhhhhhhhhhhhhhhhoo>>UUUUUUUUUU",
"UUUUUUUUUUUUUU99==hhhhhhhhhhhhhhhhhhhhhhhhhhhh=---UUUUUUUUUUUUUU",
"UUUUUUUUUUUUUUooo@hhhhhhhhhhhhhhhhhhhhhhhhhhhhooo1UUUUUUUUUUUUUU",
"UUUUUUUUUUUUUU1oookhhhhhhhhhhhhhhhhhhhhhhhhhhhooooUUUUUUUUUUUUUU",
"UUUUUUUUUUUUUUo>oohhhhhhhhhhhhhhhhhhhhhhhhhhhko>>>UUUUUUUUUUUUUU",
"UUUUUUUUUUUUUUUUUU---=zhhhhhhhhhhhhhhhhhhh=---UUUUUUUUUUUUUUUUUU",
"UUUUUUUUUUUUUUUUUUoooohhhhhhhhhhhhhhhhhhhhooooUUUUUUUUUUUUUUUUUU",
"UUUUUUUUUUUUUUUUUU>ooohhhhhhhhhhhhhhhhhhhhooooUUUUUUUUUUUUUUUUUU",
"UUUUUUUUUUUUUUUUUUoooohhhhhhhhhhhhhhhhhhhhooo>UUUUUUUUUUUUUUUUUU",
"UUUUUUUUUUUUUUUUUUUUUU9--=hhhhhhhhhhhh=--9UUUUUUUUUUUUUUUUUUUUUU",
"UUUUUUUUUUUUUUUUUUUUUU>ooohhhhhhhhhhhhooo&UUUUUUUUUUUUUUUUUUUUUU",
"UUUUUUUUUUUUUUUUUUUUUU1ooohhhhhhhhhhhhooooUUUUUUUUUUUUUUUUUUUUUU",
"UUUUUUUUUUUUUUUUUUUUUUoooohhhhhhhhhhhhooo>UUUUUUUUUUUUUUUUUUUUUU",
"UUUUUUUUUUUUUUUUUUUUUUUUUU99--hhhz=-99UUUUUUUUUUUUUUUUUUUUUUUUUU",
"UUUUUUUUUUUUUUUUUUUUUUUUUUooo@hhhhooooUUUUUUUUUUUUUUUUUUUUUUUUUU",
"UUUUUUUUUUUUUUUUUUUUUUUUUU%ooohhhhooo>UUUUUUUUUUUUUUUUUUUUUUUUUU",
"UUUUUUUUUUUUUUUUUUUUUUUUUU1oo>hhhkooo1UUUUUUUUUUUUUUUUUUUUUUUUUU",
"UUUUUUUUUUUUUUUUUUUUUUUUUUUUUU99=9UUUUUUUUUUUUUUUUUUUUUUUUUUUUUU",
"UUUUUUUUUUUUUUUUUUUUUUUUUUUUUUooo@UUUUUUUUUUUUUUUUUUUUUUUUUUUUUU",
"UUUUUUUUUUUUUUUUUUUUUUUUUUUUUUooooUUUUUUUUUUUUUUUUUUUUUUUUUUUUUU",
"UUUUUUUUUUUUUUUUUUUUUUUUUUUUUU>oo>UUUUUUUUUUUUUUUUUUUUUUUUUUUUUU",
"UUUUUUUUUUUUUUUUUUUUUUUUUUUUUUUUUUUUUUUUUUUUUUUUUUUUUUUUUUUUUUUU",
"UUUUUUUUUUUUUUUUUUUUUUUUUUUUUUUUUUUUUUUUUUUUUUUUUUUUUUUUUUUUUUUU",
"UUUUUUUUUUUUUUUUUUUUUUUUUUUUUUUUUUUUUUUUUUUUUUUUUUUUUUUUUUUUUUUU",
"UUUUUUUUUUUUUUUUUUUUUUUUUUUUUUUUUUUUUUUUUUUUUUUUUUUUUUUUUUUUUUUU"
};
