/* XPM */
static char *_574766823555[] = {
/* columns rows colors chars-per-pixel */
"64 64 225 2 ",
"   c #083B0E",
".  c #1A2319",
"X  c #172016",
"o  c #0C3D13",
"O  c #123B13",
"+  c #113713",
"@  c #11280C",
"#  c #2A2E14",
"$  c #242912",
"%  c #2B3213",
"&  c #2D331A",
"*  c #313619",
"=  c #353B1C",
"-  c #3A3E1C",
";  c #252D22",
":  c #393B2A",
">  c #37372F",
",  c #3A3C3A",
"<  c #0B4315",
"1  c #0B4B16",
"2  c #0F4C1A",
"3  c #174819",
"4  c #0A5216",
"5  c #0C551A",
"6  c #0C5B1C",
"7  c #095817",
"8  c #1C541E",
"9  c #16571C",
"0  c #05430D",
"q  c #225B1A",
"w  c #3B431F",
"e  c #0C601C",
"r  c #1A6118",
"t  c #216B19",
"y  c #25741B",
"u  c #277B1A",
"i  c #1B5B22",
"p  c #195822",
"a  c #264629",
"s  c #3E4421",
"d  c #3F4B2E",
"f  c #225422",
"g  c #225A25",
"h  c #265B2B",
"j  c #345336",
"k  c #1A6B26",
"l  c #196826",
"z  c #177529",
"x  c #137227",
"c  c #236A2A",
"v  c #2E6A2E",
"b  c #276527",
"n  c #2D732B",
"m  c #297927",
"M  c #297933",
"N  c #327435",
"B  c #377D3A",
"V  c #316E32",
"C  c #424624",
"Z  c #454A25",
"A  c #464A2A",
"S  c #4D532B",
"D  c #495226",
"F  c #565C2E",
"G  c #444834",
"H  c #4B5433",
"J  c #595E33",
"K  c #5D6333",
"L  c #5C6539",
"P  c #646C35",
"I  c #646C37",
"U  c #6C733B",
"Y  c #6A7339",
"T  c #727C3D",
"R  c #73773E",
"E  c #464646",
"W  c #4C4D49",
"Q  c #464943",
"!  c #4B544A",
"~  c #5C5E4B",
"^  c #54554B",
"/  c #585858",
"(  c #48674B",
")  c #487B4A",
"_  c #546255",
"`  c #676B45",
"'  c #727C44",
"]  c #727B4C",
"[  c #6E7254",
"{  c #757A56",
"}  c #666950",
"|  c #676866",
" . c #687168",
".. c #737464",
"X. c #747473",
"o. c #7C7C7A",
"O. c #7B7C77",
"+. c #2A841A",
"@. c #2D8B1E",
"#. c #1B8A29",
"$. c #149C26",
"%. c #189528",
"&. c #25852C",
"*. c #2A882B",
"=. c #338B29",
"-. c #3A982A",
";. c #2D8436",
":. c #2C8A35",
">. c #2E833B",
",. c #268432",
"<. c #358335",
"1. c #3B8E33",
"2. c #34843A",
"3. c #398939",
"4. c #269834",
"5. c #36923E",
"6. c #1AA32C",
"7. c #1BA62C",
"8. c #1DA532",
"9. c #26A837",
"0. c #28B139",
"q. c #31A13D",
"w. c #418B3C",
"e. c #419239",
"r. c #78843E",
"t. c #46A238",
"y. c #3B8942",
"u. c #399640",
"i. c #38B546",
"p. c #35A544",
"a. c #468E47",
"s. c #499646",
"d. c #598E57",
"f. c #499251",
"g. c #56985C",
"h. c #50814B",
"j. c #7B8443",
"k. c #7B8749",
"l. c #48A947",
"z. c #55A44A",
"x. c #56A552",
"c. c #4DB156",
"v. c #67B05E",
"b. c #6A856D",
"n. c #758E74",
"m. c #5CA964",
"M. c #6BB568",
"N. c #79B26F",
"B. c #6BA372",
"V. c #7CB876",
"C. c #70AC6E",
"Z. c #848D4A",
"A. c #808A46",
"S. c #86924A",
"D. c #8B9453",
"F. c #939B54",
"G. c #858A57",
"H. c #9BA45B",
"J. c #9BA758",
"K. c #A8B15E",
"L. c #828769",
"P. c #979D67",
"I. c #999D77",
"U. c #898E70",
"Y. c #9EA665",
"T. c #9FA572",
"R. c #ABB563",
"E. c #AEB869",
"W. c #B2BC6B",
"Q. c #ACB46B",
"!. c #BCC86C",
"~. c #B7C172",
"^. c #C2CC72",
"/. c #C6D273",
"(. c #CBD578",
"). c #7C8B80",
"_. c #8A8B8A",
"`. c #868883",
"'. c #8A9888",
"]. c #969888",
"[. c #929292",
"{. c #9C9C9B",
"}. c #969A97",
"|. c #89A987",
" X c #88B885",
".X c #9DA39A",
"XX c #97B996",
"oX c #94A98F",
"OX c #A2A399",
"+X c #A8B291",
"@X c #9EBFA1",
"#X c #A3A4A3",
"$X c #ABACAA",
"%X c #A6AAA4",
"&X c #B1B1AC",
"*X c #B4B5B4",
"=X c #BABCBA",
"-X c #B5B9B3",
";X c #A9B5A6",
":X c #96C593",
">X c #A3CB9F",
",X c #A8C3AA",
"<X c #BACAB7",
"1X c #B7CBB6",
"2X c #C1C1BF",
"3X c #C2DCBC",
"4X c #BED1C1",
"5X c #C3C4C3",
"6X c #CCCCCC",
"7X c #CACBC7",
"8X c #CAD9CA",
"9X c LightGray",
"0X c #DCDDDC",
"qX c #D8DBD7",
"wX c #D0D3CF",
"eX c #DBE3DA",
"rX c #E0EBDE",
"tX c #E3E4E3",
"yX c #ECEDEC",
"uX c #E0E8E0",
"iX c #EBF2EB",
"pX c #F3F4F3",
"aX c #FAFAFA",
"sX c #F5F9F5",
"dX c None",
/* pixels */
"dXdXdXdXdXdXdXdXdXdXdXdXdXdXdXdXdXdXdXdXdXdXdXdXdXdXdXdXdXdXdXdXdXdXdXdXdXdXdXdXdXdXdXdXdXdXdXdXdXdXdXdXdXdXdXdXdXdXdXdXdXdXdXdX",
"dXdXdXdXdXdXdXdXdXdXdXdXdXdXdXdXdXdXdXdXdXdXdXdXdXdXdXdXdXdXdXdXdXdXdXdXdXdXdXdXdXdXdXdXdXdXdXdXdXdXdXdXdXdXdXdXdXdXdXdXdXdXdXdX",
"dXdXdXdXdXdXdXdXdXdXdXdXdXdXdXdXdXdXdXdXdXdXdXdXdXdXdXdXdXdXdXdXdXdXdXdXdXdXdXdXdXdXdXdXdXdXdXdXdXdXdXdXdXdXdXdXdXdXdXdXdXdXdXdX",
"dXdXdXdXdXdXdXdXdXdXdXdXdXdXdXdXdXdXdXdXdXdXdXdXdXdXdXdXdXdXdXdXdXdXdXdXdXdXdXdXdXdXdXdXdXdXdXdXdXdXdXdXdXdXdXdXdXdXdXdXdXdXdXdX",
"dXdXdXdXdXdXdXdXdXdXdXdXdXdXdXdXdXdXdXdXdXdXdXdXdXdXdXdXdXdXdXdXdXdXdXdXdXdXdXdXdXdXdXdXdXdXdXdXdXdXdXdXdXdXdXdXdXdXdXdXdXdXdXdX",
"dXdXdXdXdXdXdXdXdXdXdXdXdXdXdXdXdXdXdXdXdXdXdXdXdXdXdXdXdXdXdXdXdXdXdXdXdXdXdXdXdXdXdXdXdXdXdXdXdXdXdXdXdXdXdXdXdXdXdXdXdXdXdXdX",
"dXdXdXdXdXdXdXdXdXdXdXdXdXdXdXdXdXdXdXdXdXdXdXdXdXdXdXdXdXdXdXdXdXdXdXdXdXdXdXdXdXdXdXdXdXdXdXdXdXdXdXdXdXdXdXdXdXdXdXdXdXdXdXdX",
"dXdXdXdXdXdXdXdXdXdXdXdXdXdXdXdXdXdXdXdXdXdXdXdXdXdXdXdXdXdXdXdXdXdXdXdXdXdXdXdXdXdXdXdXdXdXdXdXdXdXdXdXdXdXdXdXdXdXdXdXdXdXdXdX",
"dXdXdXdXdXdXdXdXdXdXdXdXdXdXdXdXdXdXdXdXdXdXdXdXdXdXdXdXdXdXdXdXdXdXdXdXdXdXdXdXdXdXdXdXdXdXdXdXdXdXdXdXdXdXdXdXdXdXdXdXdXdXdXdX",
"dXdXdXdXdXdXdXdXdXdXdXdXdXdXdXdXdXdXdXdXdXdXdXdXdXdXdXdXdXdXdXdXdXdXdXdXdXdXdXdXdXdXdXdXdXdXdXdXdXdXdXdXdXdXdXdXdXdXdXdXdXdXdXdX",
"dXdXdXdXdXdXdXdXdXdXdXdXdXdXdXdXdXdXdXdXdXdXdXdXdXdXdXdXdXdXdXdXdXdXdXdXdXdXdXdXdXdXdXdXdXdXdXdXdXdXdXdXdXdXdXdXdXdXdXdXdXdXdXdX",
"dXdXdXdXdXdXdXdXdXdXdXdXdXdXdXdXdXdXdXdXdXdXdXdXdXdXdXdXdXdXdXdXdXdXdXdXdXdXdXdXdXdXdXdXdXdXdXdXdXdXdXdXdXdXdXdXdXdXdXdXdXdXdXdX",
"dXdXdXdXdXdXdXdXdXdXdXdXdXdXdXdXdXdXdXdXdXdXdXdXdXdXdXdXdXdXdXdXdXdXdXdXdXdXdXdXdXdXdXdXdXdXdXdXdXdXdXdXdXdXdXdXdXdXdXdXdXdXdXdX",
"dXdXdXdXdXdXdXdXdXdXdXdXdXdXdXdXdXdXdXdXdXdXdXdXdXdXdXdXdXdXdXdXdXdXdXdXdXdXdXdXdXdXdXdXdXdXdXdXdXdXdXdXdXdXdXdXdXdXdXdXdXdXdXdX",
"dXdXdXdXdXdXdXdXdXdXdXdXdXdXdXdXdXdXdXdXdXdXdXdXdXdXdXdXdXdXdXdXdXdXdXdXdXdXdXdXdXdXdXdXdXdXdXdXdXdXdXdXdXdXdXdXdXdXdXdXdXdXdXdX",
"dXdXdXdXdXdXdXdXdXdXdXdXdXdXdXdXdXdXdXdXdXdXdXdXdXdXdXdXdXdXdXdXdXdXdXdXdXdXdXdXdXdXdXdXdXdXdXdXdXdXdXdXdXdXdXdXdXdXdXdXdXdXdXdX",
"dXdXdXdXdXdXdXdXdXdXdXdXdXdXdXdXdXdXdXdXdXdXdXdXdXdXdXdXdXdXdXdXdXdXdXdXdXdXdXdXdXdXdXdXdXdXdXdXdXdXdXdXdXdXdXdXdXdXdXdXdXdXdXdX",
"dXdXdXdXdXdXdXdXdXdXdXdXdXdXdXdXdXdXdXdXdXdXdXdXdXdXdXdXdXdXdXdXdXdXdXdXdXdXdXdXdXdXdXdXdXdXdXdXdXdXdXdXdXdXdXdXdXdXdXdXdXdXdXdX",
"dXdXdXdXdXdXdXdXdXdXdXdXdXdXdXdXdXdXdXdXdXdXdXdXdXdXdXdXdXdXdXdXdXdXdXdXdXdXdXdXdXdXdXdXdXdXdXdXdXdXdXdXdXdXdXdXdXdXdXdXdXdXdXdX",
"dXdXdXdXdXdXdXdXdXdXdXdXdXdXdXdXdXdXdXdXdXdXdXdXdXdXdXdXdXdXdXdXdXdXdXdXdXdXdXdXdXdXdXdXdXdXdXdXdXdXdXdXdXdXdXdXdXdXdXdXdXdXdXdX",
"dXdXdXdXdXdXdXdXdXdXdXdXdXdXdXdXdXdXdXdXdXdXdXdXdXdXdXdXdXdXdXdXdXdXdXdXdXdXdXdXdXdXdXdXdXdXdXdXdXdXdXdXdXdXdXdXdXdXdXdXdXdXdXdX",
"dXdXdXdXdXdXdXdXdXdXdXdXdXdXdXdXdXdXdXdXdXdXdXdXdXdXdXdXdXdXdXdXdXdXdXdXdXdXdXdXdXdXdXdXdXdXdXdXdXdXdXdXdXdXdXdXdXdXdXdXdXdXdXdX",
"dXdXdXdXdXdXdXdXdXdXdXdXdXdXdXdXdXdXdXdXdXdXdXdXdXdXdXdXdXdXdXdXdXdXdXdXdXdXdXdXdXdXdXdXdXdXdXdXdXdXdXdXdXdXdXdXdXdXdXdXdXdXdXdX",
"dXdXdXdXdXdXdXdXdXdXdXdXdXdXdXdXdXdXdXdXdXdXdXdXdXdXdXdXdXdXdXdXdXdXdXdXdXdXdXdXdXdXdXdXdXdXdXdXdXdXdXdXdXdXdXdXdXdXdXdXdXdXdXdX",
"dXdXdXdXdXdXdXdXdXdXdXdXdXdXdXdXdXdXdXdXdXdXdXdXdXdXdXdXdXdXdXdXdXdXdXdXdXdXdXdXdXdXdXdXdXdXdXdXdXdXdXdXdXdXdXdXdXdXdXdXdXdXdXdX",
"dXdXdXdXdXdXdXdXdXdXdXdXdXdXdXdXdXdXdXdXdXdXdXdXdXdXdXdXdXdXdXdXdXdXdXdXdXdXdXdXdXdXdXdXdXdXdXdXdXdXdXdXdXdXdXdXdXdXdXdXdXdXdXdX",
"dXdXdXdXdXdXdXdXdXdXdXdXdXdXdXdXdXdXdXdXdXdXdXdXdXdXdXdXdXdXdXdXdXdXdXdXdXdXdXdXdXdXdXdXdXdXdXdXdXdXdXdXdXdXdXdXdXdXdXdXdXdXdXdX",
"dXdXdXdXdXdXdXdXdXdXdXdXdXdXdXdXdXdXdXdXdXdXdXdXdXdXdXdXdXdXdXdXdXdXdXdXdXdXdXdXdXdXdXdXdXdXdXdXdXdXdXdXdXdXdXdXdXdXdXdXdXdXdXdX",
"dXdXdXdXdXdXdXdXdXdXdXdXdXdXdXdXdXdXdXdXdXdXdXdXdXdXdXdXdXdXdXdXdXdXdXdXdXdXdXdXdXdXdXdXdXdXdXdXdXdXdXdXdXdXdXdXdXdXdXdXdXdXdXdX",
"dXdXdXdXdXdXdXdXdXdXdXdXdXdXdXdXdXdXdXdXdXdXdXdXdXdXdXdXdXdXdXdXdXdXdXdXdXdXdXdXdXdXdXdXdXdXdXdXdXdXdXdXdXdXdXdXdXdXdXdXdXdXdXdX",
"dXdXdXdXdXdXdXdXdXdXdXdXdXdXdXdXdXdXdXdXdXdXdXdXdXdXdXdXdXdXdXdXdXdXdXdXdXdXdXdXdXdXdXdXdXdXdXdXdXdXdXdXdXdXdXdXdXdXdXdXdXdXdXdX",
"dXdXdXdXdXdXdXdXdXdXdXdXdXdXdXdXdXdXdXdXdXdXdXdXdXdXdXdXdXdXdXdXdXdXdXdXdXdXdXdXdXdXdXdXdXdXdXdXdXdXdXdXdXdXdXdXdXdXdXdXdXdXdXdX",
"dXdXdXdXdXdXdXdXdXdXdXdXdXdXdXdXdXdXdXdXdXdXdXdXdXdXdXdXdXr t y y q q 8 dXdXdXdXdXdXdXdXdXdXdXdXdXdXdXdXdXdXdXdXdXdXdXdXdXdXdXdX",
"dXdXdXdXdXdXdXdXdXdXdXdXdXdXdXdXdXdXdXdXdXdXdXdXdXdXdXq t r u u n t b 8 2 o dXdXdXdXdXdXdXdXdXdXdXdXdXdXdXdXdXdXdXdXdXdXdXdXdXdX",
"dXdXdXdXdXdXdXdXdXdXdXdXdXdXdXdXdXdXdXdXdXdXdXdX3 t m u =.*.=.1.e.:.M c p 5 5 < dXdXdXdXdXdXdXdXdXdXdXdXdXdXdXdXdXdXdXdXdXdXdXdX",
"dXdXdXdXdXdXdXdXdXdXdXdXdXdXdXdXdXdXdXdXdXdXdXg b n <.1.=.=.=.:.<.L 2.M l p 6 1 < dXdXdXdXdXdXdXdXdXdXdXdXdXdXdXdXdXdXdXdXdXdXdX",
"dXdXdXdXdXdXdXdXdXdXdXdXdXdXdXdXdXdXdXdXdXdXi c n B 3.5.:.#.*.&.&.>.y.M z l 6 4 1 o dXdXdXdXdXdXdXdXdXdXdXdXdXdXdXdXdXdXdXdXdXdX",
"dXdXdXdXdXdXdXdXdXdXdXdXdXdXdXdXdXdXdXdXdXp l k M >.5.5.4.$.%.%.#.,.,.M M l 6 7 1 1 < O dXdXdXdXdXdXdXdXdXdXdXdXdXdXdXdXdXdXdXdX",
"dXdXdXdXdXdXdXdXdXdXdXdXdXdXdXdXdXdXdXdXp x z z z >.5.%.$.$.$.$.%.#.,.y.y.z e 6 4 1 2 3 O dXdXdXdXdXdXdXdXdXdXdXdXdXdXdXdXdXdXdX",
"dXdXdXdXdXdXdXdXdXdXdXdXdXdXdXdXdXdXdXb z x x z ,.y.5.8.7.7.7.7.$.$.#.z y.y.x e 7 4 1 3 8 f dXdXdXdXdXdXdXdXdXdXdXdXdXdXdXdXdXdX",
"dXdXdXdXdXdXdXdXdXdXdXdXdXdXdXdXdXdXdXk z x #.;.y.a.5.%.8.8.7.7.$.%.#.:.2.y.B z e 7 4 p g f + dXdXdXdXdXdXdXdXdXdXdXdXdXdXdXdXdX",
"dXdXdXdXdXdXdXdXdXdXdXdXdXdXdXdXdXdXg c M M ,.:.5.s.l.q.0.0.0.0.8.$.4.:.a.a.y.M k p 5 5 f f O @ dXdXdXdXdXdXdXdXdXdXdXdXdXdXdXdX",
"dXdXdXdXdXdXdXdXdXdXdXdXdXdXdXdXdX( h.g.g.f.a.s.l.z.c.c.c.i.0.0.9.8.,.:.a.a.a.3.c l p 9 f f 3 @ dXdXdXdXdXdXdXdXdXdXdXdXdXdXdXdX",
"dXdXdXdXdXdXdXdXdXdXdXdXdXdXdXdX`.oXXX@XXXXX XN.M.v.M.M.c.c.i.i.9.9.,.>.w.s.3.<.N c p 8 h q 3 @ dXdXdXdXdXdXdXdXdXdXdXdXdXdXdXdX",
"dXdXdXdXdXdXdXdXdXdXdXdXdXdXdX[.5XyXpXaXsXiXrX3X>X:X).:XM.m.c.l.p.5.:.3.w.e.u N N N h h v g 3 + + dXdXdXdXdXdXdXdXdXdXdXdXdXdXdX",
"dXdXdXdXdXdXdXdXdXdXdXdXdXdX#X7X0XyXaXaXaXaXsXpXiXrX8X>X).B.m.g.f.B s.z.t.-.+.u n v h h N c 3 O + dXdXdXdXdXdXdXdXdXdXdXdXdXdXdX",
"dXdXdXdXdXdXdXdXdXdXdXdXdX[.*X5X6X9X0XtXyXpXaXaXaXsXiXeX8X>X|.B.g.m.x.z.t.-.+.u m b v N M l 1 o a ! dXdXdXdXdXdXdXdXdXdXdXdXdXdX",
"dXdXdXdXdXdXdXdXdXdXdXdXdX{.#X$X$X$X&X-X5XwXtXyXsXsXsXsXiXeX<XXX).V.v.l.-.@.+.+.y b n N M p < o a _ dXdXdXdXdXdXdXdXdXdXdXdXdXdX",
"dXdXdXdXdXdXdXdXdXdXdXdX^ [.[.`.O.O.O.o._.#X*X5X0XyXpXaXaXpXuX8X,X>XN.z.t.@.+.u y y n N k 5 0   j  .dXdXdXdXdXdXdXdXdXdXdXdXdXdX",
"dXdXdXdXdXdXdXdXdXdXdXdXE o.X.| | ~ ^ G W / X._.$X5X0XyXpXsXaXpXuX8X:XP.z.e.=.u u y n v l 4     j b.#XdXdXdXdXdXdXdXdXdXdXdXdXdX",
"dXdXdXdXdXdXdXdXdXdXdXdX, | / | [ } H & X . ; , | ].&X7X0XyXsXaXaXpXeX3X+Xv.e.=.u y V v i 1 o o ( '.$XdXdXdXdXdXdXdXdXdXdXdXdXdX",
"dXdXdXdXdXdXdXdXdXdXdXdXW / / { Y.Q.P.A . X $ G ] T.+XOX&X2XqXtXpXpXyXrX8X2X;X|.n.d.) ) V h j ( )..X$XdXdXdXdXdXdXdXdXdXdXdXdXdX",
"dXdXdXdXdXdXdXdXdXdXdXdXdXW W ..W.>X^.R H d S ' J.~.W.I.I.OX&X2XwX0XtXtXtXqXwX<X+XoXI.B.b.b.b.).}.#X{.dXdXdXdXdXdXdXdXdXdXdXdXdX",
"dXdXdXdXdXdXdXdXdXdXdXdXdX, Q { Y.^./.K.Z.k.F.R.^.^.W.F.P.I.].].%X-X2X6X6X9X9X6X2X2X-X&X#X#X.X{.{.}._.dXdXdXdXdXdXdXdXdXdXdXdXdX",
"dXdXdXdXdXdXdXdXdXdXdXdXdXdX, ~ G.E./.!.~.~.!././.!.J.D.F.Y.P.P.L.[.{.%X&X=X2X5X4X2X=X*X*X$X#X{.[.`.X.dXdXdXdXdXdXdXdXdXdXdXdXdX",
"dXdXdXdXdXdXdXdXdXdXdXdXdXdXdXG I S.R.!./././.^.R.F.A.Z.H.J.J.S.' L.L.U._.[.{.{.{.#X#X{.{.}._.o.X.| / dXdXdXdXdXdXdXdXdXdXdXdXdX",
"dXdXdXdXdXdXdXdXdXdXdXdXdXdXdXdXC L Z.J.R.R.K.F.A.U U S.F.S.A.A.S.D.A.' [ ....X.O.O.o.o.X.X.| | / E dXdXdXdXdXdXdXdXdXdXdXdXdXdX",
"dXdXdXdXdXdXdXdXdXdXdXdXdXdXdXdXdXdXU ' ' j.' Y P P R Z.A.r.r.A.Z.j.R R U ` J ~ ~ ^ ^ ^ ^ W W W E dXdXdXdXdXdXdXdXdXdXdXdXdXdXdX",
"dXdXdXdXdXdXdXdXdXdXdXdXdXdXdXdXdXdXdXS S D A A S P T j.r.T R R R P P Y P K F S Z : : : : > > dXdXdXdXdXdXdXdXdXdXdXdXdXdXdXdXdX",
"dXdXdXdXdXdXdXdXdXdXdXdXdXdXdXdXdXdXdXdXdX* - s D S P P Y P P P F K K F S D A s : * * & & & dXdXdXdXdXdXdXdXdXdXdXdXdXdXdXdXdXdX",
"dXdXdXdXdXdXdXdXdXdXdXdXdXdXdXdXdXdXdXdXdXdX% * s Z S J J J F S D D D Z s w = = & & % # & dXdXdXdXdXdXdXdXdXdXdXdXdXdXdXdXdXdXdX",
"dXdXdXdXdXdXdXdXdXdXdXdXdXdXdXdXdXdXdXdXdXdXdXdX& - s Z Z Z C C C - - = = * % % & # # dXdXdXdXdXdXdXdXdXdXdXdXdXdXdXdXdXdXdXdXdX",
"dXdXdXdXdXdXdXdXdXdXdXdXdXdXdXdXdXdXdXdXdXdXdXdXdX# $ & % * * - * * % % % % $ . $ dXdXdXdXdXdXdXdXdXdXdXdXdXdXdXdXdXdXdXdXdXdXdX",
"dXdXdXdXdXdXdXdXdXdXdXdXdXdXdXdXdXdXdXdXdXdXdXdXdXdXdX@ $ # * % % % % # # $ dXdXdXdXdXdXdXdXdXdXdXdXdXdXdXdXdXdXdXdXdXdXdXdXdXdX"
};
